<svg width="30" height="30" viewBox="0 0 30 30" fill="none" xmlns="http://www.w3.org/2000/svg">
<path opacity="0.4" d="M26.5 15C26.5 21.3513 21.3513 26.5 15 26.5C8.64873 26.5 3.5 21.3513 3.5 15C3.5 8.64873 8.64873 3.5 15 3.5C21.3513 3.5 26.5 8.64873 26.5 15Z" fill="#7959FD" stroke="white" stroke-width="2"/>
<path d="M20 14.0625H15.9375V10C15.9375 9.4875 15.5125 9.0625 15 9.0625C14.4875 9.0625 14.0625 9.4875 14.0625 10V14.0625H10C9.4875 14.0625 9.0625 14.4875 9.0625 15C9.0625 15.5125 9.4875 15.9375 10 15.9375H14.0625V20C14.0625 20.5125 14.4875 20.9375 15 20.9375C15.5125 20.9375 15.9375 20.5125 15.9375 20V15.9375H20C20.5125 15.9375 20.9375 15.5125 20.9375 15C20.9375 14.4875 20.5125 14.0625 20 14.0625Z" fill="#7959FD"/>
</svg>
