<svg width="44" height="44" viewBox="0 0 44 44" fill="none" xmlns="http://www.w3.org/2000/svg">
<g id="edit">
<g id="Rectangle 3904" filter="url(#filter0_d_787_2233)">
<rect x="4" width="35.2222" height="35.2222" rx="17.6111" fill="white"/>
</g>
<g id="vuesax/bulk/gallery-add">
<g id="vuesax/bulk/gallery-add_2">
<g id="gallery-add">
<path id="Vector" d="M31.9996 19.9001V22.1901C31.9996 25.8301 29.8296 28.0001 26.1896 28.0001H17.8096C15.2596 28.0001 13.4196 26.9301 12.5596 25.0301L12.6696 24.9501L17.5896 21.6501C18.3896 21.1101 19.5196 21.1701 20.2296 21.7901L20.5696 22.0701C21.3496 22.7401 22.6096 22.7401 23.3896 22.0701L27.5496 18.5001C28.3296 17.8301 29.5896 17.8301 30.3696 18.5001L31.9996 19.9001Z" fill="#2C2E41"/>
<path id="Vector_2" opacity="0.4" d="M30.97 14H28.03C26.76 14 26 13.24 26 11.97V9.03C26 8.63 26.08 8.29 26.22 8C26.21 8 26.2 8 26.19 8H17.81C14.17 8 12 10.17 12 13.81V22.19C12 23.28 12.19 24.23 12.56 25.03L12.67 24.95L17.59 21.65C18.39 21.11 19.52 21.17 20.23 21.79L20.57 22.07C21.35 22.74 22.61 22.74 23.39 22.07L27.55 18.5C28.33 17.83 29.59 17.83 30.37 18.5L32 19.9V13.81C32 13.8 32 13.79 32 13.78C31.71 13.92 31.37 14 30.97 14Z" fill="#2C2E41"/>
<path id="Vector_3" d="M19.0001 16.38C20.3146 16.38 21.3801 15.3144 21.3801 14C21.3801 12.6856 20.3146 11.62 19.0001 11.62C17.6857 11.62 16.6201 12.6856 16.6201 14C16.6201 15.3144 17.6857 16.38 19.0001 16.38Z" fill="#2C2E41"/>
<path id="Vector_4" d="M30.97 7H28.03C26.76 7 26 7.76 26 9.03V11.97C26 13.24 26.76 14 28.03 14H30.97C32.24 14 33 13.24 33 11.97V9.03C33 7.76 32.24 7 30.97 7ZM31.91 10.93C31.81 11.03 31.66 11.1 31.5 11.11H30.09L30.1 12.5C30.09 12.67 30.03 12.81 29.91 12.93C29.81 13.03 29.66 13.1 29.5 13.1C29.17 13.1 28.9 12.83 28.9 12.5V11.1L27.5 11.11C27.17 11.11 26.9 10.83 26.9 10.5C26.9 10.17 27.17 9.9 27.5 9.9L28.9 9.91V8.51C28.9 8.18 29.17 7.9 29.5 7.9C29.83 7.9 30.1 8.18 30.1 8.51L30.09 9.9H31.5C31.83 9.9 32.1 10.17 32.1 10.5C32.09 10.67 32.02 10.81 31.91 10.93Z" fill="#2C2E41"/>
</g>
</g>
</g>
</g>
<defs>
<filter id="filter0_d_787_2233" x="0" y="0" width="43.2227" height="43.2223" filterUnits="userSpaceOnUse" color-interpolation-filters="sRGB">
<feFlood flood-opacity="0" result="BackgroundImageFix"/>
<feColorMatrix in="SourceAlpha" type="matrix" values="0 0 0 0 0 0 0 0 0 0 0 0 0 0 0 0 0 0 127 0" result="hardAlpha"/>
<feOffset dy="4"/>
<feGaussianBlur stdDeviation="2"/>
<feComposite in2="hardAlpha" operator="out"/>
<feColorMatrix type="matrix" values="0 0 0 0 0 0 0 0 0 0 0 0 0 0 0 0 0 0 0.25 0"/>
<feBlend mode="normal" in2="BackgroundImageFix" result="effect1_dropShadow_787_2233"/>
<feBlend mode="normal" in="SourceGraphic" in2="effect1_dropShadow_787_2233" result="shape"/>
</filter>
</defs>
</svg>
