<svg width="52" height="48" viewBox="0 0 52 48" fill="none" xmlns="http://www.w3.org/2000/svg">
<g id="email">
<path id="Rectangle 3885" d="M0 5C0 2.23857 2.23858 0 5 0H50.8913C51.4436 0 51.8913 0.447715 51.8913 1V46.9555C51.8913 47.5078 51.4436 47.9555 50.8913 47.9555H5C2.23858 47.9555 0 45.717 0 42.9555V5Z" fill="#2C2E41" fill-opacity="0.2"/>
<g id="Message_alt_light">
<rect id="Rectangle 1" x="16.5" y="18" width="18" height="12" rx="2" stroke="#2C2E41"/>
<path id="Vector 3" d="M24.6877 24.639L16.5 21V28C16.5 29.1046 17.3954 30 18.5 30H32.5C33.6046 30 34.5 29.1046 34.5 28V21L26.3123 24.639C25.7951 24.8688 25.2049 24.8688 24.6877 24.639Z" fill="#2C2E41"/>
</g>
</g>
</svg>
