<svg width="40" height="40" viewBox="0 0 40 40" fill="none" xmlns="http://www.w3.org/2000/svg">
<path opacity="0.4" d="M15 12V27.9833C15 33.3333 18.3333 36.6666 23.6667 36.6666H27.9833C33.3167 36.6666 36.65 33.3333 36.65 28V12C36.6667 6.66665 33.3333 3.33331 28 3.33331H23.6667C18.3333 3.33331 15 6.66665 15 12Z" fill="#7959FD"/>
<path d="M9.28372 13.5333L3.70039 19.1167C3.21706 19.6 3.21706 20.4 3.70039 20.8833L9.28372 26.4667C9.76706 26.95 10.5671 26.95 11.0504 26.4667C11.5337 25.9833 11.5337 25.1833 11.0504 24.7L7.60039 21.25H25.4171C26.1004 21.25 26.6671 20.6833 26.6671 20C26.6671 19.3167 26.1004 18.75 25.4171 18.75H7.60039L11.0504 15.3C11.3004 15.05 11.4171 14.7333 11.4171 14.4167C11.4171 14.1 11.3004 13.7667 11.0504 13.5333C10.5671 13.0333 9.78372 13.0333 9.28372 13.5333Z" fill="#7959FD"/>
</svg>
