<svg width="35" height="35" viewBox="0 0 35 35" fill="none" xmlns="http://www.w3.org/2000/svg">
<path d="M13.1249 27.7083C13.1249 28.9333 13.3145 30.1292 13.6645 31.2375C8.06452 29.2979 3.83536 24.15 3.39786 18.1271C2.96036 11.725 6.64994 5.74584 12.6145 3.23751C14.1604 2.59584 14.9479 3.06251 15.2833 3.39792C15.6041 3.71876 16.0562 4.49167 15.4145 5.96459C14.7583 7.48126 14.4374 9.08542 14.4374 10.7479C14.452 13.7229 15.6187 16.4792 17.5145 18.5938C14.8458 20.7229 13.1249 24.0188 13.1249 27.7083Z" fill="white"/>
<path opacity="0.4" d="M30.9312 25.8417C28.0437 29.7646 23.4646 32.0687 18.5792 32.0687C18.3458 32.0687 18.1125 32.0542 17.8792 32.0396C16.4208 31.9812 15.0062 31.7042 13.6646 31.2375C13.3146 30.1292 13.125 28.9333 13.125 27.7083C13.125 24.0187 14.8458 20.7229 17.5146 18.5938C19.6583 21 22.7354 22.5604 26.1333 22.7062C27.0521 22.75 27.9708 22.6771 28.875 22.5167C30.5083 22.225 31.1646 22.8375 31.3979 23.2313C31.6458 23.625 31.9083 24.4854 30.9312 25.8417Z" fill="white"/>
</svg>
