<svg width="52" height="48" viewBox="0 0 52 48" fill="none" xmlns="http://www.w3.org/2000/svg">
<g id="subject-name">
<rect id="Rectangle 3885" width="51.8913" height="47.9555" rx="1" fill="#2C2E41" fill-opacity="0.2"/>
<g id="vuesax/bulk/book">
<g id="vuesax/bulk/book_2">
<g id="book">
<path id="Vector" opacity="0.4" d="M26 17.3V33.33C25.83 33.33 25.65 33.3 25.51 33.22L25.47 33.2C23.55 32.15 20.2 31.05 18.03 30.76L17.74 30.72C16.78 30.6 16 29.7 16 28.74V16.66C16 15.47 16.97 14.57 18.16 14.67C20.26 14.84 23.44 15.9 25.22 17.01L25.47 17.16C25.62 17.25 25.81 17.3 26 17.3Z" fill="#2C2E41"/>
<path id="Vector_2" d="M36 16.67V28.74C36 29.7 35.22 30.6 34.26 30.72L33.93 30.76C31.75 31.05 28.39 32.16 26.47 33.22C26.34 33.3 26.18 33.33 26 33.33V17.3C26.19 17.3 26.38 17.25 26.53 17.16L26.7 17.05C28.48 15.93 31.67 14.86 33.77 14.68H33.83C35.02 14.58 36 15.47 36 16.67Z" fill="#2C2E41"/>
<path id="Vector_3" d="M21.75 21.24H19.5C19.09 21.24 18.75 20.9 18.75 20.49C18.75 20.08 19.09 19.74 19.5 19.74H21.75C22.16 19.74 22.5 20.08 22.5 20.49C22.5 20.9 22.16 21.24 21.75 21.24Z" fill="#2C2E41"/>
<path id="Vector_4" d="M22.5 24.24H19.5C19.09 24.24 18.75 23.9 18.75 23.49C18.75 23.08 19.09 22.74 19.5 22.74H22.5C22.91 22.74 23.25 23.08 23.25 23.49C23.25 23.9 22.91 24.24 22.5 24.24Z" fill="#2C2E41"/>
</g>
</g>
</g>
</g>
</svg>
