<svg width="55" height="55" viewBox="0 0 55 55" fill="none" xmlns="http://www.w3.org/2000/svg">
<path opacity="0.4" d="M42.1054 49.1614L42.1054 49.1613L42.094 49.1653C40.646 49.6699 38.9621 49.9166 37.1023 49.9166H17.8981C16.0383 49.9166 14.3544 49.6699 12.9064 49.1653L12.9064 49.1651L12.8949 49.1614C10.3951 48.3575 8.45243 46.9008 7.13006 44.8832C5.80495 42.8614 5.0835 40.2463 5.0835 37.1021V17.8979C5.0835 13.8265 6.29515 10.6371 8.46621 8.46603C10.6373 6.29497 13.8267 5.08331 17.8981 5.08331H37.1023C41.1737 5.08331 44.3631 6.29497 46.5341 8.46603C48.7052 10.6371 49.9168 13.8265 49.9168 17.8979V37.1021C49.9168 40.2463 49.1954 42.8614 47.8703 44.8832C46.5479 46.9008 44.6053 48.3575 42.1054 49.1614Z" fill="#7959FD" stroke="#7959FD"/>
<path d="M42.2584 49.6374C40.7459 50.1645 39.0042 50.4167 37.1021 50.4167H17.8979C15.9959 50.4167 14.2542 50.1645 12.7417 49.6374C13.5438 43.5874 19.8688 38.8895 27.5 38.8895C35.1313 38.8895 41.4563 43.5874 42.2584 49.6374Z" fill="#7959FD"/>
<path d="M35.7042 26.5375C35.7042 31.075 32.0376 34.7645 27.5001 34.7645C22.9626 34.7645 19.2959 31.075 19.2959 26.5375C19.2959 22 22.9626 18.3333 27.5001 18.3333C32.0376 18.3333 35.7042 22 35.7042 26.5375Z" fill="#7959FD"/>
</svg>
