<svg width="179" height="162" viewBox="0 0 179 162" fill="none" xmlns="http://www.w3.org/2000/svg">
<g id="bubbles-1">
<ellipse id="Ellipse 20" rx="5.74199" ry="6.28218" transform="matrix(0.632093 0.774893 -0.866573 0.49905 154.566 66.8725)" fill="#7959FD" fill-opacity="0.22"/>
<ellipse id="Ellipse 33" rx="5.74199" ry="6.28218" transform="matrix(0.632093 0.774893 -0.866573 0.49905 117.438 33.9346)" fill="#7959FD" fill-opacity="0.22"/>
<ellipse id="Ellipse 26" rx="5.74199" ry="6.28218" transform="matrix(0.632093 0.774893 -0.866573 0.49905 146.222 40.5224)" fill="#7959FD" fill-opacity="0.22"/>
<ellipse id="Ellipse 22" rx="5.74199" ry="6.28218" transform="matrix(0.632093 0.774893 -0.866573 0.49905 132.555 85.3175)" fill="#7959FD" fill-opacity="0.22"/>
<ellipse id="Ellipse 34" rx="5.74199" ry="6.28218" transform="matrix(0.632093 0.774893 -0.866573 0.49905 102.199 48.4273)" fill="#7959FD" fill-opacity="0.22"/>
<ellipse id="Ellipse 23" rx="5.74199" ry="6.28218" transform="matrix(0.632093 0.774893 -0.866573 0.49905 110.543 103.763)" fill="#7959FD" fill-opacity="0.22"/>
<ellipse id="Ellipse 41" rx="5.74199" ry="6.28218" transform="matrix(0.632093 0.774893 -0.866573 0.49905 24.3122 69.5074)" fill="#7959FD" fill-opacity="0.22"/>
<ellipse id="Ellipse 42" rx="5.74199" ry="6.28218" transform="matrix(0.632093 0.774893 -0.866573 0.49905 44.6303 61.6024)" fill="#7959FD" fill-opacity="0.22"/>
<ellipse id="Ellipse 46" rx="5.74199" ry="6.28218" transform="matrix(0.632093 0.774893 -0.866573 0.49905 10.7663 48.4273)" fill="#7959FD" fill-opacity="0.22"/>
<ellipse id="Ellipse 47" rx="5.74199" ry="6.28218" transform="matrix(0.632093 0.774893 -0.866573 0.49905 9.07319 69.5074)" fill="#7959FD" fill-opacity="0.22"/>
<ellipse id="Ellipse 48" rx="5.74199" ry="6.28218" transform="matrix(0.632093 0.774893 -0.866573 0.49905 27.6982 45.7924)" fill="#7959FD" fill-opacity="0.22"/>
<ellipse id="Ellipse 49" rx="5.74199" ry="6.28218" transform="matrix(0.632093 0.774893 -0.866573 0.49905 17.5393 29.9821)" fill="#7959FD" fill-opacity="0.22"/>
<ellipse id="Ellipse 53" rx="5.74199" ry="6.28218" transform="matrix(0.632093 0.774893 -0.866573 0.49905 10.7663 16.8073)" fill="#7959FD" fill-opacity="0.22"/>
<ellipse id="Ellipse 50" rx="5.74199" ry="6.28218" transform="matrix(0.632093 0.774893 -0.866573 0.49905 34.4709 24.7124)" fill="#7959FD" fill-opacity="0.22"/>
<ellipse id="Ellipse 51" rx="5.74199" ry="6.28218" transform="matrix(0.632093 0.774893 -0.866573 0.49905 53.0966 16.8073)" fill="#7959FD" fill-opacity="0.22"/>
<ellipse id="Ellipse 52" rx="5.74199" ry="6.28218" transform="matrix(0.632093 0.774893 -0.866573 0.49905 73.4147 7.58455)" fill="#7959FD" fill-opacity="0.22"/>
<ellipse id="Ellipse 24" rx="5.74199" ry="6.28218" transform="matrix(0.632093 0.774893 -0.866573 0.49905 88.5314 122.208)" fill="#7959FD" fill-opacity="0.22"/>
<ellipse id="Ellipse 59" rx="5.74199" ry="6.28218" transform="matrix(0.632093 0.774893 -0.866573 0.49905 100.506 134.065)" fill="#7959FD" fill-opacity="0.22"/>
<ellipse id="Ellipse 60" rx="5.74199" ry="6.28218" transform="matrix(0.632093 0.774893 -0.866573 0.49905 119.131 130.113)" fill="#7959FD" fill-opacity="0.22"/>
<ellipse id="Ellipse 61" rx="5.74199" ry="6.28218" transform="matrix(0.632093 0.774893 -0.866573 0.49905 132.676 115.62)" fill="#7959FD" fill-opacity="0.22"/>
<ellipse id="Ellipse 62" rx="5.74199" ry="6.28218" transform="matrix(0.632093 0.774893 -0.866573 0.49905 146.222 127.478)" fill="#7959FD" fill-opacity="0.22"/>
<ellipse id="Ellipse 63" rx="5.74199" ry="6.28218" transform="matrix(0.632093 0.774893 -0.866573 0.49905 151.302 103.763)" fill="#7959FD" fill-opacity="0.22"/>
<ellipse id="Ellipse 65" rx="5.74199" ry="6.28218" transform="matrix(0.632093 0.774893 -0.866573 0.49905 164.847 95.8577)" fill="#7959FD" fill-opacity="0.22"/>
<ellipse id="Ellipse 64" rx="5.74199" ry="6.28218" transform="matrix(0.632093 0.774893 -0.866573 0.49905 163.154 116.938)" fill="#7959FD" fill-opacity="0.22"/>
<ellipse id="Ellipse 25" rx="5.74199" ry="6.28218" transform="matrix(0.632093 0.774893 -0.866573 0.49905 66.5202 140.653)" fill="#7959FD" fill-opacity="0.22"/>
<ellipse id="Ellipse 54" rx="5.74199" ry="6.28218" transform="matrix(0.632093 0.774893 -0.866573 0.49905 75.1079 153.828)" fill="#7959FD" fill-opacity="0.22"/>
<ellipse id="Ellipse 55" rx="5.74199" ry="6.28218" transform="matrix(0.632093 0.774893 -0.866573 0.49905 95.4265 153.828)" fill="#7959FD" fill-opacity="0.22"/>
<ellipse id="Ellipse 56" rx="5.74199" ry="6.28218" transform="matrix(0.632093 0.774893 -0.866573 0.49905 122.518 151.193)" fill="#7959FD" fill-opacity="0.22"/>
<ellipse id="Ellipse 57" rx="5.74199" ry="6.28218" transform="matrix(0.632093 0.774893 -0.866573 0.49905 147.915 151.193)" fill="#7959FD" fill-opacity="0.22"/>
<ellipse id="Ellipse 58" rx="5.74199" ry="6.28218" transform="matrix(0.632093 0.774893 -0.866573 0.49905 169.926 151.193)" fill="#7959FD" fill-opacity="0.22"/>
<ellipse id="Ellipse 21" rx="7.89523" ry="8.638" transform="matrix(0.632093 0.774893 -0.866573 0.49905 129.274 59.1766)" fill="#7959FD" fill-opacity="0.22"/>
<ellipse id="Ellipse 27" rx="7.89523" ry="8.638" transform="matrix(0.632093 0.774893 -0.866573 0.49905 107.263 74.9867)" fill="#7959FD" fill-opacity="0.22"/>
<ellipse id="Ellipse 28" rx="7.89523" ry="8.638" transform="matrix(0.632093 0.774893 -0.866573 0.49905 88.6374 92.1143)" fill="#7959FD" fill-opacity="0.22"/>
<ellipse id="Ellipse 29" rx="7.89523" ry="8.638" transform="matrix(0.632093 0.774893 -0.866573 0.49905 66.6257 106.607)" fill="#7959FD" fill-opacity="0.22"/>
<ellipse id="Ellipse 35" rx="7.89523" ry="8.638" transform="matrix(0.632093 0.774893 -0.866573 0.49905 80.1711 64.4466)" fill="#7959FD" fill-opacity="0.22"/>
<ellipse id="Ellipse 45" rx="7.89523" ry="8.638" transform="matrix(0.632093 0.774893 -0.866573 0.49905 93.7165 15.6987)" fill="#7959FD" fill-opacity="0.22"/>
<ellipse id="Ellipse 36" rx="7.89523" ry="8.638" transform="matrix(0.632093 0.774893 -0.866573 0.49905 66.6257 81.5744)" fill="#7959FD" fill-opacity="0.22"/>
<ellipse id="Ellipse 37" rx="7.89523" ry="8.638" transform="matrix(0.632093 0.774893 -0.866573 0.49905 42.9213 82.8919)" fill="#7959FD" fill-opacity="0.22"/>
<ellipse id="Ellipse 43" rx="7.89523" ry="8.638" transform="matrix(0.632093 0.774893 -0.866573 0.49905 56.4665 40.7316)" fill="#7959FD" fill-opacity="0.22"/>
<ellipse id="Ellipse 44" rx="7.89523" ry="8.638" transform="matrix(0.632093 0.774893 -0.866573 0.49905 75.0917 32.8263)" fill="#7959FD" fill-opacity="0.22"/>
<ellipse id="Ellipse 38" rx="7.89523" ry="8.638" transform="matrix(0.632093 0.774893 -0.866573 0.49905 34.455 101.337)" fill="#7959FD" fill-opacity="0.22"/>
<ellipse id="Ellipse 39" rx="7.89523" ry="8.638" transform="matrix(0.632093 0.774893 -0.866573 0.49905 15.8298 115.829)" fill="#7959FD" fill-opacity="0.22"/>
<ellipse id="Ellipse 40" rx="7.89523" ry="8.638" transform="matrix(0.632093 0.774893 -0.866573 0.49905 14.1366 90.7967)" fill="#7959FD" fill-opacity="0.22"/>
<ellipse id="Ellipse 30" rx="7.89523" ry="8.638" transform="matrix(0.632093 0.774893 -0.866573 0.49905 44.6139 122.417)" fill="#7959FD" fill-opacity="0.22"/>
<ellipse id="Ellipse 31" rx="7.89523" ry="8.638" transform="matrix(0.632093 0.774893 -0.866573 0.49905 19.2162 142.18)" fill="#7959FD" fill-opacity="0.22"/>
<ellipse id="Ellipse 32" rx="7.89523" ry="8.638" transform="matrix(0.632093 0.774893 -0.866573 0.49905 41.2277 151.402)" fill="#7959FD" fill-opacity="0.22"/>
</g>
</svg>
