<svg width="255" height="74" viewBox="0 0 255 74" fill="none" xmlns="http://www.w3.org/2000/svg">
<g id="edugate-logo">
<g id="EDUGATE" filter="url(#filter0_d_864_1529)">
<path d="M88.247 33.039V38H68.034V8.89H87.878V13.851H73.692V20.862H85.951V25.454H73.692V33.039H88.247ZM92.658 38V8.89H103.236C106.407 8.89 109.058 9.546 111.19 10.858C113.322 12.1427 114.921 13.892 115.987 16.106C117.053 18.2927 117.586 20.7253 117.586 23.404C117.586 26.356 116.998 28.9253 115.823 31.112C114.648 33.2987 112.98 34.9933 110.821 36.196C108.689 37.3987 106.161 38 103.236 38H92.658ZM111.887 23.404C111.887 21.518 111.545 19.8643 110.862 18.443C110.179 16.9943 109.195 15.8737 107.91 15.081C106.625 14.261 105.067 13.851 103.236 13.851H98.316V33.039H103.236C105.095 33.039 106.666 32.629 107.951 31.809C109.236 30.9617 110.206 29.8137 110.862 28.365C111.545 26.889 111.887 25.2353 111.887 23.404ZM134.348 38.205C132.024 38.205 130.043 37.8223 128.403 37.057C126.79 36.2643 125.478 35.1847 124.467 33.818C123.483 32.4513 122.758 30.907 122.294 29.185C121.829 27.4357 121.597 25.618 121.597 23.732V8.89H127.255V23.732C127.255 24.9347 127.364 26.11 127.583 27.258C127.829 28.3787 128.225 29.39 128.772 30.292C129.318 31.194 130.043 31.9047 130.945 32.424C131.847 32.9433 132.967 33.203 134.307 33.203C135.673 33.203 136.808 32.9433 137.71 32.424C138.639 31.8773 139.363 31.153 139.883 30.251C140.429 29.349 140.826 28.3377 141.072 27.217C141.318 26.069 141.441 24.9073 141.441 23.732V8.89H147.058V23.732C147.058 25.7273 146.812 27.5997 146.32 29.349C145.855 31.0983 145.103 32.6427 144.065 33.982C143.053 35.294 141.741 36.3327 140.129 37.098C138.516 37.836 136.589 38.205 134.348 38.205ZM164.852 38.205C162.966 38.205 161.175 37.8223 159.481 37.057C157.813 36.2917 156.337 35.2393 155.053 33.9C153.795 32.5333 152.811 30.948 152.101 29.144C151.39 27.34 151.035 25.3857 151.035 23.281C151.035 21.2857 151.39 19.4133 152.101 17.664C152.811 15.8873 153.809 14.3293 155.094 12.99C156.378 11.6507 157.882 10.5983 159.604 9.833C161.326 9.06767 163.198 8.685 165.221 8.685C167.954 8.685 170.291 9.27267 172.232 10.448C174.2 11.596 175.676 13.1267 176.66 15.04L172.437 18.156C171.699 16.7073 170.66 15.6003 169.321 14.835C168.009 14.0697 166.574 13.687 165.016 13.687C163.786 13.687 162.665 13.9467 161.654 14.466C160.642 14.9853 159.768 15.696 159.03 16.598C158.292 17.5 157.718 18.5387 157.308 19.714C156.925 20.8893 156.734 22.133 156.734 23.445C156.734 24.839 156.939 26.1237 157.349 27.299C157.786 28.4743 158.387 29.4993 159.153 30.374C159.945 31.2487 160.861 31.9457 161.9 32.465C162.938 32.957 164.086 33.203 165.344 33.203C166.82 33.203 168.227 32.8203 169.567 32.055C170.933 31.2897 172.204 30.169 173.38 28.693V34.269C170.947 36.893 168.104 38.205 164.852 38.205ZM172.97 27.176H167.107V23.035H177.644V38H172.97V27.176ZM190.379 8.89H196.119L206.82 38H200.998L198.292 30.743H188.124L185.459 38H179.637L190.379 8.89ZM197.267 26.766L193.249 14.753L189.067 26.766H197.267ZM229.061 13.851H219.754V38H214.137V13.851H204.83V8.89H229.061V13.851ZM252.888 33.039V38H232.675V8.89H252.519V13.851H238.333V20.862H250.592V25.454H238.333V33.039H252.888Z" fill="#33325E"/>
</g>
<path id="THE WAY TO EDUCATE" d="M142.655 48.521H140.158V55H138.651V48.521H136.154V47.19H142.655V48.521ZM150.192 47.19V55H148.685V51.667H145.143V55H143.625V47.19H145.143V50.347H148.685V47.19H150.192ZM157.244 53.669V55H151.821V47.19H157.145V48.521H153.339V50.402H156.628V51.634H153.339V53.669H157.244ZM163.356 47.212H164.764L165.655 49.797L166.557 47.212H167.954L166.612 50.765L167.602 53.251L169.813 47.19H171.463L168.339 55H167.03L165.655 51.722L164.291 55H162.982L159.869 47.19H161.497L163.719 53.251L164.687 50.765L163.356 47.212ZM173.742 47.19H175.282L178.153 55H176.591L175.865 53.053H173.137L172.422 55H170.86L173.742 47.19ZM175.59 51.986L174.512 48.763L173.39 51.986H175.59ZM179.062 47.19L180.987 50.864L182.945 47.19H184.584L181.746 52.272V55H180.239V52.25L177.412 47.19H179.062ZM193.197 48.521H190.7V55H189.193V48.521H186.696V47.19H193.197V48.521ZM197.328 55.055C196.756 55.055 196.235 54.945 195.766 54.725C195.304 54.505 194.904 54.208 194.567 53.834C194.237 53.4527 193.98 53.0273 193.797 52.558C193.613 52.0813 193.522 51.5937 193.522 51.095C193.522 50.5743 193.617 50.0793 193.808 49.61C194.006 49.1333 194.273 48.7117 194.611 48.345C194.955 47.971 195.359 47.6777 195.821 47.465C196.29 47.245 196.803 47.135 197.361 47.135C197.925 47.135 198.439 47.2487 198.901 47.476C199.37 47.7033 199.77 48.0077 200.1 48.389C200.43 48.7703 200.686 49.1957 200.87 49.665C201.053 50.1343 201.145 50.6183 201.145 51.117C201.145 51.6303 201.049 52.1253 200.859 52.602C200.668 53.0713 200.4 53.493 200.056 53.867C199.718 54.2337 199.315 54.5233 198.846 54.736C198.384 54.9487 197.878 55.055 197.328 55.055ZM195.062 51.095C195.062 51.4323 195.113 51.7587 195.216 52.074C195.318 52.3893 195.465 52.6717 195.656 52.921C195.854 53.163 196.092 53.3573 196.371 53.504C196.657 53.6433 196.979 53.713 197.339 53.713C197.705 53.713 198.032 53.6397 198.318 53.493C198.604 53.339 198.842 53.1373 199.033 52.888C199.223 52.6313 199.366 52.349 199.462 52.041C199.564 51.7257 199.616 51.4103 199.616 51.095C199.616 50.7577 199.561 50.435 199.451 50.127C199.348 49.8117 199.198 49.533 199 49.291C198.809 49.0417 198.571 48.8473 198.285 48.708C198.006 48.5613 197.691 48.488 197.339 48.488C196.965 48.488 196.635 48.565 196.349 48.719C196.07 48.8657 195.835 49.0637 195.645 49.313C195.454 49.5623 195.307 49.841 195.205 50.149C195.109 50.457 195.062 50.7723 195.062 51.095ZM210.375 53.669V55H204.952V47.19H210.276V48.521H206.47V50.402H209.759V51.634H206.47V53.669H210.375ZM211.558 55V47.19H214.396C215.247 47.19 215.958 47.366 216.53 47.718C217.102 48.0627 217.531 48.532 217.817 49.126C218.103 49.7127 218.246 50.3653 218.246 51.084C218.246 51.876 218.088 52.5653 217.773 53.152C217.458 53.7387 217.01 54.1933 216.431 54.516C215.859 54.8387 215.181 55 214.396 55H211.558ZM216.717 51.084C216.717 50.578 216.625 50.1343 216.442 49.753C216.259 49.3643 215.995 49.0637 215.65 48.851C215.305 48.631 214.887 48.521 214.396 48.521H213.076V53.669H214.396C214.895 53.669 215.316 53.559 215.661 53.339C216.006 53.1117 216.266 52.8037 216.442 52.415C216.625 52.019 216.717 51.5753 216.717 51.084ZM222.743 55.055C222.12 55.055 221.588 54.9523 221.148 54.747C220.715 54.5343 220.363 54.2447 220.092 53.878C219.828 53.5113 219.634 53.097 219.509 52.635C219.384 52.1657 219.322 51.678 219.322 51.172V47.19H220.84V51.172C220.84 51.4947 220.869 51.81 220.928 52.118C220.994 52.4187 221.1 52.69 221.247 52.932C221.394 53.174 221.588 53.3647 221.83 53.504C222.072 53.6433 222.373 53.713 222.732 53.713C223.099 53.713 223.403 53.6433 223.645 53.504C223.894 53.3573 224.089 53.163 224.228 52.921C224.375 52.679 224.481 52.4077 224.547 52.107C224.613 51.799 224.646 51.4873 224.646 51.172V47.19H226.153V51.172C226.153 51.7073 226.087 52.2097 225.955 52.679C225.83 53.1483 225.629 53.5627 225.35 53.922C225.079 54.274 224.727 54.5527 224.294 54.758C223.861 54.956 223.344 55.055 222.743 55.055ZM227.209 51.04C227.209 50.5633 227.293 50.0977 227.462 49.643C227.638 49.181 227.891 48.763 228.221 48.389C228.551 48.0077 228.954 47.707 229.431 47.487C229.908 47.2597 230.45 47.146 231.059 47.146C231.778 47.146 232.397 47.3037 232.918 47.619C233.446 47.9343 233.838 48.345 234.095 48.851L232.929 49.654C232.797 49.3607 232.625 49.1297 232.412 48.961C232.199 48.785 231.972 48.664 231.73 48.598C231.488 48.5247 231.25 48.488 231.015 48.488C230.634 48.488 230.3 48.565 230.014 48.719C229.735 48.873 229.501 49.0747 229.31 49.324C229.119 49.5733 228.976 49.852 228.881 50.16C228.793 50.468 228.749 50.776 228.749 51.084C228.749 51.4287 228.804 51.7623 228.914 52.085C229.024 52.4003 229.178 52.6827 229.376 52.932C229.581 53.174 229.823 53.3683 230.102 53.515C230.388 53.6543 230.7 53.724 231.037 53.724C231.279 53.724 231.525 53.6837 231.774 53.603C232.023 53.5223 232.254 53.394 232.467 53.218C232.68 53.042 232.845 52.8147 232.962 52.536L234.205 53.251C234.051 53.6397 233.798 53.9697 233.446 54.241C233.101 54.5123 232.713 54.7177 232.28 54.857C231.847 54.9963 231.418 55.066 230.993 55.066C230.436 55.066 229.926 54.9523 229.464 54.725C229.002 54.4903 228.602 54.1823 228.265 53.801C227.935 53.4123 227.675 52.9797 227.484 52.503C227.301 52.019 227.209 51.5313 227.209 51.04ZM237.239 47.19H238.779L241.65 55H240.088L239.362 53.053H236.634L235.919 55H234.357L237.239 47.19ZM239.087 51.986L238.009 48.763L236.887 51.986H239.087ZM247.617 48.521H245.12V55H243.613V48.521H241.116V47.19H247.617V48.521ZM254.009 53.669V55H248.586V47.19H253.91V48.521H250.104V50.402H253.393V51.634H250.104V53.669H254.009Z" fill="#8A879C"/>
<g id="Edugate">
<g id="Teacher">
<ellipse id="Ellipse 7" cx="26.1398" cy="11.9191" rx="6.22379" ry="6.31392" fill="#61E0E8"/>
<path id="Ellipse 8" d="M29.3636 27.3251C31.0204 27.3251 32.4166 25.9447 31.8739 24.3792C31.5645 23.4866 31.1144 22.6659 30.5407 21.9675C29.3735 20.5466 27.7905 19.7484 26.1398 19.7484C24.4892 19.7484 22.9061 20.5466 21.7389 21.9675C21.1652 22.6659 20.7151 23.4866 20.4057 24.3792C19.863 25.9447 21.2592 27.3251 22.916 27.3251L26.1398 27.3251H29.3636Z" fill="#61E0E8"/>
</g>
<g id="Students">
<g id="Student3">
<ellipse id="Ellipse 11" cx="46.4968" cy="50.8129" rx="6.28101" ry="6.31392" fill="#E3DA00"/>
<path id="Ellipse 12" d="M49.7183 65.6303C51.3751 65.6303 52.7713 64.2493 52.2244 62.6853C51.9121 61.7923 51.4578 60.9713 50.8786 60.2727C49.7007 58.8518 48.1031 58.0536 46.4373 58.0536C44.7714 58.0536 43.1738 58.8518 41.9959 60.2727C41.4168 60.9713 40.9624 61.7923 40.6501 62.6853C40.1032 64.2493 41.4994 65.6303 43.1562 65.6303L46.4373 65.6303H49.7183Z" fill="#E3DA00"/>
</g>
<g id="Student1">
<ellipse id="Ellipse 9" cx="6.3064" cy="50.8963" rx="6.28101" ry="6.31392" fill="#6F2FF5"/>
<path id="Ellipse 10" d="M9.56202 65.7137C11.2189 65.7137 12.6151 64.3327 12.0682 62.7687C11.7559 61.8758 11.3015 61.0547 10.7224 60.3561C9.54444 58.9352 7.94684 58.137 6.28101 58.137C4.61518 58.137 3.01758 58.9352 1.83967 60.3561C1.26052 61.0547 0.806147 61.8758 0.49386 62.7687C-0.0530738 64.3327 1.34315 65.7137 3 65.7137L6.28101 65.7137H9.56202Z" fill="#6F2FF5"/>
</g>
<g id="Student2">
<ellipse id="Ellipse 13" cx="26.3806" cy="50.8129" rx="6.28101" ry="6.31392" fill="#FF2B2B"/>
<path id="Ellipse 13_2" d="M29.8615 65.7137C31.5184 65.7137 32.9148 64.3309 32.3537 62.7719C32.0318 61.8777 31.5632 61.0556 30.9657 60.3561C29.7518 58.9352 28.1054 58.137 26.3888 58.137C24.6721 58.137 23.0257 58.9352 21.8118 60.3561C21.2143 61.0556 20.7457 61.8777 20.4238 62.7719C19.8627 64.3309 21.2592 65.7137 22.916 65.7137L26.3888 65.7137H29.8615Z" fill="#FF2B2B"/>
</g>
</g>
<path id="Rectangle 12" d="M0 31H52.7777L51.9241 32.4194C49.2114 36.9297 44.3331 39.6883 39.0699 39.6883H14.1971C9.67839 39.6883 5.40049 37.6513 2.55221 34.1433L0 31Z" fill="#33325E"/>
</g>
</g>
<defs>
<filter id="filter0_d_864_1529" x="68.0342" y="8.685" width="184.854" height="29.52" filterUnits="userSpaceOnUse" color-interpolation-filters="sRGB">
<feFlood flood-opacity="0" result="BackgroundImageFix"/>
<feColorMatrix in="SourceAlpha" type="matrix" values="0 0 0 0 0 0 0 0 0 0 0 0 0 0 0 0 0 0 127 0" result="hardAlpha"/>
<feOffset/>
<feComposite in2="hardAlpha" operator="out"/>
<feColorMatrix type="matrix" values="0 0 0 0 0 0 0 0 0 0 0 0 0 0 0 0 0 0 0.25 0"/>
<feBlend mode="normal" in2="BackgroundImageFix" result="effect1_dropShadow_864_1529"/>
<feBlend mode="normal" in="SourceGraphic" in2="effect1_dropShadow_864_1529" result="shape"/>
</filter>
</defs>
</svg>
