<svg width="145" height="145" viewBox="0 0 145 145" fill="none" xmlns="http://www.w3.org/2000/svg">
<path d="M86.4994 31.0715C86.4994 37.6225 80.7335 43 73.5351 43C66.3367 43 60.5708 37.6225 60.5708 31.0715C60.5708 24.5204 66.3367 19.1429 73.5351 19.1429C80.7335 19.1429 86.4994 24.5204 86.4994 31.0715Z" stroke="white"/>
<path d="M92.7143 66.2858C92.7143 68.7932 92.1777 70.4732 91.2757 71.614C90.3758 72.7521 89.0566 73.424 87.343 73.8014C85.6223 74.1805 83.5511 74.2524 81.2014 74.2248C80.2454 74.2136 79.2338 74.1855 78.185 74.1564C76.6929 74.115 75.1256 74.0715 73.5357 74.0715C71.9459 74.0715 70.3786 74.115 68.8865 74.1564C67.8377 74.1855 66.8261 74.2136 65.8701 74.2248C63.5203 74.2524 61.4492 74.1805 59.7285 73.8014C58.0149 73.424 56.6957 72.7521 55.7958 71.614C54.8938 70.4732 54.3572 68.7932 54.3572 66.2858C54.3572 56.2909 62.9179 48.1429 73.5357 48.1429C84.1536 48.1429 92.7143 56.2909 92.7143 66.2858Z" stroke="white"/>
<path d="M115.5 121.374C115.5 122.679 115.225 123.561 114.781 124.173C114.34 124.782 113.691 125.181 112.824 125.438C111.95 125.698 110.886 125.803 109.66 125.84C108.832 125.864 107.955 125.858 107.029 125.851C106.578 125.847 106.117 125.844 105.643 125.844C105.17 125.844 104.708 125.847 104.257 125.851C103.331 125.858 102.454 125.864 101.627 125.84C100.4 125.803 99.3357 125.698 98.4617 125.438C97.5955 125.181 96.9457 124.782 96.5047 124.173C96.0613 123.561 95.7859 122.679 95.7859 121.374C95.7859 116.18 100.179 111.935 105.643 111.935C111.107 111.935 115.5 116.18 115.5 121.374Z" stroke="white"/>
<path d="M115.5 99.0108C115.5 104.205 111.107 108.45 105.643 108.45C100.179 108.45 95.7859 104.205 95.7859 99.0108C95.7859 93.8168 100.179 89.5715 105.643 89.5715C111.107 89.5715 115.5 93.8168 115.5 99.0108Z" stroke="white"/>
<path d="M49.2143 99.0108C49.2143 104.205 44.8207 108.45 39.3571 108.45C33.8936 108.45 29.5 104.205 29.5 99.0108C29.5 93.8168 33.8936 89.5715 39.3571 89.5715C44.8207 89.5715 49.2143 93.8168 49.2143 99.0108Z" stroke="white"/>
<path d="M49.2143 121.374C49.2143 122.679 48.9388 123.561 48.4955 124.173C48.0545 124.782 47.4047 125.181 46.5385 125.438C45.6645 125.698 44.6006 125.803 43.3737 125.84C42.5462 125.864 41.6691 125.858 40.7428 125.851C40.2925 125.847 39.8306 125.844 39.3571 125.844C38.8837 125.844 38.4218 125.847 37.9715 125.851C37.0452 125.858 36.1681 125.864 35.3406 125.84C34.1137 125.803 33.0498 125.698 32.1758 125.438C31.3096 125.181 30.6598 124.782 30.2188 124.173C29.7755 123.561 29.5 122.679 29.5 121.374C29.5 116.18 33.8936 111.935 39.3571 111.935C44.8207 111.935 49.2143 116.18 49.2143 121.374Z" stroke="white"/>
<path d="M82.3571 99.0108C82.3571 104.205 77.9635 108.45 72.5 108.45C67.0364 108.45 62.6428 104.205 62.6428 99.0108C62.6428 93.8168 67.0364 89.5715 72.5 89.5715C77.9635 89.5715 82.3571 93.8168 82.3571 99.0108Z" stroke="white"/>
<path d="M82.3571 121.374C82.3571 122.679 82.0816 123.561 81.6383 124.173C81.1973 124.782 80.5475 125.181 79.6813 125.438C78.8073 125.698 77.7434 125.803 76.5165 125.84C75.689 125.864 74.8119 125.858 73.8856 125.851C73.4353 125.847 72.9734 125.844 72.5 125.844C72.0265 125.844 71.5646 125.847 71.1143 125.851C70.188 125.858 69.3109 125.864 68.4834 125.84C67.2565 125.803 66.1926 125.698 65.3186 125.438C64.4524 125.181 63.8026 124.782 63.3616 124.173C62.9183 123.561 62.6428 122.679 62.6428 121.374C62.6428 116.18 67.0364 111.935 72.5 111.935C77.9635 111.935 82.3571 116.18 82.3571 121.374Z" stroke="white"/>
</svg>
