<svg width="303" height="358" viewBox="0 0 303 358" fill="none" xmlns="http://www.w3.org/2000/svg">
<g id="no assignment placeholder">
<g id="no assignments placeholder" filter="url(#filter0_d_1179_3608)">
<g id="No Assignment placeholder">
<g id="pad">
<g id="Rectangle 3917">
<rect x="3" y="70.3381" width="213.319" height="284.897" rx="10" transform="rotate(-10 3 70.3381)" fill="#7959FD" fill-opacity="0.4"/>
<rect x="3.57923" y="70.7437" width="212.319" height="283.897" rx="9.5" transform="rotate(-10 3.57923 70.7437)" stroke="#7959FD" stroke-opacity="0.3"/>
</g>
</g>
</g>
<g id="Paper">
<g id="page">
<path id="Rectangle 72" d="M233.043 274.707C234.403 282.318 229.333 289.579 221.719 290.925L141.939 305.022C133.843 306.452 125.509 304.499 118.883 299.618L66.5088 261.034C60.3095 256.467 56.0983 249.698 54.7453 242.125L29.5735 101.248C28.2135 93.6363 33.2834 86.3754 40.8975 85.03L180.522 60.3588C188.136 59.0134 195.411 64.0931 196.771 71.7045L233.043 274.707Z" fill="#224E94"/>
<path id="Rectangle 73" d="M237.518 279.578C238.878 287.189 233.808 294.45 226.194 295.796L141.945 310.682C133.86 312.111 125.537 310.165 118.915 305.297L63.5481 264.599C57.3352 260.032 53.114 253.255 51.759 245.672L25.4103 98.2067C24.0503 90.5953 29.1202 83.3344 36.7342 81.989L183.362 56.0804C190.976 54.735 198.251 59.8146 199.611 67.4261L237.518 279.578Z" fill="#51B8F3" fill-opacity="0.2"/>
<path id="Rectangle 69" d="M245.776 290.39C247.136 298.001 242.066 305.262 234.452 306.607L142.402 322.872C134.325 324.299 126.009 322.358 119.39 317.501L58.7486 272.997C52.5257 268.43 48.2972 261.647 46.9409 254.056L18.4701 94.7148C17.1101 87.1033 22.18 79.8424 29.794 78.497L188.677 50.4229C196.291 49.0775 203.566 54.1572 204.926 61.7686L245.776 290.39Z" fill="url(#paint0_radial_1179_3608)"/>
<path id="Rectangle 70" d="M245.77 290.389C247.13 298.001 242.06 305.262 234.446 306.607L142.396 322.872C134.319 324.299 126.003 322.358 119.384 317.501L58.7427 272.997C52.5198 268.43 48.2914 261.647 46.935 254.056L18.4642 94.7146C17.1042 87.1032 22.1741 79.8422 29.7882 78.4969L188.671 50.4228C196.286 49.0774 203.56 54.157 204.92 61.7685L245.77 290.389Z" fill="url(#paint1_radial_1179_3608)"/>
</g>
<path id="Ellipse 212" d="M153.204 55.3202C150.972 43.2059 143.909 32.4997 133.569 25.5567C123.23 18.6138 110.461 16.0029 98.0715 18.2984C85.6821 20.5939 74.6872 27.6078 67.5055 37.797C60.3238 47.9863 57.5435 60.5163 59.7764 72.6306L106.49 63.9754L153.204 55.3202Z" fill="#7959FD"/>
</g>
<g id="tick discription">
<g id="tick box">
<rect id="Rectangle 3918" x="52.7578" y="116.692" width="38.0072" height="37.007" rx="5" transform="rotate(-10 52.7578 116.692)" fill="#7959FD" fill-opacity="0.3"/>
<path id="Vector" d="M71.7581 142.438C71.1471 142.546 70.524 142.407 70.0216 142.059L59.8673 135.027C58.8268 134.306 58.5709 132.855 59.3022 131.822C60.0336 130.789 61.5 130.531 62.5405 131.251L70.7932 136.966L83.7558 118.657C84.4871 117.624 85.9535 117.366 86.9941 118.086C88.0347 118.807 88.2905 120.258 87.5592 121.291L73.26 141.488C72.9069 141.986 72.3691 142.331 71.7581 142.438Z" fill="#7959FD"/>
</g>
<g id="description">
<line id="Line 14" x1="135.023" y1="216.878" x2="201.293" y2="201.578" stroke="#7959FD" stroke-opacity="0.7" stroke-width="2" stroke-linecap="round"/>
<line id="Line 15" x1="135.031" y1="222.209" x2="181.81" y2="211.409" stroke="#7959FD" stroke-opacity="0.7" stroke-width="2" stroke-linecap="round"/>
<line id="Line 16" x1="135.031" y1="228.21" x2="172.064" y2="219.66" stroke="#7959FD" stroke-opacity="0.7" stroke-width="2" stroke-linecap="round"/>
</g>
<g id="tick box_2">
<rect id="Rectangle 3918_2" x="72.0117" y="217.711" width="38.0072" height="37.007" rx="5" transform="rotate(-10 72.0117 217.711)" fill="#7959FD" fill-opacity="0.3"/>
<g id="cross">
<path id="Vector_2" d="M104.53 243.299C103.681 243.449 102.777 243.286 101.988 242.734L81.1735 228.164C79.6492 227.097 79.2711 224.953 80.3385 223.429C81.406 221.905 83.5509 221.527 85.0752 222.594L105.89 237.164C107.414 238.231 107.792 240.375 106.725 241.899C106.165 242.642 105.379 243.15 104.53 243.299Z" fill="#7959FD"/>
<path id="Vector_3" d="M86.684 246.631C85.835 246.78 84.9308 246.617 84.1424 246.065C82.618 244.998 82.2399 242.854 83.3074 241.33L97.8837 220.52C98.9512 218.996 101.096 218.618 102.62 219.685C104.145 220.752 104.523 222.896 103.455 224.42L88.879 245.23C88.3269 246.018 87.533 246.481 86.684 246.631Z" fill="#7959FD"/>
</g>
</g>
<g id="description_2">
<line id="Line 14_2" x1="126.771" y1="167.868" x2="193.041" y2="152.569" stroke="#7959FD" stroke-opacity="0.7" stroke-width="2" stroke-linecap="round"/>
<line id="Line 15_2" x1="126.779" y1="173.2" x2="173.558" y2="162.4" stroke="#7959FD" stroke-opacity="0.7" stroke-width="2" stroke-linecap="round"/>
<line id="Line 16_2" x1="126.779" y1="179.201" x2="163.812" y2="170.651" stroke="#7959FD" stroke-opacity="0.7" stroke-width="2" stroke-linecap="round"/>
</g>
<g id="vuesax/outline/search-normal">
<g id="vuesax/outline/search-normal_2">
<g id="search-normal">
<path id="Vector_4" d="M54.1964 182.949C54.1964 167.408 66.8488 154.756 82.3892 154.756C97.9296 154.756 110.582 167.408 110.582 182.949C110.582 198.489 97.9296 211.142 82.3892 211.142C66.8488 211.142 54.1964 198.489 54.1964 182.949ZM106.456 182.949C106.456 169.664 95.6467 158.882 82.3892 158.882C69.1317 158.882 58.3222 169.664 58.3222 182.949C58.3222 196.234 69.1317 207.016 82.3892 207.016C95.6467 207.016 106.456 196.234 106.456 182.949Z" fill="#7959FD"/>
</g>
</g>
<line id="Line 1" x1="11.6657" y1="283.835" x2="55.4249" y2="215.673" stroke="#7959FD" stroke-width="9" stroke-linecap="round"/>
<line id="Line 2" x1="56.4668" y1="214.543" x2="64.248" y2="202.872" stroke="#7959FD" stroke-width="4" stroke-linecap="round"/>
<g id="tick box_3">
<rect id="Rectangle 3918_3" x="60.9199" y="167.056" width="38" height="37" rx="5" transform="rotate(-10 60.9199 167.056)" fill="#7959FD" fill-opacity="0.3"/>
<path id="Vector_5" d="M79.9085 192.807C79.2975 192.915 78.6744 192.775 78.172 192.427L68.0177 185.396C66.9771 184.675 66.7213 183.224 67.4526 182.191C68.184 181.158 69.6504 180.899 70.6909 181.62L78.9436 187.335L91.9062 169.026C92.6375 167.993 94.1039 167.734 95.1445 168.455C96.185 169.175 96.4409 170.627 95.7096 171.66L81.4103 191.856C81.0573 192.355 80.5195 192.699 79.9085 192.807Z" fill="#7959FD"/>
</g>
</g>
<g id="description_3">
<line id="Line 14_3" x1="115.769" y1="115.859" x2="182.039" y2="100.559" stroke="#7959FD" stroke-opacity="0.7" stroke-width="2" stroke-linecap="round"/>
<line id="Line 15_3" x1="115.777" y1="121.19" x2="162.556" y2="110.39" stroke="#7959FD" stroke-opacity="0.7" stroke-width="2" stroke-linecap="round"/>
<line id="Line 16_3" x1="115.777" y1="127.191" x2="152.81" y2="118.641" stroke="#7959FD" stroke-opacity="0.7" stroke-width="2" stroke-linecap="round"/>
</g>
</g>
<g id="vuesax/bulk/add-circle">
<g id="vuesax/bulk/add-circle_2">
<g id="add-circle">
<path id="Vector_6" d="M254.386 250.418C274.333 246.901 287.651 227.88 284.134 207.933C280.617 187.987 261.596 174.668 241.65 178.185C221.703 181.702 208.384 200.724 211.902 220.67C215.419 240.617 234.44 253.935 254.386 250.418Z" fill="#D5CBFF"/>
<path id="Vector_7" d="M261.987 209.046L250.249 211.115L248.18 199.378C247.918 197.897 246.474 196.885 244.993 197.146C243.512 197.408 242.501 198.852 242.762 200.333L244.832 212.071L233.094 214.14C231.613 214.401 230.602 215.846 230.863 217.327C231.124 218.807 232.568 219.819 234.049 219.558L245.787 217.488L247.857 229.226C248.118 230.707 249.562 231.718 251.043 231.457C252.524 231.196 253.535 229.751 253.274 228.271L251.204 216.533L262.942 214.463C264.423 214.202 265.435 212.758 265.173 211.277C264.912 209.796 263.468 208.785 261.987 209.046Z" fill="#7959FD"/>
</g>
</g>
</g>
</g>
</g>
<defs>
<filter id="filter0_d_1179_3608" x="0.582031" y="17.4854" width="302.418" height="339.839" filterUnits="userSpaceOnUse" color-interpolation-filters="sRGB">
<feFlood flood-opacity="0" result="BackgroundImageFix"/>
<feColorMatrix in="SourceAlpha" type="matrix" values="0 0 0 0 0 0 0 0 0 0 0 0 0 0 0 0 0 0 127 0" result="hardAlpha"/>
<feOffset dy="4"/>
<feGaussianBlur stdDeviation="2"/>
<feComposite in2="hardAlpha" operator="out"/>
<feColorMatrix type="matrix" values="0 0 0 0 0 0 0 0 0 0 0 0 0 0 0 0 0 0 0.62 0"/>
<feBlend mode="normal" in2="BackgroundImageFix" result="effect1_dropShadow_1179_3608"/>
<feBlend mode="normal" in="SourceGraphic" in2="effect1_dropShadow_1179_3608" result="shape"/>
</filter>
<radialGradient id="paint0_radial_1179_3608" cx="0" cy="0" r="1" gradientUnits="userSpaceOnUse" gradientTransform="translate(65.4268 334.114) rotate(-64.5369) scale(312.259 235.227)">
<stop stop-color="#EFEFEF"/>
<stop offset="1" stop-color="#FDFDFD"/>
</radialGradient>
<radialGradient id="paint1_radial_1179_3608" cx="0" cy="0" r="1" gradientUnits="userSpaceOnUse" gradientTransform="translate(209.308 30.7313) rotate(116.1) scale(230.12 173.543)">
<stop stop-color="white"/>
<stop offset="1" stop-color="#F9FBFF"/>
</radialGradient>
</defs>
</svg>
