<svg width="53" height="51" viewBox="0 0 53 51" fill="none" xmlns="http://www.w3.org/2000/svg">
<g id="user-role-icon">
<path id="Rectangle 3885" d="M0 5.71045C0 2.94902 2.23858 0.710449 5 0.710449H52C52.5523 0.710449 53 1.15816 53 1.71045V49.8597C53 50.412 52.5523 50.8597 52 50.8597H5C2.23858 50.8597 0 48.6211 0 45.8597V5.71045Z" fill="#2C2E41" fill-opacity="0.2"/>
<g id="vuesax/bulk/profile">
<g id="vuesax/bulk/profile_2">
<g id="profile">
<path id="Vector" opacity="0.4" d="M26.5007 15.8389C23.7715 15.8389 21.5527 18.0642 21.5527 20.8016C21.5527 23.4866 23.6465 25.6598 26.3757 25.7538C26.459 25.7433 26.5423 25.7433 26.6048 25.7538C26.6257 25.7538 26.6361 25.7538 26.6569 25.7538C26.6673 25.7538 26.6673 25.7538 26.6777 25.7538C29.3444 25.6598 31.4382 23.4866 31.4486 20.8016C31.4486 18.0642 29.2298 15.8389 26.5007 15.8389Z" fill="#2C2E41"/>
<path id="Vector_2" d="M31.791 28.5329C28.8848 26.5896 24.1452 26.5896 21.2181 28.5329C19.8952 29.421 19.166 30.6225 19.166 31.9075C19.166 33.1926 19.8952 34.3836 21.2077 35.2613C22.666 36.2434 24.5827 36.7344 26.4993 36.7344C28.416 36.7344 30.3327 36.2434 31.791 35.2613C33.1035 34.3732 33.8327 33.1822 33.8327 31.8866C33.8223 30.6016 33.1035 29.4105 31.791 28.5329Z" fill="#2C2E41"/>
</g>
</g>
</g>
</g>
</svg>
