<svg width="53" height="51" viewBox="0 0 53 51" fill="none" xmlns="http://www.w3.org/2000/svg">
<g id="user-email-icon">
<path id="Rectangle 3885" d="M0 5.70752C0 2.94609 2.23858 0.70752 5 0.70752H52C52.5523 0.70752 53 1.15523 53 1.70752V49.8568C53 50.4091 52.5523 50.8568 52 50.8568H5C2.23858 50.8568 0 48.6182 0 45.8568V5.70752Z" fill="#2C2E41" fill-opacity="0.2"/>
<g id="vuesax/bulk/sms">
<g id="sms">
<path id="Vector" opacity="0.4" d="M31.709 35.1505H21.2923C18.1673 35.1505 16.084 33.588 16.084 29.9421V22.6505C16.084 19.0046 18.1673 17.4421 21.2923 17.4421H31.709C34.834 17.4421 36.9173 19.0046 36.9173 22.6505V29.9421C36.9173 33.588 34.834 35.1505 31.709 35.1505Z" fill="#2C2E41"/>
<g id="Group">
<path id="Vector_2" d="M26.5022 27.2025C25.6272 27.2025 24.7418 26.9317 24.0647 26.3796L20.8043 23.7754C20.4709 23.5046 20.4084 23.015 20.6793 22.6816C20.9501 22.3483 21.4397 22.2858 21.773 22.5567L25.0334 25.1608C25.8251 25.7962 27.1688 25.7962 27.9605 25.1608L31.2209 22.5567C31.5543 22.2858 32.0543 22.3379 32.3147 22.6816C32.5855 23.015 32.5334 23.515 32.1897 23.7754L28.9293 26.3796C28.2626 26.9317 27.3772 27.2025 26.5022 27.2025Z" fill="#2C2E41"/>
</g>
</g>
</g>
</g>
</svg>
