<svg width="557" height="411" viewBox="0 0 557 411" fill="none" xmlns="http://www.w3.org/2000/svg">
<g opacity="0.9" clip-path="url(#clip0_131_3)">
<path opacity="0.18" d="M25.0088 296.933C27.8016 313.76 44.871 392.002 107.224 408.649C154.361 421.247 286.793 378.114 362.223 399.834C514.047 443.528 541.857 326.217 533.375 294.531C527.463 272.441 520.168 250.287 519.972 227.226C519.776 203.104 528.416 179.379 529.355 155.078C531.743 93.5862 487.595 33.2183 427.395 15.5743C401.621 8.03627 380.545 0.33218 353.649 0.114983C299.06 -0.344963 169.512 0.114992 105.697 90.9926C94.2917 107.231 77.7311 119.382 65.0073 134.662C48.0422 155.104 36.7409 179.801 29.9157 205.34C21.8178 235.209 20.1469 266.399 25.0088 296.933Z" fill="url(#paint0_linear_131_3)"/>
<path d="M347.124 316.967H247.695L265.287 268.391H332.286L347.124 316.967Z" fill="url(#paint1_linear_131_3)"/>
<path d="M347.124 316.967H247.695L265.287 268.391H332.286L347.124 316.967Z" fill="url(#paint2_linear_131_3)"/>
<path d="M430.423 92.0403H172.775C162.915 92.0403 154.922 99.8654 154.922 109.518V269.132C154.922 278.785 162.915 286.61 172.775 286.61H430.423C440.282 286.61 448.275 278.785 448.275 269.132V109.518C448.275 99.8654 440.282 92.0403 430.423 92.0403Z" fill="url(#paint3_linear_131_3)"/>
<path d="M448.275 109.505V249.508H154.988V109.505C154.988 104.873 156.867 100.431 160.213 97.1557C163.558 93.8804 168.096 92.0403 172.827 92.0403H430.436C435.167 92.0403 439.704 93.8804 443.05 97.1557C446.395 100.431 448.275 104.873 448.275 109.505Z" fill="#473F47"/>
<path d="M443.864 112.84V244.832H159.372V112.84C159.4 108.369 161.24 104.093 164.487 100.949C167.734 97.8061 172.123 96.0538 176.69 96.0776H426.547C431.113 96.0538 435.502 97.8061 438.749 100.949C441.997 104.093 443.836 108.369 443.864 112.84Z" fill="white"/>
<path opacity="0.18" d="M443.864 112.84V244.832H159.372V112.84C159.4 108.369 161.24 104.093 164.487 100.949C167.734 97.8061 172.123 96.0538 176.69 96.0776H426.547C431.113 96.0538 435.502 97.8061 438.749 100.949C441.997 104.093 443.836 108.369 443.864 112.84Z" fill="url(#paint4_linear_131_3)"/>
<path d="M291.178 60.9939H176.533V140.284H291.178V60.9939Z" fill="url(#paint5_linear_131_3)"/>
<path d="M398.659 106.184C398.489 103.794 398.659 101.341 398.398 98.965C397.995 95.538 396.857 92.2331 395.057 89.2672C393.258 86.3012 390.839 83.7413 387.958 81.7554C382.124 77.7995 375.01 76.0766 367.965 76.9132C356.546 78.1908 346.954 85.8566 341.46 95.5282C335.209 106.529 341.056 115.536 346.106 125.514C349.89 132.975 347.659 142.289 342.752 149.099C338.902 154.427 333.212 159.537 333.695 166.053C333.995 170.014 336.579 173.4 339.072 176.53C340.742 178.625 342.609 180.848 345.245 181.449C346.574 181.685 347.935 181.685 349.264 181.449C352.242 181.038 355.192 180.453 358.099 179.698C360.918 178.957 363.815 178.037 366.712 178.421C371.619 179.034 375.247 183.084 378.079 187.032C380.911 190.98 383.703 195.375 388.205 197.342C391.625 198.85 395.54 198.709 399.272 198.403C410.169 197.521 421.718 195.043 429.209 187.249C430.864 185.458 432.386 183.554 433.763 181.551C434.606 180.499 435.288 179.333 435.786 178.089C437.091 174.371 435.003 170.423 432.654 167.165C430.305 163.907 427.434 160.777 427.095 156.867C426.782 153.801 428.034 150.824 428.4 147.783C429.196 141.983 426.886 136.093 423.18 131.481C419.342 126.994 414.742 123.191 409.582 120.238C405.666 117.836 401.49 115.344 399.663 111.294C399.022 109.662 398.682 107.932 398.659 106.184Z" fill="#FC682D"/>
<path d="M392.251 117.721C393.112 120.276 393.556 123.023 395.057 125.322C396.884 128.235 399.99 130.101 403.07 131.711C404.731 132.436 406.237 133.463 407.507 134.739C408.391 135.847 409.011 137.134 409.321 138.508C409.768 140.313 409.878 142.183 409.647 144.027C409.276 145.562 409.174 147.148 409.347 148.716C409.803 150.671 411.435 152.102 412.857 153.545C415.69 156.16 417.604 159.586 418.325 163.332C418.847 167.088 417.294 171.266 413.901 173.106C412.67 173.725 411.35 174.156 409.986 174.383C407.795 174.807 405.575 175.072 403.344 175.176C401.754 175.292 400.155 175.163 398.606 174.792C396.718 174.131 394.954 173.169 393.386 171.943L372.611 157.48C370.196 156.026 368.105 154.11 366.464 151.846C365.327 149.796 364.571 147.563 364.232 145.253C363.097 139.645 362.223 133.64 364.441 128.35C366.164 124.211 369.583 121.004 372.898 117.925L381.315 110.131C383.755 107.87 385.674 106.874 387.84 109.646C389.751 112.083 391.241 114.811 392.251 117.721Z" fill="url(#paint6_linear_131_3)"/>
<path d="M406.724 191.734C413.627 199.31 416.498 208.637 421.731 217.286C422.348 218.523 423.289 219.577 424.459 220.34C426.377 221.362 428.765 220.646 430.697 219.65C446.239 211.524 447.662 188.284 462.904 179.634C466.441 177.641 470.46 176.594 473.971 174.524C475.276 173.757 476.685 172.39 476.163 170.985C475.924 170.553 475.593 170.177 475.192 169.881C474.791 169.586 474.33 169.378 473.84 169.273C469.827 167.916 465.568 167.398 461.338 167.752C459.446 167.919 456.81 167.752 456.601 165.874C456.653 165.335 456.653 164.791 456.601 164.252C456.183 162.898 453.874 163.396 453.299 164.699C452.725 166.002 453.156 167.484 453.104 168.902C452.843 171.122 451.967 173.229 450.572 174.997C447.282 179.962 443.682 184.724 439.792 189.255C428.778 202.031 425.999 181.653 417.294 177.399C416.466 177.062 415.58 176.885 414.684 176.875C406.932 176.355 399.172 176.202 391.403 176.415C394.156 178.574 404.244 189.025 406.724 191.734Z" fill="#F4DBBD"/>
<path d="M384.512 144.564C384.512 144.564 407.063 154.516 408.394 157.123C409.725 159.729 408.394 234.087 408.394 234.087H328.893L333.46 155.73L356.716 146.403L384.512 144.564Z" fill="url(#paint7_linear_131_3)"/>
<path d="M328.88 234.1H408.394C408.394 234.1 409.699 159.742 408.394 157.11C407.089 154.478 384.512 144.564 384.512 144.564L356.729 146.391L333.473 155.717L331.268 193.343L328.88 234.1Z" fill="url(#paint8_linear_131_3)"/>
<path d="M408.394 157.084L427.329 180.695C423.519 191.721 408.394 205.711 408.394 205.711V157.084Z" fill="url(#paint9_linear_131_3)"/>
<path d="M408.394 178.536L420.23 192.781L408.394 205.749V178.536Z" fill="url(#paint10_linear_131_3)"/>
<path d="M383.938 133.985C383.168 137.997 384.356 141.05 384.525 144.73C384.76 150.185 378.862 158.707 376.513 163.69C375.756 165.299 374.855 167.05 373.198 167.778C372.026 168.196 370.766 168.323 369.531 168.149C367.691 168.195 365.868 167.786 364.232 166.96C362.092 165.683 361.166 163.127 360.422 160.751C359.208 156.918 356.128 150.849 356.872 146.902C357.107 145.624 358.282 144.346 358.608 142.967C358.917 141.182 359.018 139.369 358.908 137.562C358.817 127.954 383.938 133.985 383.938 133.985Z" fill="#F4DBBD"/>
<path d="M383.938 133.985C383.938 133.985 380.754 150.696 370.614 149.725C367.847 149.561 365.209 148.526 363.092 146.773C360.976 145.021 359.494 142.646 358.869 140.002L383.938 133.985Z" fill="#E0BE99"/>
<path d="M384.825 131.097C384.21 133.769 383.142 136.321 381.667 138.648C377.517 144.589 368.095 146.416 361.857 142.481C358.499 140.118 355.9 136.864 354.367 133.103C350.718 125.227 349.498 116.479 350.856 107.934C351.215 104.598 352.517 101.426 354.615 98.7734C358.308 94.5955 364.611 93.5095 370.275 93.8034C375.403 94.0717 380.715 95.3238 384.565 98.5306C386.641 100.327 388.183 102.64 389.026 105.224C389.869 107.809 389.982 110.568 389.354 113.211C387.905 119.164 386.483 125.144 384.825 131.097Z" fill="#F4DBBD"/>
<path d="M265.913 154.018C265.07 153.22 264.025 152.655 262.886 152.383C261.734 152.239 260.575 152.154 259.414 152.127C257.026 151.859 254.521 150.619 252.367 151.667C251.643 152.079 251.045 152.676 250.639 153.393C250.232 154.111 250.031 154.923 250.057 155.743C250.123 157.382 250.602 158.98 251.454 160.393C255.056 167.101 260.354 169.337 266.579 172.927C269.854 174.818 272.138 179.315 274.409 182.445L282.644 193.612C286.01 198.173 289.43 202.798 293.932 206.311C294.664 206.934 295.503 207.423 296.411 207.755C298.064 208.143 299.803 207.972 301.344 207.27C307.869 204.804 313.677 200.128 319.314 196.09C321.924 194.199 324.626 192.257 327.249 190.354C328.384 189.523 330.498 188.463 331.229 187.211C331.631 186.413 331.866 185.544 331.921 184.656C332.912 177.118 331.542 169.439 331.738 161.837C323.151 171.445 313.233 181.602 301.723 187.798C301.38 188.023 300.985 188.16 300.574 188.195C300.157 188.161 299.754 188.029 299.4 187.811C289.858 182.833 281.456 175.999 274.709 167.727C272.217 164.326 270.034 160.717 268.184 156.944C267.594 155.854 266.827 154.866 265.913 154.018Z" fill="#F4DBBD"/>
<path d="M389.302 115.319C389.833 115.042 390.438 114.934 391.034 115.01C391.631 115.085 392.188 115.341 392.63 115.74C392.886 116.068 393.064 116.448 393.151 116.852C393.56 119.14 393.071 121.495 391.781 123.444C391.487 124.009 391.084 124.512 390.594 124.926C389.596 125.542 388.431 125.845 387.253 125.795C386.99 125.847 386.72 125.847 386.457 125.795C386.246 125.7 386.058 125.56 385.909 125.386C385.533 124.925 385.257 124.394 385.098 123.825C384.938 123.256 384.899 122.662 384.982 122.077C385.23 119.445 386.77 116.405 389.302 115.319Z" fill="#F4DBBD"/>
<path d="M349.995 125.297C350.523 125.579 351.129 125.691 351.726 125.618C352.323 125.544 352.882 125.289 353.323 124.888C353.579 124.56 353.758 124.181 353.845 123.777C354.26 121.488 353.77 119.131 352.474 117.184C352.177 116.618 351.774 116.111 351.287 115.689C350.291 115.071 349.124 114.767 347.946 114.82C347.678 114.788 347.406 114.814 347.15 114.897C346.936 114.988 346.748 115.128 346.602 115.306C346.226 115.767 345.95 116.298 345.791 116.867C345.631 117.436 345.592 118.031 345.675 118.615C345.923 121.183 347.476 124.224 349.995 125.297Z" fill="#F4DBBD"/>
<path d="M333.461 155.73L314.76 178.804C318.557 189.83 331.229 203.82 331.229 203.82L333.461 155.73Z" fill="url(#paint11_linear_131_3)"/>
<path d="M391.377 121.145C391.048 121.953 390.513 122.665 389.824 123.214C389.521 123.459 389.146 123.602 388.753 123.622C388.361 123.643 387.973 123.54 387.644 123.329C387.522 123.25 387.431 123.133 387.383 122.997C387.336 122.776 387.368 122.546 387.475 122.346L387.631 121.937C387.669 121.818 387.727 121.706 387.801 121.605C388.088 121.234 388.675 121.298 389.106 121.068C389.537 120.838 389.706 120.25 389.941 119.79C390.023 119.6 390.158 119.436 390.332 119.319C390.505 119.201 390.709 119.134 390.92 119.126C391.119 119.167 391.299 119.27 391.433 119.42C391.568 119.569 391.648 119.758 391.664 119.956C391.685 120.371 391.586 120.783 391.377 121.145Z" fill="#E0BE99"/>
<path d="M347.398 120.327C347.724 121.137 348.259 121.85 348.951 122.397C349.256 122.642 349.632 122.787 350.026 122.81C350.42 122.833 350.811 122.733 351.143 122.524C351.266 122.44 351.357 122.319 351.404 122.18C351.445 121.962 351.413 121.738 351.313 121.541L351.156 121.132C351.121 121.012 351.064 120.899 350.987 120.8C350.7 120.429 350.112 120.48 349.682 120.25C349.251 120.02 349.081 119.433 348.847 118.973C348.762 118.784 348.626 118.622 348.453 118.505C348.28 118.387 348.078 118.319 347.868 118.308C347.668 118.343 347.485 118.442 347.35 118.59C347.215 118.739 347.136 118.928 347.124 119.126C347.094 119.544 347.189 119.961 347.398 120.327Z" fill="#E0BE99"/>
<path d="M384.512 144.564L389.811 146.965L387.201 170.959L373.159 176.249C373.159 176.249 379.044 158.669 384.512 144.564Z" fill="url(#paint12_linear_131_3)"/>
<path d="M382.711 172.659L384.499 181.857L367.482 200.473L373.159 176.313L382.711 172.659Z" fill="url(#paint13_linear_131_3)"/>
<path d="M356.533 146.544L351.235 148.933L348.207 170.959L362.197 176.249C362.197 176.249 356.716 154.082 356.533 146.544Z" fill="url(#paint14_linear_131_3)"/>
<path d="M352.657 172.659L350.856 181.857L367.873 200.473L362.197 176.313L352.657 172.659Z" fill="url(#paint15_linear_131_3)"/>
<path d="M345.78 233.806L398.267 224.645L408.394 178.536V229.858V234.087L345.78 233.806Z" fill="url(#paint16_linear_131_3)"/>
<path d="M365.955 98.0323C366.608 101.865 367.26 106.132 370.262 108.816C371.962 110.214 373.952 111.234 376.095 111.805C380.999 113.382 386.102 114.289 391.259 114.501C392.013 111.198 392.005 107.772 391.234 104.473C390.463 101.174 388.949 98.0852 386.803 95.432C384.657 92.7789 381.933 90.6284 378.829 89.1375C375.726 87.6467 372.322 86.8531 368.865 86.8148C359.874 86.572 365.002 92.2958 365.955 98.0323Z" fill="#FC682D"/>
<path d="M443.864 229.666H159.333V244.845H443.864V229.666Z" fill="white"/>
<path d="M374.372 321.272C372.503 323.106 371.159 325.389 370.477 327.892C369.795 330.396 369.798 333.031 370.485 335.532C371.173 338.034 372.522 340.315 374.395 342.144C376.269 343.974 378.601 345.289 381.158 345.956V349.329H199.762C195.976 349.329 192.287 348.16 189.22 345.987C186.153 343.815 183.864 340.75 182.68 337.23C182.065 335.439 181.752 333.562 181.753 331.672C181.751 329.356 182.216 327.063 183.121 324.923C184.025 322.783 185.351 320.839 187.024 319.201C188.697 317.564 190.683 316.265 192.868 315.38C195.054 314.494 197.397 314.039 199.762 314.041H381.158V317.414C378.587 318.089 376.245 319.421 374.372 321.272Z" fill="url(#paint17_linear_131_3)"/>
<path d="M381.158 345.956V349.329H199.762C195.976 349.329 192.287 348.16 189.22 345.987C186.152 343.815 183.864 340.75 182.68 337.23C189.57 338.418 233.197 345.228 257.483 331.672L371.24 337.613C372.146 339.645 373.508 341.45 375.225 342.894C376.942 344.339 378.97 345.385 381.158 345.956Z" fill="url(#paint18_linear_131_3)"/>
<path d="M374.372 321.272C372.503 323.106 371.159 325.389 370.477 327.892C369.795 330.396 369.797 333.031 370.485 335.532C371.173 338.034 372.522 340.315 374.395 342.144C376.269 343.974 378.601 345.289 381.158 345.956V346.454H272.556C270.54 346.512 268.533 346.174 266.653 345.459C264.773 344.744 263.059 343.666 261.612 342.291C260.165 340.916 259.015 339.27 258.229 337.451C257.444 335.633 257.039 333.678 257.039 331.704C257.039 329.73 257.444 327.775 258.229 325.957C259.015 324.138 260.165 322.493 261.612 321.117C263.059 319.742 264.773 318.665 266.653 317.949C268.533 317.234 270.54 316.896 272.556 316.954H381.158V317.439C378.59 318.107 376.249 319.43 374.372 321.272Z" fill="white"/>
<path d="M484.711 358.068C482.841 359.902 481.498 362.185 480.815 364.688C480.133 367.191 480.136 369.826 480.824 372.328C481.512 374.83 482.86 377.11 484.734 378.94C486.607 380.77 488.94 382.084 491.497 382.752V386.125H310.101C306.318 386.127 302.631 384.961 299.564 382.794C296.497 380.626 294.207 377.567 293.018 374.051C292.403 372.26 292.09 370.383 292.092 368.493C292.09 366.178 292.554 363.884 293.459 361.744C294.363 359.604 295.69 357.66 297.362 356.022C299.035 354.385 301.021 353.086 303.207 352.201C305.393 351.315 307.735 350.86 310.101 350.862H491.497V354.235C488.928 354.903 486.587 356.226 484.711 358.068Z" fill="url(#paint19_linear_131_3)"/>
<path d="M491.497 382.752V386.125H310.101C306.318 386.127 302.631 384.961 299.564 382.794C296.497 380.626 294.207 377.567 293.018 374.051C299.909 375.239 343.535 382.049 367.821 368.493L481.579 374.434C482.487 376.461 483.851 378.261 485.568 379.701C487.285 381.141 489.311 382.184 491.497 382.752Z" fill="url(#paint20_linear_131_3)"/>
<path d="M484.711 358.068C482.841 359.902 481.498 362.185 480.815 364.688C480.133 367.191 480.136 369.826 480.824 372.328C481.511 374.83 482.86 377.11 484.733 378.94C486.607 380.77 488.94 382.084 491.497 382.752V383.224H382.894C380.878 383.282 378.871 382.944 376.991 382.229C375.111 381.514 373.397 380.436 371.95 379.061C370.504 377.686 369.353 376.04 368.568 374.221C367.782 372.403 367.378 370.449 367.378 368.474C367.378 366.5 367.782 364.545 368.568 362.727C369.353 360.908 370.504 359.263 371.95 357.887C373.397 356.512 375.111 355.435 376.991 354.72C378.871 354.004 380.878 353.666 382.894 353.724H491.497V354.209C488.926 354.885 486.584 356.216 484.711 358.068Z" fill="white"/>
<path d="M256.661 151.59L234.906 100.639L259.414 152.127L256.661 151.59Z" fill="white"/>
<path d="M448.614 255.129C446.775 255.94 445.093 257.055 443.642 258.426C442.918 259.111 442.348 259.936 441.968 260.849C441.589 261.762 441.408 262.743 441.437 263.728C441.632 266.117 443.381 268.085 445.221 269.643C447.322 271.458 449.88 273.348 450.05 276.031C451.55 274.933 452.921 273.655 454.474 272.62C457.188 270.806 460.385 269.835 463.374 268.493C466.362 267.152 469.325 265.261 470.747 262.361C471.515 260.527 471.957 258.578 472.052 256.599C472.358 254.483 472.415 252.339 472.222 250.211C472.017 248.068 471.058 246.063 469.507 244.538C467.149 242.768 464.369 241.616 461.429 241.191C459.775 241.274 458.18 241.82 456.834 242.764C455.488 243.709 454.447 245.012 453.834 246.518C453.221 248.115 453.508 249.93 452.908 251.527C452.151 253.392 450.311 254.286 448.614 255.129Z" fill="#FC682D"/>
<path d="M380.976 351.731C380.387 351.72 379.8 351.806 379.24 351.986C378.961 352.081 378.714 352.251 378.529 352.477C378.345 352.704 378.229 352.976 378.196 353.264C378.22 353.545 378.314 353.816 378.471 354.053C378.629 354.289 378.843 354.483 379.097 354.618C379.579 354.925 380.14 355.104 380.623 355.423C381.031 355.754 381.467 356.049 381.928 356.305C382.755 356.548 383.64 356.516 384.447 356.215C388.207 355.318 392.099 355.08 395.944 355.513C396.317 355.558 396.694 355.558 397.066 355.513C397.614 355.358 398.112 355.069 398.514 354.673C398.916 354.278 399.208 353.788 399.363 353.251C400.133 350.964 400.361 348.534 400.029 346.148C400.024 345.881 399.957 345.619 399.833 345.381C399.678 345.196 399.481 345.047 399.259 344.947C395.618 343.184 393.621 346.71 390.946 348.435C387.97 350.359 384.534 351.495 380.976 351.731Z" fill="#FFBBAB"/>
<path d="M469.024 299.297C469.024 299.297 469.938 312.635 457.762 316.66C445.587 320.684 423.767 317.401 423.767 317.401C423.767 317.401 414.984 333.87 406.006 341.676L400.264 347.234C399.054 347.52 397.782 347.413 396.64 346.929C395.498 346.445 394.549 345.61 393.934 344.551C393.934 344.551 410.899 311.447 413.183 308.969C415.774 305.917 419.237 303.693 423.127 302.581L447.427 295.094L469.024 299.297Z" fill="#473F47"/>
<path d="M387.762 255.602L400.799 282.701L424.889 282.535L424.693 280.49L402.534 280.248L390.267 254.606L387.762 255.602Z" fill="#473F47"/>
<path d="M451.524 238.086C451.081 238.827 450.154 239.261 449.854 240.066C449.554 240.871 450.193 242.072 450.546 243.056C451.055 244.423 450.898 245.956 451.381 247.336C451.465 247.634 451.637 247.901 451.877 248.102C452.1 248.252 452.354 248.352 452.621 248.396C453.664 248.603 454.731 248.663 455.792 248.575C455.999 248.535 456.215 248.562 456.405 248.652C456.561 248.786 456.659 248.973 456.679 249.176C457.289 251.779 457.244 254.489 456.549 257.071C456.327 257.927 456.079 258.962 456.718 259.627C456.95 259.832 457.234 259.973 457.541 260.036C459.55 260.508 461.456 259.052 462.839 257.48C464.05 256.114 465.093 254.614 465.945 253.009C466.211 252.563 466.392 252.074 466.48 251.565C466.517 250.906 466.424 250.247 466.206 249.623C465.63 247.474 465.28 245.274 465.162 243.056C465.018 240.22 465.227 237.268 464.105 234.636C463.786 233.731 463.171 232.955 462.356 232.426C461.382 231.972 460.295 231.799 459.224 231.928C457.123 232.004 454.8 232.285 453.365 233.806C452.96 234.24 452.086 237.166 451.524 238.086Z" fill="#FFBBAB"/>
<path d="M466.31 251.744C466.31 251.744 457.632 256.139 455.009 259.588C452.386 263.038 448.105 265.58 449.789 272.109C451.472 278.638 449.423 288.603 449.423 288.603C449.423 288.603 453.195 300.217 462.473 303.155C471.752 306.094 469.194 305.161 469.194 305.161C469.194 305.161 474.114 283.633 476.045 277.641C477.977 271.649 474.714 250.785 466.31 251.744Z" fill="url(#paint21_linear_131_3)"/>
<path d="M454.317 233.512C454.49 234.912 455.171 236.204 456.235 237.153C457.266 238.086 458.532 238.737 459.602 239.632C460.166 240.045 460.616 240.591 460.91 241.218C461.204 241.845 461.333 242.534 461.286 243.222C461.695 243.062 462.149 243.048 462.568 243.181C462.988 243.314 463.346 243.586 463.583 243.95C463.692 244.207 463.727 244.489 463.684 244.764C463.64 245.039 463.519 245.297 463.335 245.509C463.145 245.716 462.911 245.878 462.649 245.984C462.387 246.09 462.104 246.138 461.821 246.122C462.918 246.561 463.858 247.308 464.522 248.269C465.266 249.342 465.632 250.619 466.31 251.744C467.148 252.88 468.197 253.851 469.403 254.606C469.944 254.963 470.391 255.44 470.708 255.998C470.956 256.867 471.257 257.72 471.608 258.553C472.379 259.618 473.207 260.641 474.088 261.62C475.28 263.328 475.962 265.328 476.059 267.395C476 266.783 476 266.167 476.059 265.555C476.276 265.197 476.485 264.827 476.685 264.443C477.019 263.774 477.277 263.072 477.455 262.348C477.705 260.69 477.753 259.009 477.598 257.34C477.598 253.762 481.044 247.029 478.277 243.963C477.175 243.059 476.001 242.243 474.767 241.523C472.326 239.542 471.987 236.054 470.447 233.346C469.764 232.153 468.846 231.106 467.746 230.264C466.646 229.421 465.386 228.801 464.039 228.44C460.438 227.43 453.834 228.542 454.317 233.512Z" fill="#FC682D"/>
<path d="M462.969 262.936C462.969 262.936 457.488 277.45 456.444 278.51C455.4 279.57 467.002 285.984 467.002 285.984C467.002 285.984 474.584 271.866 474.232 265.759C473.879 259.652 467.237 257.174 462.969 262.936Z" fill="url(#paint22_linear_131_3)"/>
<path d="M466.95 284.017C466.95 284.017 466.545 288.693 460.686 288.603L434.651 288.246C432.876 287.351 430.449 287.211 429.131 285.69C428.491 285 428.165 284.081 427.564 283.365C426.735 282.47 425.614 281.883 424.393 281.704C423.183 281.534 421.957 281.504 420.739 281.615C420.501 281.345 420.369 281 420.369 280.644C420.369 280.287 420.501 279.942 420.739 279.673C421.25 279.155 421.91 278.803 422.632 278.663C425.629 277.929 428.802 278.388 431.453 279.941C432.222 280.475 433.06 280.905 433.946 281.219C434.598 281.349 435.267 281.383 435.93 281.321C443.433 280.976 450.846 279.417 458.35 279.085C460.109 278.913 461.885 279.096 463.57 279.622C464.45 280.037 465.216 280.653 465.804 281.418C466.392 282.182 466.785 283.073 466.95 284.017Z" fill="#FFBBAB"/>
<path d="M383.233 285.575H379.54V351.731H383.233V285.575Z" fill="white"/>
<path d="M424.889 285.575H421.196V351.731H424.889V285.575Z" fill="white"/>
<path d="M426.925 282.701H375.208V288.45H426.925V282.701Z" fill="url(#paint23_linear_131_3)"/>
<path d="M426.925 282.701H375.208V288.45H426.925V282.701Z" fill="url(#paint24_linear_131_3)"/>
<path d="M470.069 315.868H436.413C435.62 315.868 434.977 316.497 434.977 317.273V323.01C434.977 323.786 435.62 324.415 436.413 324.415H470.069C470.861 324.415 471.504 323.786 471.504 323.01V317.273C471.504 316.497 470.861 315.868 470.069 315.868Z" fill="#473F47"/>
<path d="M442.141 324.415H435.969L432.889 352.382H439.062L442.141 324.415Z" fill="#473F47"/>
<path d="M473.54 352.382L469.455 324.415H463.282L468.411 352.382H473.54Z" fill="#473F47"/>
<path d="M482.636 268.966H477.103L464.601 316.085H470.134L482.636 268.966Z" fill="#473F47"/>
<path d="M158.341 324.415H191.998C192.79 324.415 193.433 323.786 193.433 323.01V317.273C193.433 316.497 192.79 315.868 191.998 315.868H158.341C157.549 315.868 156.906 316.497 156.906 317.273V323.01C156.906 323.786 157.549 324.415 158.341 324.415Z" fill="#473F47"/>
<path d="M186.269 324.415H192.441L195.521 352.382H189.348L186.269 324.415Z" fill="#473F47"/>
<path d="M154.87 352.382L158.955 324.415H165.127L159.999 352.382H154.87Z" fill="#473F47"/>
<path d="M145.774 268.966H151.307L163.809 316.085H158.276L145.774 268.966Z" fill="#473F47"/>
<path d="M312.528 358.081C310.659 359.914 309.315 362.198 308.633 364.701C307.95 367.204 307.953 369.839 308.641 372.341C309.329 374.843 310.677 377.123 312.551 378.953C314.424 380.783 316.757 382.097 319.314 382.764V386.137H137.918C134.135 386.14 130.449 384.974 127.382 382.806C124.315 380.639 122.024 377.579 120.836 374.064C120.221 372.273 119.908 370.396 119.909 368.506C119.907 366.19 120.372 363.897 121.276 361.757C122.181 359.617 123.507 357.673 125.18 356.035C126.853 354.398 128.839 353.099 131.024 352.214C133.21 351.328 135.553 350.873 137.918 350.875H319.314V354.248C316.746 354.916 314.404 356.238 312.528 358.081Z" fill="url(#paint25_linear_131_3)"/>
<path d="M319.314 382.764V386.137H137.918C134.135 386.14 130.448 384.974 127.382 382.806C124.315 380.639 122.024 377.579 120.835 374.064C127.726 375.252 171.352 382.062 195.638 368.506L309.396 374.447C310.305 376.474 311.668 378.274 313.385 379.714C315.102 381.154 317.129 382.197 319.314 382.764Z" fill="url(#paint26_linear_131_3)"/>
<path d="M312.528 358.081C310.659 359.914 309.315 362.198 308.633 364.701C307.95 367.204 307.953 369.839 308.641 372.341C309.329 374.843 310.677 377.123 312.551 378.953C314.424 380.783 316.757 382.097 319.314 382.764V383.224H210.711C208.696 383.282 206.688 382.944 204.808 382.229C202.929 381.514 201.215 380.436 199.768 379.061C198.321 377.686 197.171 376.04 196.385 374.221C195.6 372.403 195.195 370.449 195.195 368.474C195.195 366.5 195.6 364.545 196.385 362.727C197.171 360.908 198.321 359.263 199.768 357.887C201.215 356.512 202.929 355.435 204.808 354.72C206.688 354.004 208.696 353.666 210.711 353.724H319.314V354.209C316.742 354.888 314.4 356.224 312.528 358.081Z" fill="white"/>
<path d="M176.533 232.298L188.618 237.255L176.533 241.893V232.298Z" fill="url(#paint27_linear_131_3)"/>
<path d="M433.802 235.671H193.511V238.827H433.802V235.671Z" fill="url(#paint28_linear_131_3)"/>
<path d="M161.121 299.655C161.121 299.655 160.208 312.993 172.383 317.018C181.075 319.892 191.045 319.266 200.049 318.487C201.498 318.359 204.095 317.644 205.374 318.589C207.175 319.867 206.274 323.431 206.222 325.361C206.105 329.551 206 333.729 205.883 337.92C205.883 339.849 205.883 341.829 205.726 343.746C205.57 345.662 205.087 347.911 204.943 350.032C204.925 350.12 204.926 350.211 204.946 350.299C204.966 350.388 205.005 350.47 205.061 350.543C205.135 350.6 205.221 350.642 205.313 350.667C205.405 350.691 205.501 350.696 205.596 350.683L221.543 350.006C221.715 350.025 221.887 349.98 222.026 349.878C222.261 349.661 222.104 349.278 221.921 349.022C220.277 346.947 217.986 345.453 215.396 344.768C214.785 344.618 214.204 344.372 213.674 344.04C212.016 342.762 213.387 340.015 213.765 338.469L215.409 331.749L218.646 318.538C219.611 314.629 219.846 311.652 216.767 308.93C213.995 306.241 210.641 304.198 206.953 302.951L182.667 295.464L161.121 299.655Z" fill="#473F47"/>
<path d="M257.078 255.602L244.041 282.701L219.951 282.535L220.147 280.49L242.293 280.248L254.56 254.606L257.078 255.602Z" fill="#473F47"/>
<path d="M193.302 238.086C193.759 238.827 194.686 239.261 194.986 240.066C195.286 240.871 194.647 242.072 194.281 243.056C193.785 244.423 193.942 245.956 193.459 247.336C193.375 247.634 193.202 247.901 192.963 248.102C192.739 248.25 192.485 248.35 192.219 248.396C191.176 248.603 190.109 248.663 189.048 248.575C188.841 248.535 188.625 248.562 188.435 248.652C188.279 248.786 188.181 248.973 188.161 249.176C187.547 251.778 187.587 254.488 188.278 257.071C188.513 257.927 188.761 258.962 188.122 259.627C187.889 259.832 187.606 259.973 187.299 260.036C185.29 260.508 183.384 259.052 182.001 257.48C180.79 256.114 179.747 254.614 178.895 253.009C178.629 252.563 178.448 252.074 178.36 251.565C178.323 250.906 178.416 250.247 178.634 249.623C179.206 247.474 179.551 245.274 179.665 243.056C179.822 240.22 179.665 237.268 180.722 234.636C181.046 233.731 181.665 232.954 182.484 232.426C183.454 231.972 184.536 231.799 185.603 231.928C187.717 232.004 190.027 232.285 191.462 233.806C191.88 234.24 192.754 237.166 193.302 238.086Z" fill="#FFBBAB"/>
<path d="M178.478 251.795H178.66C182.497 252.728 188.082 256.152 189.335 259.959C190.914 264.737 191.945 271.164 190.81 276.108C190.04 279.468 188.2 282.496 187.169 285.793C186.295 288.514 185.929 291.401 184.781 294.02C183.347 297.065 180.933 299.566 177.909 301.14C174.885 302.714 171.418 303.274 168.038 302.734C166.244 302.436 164.554 301.707 163.118 300.613C161.815 299.426 160.809 297.962 160.178 296.334C159.546 294.705 159.307 292.956 159.477 291.222C159.861 287.756 160.789 284.369 162.23 281.18L168.207 265.913C169.656 262.259 173.166 250.76 178.478 251.795Z" fill="url(#paint29_linear_131_3)"/>
<path d="M175.385 289.344C175.72 289.893 175.942 290.501 176.037 291.133C176.055 291.599 175.998 292.064 175.868 292.513C175.253 294.995 174.994 297.55 175.098 300.102C175.057 300.563 175.202 301.022 175.502 301.38C175.841 301.617 176.247 301.742 176.664 301.737C178.156 301.975 179.686 301.825 181.101 301.303C182.624 300.367 183.771 298.945 184.35 297.278C186.262 292.642 187.717 287.838 188.696 282.931C188.942 282.146 189.022 281.32 188.931 280.503C188.77 279.897 188.49 279.328 188.104 278.828C187.719 278.328 187.237 277.908 186.686 277.59C185.642 276.887 184.455 276.376 183.45 275.61C181.466 274.128 180.004 271.432 177.303 271.087C176.369 271.021 175.441 271.275 174.679 271.807C173.917 272.339 173.368 273.114 173.127 274C171.352 278.587 173.258 285.141 175.385 289.344Z" fill="url(#paint30_linear_131_3)"/>
<path d="M181.884 262.936C181.884 262.936 187.365 277.45 188.409 278.51C189.453 279.57 177.864 285.984 177.864 285.984C177.864 285.984 170.269 271.866 170.635 265.759C171 259.652 177.603 257.174 181.884 262.936Z" fill="url(#paint31_linear_131_3)"/>
<path d="M177.89 284.017C177.89 284.017 178.295 288.693 184.141 288.603L210.242 288.246C212.003 287.351 214.431 287.211 215.762 285.69C216.388 285 216.714 284.081 217.328 283.365C218.157 282.47 219.278 281.883 220.499 281.704C221.709 281.534 222.936 281.504 224.153 281.615C224.389 281.344 224.519 281 224.519 280.644C224.519 280.288 224.389 279.943 224.153 279.673C223.64 279.158 222.981 278.806 222.261 278.663C219.263 277.929 216.091 278.388 213.439 279.941C212.671 280.475 211.832 280.905 210.946 281.219C210.294 281.349 209.625 281.383 208.963 281.321C201.459 280.976 194.046 279.417 186.543 279.085C184.783 278.916 183.007 279.098 181.323 279.622C180.431 280.029 179.654 280.642 179.056 281.407C178.458 282.172 178.059 283.068 177.89 284.017Z" fill="#FFBBAB"/>
<path d="M216.01 285.575H212.317V351.731H216.01V285.575Z" fill="white"/>
<path d="M257.679 285.575H253.985V351.731H257.679V285.575Z" fill="white"/>
<path d="M259.701 282.701H207.984V288.45H259.701V282.701Z" fill="url(#paint32_linear_131_3)"/>
<path d="M259.701 282.701H207.984V288.45H259.701V282.701Z" fill="url(#paint33_linear_131_3)"/>
<path d="M191.528 226.485C190.9 225.541 190.055 224.754 189.06 224.188C188.064 223.622 186.947 223.293 185.799 223.227C185.029 223.114 184.243 223.163 183.494 223.37C182.745 223.577 182.049 223.938 181.453 224.428C180.983 224.888 180.631 225.463 180.148 225.91C178.752 227.188 176.598 227.034 174.928 227.814C173.419 228.582 172.259 229.877 171.678 231.442C171.111 232.999 170.794 234.632 170.739 236.284C170.553 237.795 170.637 239.325 170.987 240.807C171.321 241.903 171.91 242.907 172.707 243.743C173.504 244.579 174.487 245.222 175.58 245.624C176.1 245.745 176.58 245.991 176.977 246.339C177.29 246.684 177.394 247.183 177.695 247.54C178.438 248.435 179.926 248.102 180.853 247.4C181.657 246.569 182.575 245.851 183.58 245.266L180.97 241.804C180.635 241.458 180.444 241.003 180.435 240.526C180.514 240.25 180.686 240.008 180.922 239.838C181.159 239.669 181.447 239.583 181.74 239.593C182.328 239.645 182.882 239.883 183.319 240.271C183.698 240.577 184.272 240.922 184.624 240.564C184.731 240.453 184.796 240.308 184.807 240.156C185.094 238.444 183.502 236.744 183.972 235.045C184.009 234.891 184.096 234.752 184.22 234.649C184.404 234.553 184.617 234.526 184.82 234.572C185.86 234.738 186.918 234.764 187.965 234.649C191.267 234.049 193.172 229.257 191.528 226.485Z" fill="#473F47"/>
<path d="M186.804 262.54C186.804 263.166 186.804 263.958 186.138 264.111C185.877 264.154 185.608 264.119 185.368 264.009C184.369 263.665 183.421 263.192 182.549 262.604C182.774 267.89 183.513 273.143 184.755 278.293C184.807 278.586 184.923 278.865 185.094 279.111C185.282 279.287 185.506 279.424 185.751 279.511C185.996 279.599 186.256 279.637 186.517 279.622C187.802 279.687 189.088 279.504 190.301 279.085C187.065 273.821 186.921 267.139 188.748 261.275C189.132 260.428 189.232 259.485 189.035 258.579C188.676 257.952 188.186 257.405 187.597 256.976C187.008 256.547 186.333 256.244 185.616 256.088C185.225 258.017 186.647 260.572 186.804 262.54Z" fill="url(#paint34_linear_131_3)"/>
</g>
<defs>
<linearGradient id="paint0_linear_131_3" x1="278.517" y1="0.0613708" x2="278.517" y2="411.002" gradientUnits="userSpaceOnUse">
<stop stop-color="#3C43F2"/>
<stop offset="1" stop-color="#AB00E8"/>
</linearGradient>
<linearGradient id="paint1_linear_131_3" x1="297.41" y1="268.391" x2="297.41" y2="316.967" gradientUnits="userSpaceOnUse">
<stop stop-color="#3C43F2"/>
<stop offset="1" stop-color="#AB00E8"/>
</linearGradient>
<linearGradient id="paint2_linear_131_3" x1="292.862" y1="256.956" x2="301.094" y2="370.282" gradientUnits="userSpaceOnUse">
<stop offset="0.01"/>
<stop offset="0.08" stop-opacity="0.69"/>
<stop offset="0.21" stop-opacity="0.32"/>
<stop offset="1" stop-opacity="0"/>
</linearGradient>
<linearGradient id="paint3_linear_131_3" x1="301.599" y1="92.0403" x2="301.599" y2="286.61" gradientUnits="userSpaceOnUse">
<stop stop-color="#3C43F2"/>
<stop offset="1" stop-color="#AB00E8"/>
</linearGradient>
<linearGradient id="paint4_linear_131_3" x1="301.618" y1="96.0774" x2="301.618" y2="244.832" gradientUnits="userSpaceOnUse">
<stop stop-color="#3C43F2"/>
<stop offset="1" stop-color="#AB00E8"/>
</linearGradient>
<linearGradient id="paint5_linear_131_3" x1="233.856" y1="60.9939" x2="233.856" y2="140.284" gradientUnits="userSpaceOnUse">
<stop stop-color="#3C43F2"/>
<stop offset="1" stop-color="#AB00E8"/>
</linearGradient>
<linearGradient id="paint6_linear_131_3" x1="315.934" y1="181.04" x2="560.754" y2="56.7534" gradientUnits="userSpaceOnUse">
<stop offset="0.01"/>
<stop offset="0.08" stop-opacity="0.69"/>
<stop offset="0.21" stop-opacity="0.32"/>
<stop offset="1" stop-opacity="0"/>
</linearGradient>
<linearGradient id="paint7_linear_131_3" x1="368.939" y1="144.564" x2="368.939" y2="234.087" gradientUnits="userSpaceOnUse">
<stop stop-color="#3C43F2"/>
<stop offset="1" stop-color="#AB00E8"/>
</linearGradient>
<linearGradient id="paint8_linear_131_3" x1="371.775" y1="289.395" x2="364.433" y2="51.0059" gradientUnits="userSpaceOnUse">
<stop offset="0.01"/>
<stop offset="0.08" stop-opacity="0.69"/>
<stop offset="0.21" stop-opacity="0.32"/>
<stop offset="1" stop-opacity="0"/>
</linearGradient>
<linearGradient id="paint9_linear_131_3" x1="417.862" y1="157.084" x2="417.862" y2="205.711" gradientUnits="userSpaceOnUse">
<stop stop-color="#3C43F2"/>
<stop offset="1" stop-color="#AB00E8"/>
</linearGradient>
<linearGradient id="paint10_linear_131_3" x1="398.137" y1="195.503" x2="444.457" y2="179.63" gradientUnits="userSpaceOnUse">
<stop offset="0.01"/>
<stop offset="0.08" stop-opacity="0.69"/>
<stop offset="0.21" stop-opacity="0.32"/>
<stop offset="1" stop-opacity="0"/>
</linearGradient>
<linearGradient id="paint11_linear_131_3" x1="324.11" y1="155.73" x2="324.11" y2="203.82" gradientUnits="userSpaceOnUse">
<stop stop-color="#3C43F2"/>
<stop offset="1" stop-color="#AB00E8"/>
</linearGradient>
<linearGradient id="paint12_linear_131_3" x1="392.329" y1="172.774" x2="358.489" y2="136.5" gradientUnits="userSpaceOnUse">
<stop offset="0.01"/>
<stop offset="0.08" stop-opacity="0.69"/>
<stop offset="0.21" stop-opacity="0.32"/>
<stop offset="1" stop-opacity="0"/>
</linearGradient>
<linearGradient id="paint13_linear_131_3" x1="382.45" y1="191.567" x2="348.671" y2="167.566" gradientUnits="userSpaceOnUse">
<stop offset="0.01"/>
<stop offset="0.08" stop-opacity="0.69"/>
<stop offset="0.21" stop-opacity="0.32"/>
<stop offset="1" stop-opacity="0"/>
</linearGradient>
<linearGradient id="paint14_linear_131_3" x1="344.631" y1="175.035" x2="382.377" y2="134.591" gradientUnits="userSpaceOnUse">
<stop offset="0.01"/>
<stop offset="0.08" stop-opacity="0.69"/>
<stop offset="0.21" stop-opacity="0.32"/>
<stop offset="1" stop-opacity="0"/>
</linearGradient>
<linearGradient id="paint15_linear_131_3" x1="352.905" y1="191.567" x2="386.697" y2="167.566" gradientUnits="userSpaceOnUse">
<stop offset="0.01"/>
<stop offset="0.08" stop-opacity="0.69"/>
<stop offset="0.21" stop-opacity="0.32"/>
<stop offset="1" stop-opacity="0"/>
</linearGradient>
<linearGradient id="paint16_linear_131_3" x1="388.323" y1="150.057" x2="360.56" y2="366.333" gradientUnits="userSpaceOnUse">
<stop offset="0.01"/>
<stop offset="0.08" stop-opacity="0.69"/>
<stop offset="0.21" stop-opacity="0.32"/>
<stop offset="1" stop-opacity="0"/>
</linearGradient>
<linearGradient id="paint17_linear_131_3" x1="281.456" y1="314.041" x2="281.456" y2="349.329" gradientUnits="userSpaceOnUse">
<stop stop-color="#3C43F2"/>
<stop offset="1" stop-color="#AB00E8"/>
</linearGradient>
<linearGradient id="paint18_linear_131_3" x1="266.422" y1="214.169" x2="310.827" y2="595.34" gradientUnits="userSpaceOnUse">
<stop offset="0.01"/>
<stop offset="0.08" stop-opacity="0.69"/>
<stop offset="0.21" stop-opacity="0.32"/>
<stop offset="1" stop-opacity="0"/>
</linearGradient>
<linearGradient id="paint19_linear_131_3" x1="391.794" y1="350.862" x2="391.794" y2="386.125" gradientUnits="userSpaceOnUse">
<stop stop-color="#3C43F2"/>
<stop offset="1" stop-color="#AB00E8"/>
</linearGradient>
<linearGradient id="paint20_linear_131_3" x1="376.773" y1="250.965" x2="421.178" y2="632.135" gradientUnits="userSpaceOnUse">
<stop offset="0.01"/>
<stop offset="0.08" stop-opacity="0.69"/>
<stop offset="0.21" stop-opacity="0.32"/>
<stop offset="1" stop-opacity="0"/>
</linearGradient>
<linearGradient id="paint21_linear_131_3" x1="462.996" y1="251.712" x2="462.996" y2="305.302" gradientUnits="userSpaceOnUse">
<stop stop-color="#3C43F2"/>
<stop offset="1" stop-color="#AB00E8"/>
</linearGradient>
<linearGradient id="paint22_linear_131_3" x1="465.311" y1="259.681" x2="465.311" y2="285.984" gradientUnits="userSpaceOnUse">
<stop stop-color="#3C43F2"/>
<stop offset="1" stop-color="#AB00E8"/>
</linearGradient>
<linearGradient id="paint23_linear_131_3" x1="401.066" y1="282.701" x2="401.066" y2="288.45" gradientUnits="userSpaceOnUse">
<stop stop-color="#3C43F2"/>
<stop offset="1" stop-color="#AB00E8"/>
</linearGradient>
<linearGradient id="paint24_linear_131_3" x1="400.773" y1="253.251" x2="401.473" y2="334.189" gradientUnits="userSpaceOnUse">
<stop offset="0.01"/>
<stop offset="0.08" stop-opacity="0.69"/>
<stop offset="0.21" stop-opacity="0.32"/>
<stop offset="1" stop-opacity="0"/>
</linearGradient>
<linearGradient id="paint25_linear_131_3" x1="219.612" y1="350.875" x2="219.612" y2="386.137" gradientUnits="userSpaceOnUse">
<stop stop-color="#3C43F2"/>
<stop offset="1" stop-color="#AB00E8"/>
</linearGradient>
<linearGradient id="paint26_linear_131_3" x1="204.591" y1="250.965" x2="248.996" y2="632.135" gradientUnits="userSpaceOnUse">
<stop offset="0.01"/>
<stop offset="0.08" stop-opacity="0.69"/>
<stop offset="0.21" stop-opacity="0.32"/>
<stop offset="1" stop-opacity="0"/>
</linearGradient>
<linearGradient id="paint27_linear_131_3" x1="182.575" y1="232.298" x2="182.575" y2="241.893" gradientUnits="userSpaceOnUse">
<stop stop-color="#3C43F2"/>
<stop offset="1" stop-color="#AB00E8"/>
</linearGradient>
<linearGradient id="paint28_linear_131_3" x1="313.657" y1="235.671" x2="313.657" y2="238.827" gradientUnits="userSpaceOnUse">
<stop stop-color="#3C43F2"/>
<stop offset="1" stop-color="#AB00E8"/>
</linearGradient>
<linearGradient id="paint29_linear_131_3" x1="175.357" y1="251.729" x2="175.357" y2="302.934" gradientUnits="userSpaceOnUse">
<stop stop-color="#3C43F2"/>
<stop offset="1" stop-color="#AB00E8"/>
</linearGradient>
<linearGradient id="paint30_linear_131_3" x1="156.149" y1="288.859" x2="223.526" y2="280.799" gradientUnits="userSpaceOnUse">
<stop offset="0.01"/>
<stop offset="0.08" stop-opacity="0.69"/>
<stop offset="0.21" stop-opacity="0.32"/>
<stop offset="1" stop-opacity="0"/>
</linearGradient>
<linearGradient id="paint31_linear_131_3" x1="179.549" y1="259.681" x2="179.549" y2="285.984" gradientUnits="userSpaceOnUse">
<stop stop-color="#3C43F2"/>
<stop offset="1" stop-color="#AB00E8"/>
</linearGradient>
<linearGradient id="paint32_linear_131_3" x1="233.843" y1="282.701" x2="233.843" y2="288.45" gradientUnits="userSpaceOnUse">
<stop stop-color="#3C43F2"/>
<stop offset="1" stop-color="#AB00E8"/>
</linearGradient>
<linearGradient id="paint33_linear_131_3" x1="233.719" y1="273.642" x2="234.069" y2="307.998" gradientUnits="userSpaceOnUse">
<stop offset="0.01"/>
<stop offset="0.08" stop-opacity="0.69"/>
<stop offset="0.21" stop-opacity="0.32"/>
<stop offset="1" stop-opacity="0"/>
</linearGradient>
<linearGradient id="paint34_linear_131_3" x1="222.704" y1="278.778" x2="126.055" y2="248.869" gradientUnits="userSpaceOnUse">
<stop offset="0.01"/>
<stop offset="0.08" stop-opacity="0.69"/>
<stop offset="0.21" stop-opacity="0.32"/>
<stop offset="1" stop-opacity="0"/>
</linearGradient>
<clipPath id="clip0_131_3">
<rect width="557" height="411" fill="white"/>
</clipPath>
</defs>
</svg>
