<svg width="356" height="420" viewBox="0 0 356 420" fill="none" xmlns="http://www.w3.org/2000/svg">
<g id="no assignment placeholder">
<g id="no assignments placeholder" filter="url(#filter0_d_1179_3608)">
<g id="No Assignment placeholder">
<g id="pad">
<rect id="Rectangle 3917" x="56" y="70.3911" width="213.279" height="284.844" rx="10" transform="rotate(-10 56 70.3911)" fill="#7959FD" fill-opacity="0.4"/>
</g>
</g>
<g id="Paper">
<g id="page">
<path id="Rectangle 72" d="M286 274.719C287.36 282.33 282.29 289.591 274.676 290.936L194.916 305.03C186.82 306.46 178.486 304.507 171.861 299.626L119.499 261.052C113.3 256.485 109.089 249.716 107.736 242.144L82.5699 101.297C81.2099 93.686 86.2798 86.425 93.8938 85.0796L233.487 60.414C241.101 59.0686 248.376 64.1483 249.736 71.7597L286 274.719Z" fill="#224E94"/>
<path id="Rectangle 73" d="M290.475 279.589C291.835 287.2 286.765 294.461 279.151 295.807L194.923 310.689C186.838 312.118 178.515 310.172 171.893 305.304L116.54 264.617C110.327 260.05 106.106 253.273 104.751 245.689L78.4083 98.257C77.0483 90.6455 82.1182 83.3846 89.7322 82.0392L236.327 56.1364C243.941 54.791 251.216 59.8707 252.576 67.4821L290.475 279.589Z" fill="#51B8F3" fill-opacity="0.2"/>
<path id="Rectangle 69" d="M298.733 290.398C300.093 298.01 295.023 305.271 287.409 306.616L195.381 322.877C187.304 324.304 178.989 322.363 172.37 317.506L111.743 273.013C105.52 268.446 101.292 261.663 99.9355 254.072L71.4709 94.7657C70.1109 87.1542 75.1808 79.8933 82.7949 78.5479L241.643 50.48C249.257 49.1347 256.532 54.2143 257.892 61.8258L298.733 290.398Z" fill="url(#paint0_radial_1179_3608)"/>
<path id="Rectangle 70" d="M298.727 290.398C300.087 298.01 295.017 305.271 287.403 306.616L195.375 322.877C187.298 324.304 178.983 322.363 172.364 317.506L111.737 273.013C105.514 268.446 101.286 261.663 99.9296 254.072L71.4651 94.7656C70.1051 87.1541 75.175 79.8932 82.789 78.5478L241.637 50.4799C249.251 49.1346 256.526 54.2142 257.886 61.8256L298.727 290.398Z" fill="url(#paint1_radial_1179_3608)"/>
<g id="Mask Group">
<mask id="mask0_1179_3608" style="mask-type:alpha" maskUnits="userSpaceOnUse" x="72" y="50" width="228" height="274">
<path id="Rectangle 70_2" d="M299.721 290.407C301.081 298.019 296.011 305.28 288.397 306.625L196.369 322.886C188.292 324.313 179.977 322.372 173.358 317.515L112.731 273.022C106.509 268.455 102.28 261.672 100.924 254.081L72.4592 94.7747C71.0992 87.1633 76.1691 79.9024 83.7831 78.557L242.631 50.4891C250.245 49.1437 257.52 54.2233 258.88 61.8348L299.721 290.407Z" fill="url(#paint2_radial_1179_3608)"/>
</mask>
<g mask="url(#mask0_1179_3608)">
<g id="Vector 91" filter="url(#filter1_f_1179_3608)">
<path d="M171.312 253.844L170.81 323.022L108.24 278.807L171.312 253.844Z" fill="black" fill-opacity="0.46"/>
</g>
<path id="Vector 90" d="M168.982 280.672L176.859 324.762L110.616 276.768L152.733 269.326C160.347 267.981 167.622 273.06 168.982 280.672Z" fill="url(#paint3_radial_1179_3608)"/>
</g>
</g>
</g>
<path id="Ellipse 212" d="M206.175 55.376C203.943 43.264 196.881 32.5598 186.544 25.6182C176.206 18.6766 163.44 16.0662 151.053 18.3612C138.666 20.6563 127.673 27.6688 120.493 37.8562C113.312 48.0435 110.533 60.5712 112.765 72.6832L159.47 64.0296L206.175 55.376Z" fill="#7959FD"/>
</g>
<g id="tick discription">
<g id="tick box">
<rect id="Rectangle 3918" x="105.75" y="116.736" width="38" height="37" rx="5" transform="rotate(-10 105.75 116.736)" fill="#7959FD" fill-opacity="0.3"/>
<path id="Vector" d="M124.747 142.478C124.137 142.585 123.514 142.446 123.011 142.098L112.859 135.068C111.819 134.347 111.563 132.896 112.294 131.864C113.025 130.831 114.491 130.572 115.532 131.293L123.783 137.006L136.743 118.701C137.474 117.668 138.94 117.41 139.981 118.13C141.021 118.851 141.277 120.301 140.546 121.334L126.249 141.527C125.896 142.026 125.358 142.37 124.747 142.478Z" fill="#7959FD"/>
</g>
<g id="description">
<line id="Line 14" x1="187.999" y1="216.903" x2="254.257" y2="201.606" stroke="#7959FD" stroke-opacity="0.7" stroke-width="2" stroke-linecap="round"/>
<line id="Line 15" x1="188.007" y1="222.233" x2="234.777" y2="211.435" stroke="#7959FD" stroke-opacity="0.7" stroke-width="2" stroke-linecap="round"/>
<line id="Line 16" x1="188.007" y1="228.233" x2="225.033" y2="219.685" stroke="#7959FD" stroke-opacity="0.7" stroke-width="2" stroke-linecap="round"/>
</g>
<g id="tick box_2">
<rect id="Rectangle 3918_2" x="125" y="217.736" width="38" height="37" rx="5" transform="rotate(-10 125 217.736)" fill="#7959FD" fill-opacity="0.3"/>
<g id="cross">
<path id="Vector_2" d="M157.511 243.32C156.663 243.469 155.759 243.306 154.97 242.755L134.159 228.187C132.635 227.121 132.257 224.977 133.325 223.453C134.392 221.929 136.536 221.551 138.06 222.618L158.871 237.185C160.395 238.252 160.773 240.396 159.706 241.919C159.146 242.663 158.36 243.17 157.511 243.32Z" fill="#7959FD"/>
<path id="Vector_3" d="M139.669 246.65C138.82 246.8 137.916 246.637 137.128 246.085C135.604 245.018 135.226 242.875 136.293 241.351L150.866 220.544C151.934 219.021 154.078 218.643 155.602 219.709C157.126 220.776 157.504 222.92 156.437 224.444L141.864 245.25C141.311 246.038 140.518 246.501 139.669 246.65Z" fill="#7959FD"/>
</g>
</g>
<g id="description_2">
<line id="Line 14_2" x1="179.749" y1="167.903" x2="246.007" y2="152.606" stroke="#7959FD" stroke-opacity="0.7" stroke-width="2" stroke-linecap="round"/>
<line id="Line 15_2" x1="179.757" y1="173.233" x2="226.527" y2="162.435" stroke="#7959FD" stroke-opacity="0.7" stroke-width="2" stroke-linecap="round"/>
<line id="Line 16_2" x1="179.757" y1="179.233" x2="216.783" y2="170.685" stroke="#7959FD" stroke-opacity="0.7" stroke-width="2" stroke-linecap="round"/>
</g>
<g id="vuesax/outline/search-normal">
<g id="vuesax/outline/search-normal_2">
<g id="search-normal">
<path id="Vector_4" d="M107.187 182.981C107.187 167.443 119.837 154.793 135.375 154.793C150.912 154.793 163.562 167.443 163.562 182.981C163.562 198.518 150.912 211.168 135.375 211.168C119.837 211.168 107.187 198.518 107.187 182.981ZM159.437 182.981C159.437 169.698 148.63 158.918 135.375 158.918C122.12 158.918 111.312 169.698 111.312 182.981C111.312 196.263 122.12 207.043 135.375 207.043C148.63 207.043 159.437 196.263 159.437 182.981Z" fill="#7959FD"/>
</g>
</g>
<line id="Line 1" x1="64.6443" y1="283.874" x2="108.403" y2="215.711" stroke="#7959FD" stroke-width="9" stroke-linecap="round"/>
<line id="Line 2" x1="109.445" y1="214.582" x2="117.227" y2="202.91" stroke="#7959FD" stroke-width="4" stroke-linecap="round"/>
<g id="tick box_3">
<rect id="Rectangle 3918_3" x="113.898" y="167.095" width="38" height="37" rx="5" transform="rotate(-10 113.898 167.095)" fill="#7959FD" fill-opacity="0.3"/>
<path id="Vector_5" d="M132.896 192.837C132.285 192.944 131.662 192.805 131.16 192.457L121.007 185.427C119.967 184.706 119.711 183.256 120.442 182.223C121.174 181.19 122.64 180.931 123.68 181.652L131.931 187.365L144.891 169.06C145.623 168.027 147.089 167.769 148.129 168.489C149.169 169.21 149.425 170.661 148.694 171.693L134.398 191.886C134.045 192.385 133.507 192.729 132.896 192.837Z" fill="#7959FD"/>
</g>
</g>
<g id="description_3">
<line id="Line 14_3" x1="168.749" y1="115.903" x2="235.007" y2="100.606" stroke="#7959FD" stroke-opacity="0.7" stroke-width="2" stroke-linecap="round"/>
<line id="Line 15_3" x1="168.757" y1="121.233" x2="215.527" y2="110.435" stroke="#7959FD" stroke-opacity="0.7" stroke-width="2" stroke-linecap="round"/>
<line id="Line 16_3" x1="168.757" y1="127.233" x2="205.783" y2="118.685" stroke="#7959FD" stroke-opacity="0.7" stroke-width="2" stroke-linecap="round"/>
</g>
</g>
<g id="vuesax/bulk/add-circle">
<g id="vuesax/bulk/add-circle_2">
<g id="add-circle">
<path id="Vector_6" d="M307.34 250.437C327.283 246.921 340.599 227.903 337.082 207.96C333.566 188.018 314.549 174.701 294.606 178.218C274.663 181.734 261.347 200.752 264.863 220.695C268.38 240.637 287.397 253.954 307.34 250.437Z" fill="#D5CBFF"/>
<path id="Vector_7" d="M314.938 209.073L303.202 211.142L301.133 199.406C300.872 197.926 299.427 196.914 297.947 197.176C296.466 197.437 295.455 198.881 295.716 200.361L297.786 212.097L286.05 214.166C284.569 214.427 283.558 215.871 283.819 217.352C284.08 218.832 285.525 219.844 287.005 219.583L298.741 217.513L300.81 229.249C301.071 230.729 302.515 231.741 303.996 231.48C305.476 231.219 306.487 229.774 306.226 228.294L304.157 216.558L315.893 214.489C317.373 214.228 318.384 212.784 318.123 211.303C317.862 209.823 316.418 208.811 314.938 209.073Z" fill="#7959FD"/>
</g>
</g>
</g>
</g>
<path id="Vector_8" d="M328.544 63.3552C332.44 62.6681 335.042 58.9522 334.355 55.0555C333.668 51.1589 329.952 48.557 326.056 49.2441C322.159 49.9312 319.557 53.647 320.244 57.5437C320.931 61.4404 324.647 64.0423 328.544 63.3552Z" fill="#D5CBFF" fill-opacity="0.33"/>
<path id="Vector_9" d="M328.544 63.3552C332.44 62.6681 335.042 58.9522 334.355 55.0555C333.668 51.1589 329.952 48.557 326.056 49.2441C322.159 49.9312 319.557 53.647 320.244 57.5437C320.931 61.4404 324.647 64.0423 328.544 63.3552Z" fill="#D5CBFF" fill-opacity="0.33"/>
<path id="Vector_10" d="M30.5805 289.197C33.6756 288.651 35.7423 285.699 35.1965 282.604C34.6508 279.509 31.6993 277.442 28.6042 277.988C25.5091 278.534 23.4424 281.485 23.9882 284.581C24.5339 287.676 27.4854 289.742 30.5805 289.197Z" fill="#D5CBFF" fill-opacity="0.33"/>
<path id="Vector_11" d="M83.9763 298.701C86.1722 298.314 88.2662 299.78 88.6535 301.976C89.0407 304.172 87.5744 306.266 85.3784 306.653C83.1825 307.04 81.0885 305.574 80.7012 303.378C80.314 301.182 81.7803 299.088 83.9763 298.701Z" fill="#D5CBFF" fill-opacity="0.33"/>
<path id="Vector_12" d="M41.3881 209.679C43.1623 219.741 36.4437 229.336 26.3816 231.11C16.3196 232.884 6.72439 226.166 4.95018 216.104C3.17597 206.041 9.89458 196.446 19.9566 194.672C30.0187 192.898 39.6139 199.617 41.3881 209.679Z" stroke="#D5CBFF" stroke-opacity="0.33" stroke-width="3"/>
<ellipse id="Ellipse 213" cx="217" cy="402.5" rx="108" ry="17.5" fill="#D5CBFF" fill-opacity="0.33"/>
</g>
<defs>
<filter id="filter0_d_1179_3608" x="53.582" y="17.5484" width="302.361" height="339.776" filterUnits="userSpaceOnUse" color-interpolation-filters="sRGB">
<feFlood flood-opacity="0" result="BackgroundImageFix"/>
<feColorMatrix in="SourceAlpha" type="matrix" values="0 0 0 0 0 0 0 0 0 0 0 0 0 0 0 0 0 0 127 0" result="hardAlpha"/>
<feOffset dy="4"/>
<feGaussianBlur stdDeviation="2"/>
<feComposite in2="hardAlpha" operator="out"/>
<feColorMatrix type="matrix" values="0 0 0 0 0 0 0 0 0 0 0 0 0 0 0 0 0 0 0.62 0"/>
<feBlend mode="normal" in2="BackgroundImageFix" result="effect1_dropShadow_1179_3608"/>
<feBlend mode="normal" in="SourceGraphic" in2="effect1_dropShadow_1179_3608" result="shape"/>
</filter>
<filter id="filter1_f_1179_3608" x="68.2402" y="213.844" width="143.072" height="149.178" filterUnits="userSpaceOnUse" color-interpolation-filters="sRGB">
<feFlood flood-opacity="0" result="BackgroundImageFix"/>
<feBlend mode="normal" in="SourceGraphic" in2="BackgroundImageFix" result="shape"/>
<feGaussianBlur stdDeviation="20" result="effect1_foregroundBlur_1179_3608"/>
</filter>
<radialGradient id="paint0_radial_1179_3608" cx="0" cy="0" r="1" gradientUnits="userSpaceOnUse" gradientTransform="translate(118.418 334.117) rotate(-64.5369) scale(312.2 235.183)">
<stop stop-color="#EFEFEF"/>
<stop offset="1" stop-color="#FDFDFD"/>
</radialGradient>
<radialGradient id="paint1_radial_1179_3608" cx="0" cy="0" r="1" gradientUnits="userSpaceOnUse" gradientTransform="translate(262.272 30.7917) rotate(116.1) scale(230.076 173.51)">
<stop stop-color="white"/>
<stop offset="1" stop-color="#F9FBFF"/>
</radialGradient>
<radialGradient id="paint2_radial_1179_3608" cx="0" cy="0" r="1" gradientUnits="userSpaceOnUse" gradientTransform="translate(119.407 334.126) rotate(-64.5369) scale(312.2 235.183)">
<stop stop-color="#EFEFEF"/>
<stop offset="1" stop-color="#FDFDFD"/>
</radialGradient>
<radialGradient id="paint3_radial_1179_3608" cx="0" cy="0" r="1" gradientUnits="userSpaceOnUse" gradientTransform="translate(166.144 266.219) rotate(122.422) scale(64.4889 200.741)">
<stop stop-color="white"/>
<stop offset="0.5" stop-color="#F9FBFF"/>
<stop offset="0.631395" stop-color="white"/>
</radialGradient>
</defs>
</svg>
