<svg width="106" height="134" viewBox="0 0 106 134" fill="none" xmlns="http://www.w3.org/2000/svg">
<circle cx="52.5" cy="12.5" r="12.5" fill="#61E0E8"/>
<path d="M62 43C63.6569 43 65.0264 41.6475 64.7499 40.0139C64.2647 37.1482 63.0876 34.4919 61.3388 32.3934C58.9946 29.5804 55.8152 28 52.5 28C49.1848 28 46.0054 29.5804 43.6612 32.3934C41.9124 34.4919 40.7353 37.1482 40.2501 40.0139C39.9736 41.6475 41.3431 43 43 43L52.5 43H62Z" fill="#61E0E8"/>
<ellipse cx="93.3851" cy="89.5" rx="12.6149" ry="12.5" fill="#E3DA00"/>
<path d="M102.881 118.835C104.538 118.835 105.907 117.482 105.628 115.849C105.139 112.983 103.951 110.327 102.186 108.228C99.8201 105.415 96.6115 103.835 93.2658 103.835C89.9201 103.835 86.7115 105.415 84.3457 108.228C82.5808 110.327 81.3929 112.983 80.9033 115.849C80.6243 117.482 81.994 118.835 83.6509 118.835L93.2658 118.835H102.881Z" fill="#E3DA00"/>
<ellipse cx="12.6664" cy="89.665" rx="12.6149" ry="12.5" fill="#6F2FF5"/>
<path d="M22.2299 119C23.8867 119 25.2565 117.647 24.9774 116.014C24.4879 113.148 23.2999 110.492 21.535 108.393C19.1693 105.58 15.9606 104 12.6149 104C9.26924 104 6.06059 105.58 3.69483 108.393C1.92992 110.492 0.741981 113.148 0.252405 116.014C-0.0266076 117.647 1.34315 119 3 119L12.6149 119H22.2299Z" fill="#6F2FF5"/>
<ellipse cx="52.9827" cy="89.5" rx="12.6149" ry="12.5" fill="#FF2B2B"/>
<path d="M63 119C64.6569 119 66.0272 117.647 65.74 116.015C65.2356 113.149 64.0114 110.492 62.1924 108.393C59.7544 105.58 56.4478 104 53 104C49.5522 104 46.2456 105.58 43.8076 108.393C41.9886 110.492 40.7644 113.149 40.26 116.015C39.9728 117.647 41.3431 119 43 119L53 119H63Z" fill="#FF2B2B"/>
<path d="M0 50H106L99.9834 58.5992C97.1767 62.6107 92.5889 65 87.693 65H20.6335C16.5069 65 12.5625 63.2999 9.7289 60.3L0 50Z" fill="black"/>
</svg>
