<svg width="75" height="70" viewBox="0 0 75 70" fill="none" xmlns="http://www.w3.org/2000/svg">
<g id="Admin-btn">
<rect id="admin-rectange" x="0.5" y="0.5" width="74" height="69" rx="9.5" fill="white" stroke="#2C2E41"/>
<path id="Admin" d="M20.326 52.06H21.152L25.282 62H24.246L22.958 58.892H18.492L17.218 62H16.168L20.326 52.06ZM22.734 58.122L20.732 53.208L18.702 58.122H22.734ZM25.8159 58.374C25.8159 57.6833 25.9559 57.0533 26.2359 56.484C26.5252 55.9053 26.9219 55.4433 27.4259 55.098C27.9299 54.7527 28.5039 54.58 29.1479 54.58C29.7545 54.58 30.2959 54.7433 30.7719 55.07C31.2572 55.3873 31.6352 55.7747 31.9059 56.232V51.78H32.8579V60.852C32.8579 60.9827 32.8859 61.0807 32.9419 61.146C32.9979 61.202 33.0819 61.2347 33.1939 61.244V62C33.0072 62.028 32.8625 62.0373 32.7599 62.028C32.5639 62.0187 32.3912 61.9393 32.2419 61.79C32.0925 61.6407 32.0179 61.4773 32.0179 61.3V60.586C31.7285 61.062 31.3365 61.44 30.8419 61.72C30.3472 62 29.8339 62.14 29.3019 62.14C28.7979 62.14 28.3312 62.0373 27.9019 61.832C27.4819 61.6267 27.1132 61.3467 26.7959 60.992C26.4879 60.6373 26.2452 60.236 26.0679 59.788C25.8999 59.3307 25.8159 58.8593 25.8159 58.374ZM31.9059 59.494V57.24C31.7845 56.904 31.5885 56.6007 31.3179 56.33C31.0472 56.05 30.7392 55.8307 30.3939 55.672C30.0579 55.504 29.7219 55.42 29.3859 55.42C28.9939 55.42 28.6392 55.504 28.3219 55.672C28.0045 55.8307 27.7292 56.05 27.4959 56.33C27.2719 56.61 27.0992 56.9273 26.9779 57.282C26.8565 57.6367 26.7959 58.0007 26.7959 58.374C26.7959 58.766 26.8612 59.1393 26.9919 59.494C27.1319 59.8487 27.3279 60.166 27.5799 60.446C27.8319 60.7167 28.1212 60.9267 28.4479 61.076C28.7745 61.2253 29.1292 61.3 29.5119 61.3C29.7545 61.3 30.0065 61.2533 30.2679 61.16C30.5292 61.0667 30.7765 60.9407 31.0099 60.782C31.2525 60.614 31.4532 60.418 31.6119 60.194C31.7705 59.97 31.8685 59.7367 31.9059 59.494ZM45.8648 62H44.9128V57.926C44.9128 57.0767 44.7775 56.4513 44.5068 56.05C44.2362 55.6487 43.8348 55.448 43.3028 55.448C42.7522 55.448 42.2575 55.644 41.8188 56.036C41.3895 56.428 41.0862 56.932 40.9088 57.548V62H39.9568V57.926C39.9568 57.0673 39.8262 56.442 39.5648 56.05C39.3035 55.6487 38.9022 55.448 38.3608 55.448C37.8195 55.448 37.3295 55.6393 36.8908 56.022C36.4522 56.4047 36.1442 56.9087 35.9668 57.534V62H35.0148V54.706H35.8828V56.358C36.1908 55.7887 36.5828 55.35 37.0588 55.042C37.5442 54.734 38.0808 54.58 38.6688 54.58C39.2755 54.58 39.7655 54.7527 40.1388 55.098C40.5122 55.4433 40.7408 55.896 40.8248 56.456C41.1608 55.84 41.5622 55.3733 42.0288 55.056C42.5048 54.7387 43.0415 54.58 43.6388 54.58C44.0495 54.58 44.3948 54.6547 44.6748 54.804C44.9642 54.9533 45.1928 55.168 45.3608 55.448C45.5382 55.7187 45.6642 56.05 45.7388 56.442C45.8228 56.8247 45.8648 57.254 45.8648 57.73V62ZM47.8801 62V54.706H48.8321V62H47.8801ZM47.8801 53.18V51.78H48.8321V53.18H47.8801ZM57.0609 62H56.1089V57.926C56.1089 57.0673 55.9829 56.442 55.7309 56.05C55.4789 55.6487 55.0822 55.448 54.5409 55.448C54.1676 55.448 53.7989 55.5413 53.4349 55.728C53.0709 55.9053 52.7489 56.1527 52.4689 56.47C52.1982 56.778 52.0022 57.1327 51.8809 57.534V62H50.9289V54.706H51.7969V56.358C51.9929 56.0033 52.2496 55.6953 52.5669 55.434C52.8842 55.1633 53.2436 54.9533 53.6449 54.804C54.0462 54.6547 54.4616 54.58 54.8909 54.58C55.2922 54.58 55.6329 54.6547 55.9129 54.804C56.1929 54.9533 56.4169 55.168 56.5849 55.448C56.7529 55.7187 56.8742 56.05 56.9489 56.442C57.0236 56.8247 57.0609 57.254 57.0609 57.73V62Z" fill="#2C2E41"/>
<g id="admin-logo 1">
<g id="#274_manager_outline">
<path id="Vector" d="M48.2183 28.2529C48.2226 31.0555 47.2122 33.7613 45.3804 35.8523C44.3912 36.9837 43.1923 37.9046 41.8525 38.5623C41.5883 38.6926 41.3186 38.8114 41.0433 38.9189C40.5476 39.1147 40.0385 39.2729 39.5201 39.3924C39.3689 39.4295 39.2177 39.4609 39.0637 39.488C38.7473 39.5498 38.4257 39.5973 38.0991 39.6306C37.8191 39.6605 37.5251 39.6762 37.2325 39.6819C37.1541 39.6819 37.0771 39.6819 36.9987 39.6819C36.9203 39.6819 36.8335 39.6819 36.7523 39.6819C36.4639 39.6762 36.1792 39.6591 35.8983 39.6306C35.5725 39.5992 35.251 39.5517 34.9337 39.488C34.7797 39.4609 34.6285 39.4295 34.4773 39.3924C33.9592 39.2724 33.4506 39.1136 32.9555 38.9174C32.6811 38.809 32.4113 38.6902 32.1463 38.5609C29.5933 37.3096 27.5993 35.121 26.5645 32.4342C25.5296 29.7475 25.5305 26.7613 26.5669 24.0752C27.6033 21.389 29.5985 19.2016 32.1522 17.9519C34.7058 16.7022 37.6289 16.4827 40.3349 17.3374C40.7385 17.4647 41.1345 17.6162 41.5207 17.791C43.5119 18.6861 45.2049 20.1515 46.3937 22.0089C47.5825 23.8662 48.2159 26.0356 48.2169 28.2529H48.2183Z" fill="white"/>
<path id="Vector_2" d="M37 39.8259C36.916 39.8259 36.832 39.8259 36.7494 39.8259C36.4694 39.8259 36.174 39.8031 35.8856 39.7732C35.5622 39.7418 35.2332 39.6947 34.9056 39.6305C34.7418 39.6006 34.5906 39.5692 34.4422 39.5336C33.9181 39.4112 33.4034 39.2501 32.9022 39.0515C32.6222 38.9388 32.3422 38.8175 32.0832 38.6906C29.4934 37.4266 27.4694 35.2103 26.4184 32.4877C25.3673 29.765 25.3672 26.7379 26.418 24.0152C27.4688 21.2924 29.4925 19.076 32.0822 17.8117C34.6719 16.5474 37.6355 16.329 40.3768 17.2004C40.7857 17.3284 41.1868 17.4808 41.578 17.6569C43.3598 18.4565 44.9099 19.7093 46.0796 21.295C47.2493 22.8807 47.9994 24.7461 48.2577 26.7122C48.5161 28.6782 48.2741 30.6789 47.555 32.5222C46.8359 34.3656 45.6638 35.9896 44.1512 37.2386C43.4625 37.8081 42.7107 38.2935 41.9112 38.6849C41.655 38.8118 41.3792 38.9331 41.0922 39.0458C40.5911 39.2445 40.0764 39.4057 39.5522 39.5278C39.4052 39.5635 39.254 39.5949 39.0888 39.6248C38.7654 39.6862 38.4364 39.7332 38.1088 39.7675C37.8288 39.7974 37.5376 39.8145 37.2324 39.8202C37.1582 39.8245 37.0798 39.8259 37 39.8259ZM37 16.9665C34.4899 16.9693 32.055 17.8401 30.094 19.4365C28.133 21.0329 26.762 23.2602 26.2055 25.7538C25.649 28.2475 25.9398 30.8598 27.0305 33.1631C28.1212 35.4663 29.947 37.3242 32.2092 38.4324C32.4598 38.5551 32.7286 38.6735 33.0086 38.7847C33.4969 38.9786 33.9985 39.1354 34.5094 39.254C34.6494 39.2882 34.7992 39.3196 34.9588 39.3481C35.2766 39.408 35.5972 39.4551 35.9136 39.4908C36.1936 39.5207 36.4736 39.5378 36.7536 39.5421C36.9118 39.5421 37.0686 39.5421 37.2268 39.5421C37.5264 39.5421 37.8134 39.5193 38.0822 39.4908C38.4 39.4608 38.7206 39.4137 39.037 39.3481C39.198 39.3196 39.345 39.2882 39.4864 39.254C39.9979 39.1356 40.5 38.9788 40.9886 38.7847C41.2686 38.6735 41.5374 38.5551 41.788 38.4324C43.6988 37.4986 45.3067 36.0262 46.421 34.1897C47.5353 32.3532 48.1093 30.2296 48.075 28.0708C48.0407 25.912 47.3994 23.8085 46.2273 22.0098C45.0551 20.211 43.4013 18.7924 41.4618 17.9221C41.0806 17.7493 40.6898 17.5993 40.2914 17.4729C39.2254 17.1369 38.1159 16.9663 37 16.9665Z" fill="#093F68"/>
<path id="Vector_3" d="M36.44 12.8431C36.6786 12.8055 36.9196 12.7865 37.161 12.786C38.841 12.786 40.4552 12.9058 41.8132 13.9841C43.0872 14.9953 44.0319 16.3749 44.5236 17.9421C44.159 17.8203 43.8083 17.6587 43.4778 17.46C43.804 17.6554 44.2912 20.5979 43.3378 23.6759L30.28 23.519C30.203 23.2451 30.3234 22.9228 30.3346 22.6504C30.3276 22.3469 30.2834 22.0455 30.203 21.7532C30.0441 20.9955 29.9546 20.2243 29.9356 19.4497C29.9188 18.2131 30.2156 17.0393 30.6678 15.9068C30.938 15.2336 31.2572 14.5375 31.8396 14.1182C32.422 13.6988 33.346 13.6903 33.7618 14.2765C34.4726 13.5077 35.4153 13.0031 36.44 12.8431Z" fill="#725858"/>
<path id="Vector_4" d="M43.3365 23.8142L30.2801 23.6616C30.2498 23.6612 30.2206 23.6509 30.1966 23.6321C30.1726 23.6133 30.1552 23.5872 30.1471 23.5575C30.1049 23.3476 30.1092 23.1308 30.1597 22.9228C30.1782 22.8287 30.1903 22.7334 30.1961 22.6375C30.1959 22.4131 30.1667 22.1896 30.1093 21.9729C30.0953 21.9073 30.0799 21.8402 30.0673 21.7732C29.9065 21.007 29.816 20.2273 29.7971 19.444C29.7817 18.303 30.0239 17.1249 30.5391 15.8455C30.8065 15.1837 31.1425 14.4391 31.7613 13.9913C32.3395 13.5748 33.2649 13.5177 33.7703 14.0526C34.4881 13.3253 35.4142 12.8493 36.4149 12.6933C36.6605 12.6551 36.9084 12.635 37.1569 12.6334C38.7767 12.6334 40.4763 12.7347 41.8959 13.8615C43.193 14.8932 44.1555 16.2986 44.6581 17.8951C44.6659 17.9202 44.6667 17.9469 44.6605 17.9725C44.6542 17.998 44.6412 18.0213 44.6228 18.0397C44.6044 18.0582 44.5813 18.0711 44.5562 18.077C44.531 18.0829 44.5048 18.0817 44.4803 18.0734C44.2472 17.9933 44.0195 17.898 43.7985 17.7881C44.1079 18.8036 44.2185 21.2826 43.4709 23.7101C43.4626 23.74 43.4451 23.7664 43.4208 23.7851C43.3966 23.8039 43.3669 23.8142 43.3365 23.8142ZM30.3991 23.3778L43.2343 23.5204C44.1303 20.5394 43.6683 17.7967 43.4051 17.5699C43.3738 17.5504 43.3512 17.5191 43.3423 17.4828C43.3334 17.4465 43.3389 17.4081 43.3575 17.3759C43.3764 17.3434 43.4073 17.3198 43.4432 17.3105C43.4792 17.3011 43.5173 17.3067 43.5493 17.326C43.7892 17.47 44.0401 17.5941 44.2997 17.6968C43.7905 16.2723 42.8977 15.0226 41.7237 14.0911C40.3741 13.02 38.7277 12.9272 37.1569 12.923H37.1471C36.9164 12.9238 36.6862 12.9424 36.4583 12.9786C35.4645 13.1349 34.5513 13.6272 33.8655 14.3764C33.8513 14.392 33.834 14.4041 33.8146 14.412C33.7953 14.4199 33.7744 14.4233 33.7536 14.4219C33.7328 14.4205 33.7126 14.4145 33.6944 14.4041C33.6762 14.3938 33.6605 14.3794 33.6485 14.3621C33.2733 13.8272 32.4375 13.8672 31.9223 14.238C31.3623 14.6388 31.0613 15.3106 30.8023 15.9639C30.3011 17.2062 30.0659 18.3472 30.0813 19.4497C30.1002 20.2171 30.1888 20.9811 30.3459 21.7318C30.3585 21.7974 30.3725 21.8616 30.3865 21.9258C30.4501 22.1662 30.4816 22.4142 30.4803 22.6632C30.4736 22.7691 30.4601 22.8744 30.4397 22.9784C30.4112 23.1095 30.3976 23.2435 30.3991 23.3778Z" fill="#093F68"/>
<path id="Vector_5" d="M44.0631 34.5358V37.1331C43.3833 37.6947 42.6414 38.1734 41.8525 38.5594C41.5883 38.6897 41.3186 38.8085 41.0433 38.916C40.5477 39.1127 40.0386 39.272 39.5201 39.3924C39.3689 39.4294 39.2177 39.4608 39.0637 39.4879C38.7473 39.5497 38.4257 39.5973 38.0991 39.6306C37.8191 39.6605 37.5251 39.6762 37.2325 39.6819C37.1541 39.6819 37.0771 39.6819 36.9987 39.6819C36.9203 39.6819 36.8335 39.6819 36.7523 39.6819C36.4639 39.6762 36.1792 39.6591 35.8983 39.6306C35.5725 39.5992 35.251 39.5516 34.9337 39.4879C34.7797 39.4608 34.6285 39.4294 34.4773 39.3924C33.9592 39.2724 33.4506 39.1136 32.9555 38.9174C32.6811 38.809 32.4113 38.6901 32.1463 38.5608C31.3574 38.1748 30.6154 37.6961 29.9357 37.1345V34.5358C29.9357 31.3309 32.0749 28.7307 34.7153 28.7307H39.2821C41.9239 28.7307 44.0631 31.3309 44.0631 34.5358Z" fill="#704EB7"/>
<path id="Vector_6" d="M37 39.8259C36.916 39.8259 36.832 39.8259 36.7494 39.8259C36.4694 39.8259 36.174 39.8031 35.8856 39.7732C35.5622 39.7418 35.2332 39.6947 34.9056 39.6305C34.7418 39.6006 34.5906 39.5692 34.4422 39.5336C33.918 39.4112 33.4033 39.2501 32.9022 39.0515C32.6222 38.9388 32.3422 38.8175 32.0832 38.6906C31.2837 38.2992 30.5319 37.8138 29.8432 37.2443C29.8271 37.2311 29.8141 37.2143 29.8052 37.1953C29.7962 37.1763 29.7915 37.1556 29.7914 37.1345V34.5358C29.7914 31.2553 31.9978 28.5881 34.711 28.5881H39.2778C41.991 28.5881 44.1974 31.2567 44.1974 34.5358V37.1331C44.1972 37.1541 44.1925 37.1749 44.1836 37.1939C44.1746 37.2129 44.1616 37.2296 44.1456 37.2429C43.4568 37.8124 42.7051 38.2978 41.9056 38.6892C41.6494 38.8161 41.3736 38.9374 41.0866 39.05C40.5855 39.2488 40.0708 39.4099 39.5466 39.5321C39.3996 39.5678 39.2484 39.5992 39.0832 39.6291C38.7598 39.6904 38.4308 39.7375 38.1032 39.7717C37.8232 39.8017 37.532 39.8188 37.2268 39.8245C37.1582 39.8245 37.0798 39.8259 37 39.8259ZM30.077 37.0646C30.7347 37.6012 31.45 38.06 32.2092 38.4324C32.4598 38.5551 32.7286 38.6735 33.0086 38.7847C33.4968 38.9786 33.9985 39.1354 34.5094 39.254C34.6494 39.2882 34.7992 39.3196 34.9588 39.3481C35.2766 39.408 35.5972 39.4551 35.9136 39.4908C36.1936 39.5207 36.4736 39.5378 36.7536 39.5421C36.9118 39.5421 37.0686 39.5421 37.2268 39.5421C37.5264 39.5421 37.8134 39.5193 38.0822 39.4908C38.4 39.4608 38.7206 39.4137 39.037 39.3481C39.198 39.3196 39.345 39.2882 39.4864 39.254C39.9978 39.1356 40.4999 38.9788 40.9886 38.7847C41.2686 38.6735 41.5374 38.5551 41.788 38.4324C42.5472 38.06 43.2625 37.6012 43.9202 37.0646V34.5358C43.9202 31.4136 41.8384 28.8733 39.2806 28.8733H34.7166C32.1588 28.8733 30.077 31.4136 30.077 34.5358V37.0646Z" fill="#093F68"/>
<path id="Vector_7" d="M36.3 36.7594C36.2798 36.7594 36.2598 36.755 36.2415 36.7464C36.2231 36.7377 36.2068 36.7252 36.1936 36.7095L33.122 33.0382C33.0984 33.01 33.0865 32.9735 33.0889 32.9365C33.0912 32.8995 33.1076 32.8648 33.1346 32.8399L34.459 31.5991L32.968 31.0456C32.9472 31.0379 32.9284 31.0252 32.9133 31.0085C32.8982 30.9919 32.8872 30.9719 32.8812 30.9501C32.8753 30.9284 32.8745 30.9056 32.8789 30.8835C32.8833 30.8615 32.8927 30.8408 32.9064 30.8231L34.62 28.6395C34.6433 28.6103 34.677 28.5917 34.7137 28.5877C34.7504 28.5837 34.7872 28.5946 34.816 28.6181C34.8449 28.6416 34.8634 28.6758 34.8676 28.7132C34.8718 28.7506 34.8613 28.7882 34.8384 28.8178L33.2522 30.8431L34.7768 31.4136C34.7992 31.4221 34.8191 31.4364 34.8345 31.4549C34.85 31.4734 34.8606 31.4957 34.8652 31.5196C34.8698 31.5435 34.8684 31.5681 34.861 31.5913C34.8536 31.6144 34.8405 31.6353 34.823 31.6518L33.423 32.9583L36.4064 36.5241C36.4238 36.5448 36.435 36.5702 36.4387 36.5972C36.4424 36.6242 36.4384 36.6517 36.4272 36.6765C36.416 36.7012 36.3981 36.7222 36.3755 36.7369C36.353 36.7516 36.3268 36.7594 36.3 36.7594Z" fill="#093F68"/>
<path id="Vector_8" d="M37.7001 36.7594C37.6733 36.7594 37.6471 36.7516 37.6246 36.7369C37.602 36.7222 37.5841 36.7012 37.5729 36.6765C37.5617 36.6517 37.5577 36.6242 37.5614 36.5972C37.5651 36.5702 37.5763 36.5448 37.5937 36.5241L40.5771 32.9583L39.1771 31.6518C39.1596 31.6353 39.1465 31.6144 39.1391 31.5913C39.1317 31.5681 39.1303 31.5435 39.1349 31.5196C39.1396 31.4957 39.1501 31.4734 39.1656 31.4549C39.181 31.4364 39.2009 31.4221 39.2233 31.4136L40.7479 30.8431L39.1617 28.8178C39.1388 28.7882 39.1283 28.7506 39.1325 28.7132C39.1367 28.6758 39.1552 28.6416 39.1841 28.6181C39.2129 28.5946 39.2497 28.5837 39.2864 28.5877C39.3231 28.5917 39.3568 28.6103 39.3801 28.6395L41.0881 30.8203C41.1018 30.8379 41.1112 30.8586 41.1156 30.8807C41.12 30.9027 41.1192 30.9255 41.1133 30.9472C41.1073 30.969 41.0963 30.9891 41.0812 31.0057C41.0661 31.0223 41.0473 31.035 41.0265 31.0428L39.5355 31.5962L40.8599 32.8371C40.8869 32.862 40.9033 32.8966 40.9056 32.9336C40.908 32.9706 40.8961 33.0071 40.8725 33.0353L37.8009 36.7067C37.7886 36.7221 37.7733 36.7348 37.7559 36.7439C37.7386 36.753 37.7196 36.7583 37.7001 36.7594Z" fill="#093F68"/>
<path id="Vector_9" d="M35.9794 28.7279V27.5911H37.917V28.7279" fill="#FFC9B0"/>
<path id="Vector_10" d="M37.9171 28.8705C37.8799 28.8705 37.8443 28.8555 37.8181 28.8287C37.7918 28.802 37.7771 28.7657 37.7771 28.7279V27.7295H36.1195V28.7279C36.1195 28.7657 36.1047 28.802 36.0785 28.8287C36.0522 28.8555 36.0166 28.8705 35.9795 28.8705C35.9423 28.8705 35.9067 28.8555 35.8805 28.8287C35.8542 28.802 35.8395 28.7657 35.8395 28.7279V27.5868C35.8395 27.549 35.8542 27.5127 35.8805 27.486C35.9067 27.4592 35.9423 27.4442 35.9795 27.4442H37.9171C37.9542 27.4442 37.9898 27.4592 38.0161 27.486C38.0423 27.5127 38.0571 27.549 38.0571 27.5868V28.7279C38.0571 28.7657 38.0423 28.802 38.0161 28.8287C37.9898 28.8555 37.9542 28.8705 37.9171 28.8705Z" fill="#093F68"/>
<path id="Vector_11" d="M31.4112 24.1166C32.4511 24.1166 33.2942 23.3765 33.2942 22.4635C33.2942 21.5505 32.4511 20.8104 31.4112 20.8104C30.3712 20.8104 29.5282 21.5505 29.5282 22.4635C29.5282 23.3765 30.3712 24.1166 31.4112 24.1166Z" fill="#FFC9B0"/>
<path id="Vector_12" d="M31.4112 24.2593C30.2912 24.2593 29.3882 23.4534 29.3882 22.4635C29.3882 21.4737 30.2954 20.6693 31.4112 20.6693C32.527 20.6693 33.4328 21.4737 33.4328 22.4635C33.4328 23.4534 32.52 24.2593 31.4112 24.2593ZM31.4112 20.9545C30.4494 20.9545 29.6682 21.632 29.6682 22.4635C29.6682 23.2951 30.4494 23.974 31.4112 23.974C32.373 23.974 33.1528 23.2965 33.1528 22.4635C33.1528 21.6306 32.3716 20.9545 31.4112 20.9545Z" fill="#093F68"/>
<path id="Vector_13" d="M42.3858 24.1166C43.4258 24.1166 44.2688 23.3765 44.2688 22.4635C44.2688 21.5505 43.4258 20.8104 42.3858 20.8104C41.3459 20.8104 40.5028 21.5505 40.5028 22.4635C40.5028 23.3765 41.3459 24.1166 42.3858 24.1166Z" fill="#FFC9B0"/>
<path id="Vector_14" d="M42.3858 24.2593C41.2658 24.2593 40.3628 23.4534 40.3628 22.4635C40.3628 21.4737 41.27 20.6693 42.3858 20.6693C43.5016 20.6693 44.4074 21.4737 44.4074 22.4635C44.4074 23.4534 43.5002 24.2593 42.3858 24.2593ZM42.3858 20.9545C41.424 20.9545 40.6428 21.632 40.6428 22.4635C40.6428 23.2951 41.424 23.974 42.3858 23.974C43.3476 23.974 44.1274 23.2965 44.1274 22.4635C44.1274 21.6306 43.3462 20.9545 42.3858 20.9545Z" fill="#093F68"/>
<path id="Vector_15" d="M36.9482 27.8507C35.4422 27.8507 33.9978 27.2412 32.9329 26.1563C31.868 25.0713 31.2698 23.5999 31.2698 22.0656V19.9632C31.2699 19.6194 31.3409 19.2796 31.4782 18.9656C31.6155 18.6516 31.8161 18.3705 32.0669 18.1405C32.3177 17.9105 32.6131 17.7369 32.9341 17.6307C33.255 17.5245 33.5942 17.4882 33.9298 17.5242C35.117 17.6554 35.4222 18.3985 37.4032 18.4342C38.2208 18.4485 38.9908 17.4957 39.674 17.3673C40.0121 17.3042 40.3596 17.3157 40.693 17.4008C41.0265 17.4859 41.3382 17.6428 41.6071 17.8609C41.8761 18.079 42.0961 18.3532 42.2524 18.6652C42.4087 18.9771 42.4976 19.3195 42.5132 19.6694L42.6196 22.0656C42.6199 23.5988 42.0228 25.0694 40.9593 26.1542C39.8958 27.239 38.4531 27.8492 36.9482 27.8507Z" fill="#FFC9B0"/>
<path id="Vector_16" d="M36.9482 27.9933C35.4056 27.9914 33.9267 27.3663 32.836 26.255C31.7452 25.1438 31.1316 23.6371 31.1298 22.0656V19.9632C31.1296 19.5988 31.2049 19.2385 31.3505 18.9057C31.4962 18.573 31.709 18.2752 31.9751 18.0318C32.2412 17.7884 32.5547 17.6048 32.8951 17.493C33.2355 17.3812 33.5952 17.3437 33.9508 17.383C34.3792 17.4391 34.795 17.5699 35.18 17.7695C35.8732 18.1214 36.6385 18.3003 37.413 18.2916C37.833 18.303 38.253 18.0063 38.673 17.7353C39.0132 17.5042 39.3352 17.2874 39.66 17.2275C40.0177 17.1608 40.3853 17.1728 40.738 17.2628C41.0908 17.3528 41.4206 17.5187 41.7052 17.7494C41.9898 17.98 42.2226 18.2701 42.3881 18.6C42.5535 18.9299 42.6477 19.2921 42.6644 19.6622L42.7708 22.0599C42.7704 23.6331 42.1569 25.1419 41.065 26.2545C39.9732 27.3671 38.4924 27.9925 36.9482 27.9933ZM33.6778 17.6569C33.0764 17.6572 32.4997 17.9008 32.0745 18.334C31.6492 18.7673 31.4101 19.3548 31.4098 19.9675V22.0699C31.3981 22.8183 31.5327 23.5616 31.8057 24.2565C32.0788 24.9514 32.4848 25.5841 33.0002 26.1175C33.5156 26.651 34.13 27.0747 34.8077 27.3639C35.4854 27.6531 36.2127 27.802 36.9475 27.802C37.6822 27.802 38.4096 27.6531 39.0872 27.3639C39.7649 27.0747 40.3793 26.651 40.8947 26.1175C41.4101 25.5841 41.8161 24.9514 42.0892 24.2565C42.3622 23.5616 42.4968 22.8183 42.4852 22.0699L42.3788 19.6794C42.3637 19.3501 42.2796 19.028 42.1323 18.7346C41.9849 18.4411 41.7776 18.1832 41.5244 17.9782C41.2711 17.7731 40.9777 17.6256 40.6638 17.5456C40.35 17.4656 40.023 17.4549 39.7048 17.5142C39.436 17.5656 39.1448 17.7667 38.8214 17.9792C38.3748 18.2816 37.9114 18.5939 37.4074 18.584C36.595 18.5912 35.7922 18.4041 35.0638 18.0377C34.7065 17.8472 34.3195 17.7213 33.92 17.6654C33.8394 17.6583 33.7586 17.6555 33.6778 17.6569Z" fill="#093F68"/>
<path id="Vector_17" d="M38.9978 28.7278L38.0178 36.0106L37.9548 36.3058L37.2338 39.6762C37.1554 39.6762 37.0784 39.6762 37 39.6762C36.9216 39.6762 36.8348 39.6762 36.7536 39.6762L36.0284 36.2873L35.9696 36.012L34.9896 28.7293L38.9978 28.7278Z" fill="white"/>
<path id="Vector_18" d="M37 39.8259C36.916 39.8259 36.832 39.8259 36.7494 39.8259C36.7168 39.8267 36.6851 39.8158 36.6595 39.7953C36.6339 39.7747 36.6162 39.7457 36.6094 39.7133L35.8842 36.3244C35.8849 36.3215 35.8849 36.3186 35.8842 36.3158L35.8268 36.0477L34.8468 28.7549V28.735C34.8468 28.6971 34.8616 28.6609 34.8878 28.6341C34.9141 28.6074 34.9497 28.5923 34.9868 28.5923H38.9936C39.0307 28.5923 39.0663 28.6074 39.0926 28.6341C39.1189 28.6609 39.1336 28.6971 39.1336 28.735C39.1336 28.7421 39.1336 28.7478 39.1336 28.7549L38.1536 36.0362L38.092 36.3415L37.371 39.7104C37.3642 39.7428 37.3465 39.7718 37.3209 39.7924C37.2953 39.813 37.2636 39.8238 37.231 39.8231C37.1582 39.8245 37.0798 39.8259 37 39.8259ZM36.867 39.5407C36.951 39.5407 37.0364 39.5407 37.1204 39.5407L37.882 35.9835L38.8368 28.8719H35.1506L36.1082 35.9949L36.1656 36.2602C36.1656 36.2602 36.1656 36.2602 36.1656 36.2687L36.867 39.5407Z" fill="#093F68"/>
<path id="Vector_19" d="M38.0178 36.0134L37.9548 36.3087L37.2338 39.6791C37.1554 39.6791 37.0784 39.6791 37 39.6791C36.9216 39.6791 36.8348 39.6791 36.7536 39.6791L36.0284 36.2902L35.9696 36.0149L36.6024 30.3924L36.7802 28.8234L36.79 28.7379H37.1974L37.2072 28.8234L37.385 30.3924L38.0178 36.0134Z" fill="#F56132"/>
<path id="Vector_20" d="M37 39.826C36.916 39.826 36.832 39.826 36.7494 39.826C36.7168 39.8267 36.685 39.8158 36.6595 39.7953C36.6339 39.7747 36.6162 39.7457 36.6094 39.7133L35.8842 36.3244C35.8848 36.3216 35.8848 36.3186 35.8842 36.3158L35.8268 36.0477C35.8247 36.0321 35.8247 36.0162 35.8268 36.0006L36.6472 28.7264C36.65 28.6906 36.666 28.6572 36.6919 28.6329C36.7179 28.6086 36.7519 28.5951 36.7872 28.5952H37.1946C37.2317 28.5952 37.2673 28.6102 37.2936 28.637C37.3198 28.6637 37.3346 28.7 37.3346 28.7378L37.3444 28.8092L38.155 36.0063C38.1571 36.0219 38.1571 36.0378 38.155 36.0534L37.371 39.719C37.3641 39.7514 37.3464 39.7804 37.3209 39.801C37.2953 39.8216 37.2635 39.8324 37.231 39.8317C37.1582 39.8245 37.0798 39.826 37 39.826ZM36.867 39.5407C36.951 39.5407 37.0364 39.5407 37.1204 39.5407L37.8764 36.0077L37.0728 28.8762H36.9146L36.111 36.0077L36.1656 36.2602C36.1656 36.2602 36.1656 36.2602 36.1656 36.2687L36.867 39.5407Z" fill="#093F68"/>
<path id="Vector_21" d="M32.1476 38.7034C32.1104 38.7034 32.0748 38.6884 32.0486 38.6617C32.0223 38.6349 32.0076 38.5986 32.0076 38.5608V33.2036C32.0076 33.1658 32.0223 33.1295 32.0486 33.1027C32.0748 33.076 32.1104 33.061 32.1476 33.061C32.1847 33.061 32.2203 33.076 32.2466 33.1027C32.2728 33.1295 32.2876 33.1658 32.2876 33.2036V38.558C32.2879 38.5769 32.2846 38.5958 32.2777 38.6134C32.2709 38.6311 32.2606 38.6471 32.2476 38.6607C32.2345 38.6742 32.219 38.685 32.2018 38.6923C32.1846 38.6997 32.1662 38.7034 32.1476 38.7034Z" fill="#093F68"/>
<path id="Vector_22" d="M41.8524 38.7034C41.8153 38.7034 41.7797 38.6884 41.7534 38.6617C41.7272 38.6349 41.7124 38.5986 41.7124 38.5608V33.2036C41.7124 33.1658 41.7272 33.1295 41.7534 33.1027C41.7797 33.076 41.8153 33.061 41.8524 33.061C41.8895 33.061 41.9251 33.076 41.9514 33.1027C41.9777 33.1295 41.9924 33.1658 41.9924 33.2036V38.558C41.9928 38.5769 41.9894 38.5958 41.9826 38.6134C41.9757 38.6311 41.9654 38.6471 41.9524 38.6607C41.9394 38.6742 41.9238 38.685 41.9066 38.6923C41.8895 38.6997 41.871 38.7034 41.8524 38.7034Z" fill="#093F68"/>
<path id="Vector_23" d="M37.3864 28.8163H36.573C36.348 28.8163 36.1656 29.0021 36.1656 29.2313V29.9759C36.1656 30.2051 36.348 30.3909 36.573 30.3909H37.3864C37.6115 30.3909 37.7939 30.2051 37.7939 29.9759V29.2313C37.7939 29.0021 37.6115 28.8163 37.3864 28.8163Z" fill="#F56132"/>
<path id="Vector_24" d="M37.3878 30.5335H36.5716C36.4269 30.5332 36.2883 30.4744 36.186 30.3702C36.0836 30.266 36.026 30.1247 36.0256 29.9773V29.2299C36.026 29.0825 36.0836 28.9412 36.186 28.837C36.2883 28.7327 36.4269 28.674 36.5716 28.6736H37.3878C37.5325 28.674 37.6712 28.7327 37.7735 28.837C37.8758 28.9412 37.9335 29.0825 37.9338 29.2299V29.9773C37.9335 30.1247 37.8758 30.266 37.7735 30.3702C37.6712 30.4744 37.5325 30.5332 37.3878 30.5335ZM36.5716 28.9646C36.5011 28.9646 36.4334 28.9932 36.3835 29.044C36.3337 29.0948 36.3056 29.1637 36.3056 29.2356V29.983C36.3056 30.0186 36.3125 30.0538 36.3259 30.0867C36.3393 30.1196 36.3588 30.1495 36.3835 30.1746C36.4082 30.1998 36.4376 30.2197 36.4698 30.2334C36.5021 30.247 36.5367 30.254 36.5716 30.254H37.3878C37.4228 30.254 37.4574 30.247 37.4896 30.2334C37.5219 30.2197 37.5512 30.1998 37.5759 30.1746C37.6006 30.1495 37.6202 30.1196 37.6336 30.0867C37.647 30.0538 37.6538 30.0186 37.6538 29.983V29.2356C37.6538 29.1637 37.6258 29.0948 37.5759 29.044C37.526 28.9932 37.4584 28.9646 37.3878 28.9646H36.5716Z" fill="#093F68"/>
<path id="Vector_25" d="M34.438 22.3451C34.7125 22.3451 34.935 22.1184 34.935 21.8388C34.935 21.5592 34.7125 21.3325 34.438 21.3325C34.1636 21.3325 33.941 21.5592 33.941 21.8388C33.941 22.1184 34.1636 22.3451 34.438 22.3451Z" fill="#093F68"/>
<path id="Vector_26" d="M39.5621 22.3451C39.8365 22.3451 40.0591 22.1184 40.0591 21.8388C40.0591 21.5592 39.8365 21.3325 39.5621 21.3325C39.2876 21.3325 39.0651 21.5592 39.0651 21.8388C39.0651 22.1184 39.2876 22.3451 39.5621 22.3451Z" fill="#093F68"/>
<path id="Vector_27" d="M37 23.683C36.8387 23.6818 36.6778 23.6685 36.5184 23.6431C36.5003 23.6398 36.483 23.633 36.4675 23.6229C36.452 23.6128 36.4386 23.5997 36.428 23.5843C36.4175 23.569 36.4101 23.5516 36.4061 23.5333C36.4022 23.515 36.4018 23.4961 36.405 23.4777C36.4082 23.4592 36.415 23.4416 36.4249 23.4258C36.4348 23.41 36.4476 23.3963 36.4627 23.3856C36.4778 23.3749 36.4948 23.3673 36.5128 23.3633C36.5307 23.3592 36.5493 23.3588 36.5674 23.3621C36.8164 23.403 37.0702 23.403 37.3192 23.3621C37.3626 23.2309 37.1792 22.6746 36.8992 22.1469C36.8901 22.1303 36.8844 22.112 36.8824 22.0931C36.8804 22.0742 36.8821 22.0551 36.8874 22.0369C36.8927 22.0186 36.9016 22.0017 36.9135 21.987C36.9253 21.9723 36.9399 21.9602 36.9565 21.9514C36.973 21.9425 36.9911 21.9371 37.0097 21.9355C37.0283 21.9339 37.047 21.9361 37.0647 21.9419C37.0825 21.9478 37.0989 21.9572 37.113 21.9696C37.1272 21.9821 37.1387 21.9972 37.147 22.0143C37.287 22.2781 37.707 23.1639 37.567 23.4891C37.5512 23.5246 37.5276 23.556 37.498 23.5807C37.4683 23.6054 37.4335 23.6229 37.3962 23.6317C37.2667 23.665 37.1336 23.6823 37 23.683Z" fill="#093F68"/>
<path id="Vector_28" d="M38.869 25.1806H35.131C35.0938 25.1806 35.0582 25.1656 35.032 25.1389C35.0057 25.1121 34.991 25.0758 34.991 25.038C34.991 25.0002 35.0057 24.9639 35.032 24.9372C35.0582 24.9104 35.0938 24.8954 35.131 24.8954H38.869C38.9061 24.8954 38.9417 24.9104 38.968 24.9372C38.9942 24.9639 39.009 25.0002 39.009 25.038C39.009 25.0758 38.9942 25.1121 38.968 25.1389C38.9417 25.1656 38.9061 25.1806 38.869 25.1806Z" fill="#093F68"/>
<path id="Vector_29" d="M35.285 20.4525H32.9792C32.9202 20.4525 32.8635 20.4286 32.8218 20.386C32.78 20.3435 32.7566 20.2858 32.7566 20.2257C32.7566 20.1655 32.78 20.1079 32.8218 20.0653C32.8635 20.0228 32.9202 19.9989 32.9792 19.9989H35.285C35.344 19.9989 35.4006 20.0228 35.4424 20.0653C35.4841 20.1079 35.5076 20.1655 35.5076 20.2257C35.5076 20.2858 35.4841 20.3435 35.4424 20.386C35.4006 20.4286 35.344 20.4525 35.285 20.4525Z" fill="#093F68"/>
<path id="Vector_30" d="M41.0208 20.4525H38.715C38.656 20.4525 38.5994 20.4286 38.5576 20.386C38.5159 20.3435 38.4924 20.2858 38.4924 20.2257C38.4924 20.1655 38.5159 20.1079 38.5576 20.0653C38.5994 20.0228 38.656 19.9989 38.715 19.9989H41.0208C41.0799 19.9989 41.1365 20.0228 41.1782 20.0653C41.22 20.1079 41.2434 20.1655 41.2434 20.2257C41.2434 20.2858 41.22 20.3435 41.1782 20.386C41.1365 20.4286 41.0799 20.4525 41.0208 20.4525Z" fill="#093F68"/>
<path id="Vector_31" d="M34.8888 23.5575H33.836C33.4752 23.5571 33.1293 23.4109 32.8742 23.151C32.6191 22.8911 32.4756 22.5387 32.4752 22.1711V21.4965C32.4756 21.3339 32.5391 21.1782 32.652 21.0632C32.7648 20.9483 32.9177 20.8836 33.0772 20.8832H35.649C35.8084 20.8836 35.9612 20.9483 36.0738 21.0633C36.1864 21.1783 36.2496 21.3341 36.2496 21.4965V22.1711C36.2493 22.5387 36.1058 22.8911 35.8506 23.151C35.5955 23.4109 35.2496 23.5571 34.8888 23.5575ZM33.08 21.1684C32.9946 21.1684 32.9127 21.203 32.8523 21.2645C32.7919 21.326 32.758 21.4095 32.758 21.4965V22.1711C32.758 22.4632 32.8719 22.7432 33.0746 22.9497C33.2773 23.1562 33.5522 23.2722 33.8388 23.2722H34.8916C35.1783 23.2722 35.4532 23.1562 35.6559 22.9497C35.8586 22.7432 35.9724 22.4632 35.9724 22.1711V21.4965C35.9724 21.4097 35.9387 21.3265 35.8786 21.265C35.8185 21.2035 35.737 21.1688 35.6518 21.1684H33.08Z" fill="#093F68"/>
<path id="Vector_32" d="M39.8841 23.5575H38.8313C38.4705 23.5571 38.1246 23.4109 37.8694 23.151C37.6143 22.8911 37.4708 22.5387 37.4705 22.1711V21.4965C37.4705 21.3341 37.5337 21.1783 37.6463 21.0633C37.7589 20.9483 37.9116 20.8836 38.0711 20.8832H40.6401C40.7996 20.8836 40.9525 20.9483 41.0653 21.0632C41.1781 21.1782 41.2417 21.3339 41.2421 21.4965V22.1711C41.2417 22.5382 41.0986 22.8902 40.8441 23.15C40.5896 23.4099 40.2444 23.5564 39.8841 23.5575ZM38.0711 21.1684C37.9859 21.1688 37.9044 21.2035 37.8443 21.265C37.7842 21.3265 37.7505 21.4097 37.7505 21.4965V22.1711C37.7505 22.4632 37.8643 22.7432 38.067 22.9497C38.2697 23.1562 38.5446 23.2722 38.8313 23.2722H39.8841C40.1707 23.2722 40.4456 23.1562 40.6483 22.9497C40.851 22.7432 40.9649 22.4632 40.9649 22.1711V21.4965C40.9649 21.4095 40.9309 21.326 40.8705 21.2645C40.8102 21.203 40.7283 21.1684 40.6429 21.1684H38.0711Z" fill="#093F68"/>
<path id="Vector_33" d="M37.5152 21.9815C37.4818 21.9815 37.4496 21.9693 37.4242 21.9472C36.8558 21.4495 36.2902 21.9273 36.265 21.9472C36.2369 21.9714 36.2005 21.9833 36.1639 21.9803C36.1272 21.9774 36.0931 21.9599 36.069 21.9316C36.0571 21.9173 36.048 21.9008 36.0423 21.883C36.0366 21.8652 36.0344 21.8464 36.0358 21.8277C36.0373 21.8091 36.0423 21.7909 36.0506 21.7742C36.059 21.7575 36.0704 21.7426 36.0844 21.7304C36.2953 21.5431 36.5656 21.4399 36.8453 21.4399C37.1251 21.4399 37.3954 21.5431 37.6062 21.7304C37.628 21.7494 37.6435 21.7747 37.6507 21.8029C37.6579 21.8311 37.6565 21.8609 37.6466 21.8883C37.6366 21.9156 37.6187 21.9392 37.5952 21.9559C37.5718 21.9725 37.5438 21.9815 37.5152 21.9815Z" fill="#093F68"/>
<path id="Vector_34" d="M32.6152 21.6391C32.5943 21.639 32.5738 21.6341 32.555 21.6249L30.98 20.8646C30.9464 20.8484 30.9205 20.8192 30.908 20.7835C30.8955 20.7478 30.8975 20.7085 30.9135 20.6742C30.9294 20.64 30.9581 20.6136 30.9932 20.6009C31.0282 20.5882 31.0668 20.5902 31.1004 20.6065L32.6754 21.3653C32.7038 21.3793 32.7268 21.4028 32.7405 21.4318C32.7542 21.4608 32.7579 21.4937 32.7509 21.5251C32.7439 21.5565 32.7267 21.5846 32.7021 21.6048C32.6774 21.625 32.6468 21.6361 32.6152 21.6363V21.6391Z" fill="#093F68"/>
<path id="Vector_35" d="M41.1706 21.6391C41.1444 21.6392 41.1187 21.6317 41.0964 21.6176C41.0741 21.6035 41.0562 21.5833 41.0446 21.5593C41.0281 21.5254 41.0255 21.4863 41.0373 21.4504C41.0491 21.4146 41.0744 21.385 41.1076 21.3681L42.3676 20.7349C42.4011 20.7182 42.4396 20.7158 42.4748 20.7281C42.51 20.7404 42.5389 20.7664 42.5552 20.8005C42.5716 20.8345 42.574 20.8738 42.5619 20.9096C42.5498 20.9455 42.5243 20.9749 42.4908 20.9916L41.2308 21.6249C41.2121 21.6341 41.1915 21.639 41.1706 21.6391Z" fill="#093F68"/>
<path id="Vector_36" d="M41.1678 35.634H38.918V37.0204H41.1678V35.634Z" fill="#FFBC0E"/>
<path id="Vector_37" d="M41.1693 37.1631H38.9181C38.8809 37.1631 38.8453 37.148 38.8191 37.1213C38.7928 37.0945 38.7781 37.0583 38.7781 37.0204V35.6283C38.7781 35.5905 38.7928 35.5542 38.8191 35.5275C38.8453 35.5007 38.8809 35.4857 38.9181 35.4857H41.1693C41.2064 35.4857 41.242 35.5007 41.2683 35.5275C41.2945 35.5542 41.3093 35.5905 41.3093 35.6283V37.0147C41.31 37.0339 41.307 37.0531 41.3003 37.0711C41.2936 37.089 41.2834 37.1054 41.2703 37.1193C41.2572 37.1331 41.2415 37.1442 41.2242 37.1517C41.2068 37.1592 41.1881 37.1631 41.1693 37.1631ZM39.0581 36.8778H41.0293V35.771H39.0581V36.8778Z" fill="#093F68"/>
<path id="Vector_38" d="M40.0436 36.0676C40.0064 36.0676 39.9708 36.0526 39.9446 36.0259C39.9183 35.9991 39.9036 35.9628 39.9036 35.925V35.3431C39.9036 35.3052 39.9183 35.269 39.9446 35.2422C39.9708 35.2155 40.0064 35.2004 40.0436 35.2004C40.0807 35.2004 40.1163 35.2155 40.1426 35.2422C40.1688 35.269 40.1836 35.3052 40.1836 35.3431V35.9236C40.1837 35.9424 40.1803 35.9611 40.1733 35.9786C40.1664 35.9961 40.1561 36.012 40.1431 36.0254C40.13 36.0388 40.1145 36.0494 40.0975 36.0566C40.0804 36.0639 40.0621 36.0676 40.0436 36.0676Z" fill="#093F68"/>
</g>
</g>
</g>
</svg>
