<svg width="75" height="70" viewBox="0 0 75 70" fill="none" xmlns="http://www.w3.org/2000/svg">
<g id="Admin-btn">
<rect id="admin-rectange" x="0.5" y="0.5" width="74" height="69" rx="9.5" fill="white" stroke="#2C2E41"/>
<g id="Admin">
<path id="Admin_2" d="M20.326 50.06H21.152L25.282 60H24.246L22.958 56.892H18.492L17.218 60H16.168L20.326 50.06ZM22.734 56.122L20.732 51.208L18.702 56.122H22.734ZM25.8159 56.374C25.8159 55.6833 25.9559 55.0533 26.2359 54.484C26.5252 53.9053 26.9219 53.4433 27.4259 53.098C27.9299 52.7527 28.5039 52.58 29.1479 52.58C29.7545 52.58 30.2959 52.7433 30.7719 53.07C31.2572 53.3873 31.6352 53.7747 31.9059 54.232V49.78H32.8579V58.852C32.8579 58.9827 32.8859 59.0807 32.9419 59.146C32.9979 59.202 33.0819 59.2347 33.1939 59.244V60C33.0072 60.028 32.8625 60.0373 32.7599 60.028C32.5639 60.0187 32.3912 59.9393 32.2419 59.79C32.0925 59.6407 32.0179 59.4773 32.0179 59.3V58.586C31.7285 59.062 31.3365 59.44 30.8419 59.72C30.3472 60 29.8339 60.14 29.3019 60.14C28.7979 60.14 28.3312 60.0373 27.9019 59.832C27.4819 59.6267 27.1132 59.3467 26.7959 58.992C26.4879 58.6373 26.2452 58.236 26.0679 57.788C25.8999 57.3307 25.8159 56.8593 25.8159 56.374ZM31.9059 57.494V55.24C31.7845 54.904 31.5885 54.6007 31.3179 54.33C31.0472 54.05 30.7392 53.8307 30.3939 53.672C30.0579 53.504 29.7219 53.42 29.3859 53.42C28.9939 53.42 28.6392 53.504 28.3219 53.672C28.0045 53.8307 27.7292 54.05 27.4959 54.33C27.2719 54.61 27.0992 54.9273 26.9779 55.282C26.8565 55.6367 26.7959 56.0007 26.7959 56.374C26.7959 56.766 26.8612 57.1393 26.9919 57.494C27.1319 57.8487 27.3279 58.166 27.5799 58.446C27.8319 58.7167 28.1212 58.9267 28.4479 59.076C28.7745 59.2253 29.1292 59.3 29.5119 59.3C29.7545 59.3 30.0065 59.2533 30.2679 59.16C30.5292 59.0667 30.7765 58.9407 31.0099 58.782C31.2525 58.614 31.4532 58.418 31.6119 58.194C31.7705 57.97 31.8685 57.7367 31.9059 57.494ZM45.8648 60H44.9128V55.926C44.9128 55.0767 44.7775 54.4513 44.5068 54.05C44.2362 53.6487 43.8348 53.448 43.3028 53.448C42.7522 53.448 42.2575 53.644 41.8188 54.036C41.3895 54.428 41.0862 54.932 40.9088 55.548V60H39.9568V55.926C39.9568 55.0673 39.8262 54.442 39.5648 54.05C39.3035 53.6487 38.9022 53.448 38.3608 53.448C37.8195 53.448 37.3295 53.6393 36.8908 54.022C36.4522 54.4047 36.1442 54.9087 35.9668 55.534V60H35.0148V52.706H35.8828V54.358C36.1908 53.7887 36.5828 53.35 37.0588 53.042C37.5442 52.734 38.0808 52.58 38.6688 52.58C39.2755 52.58 39.7655 52.7527 40.1388 53.098C40.5122 53.4433 40.7408 53.896 40.8248 54.456C41.1608 53.84 41.5622 53.3733 42.0288 53.056C42.5048 52.7387 43.0415 52.58 43.6388 52.58C44.0495 52.58 44.3948 52.6547 44.6748 52.804C44.9642 52.9533 45.1928 53.168 45.3608 53.448C45.5382 53.7187 45.6642 54.05 45.7388 54.442C45.8228 54.8247 45.8648 55.254 45.8648 55.73V60ZM47.8801 60V52.706H48.8321V60H47.8801ZM47.8801 51.18V49.78H48.8321V51.18H47.8801ZM57.0609 60H56.1089V55.926C56.1089 55.0673 55.9829 54.442 55.7309 54.05C55.4789 53.6487 55.0822 53.448 54.5409 53.448C54.1676 53.448 53.7989 53.5413 53.4349 53.728C53.0709 53.9053 52.7489 54.1527 52.4689 54.47C52.1982 54.778 52.0022 55.1327 51.8809 55.534V60H50.9289V52.706H51.7969V54.358C51.9929 54.0033 52.2496 53.6953 52.5669 53.434C52.8842 53.1633 53.2436 52.9533 53.6449 52.804C54.0462 52.6547 54.4616 52.58 54.8909 52.58C55.2922 52.58 55.6329 52.6547 55.9129 52.804C56.1929 52.9533 56.4169 53.168 56.5849 53.448C56.7529 53.7187 56.8742 54.05 56.9489 54.442C57.0236 54.8247 57.0609 55.254 57.0609 55.73V60Z" fill="#2C2E41"/>
</g>
<g id="#274_manager_outline">
<path id="Vector" d="M51.8152 30.0999C51.8209 33.7064 50.4872 37.1883 48.0695 39.8791C46.7638 41.335 45.1812 42.5201 43.4127 43.3664C43.0641 43.534 42.708 43.687 42.3446 43.8253C41.6904 44.0772 41.0184 44.2809 40.3341 44.4346C40.1345 44.4823 39.9349 44.5227 39.7316 44.5576C39.314 44.6371 38.8896 44.6983 38.4584 44.7411C38.0888 44.7797 37.7008 44.7999 37.3146 44.8072C37.2111 44.8072 37.1094 44.8072 37.006 44.8072C36.9025 44.8072 36.7879 44.8072 36.6807 44.8072C36.3 44.7999 35.9243 44.7779 35.5535 44.7411C35.1235 44.7008 34.6991 44.6396 34.2803 44.5576C34.077 44.5227 33.8774 44.4823 33.6778 44.4346C32.9941 44.2802 32.3227 44.0759 31.6691 43.8234C31.3069 43.6839 30.9509 43.531 30.601 43.3646C27.2313 41.7544 24.5993 38.938 23.2334 35.4805C21.8674 32.0231 21.8685 28.1804 23.2365 24.7237C24.6045 21.267 27.2381 18.4521 30.6088 16.844C33.9795 15.2358 37.8379 14.9533 41.4096 16.0533C41.9424 16.2171 42.465 16.412 42.9748 16.6369C45.6031 17.7888 47.8378 19.6745 49.407 22.0647C50.9761 24.4549 51.8122 27.2464 51.8134 30.0999H51.8152Z" fill="white"/>
<path id="Vector_2" d="M37.0078 44.9926C36.897 44.9926 36.7861 44.9926 36.6771 44.9926C36.3075 44.9926 35.9176 44.9632 35.5369 44.9247C35.11 44.8843 34.6757 44.8237 34.2433 44.7411C34.0271 44.7026 33.8275 44.6622 33.6317 44.6163C32.9398 44.4589 32.2604 44.2515 31.5989 43.9959C31.2294 43.8509 30.8598 43.6949 30.5179 43.5316C27.0995 41.9049 24.4279 39.053 23.0406 35.5494C21.6533 32.0457 21.6531 28.1503 23.0401 24.6465C24.4271 21.1428 27.0983 18.2906 30.5166 16.6636C33.9349 15.0367 37.8466 14.7556 41.465 15.877C42.0047 16.0417 42.5341 16.2378 43.0506 16.4644C45.4024 17.4934 47.4485 19.1056 48.9924 21.1461C50.5364 23.1867 51.5264 25.5872 51.8674 28.1172C52.2084 30.6471 51.889 33.2217 50.9398 35.5938C49.9906 37.9659 48.4436 40.0559 46.447 41.6631C45.538 42.3959 44.5456 43.0205 43.4904 43.5242C43.1522 43.6876 42.7881 43.8436 42.4093 43.9886C41.7479 44.2444 41.0685 44.4517 40.3766 44.609C40.1826 44.6549 39.983 44.6952 39.7649 44.7338C39.3381 44.8127 38.9038 44.8733 38.4714 44.9173C38.1018 44.9559 37.7174 44.9779 37.3146 44.9852C37.2166 44.9907 37.1132 44.9926 37.0078 44.9926ZM37.0078 15.576C33.6946 15.5796 30.4807 16.7002 27.8923 18.7545C25.3038 20.8088 23.4942 23.675 22.7596 26.8839C22.025 30.0929 22.409 33.4545 23.8486 36.4185C25.2882 39.3824 27.6983 41.7732 30.6842 43.1994C31.015 43.3572 31.3698 43.5095 31.7394 43.6527C32.3838 43.9022 33.046 44.104 33.7204 44.2566C33.9052 44.3006 34.1029 44.341 34.3136 44.3777C34.733 44.4548 35.1562 44.5154 35.5738 44.5613C35.9434 44.5998 36.313 44.6218 36.6826 44.6273C36.8914 44.6273 37.0984 44.6273 37.3072 44.6273C37.7027 44.6273 38.0815 44.598 38.4363 44.5613C38.8558 44.5227 39.2789 44.4621 39.6966 44.3777C39.9091 44.341 40.1031 44.3006 40.2897 44.2566C40.9648 44.1043 41.6276 43.9024 42.2726 43.6527C42.6422 43.5095 42.997 43.3572 43.3277 43.1994C45.8499 41.9977 47.9722 40.1029 49.443 37.7396C50.9139 35.3762 51.6715 32.6436 51.6262 29.8655C51.5809 27.0875 50.7345 24.3807 49.1873 22.0659C47.6402 19.7512 45.4572 17.9256 42.8972 16.8058C42.394 16.5833 41.8782 16.3903 41.3523 16.2276C39.9452 15.7953 38.4807 15.5757 37.0078 15.576Z" fill="#093F68"/>
<path id="Vector_3" d="M36.2686 10.2698C36.5835 10.2215 36.9017 10.1969 37.2203 10.1964C39.4378 10.1964 41.5685 10.3505 43.361 11.7381C45.0426 13.0394 46.2895 14.8146 46.9386 16.8315C46.4572 16.6747 45.9944 16.4667 45.5582 16.2111C45.9887 16.4625 46.6318 20.249 45.3734 24.2099L28.1377 24.008C28.0361 23.6556 28.195 23.2408 28.2098 22.8902C28.2006 22.4997 28.1422 22.1119 28.0361 21.7357C27.8264 20.7606 27.7082 19.7683 27.6831 18.7715C27.661 17.1802 28.0527 15.6696 28.6496 14.2123C29.0063 13.346 29.4276 12.4503 30.1963 11.9106C30.9651 11.371 32.1847 11.36 32.7335 12.1144C33.6717 11.125 34.9161 10.4757 36.2686 10.2698Z" fill="#725858"/>
<path id="Vector_4" d="M45.3716 24.388L28.1378 24.1916C28.0979 24.1911 28.0593 24.1778 28.0276 24.1536C27.996 24.1295 27.9731 24.0958 27.9623 24.0576C27.9067 23.7875 27.9124 23.5085 27.9789 23.2408C28.0033 23.1197 28.0194 22.9971 28.027 22.8738C28.0267 22.5849 27.9882 22.2973 27.9124 22.0184C27.8939 21.934 27.8736 21.8477 27.8569 21.7615C27.6447 20.7755 27.5253 19.7721 27.5003 18.7642C27.48 17.2959 27.7997 15.7798 28.4797 14.1334C28.8327 13.2818 29.2762 12.3237 30.0929 11.7473C30.8561 11.2114 32.0776 11.138 32.7447 11.8263C33.6921 10.8903 34.9146 10.2778 36.2355 10.0771C36.5596 10.0279 36.8869 10.0021 37.2149 10C39.3529 10 41.5963 10.1303 43.4701 11.5803C45.1823 12.9079 46.4527 14.7165 47.116 16.7709C47.1263 16.8032 47.1274 16.8377 47.1192 16.8705C47.111 16.9034 47.0938 16.9333 47.0695 16.9571C47.0452 16.9808 47.0148 16.9974 46.9816 17.0051C46.9484 17.0127 46.9137 17.0111 46.8814 17.0004C46.5738 16.8973 46.2732 16.7747 45.9814 16.6333C46.3898 17.9401 46.5358 21.1301 45.549 24.254C45.5381 24.2925 45.5149 24.3264 45.4829 24.3506C45.4509 24.3747 45.4118 24.3879 45.3716 24.388ZM28.2949 23.8263L45.2367 24.0099C46.4194 20.1738 45.8096 16.6443 45.4622 16.3524C45.4208 16.3273 45.3911 16.2871 45.3793 16.2404C45.3676 16.1937 45.3748 16.1443 45.3993 16.1028C45.4243 16.061 45.465 16.0307 45.5125 16.0186C45.56 16.0066 45.6103 16.0138 45.6525 16.0386C45.9691 16.224 46.3004 16.3836 46.643 16.5158C45.9709 14.6826 44.7925 13.0745 43.2428 11.8758C41.4614 10.4974 39.2882 10.3781 37.2149 10.3726H37.2019C36.8975 10.3736 36.5935 10.3976 36.2927 10.4442C34.981 10.6453 33.7756 11.2788 32.8704 12.2429C32.8517 12.263 32.8288 12.2786 32.8032 12.2888C32.7777 12.2989 32.7502 12.3033 32.7228 12.3015C32.6953 12.2997 32.6686 12.2919 32.6446 12.2786C32.6206 12.2653 32.5999 12.2468 32.5839 12.2246C32.0887 11.5363 30.9855 11.5877 30.3055 12.0649C29.5663 12.5806 29.169 13.4451 28.8271 14.2857C28.1656 15.8844 27.8551 17.3528 27.8754 18.7716C27.9005 19.7591 28.0174 20.7421 28.2247 21.7083C28.2413 21.7927 28.2598 21.8753 28.2783 21.9579C28.3623 22.2672 28.4039 22.5864 28.4021 22.9068C28.3933 23.043 28.3754 23.1786 28.3485 23.3124C28.311 23.4811 28.293 23.6536 28.2949 23.8263Z" fill="#093F68"/>
<path id="Vector_5" d="M46.3307 38.185V41.5273C45.4334 42.25 44.4541 42.866 43.4128 43.3627C43.0641 43.5304 42.7081 43.6833 42.3447 43.8216C41.6906 44.0748 41.0186 44.2797 40.3341 44.4346C40.1346 44.4823 39.935 44.5227 39.7317 44.5576C39.3141 44.6371 38.8897 44.6983 38.4585 44.7411C38.0889 44.7797 37.7008 44.7999 37.3146 44.8072C37.2111 44.8072 37.1095 44.8072 37.006 44.8072C36.9025 44.8072 36.788 44.8072 36.6808 44.8072C36.3001 44.7999 35.9244 44.7778 35.5536 44.7411C35.1236 44.7008 34.6992 44.6396 34.2803 44.5576C34.0771 44.5227 33.8775 44.4823 33.6779 44.4346C32.9941 44.2802 32.3227 44.0759 31.6692 43.8234C31.307 43.6839 30.951 43.531 30.6011 43.3646C29.5598 42.8678 28.5805 42.2518 27.6832 41.5291V38.185C27.6832 34.0607 30.5069 30.7147 33.9921 30.7147H40.02C43.507 30.7147 46.3307 34.0607 46.3307 38.185Z" fill="#704EB7"/>
<path id="Vector_6" d="M37.0078 44.9925C36.8969 44.9925 36.786 44.9925 36.677 44.9925C36.3074 44.9925 35.9175 44.9632 35.5368 44.9246C35.11 44.8842 34.6757 44.8237 34.2433 44.7411C34.0271 44.7025 33.8275 44.6622 33.6316 44.6163C32.9398 44.4588 32.2604 44.2515 31.5989 43.9959C31.2293 43.8509 30.8597 43.6949 30.5179 43.5315C29.4626 43.0278 28.4703 42.4032 27.5612 41.6704C27.54 41.6533 27.5228 41.6318 27.511 41.6073C27.4992 41.5829 27.493 41.5562 27.4928 41.5291V38.1849C27.4928 33.9634 30.4051 30.5311 33.9864 30.5311H40.0144C43.5956 30.5311 46.508 33.9652 46.508 38.1849V41.5272C46.5078 41.5543 46.5016 41.5811 46.4897 41.6055C46.4779 41.63 46.4608 41.6515 46.4396 41.6686C45.5305 42.4014 44.5382 43.026 43.4829 43.5297C43.1447 43.693 42.7807 43.8491 42.4019 43.9941C41.7405 44.2499 41.0611 44.4572 40.3692 44.6144C40.1751 44.6603 39.9755 44.7007 39.7575 44.7392C39.3306 44.8182 38.8964 44.8787 38.4639 44.9228C38.0944 44.9613 37.71 44.9834 37.3071 44.9907C37.2166 44.9907 37.1131 44.9925 37.0078 44.9925ZM27.8698 41.4391C28.7379 42.1296 29.6821 42.7201 30.6842 43.1993C31.0149 43.3572 31.3698 43.5095 31.7393 43.6527C32.3838 43.9021 33.0459 44.104 33.7203 44.2565C33.9051 44.3006 34.1028 44.341 34.3135 44.3777C34.733 44.4548 35.1562 44.5153 35.5738 44.5612C35.9434 44.5998 36.313 44.6218 36.6825 44.6273C36.8914 44.6273 37.0983 44.6273 37.3071 44.6273C37.7026 44.6273 38.0814 44.5979 38.4362 44.5612C38.8557 44.5227 39.2789 44.4621 39.6965 44.3777C39.909 44.341 40.1031 44.3006 40.2897 44.2565C40.9648 44.1042 41.6275 43.9024 42.2725 43.6527C42.6421 43.5095 42.9969 43.3572 43.3277 43.1993C44.3298 42.7201 45.2739 42.1296 46.1421 41.4391V38.1849C46.1421 34.1671 43.3942 30.8982 40.018 30.8982H33.9938C30.6176 30.8982 27.8698 34.1671 27.8698 38.1849V41.4391Z" fill="#093F68"/>
<path id="Vector_7" d="M36.0839 41.0464C36.0572 41.0464 36.0308 41.0406 36.0066 41.0296C35.9823 41.0185 35.9608 41.0023 35.9434 40.9821L31.8891 36.2577C31.8579 36.2214 31.8422 36.1744 31.8453 36.1268C31.8484 36.0792 31.8701 36.0346 31.9057 36.0026L33.6538 34.4058L31.6858 33.6936C31.6583 33.6836 31.6335 33.6673 31.6136 33.6459C31.5936 33.6245 31.5791 33.5987 31.5712 33.5706C31.5634 33.5427 31.5623 33.5134 31.5681 33.485C31.5739 33.4566 31.5864 33.43 31.6045 33.4073L33.8664 30.5972C33.8971 30.5597 33.9416 30.5357 33.99 30.5306C34.0385 30.5254 34.087 30.5395 34.1251 30.5697C34.1631 30.6 34.1876 30.644 34.1932 30.6921C34.1987 30.7403 34.1849 30.7886 34.1546 30.8267L32.0609 33.433L34.0733 34.1672C34.1029 34.1781 34.1291 34.1964 34.1495 34.2203C34.1699 34.2441 34.1838 34.2728 34.1899 34.3035C34.1961 34.3342 34.1941 34.366 34.1844 34.3958C34.1747 34.4256 34.1574 34.4524 34.1343 34.4737L32.2864 36.1549L36.2243 40.7435C36.2473 40.7702 36.2621 40.8028 36.2669 40.8376C36.2718 40.8724 36.2665 40.9078 36.2517 40.9396C36.2369 40.9715 36.2133 40.9985 36.1835 41.0174C36.1538 41.0363 36.1192 41.0464 36.0839 41.0464Z" fill="#093F68"/>
<path id="Vector_8" d="M37.9319 41.0464C37.8966 41.0464 37.862 41.0363 37.8322 41.0174C37.8025 40.9985 37.7788 40.9715 37.764 40.9396C37.7492 40.9078 37.744 40.8724 37.7488 40.8376C37.7537 40.8028 37.7685 40.7702 37.7914 40.7435L41.7294 36.1549L39.8814 34.4737C39.8583 34.4524 39.8411 34.4256 39.8313 34.3958C39.8216 34.366 39.8197 34.3342 39.8258 34.3035C39.8319 34.2728 39.8458 34.2441 39.8663 34.2203C39.8867 34.1964 39.9129 34.1781 39.9424 34.1672L41.9548 33.433L39.8611 30.8267C39.8309 30.7886 39.817 30.7403 39.8226 30.6921C39.8281 30.644 39.8526 30.6 39.8907 30.5697C39.9287 30.5395 39.9773 30.5254 40.0257 30.5306C40.0742 30.5357 40.1186 30.5597 40.1494 30.5972L42.4039 33.4036C42.422 33.4263 42.4345 33.4529 42.4402 33.4813C42.446 33.5097 42.445 33.5391 42.4371 33.567C42.4292 33.595 42.4147 33.6208 42.3948 33.6422C42.3749 33.6636 42.3501 33.68 42.3226 33.69L40.3545 34.4021L42.1026 35.9989C42.1383 36.031 42.1599 36.0755 42.163 36.1231C42.1661 36.1708 42.1504 36.2177 42.1193 36.2541L38.0649 40.9785C38.0487 40.9984 38.0285 41.0147 38.0056 41.0264C37.9827 41.0381 37.9576 41.0449 37.9319 41.0464Z" fill="#093F68"/>
<path id="Vector_9" d="M35.6606 30.7111V29.2482H38.2182V30.7111" fill="#FFC9B0"/>
<path id="Vector_10" d="M38.2183 30.8946C38.1693 30.8946 38.1223 30.8753 38.0876 30.8409C38.053 30.8065 38.0335 30.7598 38.0335 30.7111V29.4263H35.8455V30.7111C35.8455 30.7598 35.8261 30.8065 35.7914 30.8409C35.7568 30.8753 35.7098 30.8946 35.6607 30.8946C35.6117 30.8946 35.5647 30.8753 35.5301 30.8409C35.4954 30.8065 35.476 30.7598 35.476 30.7111V29.2427C35.476 29.1941 35.4954 29.1474 35.5301 29.113C35.5647 29.0785 35.6117 29.0592 35.6607 29.0592H38.2183C38.2673 29.0592 38.3143 29.0785 38.3489 29.113C38.3836 29.1474 38.4031 29.1941 38.4031 29.2427V30.7111C38.4031 30.7598 38.3836 30.8065 38.3489 30.8409C38.3143 30.8753 38.2673 30.8946 38.2183 30.8946Z" fill="#093F68"/>
<path id="Vector_11" d="M29.6308 24.7771C31.0035 24.7771 32.1163 23.8247 32.1163 22.6498C32.1163 21.4749 31.0035 20.5225 29.6308 20.5225C28.2582 20.5225 27.1454 21.4749 27.1454 22.6498C27.1454 23.8247 28.2582 24.7771 29.6308 24.7771Z" fill="#FFC9B0"/>
<path id="Vector_12" d="M29.6308 24.9607C28.1525 24.9607 26.9606 23.9237 26.9606 22.6499C26.9606 21.3761 28.158 20.3409 29.6308 20.3409C31.1036 20.3409 32.2992 21.3761 32.2992 22.6499C32.2992 23.9237 31.0944 24.9607 29.6308 24.9607ZM29.6308 20.708C28.3613 20.708 27.3302 21.5798 27.3302 22.6499C27.3302 23.7199 28.3613 24.5936 29.6308 24.5936C30.9004 24.5936 31.9296 23.7218 31.9296 22.6499C31.9296 21.578 30.8985 20.708 29.6308 20.708Z" fill="#093F68"/>
<path id="Vector_13" d="M44.1168 24.7771C45.4895 24.7771 46.6023 23.8247 46.6023 22.6498C46.6023 21.4749 45.4895 20.5225 44.1168 20.5225C42.7441 20.5225 41.6313 21.4749 41.6313 22.6498C41.6313 23.8247 42.7441 24.7771 44.1168 24.7771Z" fill="#FFC9B0"/>
<path id="Vector_14" d="M44.1167 24.9607C42.6383 24.9607 41.4464 23.9237 41.4464 22.6499C41.4464 21.3761 42.6439 20.3409 44.1167 20.3409C45.5895 20.3409 46.7851 21.3761 46.7851 22.6499C46.7851 23.9237 45.5876 24.9607 44.1167 24.9607ZM44.1167 20.708C42.8471 20.708 41.816 21.5798 41.816 22.6499C41.816 23.7199 42.8471 24.5936 44.1167 24.5936C45.3862 24.5936 46.4155 23.7218 46.4155 22.6499C46.4155 21.578 45.3843 20.708 44.1167 20.708Z" fill="#093F68"/>
<path id="Vector_15" d="M36.9394 29.5822C34.9516 29.5822 33.0451 28.7979 31.6395 27.4018C30.2339 26.0057 29.4442 24.1121 29.4442 22.1377V19.4323C29.4444 18.9899 29.5381 18.5525 29.7194 18.1485C29.9006 17.7444 30.1653 17.3827 30.4964 17.0868C30.8274 16.7908 31.2174 16.5673 31.641 16.4307C32.0646 16.2941 32.5124 16.2474 32.9553 16.2937C34.5223 16.4625 34.9252 17.4188 37.54 17.4647C38.6192 17.483 39.6355 16.257 40.5373 16.0918C40.9836 16.0106 41.4423 16.0253 41.8824 16.1349C42.3226 16.2444 42.734 16.4463 43.089 16.727C43.444 17.0076 43.7345 17.3605 43.9407 17.7619C44.147 18.1633 44.2644 18.604 44.2849 19.0542L44.4254 22.1377C44.4259 24.1107 43.6376 26.0031 42.2339 27.3991C40.8301 28.795 38.9258 29.5803 36.9394 29.5822Z" fill="#FFC9B0"/>
<path id="Vector_16" d="M36.9394 29.7658C34.9033 29.7634 32.9513 28.9589 31.5115 27.5289C30.0718 26.0989 29.2618 24.1601 29.2594 22.1377V19.4323C29.2592 18.9634 29.3585 18.4997 29.5508 18.0715C29.743 17.6433 30.0239 17.2601 30.3752 16.9468C30.7265 16.6336 31.1403 16.3974 31.5896 16.2535C32.0389 16.1097 32.5137 16.0614 32.983 16.112C33.5485 16.1842 34.0973 16.3524 34.6055 16.6094C35.5204 17.0621 36.5307 17.2924 37.5529 17.2811C38.1073 17.2958 38.6617 16.9141 39.216 16.5653C39.6651 16.268 40.0901 15.989 40.5188 15.9119C40.991 15.826 41.4762 15.8415 41.9418 15.9573C42.4075 16.0731 42.8427 16.2866 43.2184 16.5834C43.5941 16.8802 43.9014 17.2535 44.1198 17.678C44.3382 18.1026 44.4625 18.5687 44.4845 19.045L44.6249 22.1304C44.6244 24.1549 43.8146 26.0965 42.3734 27.5282C40.9323 28.96 38.9777 29.7648 36.9394 29.7658ZM32.6226 16.4644C31.8288 16.4649 31.0677 16.7783 30.5063 17.3358C29.945 17.8933 29.6295 18.6493 29.629 19.4378V22.1432C29.6136 23.1063 29.7912 24.0629 30.1517 24.9571C30.5121 25.8514 31.048 26.6655 31.7283 27.352C32.4086 28.0385 33.2196 28.5837 34.1141 28.9558C35.0086 29.328 35.9687 29.5196 36.9385 29.5196C37.9083 29.5196 38.8684 29.328 39.7629 28.9558C40.6573 28.5837 41.4683 28.0385 42.1486 27.352C42.8289 26.6655 43.3649 25.8514 43.7253 24.9571C44.0857 24.0629 44.2634 23.1063 44.2479 22.1432L44.1075 19.067C44.0876 18.6433 43.9767 18.2288 43.7821 17.8512C43.5876 17.4736 43.314 17.1417 42.9797 16.8778C42.6454 16.6139 42.2581 16.4241 41.8439 16.3212C41.4296 16.2182 40.998 16.2044 40.578 16.2808C40.2232 16.3469 39.8388 16.6057 39.4119 16.8792C38.8224 17.2683 38.2108 17.6703 37.5455 17.6574C36.4732 17.6667 35.4136 17.426 34.4521 16.9544C33.9804 16.7094 33.4696 16.5473 32.9423 16.4754C32.836 16.4663 32.7293 16.4626 32.6226 16.4644Z" fill="#093F68"/>
<path id="Vector_17" d="M39.6447 30.7111L38.3512 40.0828L38.268 40.4627L37.3164 44.7999C37.2129 44.7999 37.1112 44.7999 37.0077 44.7999C36.9043 44.7999 36.7897 44.7999 36.6825 44.7999L35.7253 40.4389L35.6477 40.0846L34.3541 30.7129L39.6447 30.7111Z" fill="white"/>
<path id="Vector_18" d="M37.0079 44.9926C36.897 44.9926 36.7861 44.9926 36.6771 44.9926C36.6341 44.9935 36.5922 44.9796 36.5584 44.9531C36.5247 44.9266 36.5013 44.8893 36.4923 44.8476L35.5351 40.4866C35.536 40.483 35.536 40.4792 35.5351 40.4756L35.4593 40.1305L34.1658 30.7459V30.7202C34.1658 30.6715 34.1852 30.6249 34.2199 30.5904C34.2546 30.556 34.3016 30.5367 34.3506 30.5367H39.6393C39.6883 30.5367 39.7353 30.556 39.77 30.5904C39.8047 30.6249 39.8241 30.6715 39.8241 30.7202C39.8241 30.7294 39.8241 30.7367 39.8241 30.7459L38.5306 40.1158L38.4493 40.5086L37.4976 44.8439C37.4886 44.8857 37.4652 44.923 37.4315 44.9494C37.3977 44.9759 37.3558 44.9899 37.3128 44.9889C37.2167 44.9908 37.1132 44.9926 37.0079 44.9926ZM36.8323 44.6255C36.9432 44.6255 37.0559 44.6255 37.1668 44.6255L38.1721 40.0479L39.4324 30.8964H34.5668L35.8308 40.0626L35.9065 40.404C35.9065 40.404 35.9065 40.404 35.9065 40.415L36.8323 44.6255Z" fill="#093F68"/>
<path id="Vector_19" d="M38.3512 40.0864L38.2681 40.4664L37.3164 44.8035C37.2129 44.8035 37.1113 44.8035 37.0078 44.8035C36.9043 44.8035 36.7897 44.8035 36.6825 44.8035L35.7253 40.4425L35.6477 40.0883L36.483 32.853L36.7177 30.834L36.7306 30.7239H37.2683L37.2813 30.834L37.516 32.853L38.3512 40.0864Z" fill="#F56132"/>
<path id="Vector_20" d="M37.0078 44.9926C36.8969 44.9926 36.786 44.9926 36.677 44.9926C36.634 44.9935 36.5921 44.9796 36.5583 44.9531C36.5246 44.9266 36.5012 44.8893 36.4922 44.8476L35.535 40.4866C35.5359 40.483 35.5359 40.4792 35.535 40.4756L35.4592 40.1305C35.4565 40.1104 35.4565 40.09 35.4592 40.0699L36.5421 30.7092C36.5458 30.6631 36.5669 30.6201 36.6012 30.5888C36.6355 30.5575 36.6803 30.5402 36.7269 30.5403H37.2647C37.3137 30.5403 37.3607 30.5597 37.3953 30.5941C37.43 30.6285 37.4494 30.6752 37.4494 30.7239L37.4624 30.8157L38.5323 40.0773C38.5351 40.0974 38.5351 40.1177 38.5323 40.1378L37.4975 44.8549C37.4885 44.8967 37.4651 44.934 37.4314 44.9604C37.3976 44.9869 37.3557 45.0009 37.3127 44.9999C37.2166 44.9907 37.1131 44.9926 37.0078 44.9926ZM36.8322 44.6255C36.9431 44.6255 37.0558 44.6255 37.1667 44.6255L38.1646 40.0791L37.1039 30.9019H36.8951L35.8344 40.0791L35.9064 40.404C35.9064 40.404 35.9064 40.404 35.9064 40.415L36.8322 44.6255Z" fill="#093F68"/>
<path id="Vector_21" d="M30.6029 43.5481C30.5539 43.5481 30.5069 43.5288 30.4722 43.4943C30.4376 43.4599 30.4181 43.4132 30.4181 43.3646V36.4707C30.4181 36.422 30.4376 36.3753 30.4722 36.3409C30.5069 36.3064 30.5539 36.2871 30.6029 36.2871C30.6519 36.2871 30.6989 36.3064 30.7336 36.3409C30.7682 36.3753 30.7877 36.422 30.7877 36.4707V43.3609C30.7882 43.3853 30.7838 43.4096 30.7747 43.4323C30.7656 43.4549 30.7521 43.4756 30.7349 43.493C30.7177 43.5105 30.6971 43.5243 30.6745 43.5338C30.6518 43.5432 30.6275 43.5481 30.6029 43.5481Z" fill="#093F68"/>
<path id="Vector_22" d="M43.4127 43.5481C43.3637 43.5481 43.3167 43.5288 43.282 43.4943C43.2474 43.4599 43.2279 43.4132 43.2279 43.3646V36.4707C43.2279 36.422 43.2474 36.3753 43.282 36.3409C43.3167 36.3064 43.3637 36.2871 43.4127 36.2871C43.4617 36.2871 43.5087 36.3064 43.5434 36.3409C43.578 36.3753 43.5975 36.422 43.5975 36.4707V43.3609C43.598 43.3853 43.5936 43.4096 43.5845 43.4323C43.5754 43.4549 43.5619 43.4756 43.5447 43.493C43.5275 43.5105 43.5069 43.5243 43.4843 43.5338C43.4616 43.5432 43.4373 43.5481 43.4127 43.5481Z" fill="#093F68"/>
<path id="Vector_23" d="M37.5179 30.8248H36.4442C36.1473 30.8248 35.9065 31.064 35.9065 31.3589V32.317C35.9065 32.612 36.1473 32.8512 36.4442 32.8512H37.5179C37.8149 32.8512 38.0556 32.612 38.0556 32.317V31.3589C38.0556 31.064 37.8149 30.8248 37.5179 30.8248Z" fill="#F56132"/>
<path id="Vector_24" d="M37.5197 33.0347H36.4424C36.2514 33.0342 36.0684 32.9586 35.9333 32.8245C35.7983 32.6904 35.7222 32.5086 35.7217 32.3189V31.3571C35.7222 31.1674 35.7983 30.9856 35.9333 30.8515C36.0684 30.7174 36.2514 30.6418 36.4424 30.6413H37.5197C37.7107 30.6418 37.8937 30.7174 38.0288 30.8515C38.1638 30.9856 38.2399 31.1674 38.2404 31.3571V32.3189C38.2399 32.5086 38.1638 32.6904 38.0288 32.8245C37.8937 32.9586 37.7107 33.0342 37.5197 33.0347ZM36.4424 31.0157C36.3493 31.0157 36.2599 31.0525 36.1941 31.1179C36.1283 31.1833 36.0913 31.272 36.0913 31.3645V32.3262C36.0913 32.372 36.1003 32.4174 36.118 32.4597C36.1356 32.502 36.1615 32.5404 36.1941 32.5728C36.2267 32.6052 36.2654 32.6309 36.308 32.6484C36.3506 32.6659 36.3963 32.675 36.4424 32.675H37.5197C37.5658 32.675 37.6115 32.6659 37.6541 32.6484C37.6967 32.6309 37.7354 32.6052 37.768 32.5728C37.8006 32.5404 37.8265 32.502 37.8441 32.4597C37.8617 32.4174 37.8708 32.372 37.8708 32.3262V31.3645C37.8708 31.272 37.8338 31.1833 37.768 31.1179C37.7021 31.0525 37.6128 31.0157 37.5197 31.0157H36.4424Z" fill="#093F68"/>
<path id="Vector_25" d="M33.6261 22.4975C33.9884 22.4975 34.2821 22.2058 34.2821 21.8459C34.2821 21.4861 33.9884 21.1943 33.6261 21.1943C33.2638 21.1943 32.9701 21.4861 32.9701 21.8459C32.9701 22.2058 33.2638 22.4975 33.6261 22.4975Z" fill="#093F68"/>
<path id="Vector_26" d="M40.3897 22.4975C40.752 22.4975 41.0457 22.2058 41.0457 21.8459C41.0457 21.4861 40.752 21.1943 40.3897 21.1943C40.0274 21.1943 39.7336 21.4861 39.7336 21.8459C39.7336 22.2058 40.0274 22.4975 40.3897 22.4975Z" fill="#093F68"/>
<path id="Vector_27" d="M37.0077 24.2191C36.7948 24.2176 36.5824 24.2004 36.372 24.1677C36.3481 24.1635 36.3253 24.1547 36.3048 24.1417C36.2844 24.1287 36.2667 24.1119 36.2528 24.0921C36.2389 24.0723 36.229 24.05 36.2238 24.0265C36.2186 24.0029 36.2181 23.9786 36.2223 23.9548C36.2266 23.9311 36.2355 23.9084 36.2486 23.8881C36.2616 23.8677 36.2786 23.8502 36.2985 23.8364C36.3184 23.8226 36.3409 23.8128 36.3646 23.8076C36.3883 23.8024 36.4128 23.8019 36.4367 23.8062C36.7654 23.8588 37.1004 23.8588 37.429 23.8062C37.4863 23.6373 37.2442 22.9215 36.8747 22.2424C36.8627 22.221 36.8552 22.1974 36.8525 22.1731C36.8498 22.1488 36.8521 22.1242 36.8591 22.1007C36.8661 22.0773 36.8778 22.0555 36.8935 22.0366C36.9091 22.0177 36.9284 22.0021 36.9502 21.9907C36.972 21.9793 36.9959 21.9724 37.0205 21.9703C37.045 21.9682 37.0697 21.9711 37.0932 21.9786C37.1166 21.9861 37.1383 21.9983 37.1569 22.0142C37.1756 22.0302 37.1908 22.0498 37.2017 22.0717C37.3865 22.4112 37.9409 23.551 37.7561 23.9695C37.7353 24.0153 37.7041 24.0556 37.665 24.0874C37.6259 24.1193 37.5799 24.1417 37.5307 24.1531C37.3597 24.196 37.1841 24.2181 37.0077 24.2191Z" fill="#093F68"/>
<path id="Vector_28" d="M39.4747 26.1463H34.5407C34.4917 26.1463 34.4447 26.127 34.4101 26.0926C34.3754 26.0581 34.356 26.0115 34.356 25.9628C34.356 25.9141 34.3754 25.8674 34.4101 25.833C34.4447 25.7986 34.4917 25.7792 34.5407 25.7792H39.4747C39.5237 25.7792 39.5707 25.7986 39.6054 25.833C39.64 25.8674 39.6595 25.9141 39.6595 25.9628C39.6595 26.0115 39.64 26.0581 39.6054 26.0926C39.5707 26.127 39.5237 26.1463 39.4747 26.1463Z" fill="#093F68"/>
<path id="Vector_29" d="M34.7441 20.0619H31.7006C31.6226 20.0619 31.5479 20.0311 31.4928 19.9764C31.4377 19.9217 31.4067 19.8474 31.4067 19.77C31.4067 19.6926 31.4377 19.6184 31.4928 19.5637C31.5479 19.509 31.6226 19.4782 31.7006 19.4782H34.7441C34.822 19.4782 34.8968 19.509 34.9519 19.5637C35.007 19.6184 35.0379 19.6926 35.0379 19.77C35.0379 19.8474 35.007 19.9217 34.9519 19.9764C34.8968 20.0311 34.822 20.0619 34.7441 20.0619Z" fill="#093F68"/>
<path id="Vector_30" d="M42.3151 20.0619H39.2716C39.1937 20.0619 39.1189 20.0311 39.0638 19.9764C39.0087 19.9217 38.9778 19.8474 38.9778 19.77C38.9778 19.6926 39.0087 19.6184 39.0638 19.5637C39.1189 19.509 39.1937 19.4782 39.2716 19.4782H42.3151C42.3931 19.4782 42.4678 19.509 42.5229 19.5637C42.578 19.6184 42.609 19.6926 42.609 19.77C42.609 19.8474 42.578 19.9217 42.5229 19.9764C42.4678 20.0311 42.3931 20.0619 42.3151 20.0619Z" fill="#093F68"/>
<path id="Vector_31" d="M34.2211 24.0577H32.8315C32.3552 24.0572 31.8987 23.8691 31.5619 23.5346C31.2252 23.2001 31.0358 22.7466 31.0353 22.2736V21.4054C31.0358 21.1963 31.1196 20.9958 31.2686 20.8479C31.4175 20.7 31.6193 20.6167 31.8299 20.6162H35.2245C35.435 20.6167 35.6366 20.7001 35.7852 20.848C35.9338 20.996 36.0173 21.1964 36.0173 21.4054V22.2736C36.0168 22.7466 35.8274 23.2001 35.4907 23.5346C35.1539 23.8691 34.6973 24.0572 34.2211 24.0577ZM31.8336 20.9833C31.7209 20.9833 31.6128 21.0278 31.533 21.1069C31.4533 21.1861 31.4086 21.2935 31.4086 21.4054V22.2736C31.4086 22.6494 31.5589 23.0098 31.8264 23.2756C32.0939 23.5413 32.4568 23.6906 32.8352 23.6906H34.2248C34.6032 23.6906 34.966 23.5413 35.2336 23.2756C35.5011 23.0098 35.6514 22.6494 35.6514 22.2736V21.4054C35.6514 21.2938 35.6069 21.1867 35.5276 21.1076C35.4483 21.0285 35.3406 20.9838 35.2282 20.9833H31.8336Z" fill="#093F68"/>
<path id="Vector_32" d="M40.8146 24.0577H39.425C38.9487 24.0572 38.4922 23.8691 38.1554 23.5346C37.8187 23.2001 37.6293 22.7466 37.6288 22.2736V21.4054C37.6288 21.1964 37.7122 20.996 37.8609 20.848C38.0095 20.7001 38.2111 20.6167 38.4215 20.6162H41.8125C42.0231 20.6167 42.2249 20.7 42.3738 20.8479C42.5227 20.9958 42.6066 21.1963 42.6071 21.4054V22.2736C42.6066 22.746 42.4177 23.1989 42.0818 23.5333C41.7458 23.8677 41.2902 24.0562 40.8146 24.0577ZM38.4215 20.9833C38.3091 20.9838 38.2015 21.0285 38.1222 21.1076C38.0429 21.1867 37.9984 21.2938 37.9984 21.4054V22.2736C37.9984 22.6494 38.1487 23.0098 38.4162 23.2756C38.6838 23.5413 39.0466 23.6906 39.425 23.6906H40.8146C41.193 23.6906 41.5558 23.5413 41.8234 23.2756C42.0909 23.0098 42.2412 22.6494 42.2412 22.2736V21.4054C42.2412 21.2935 42.1964 21.1861 42.1167 21.1069C42.037 21.0278 41.9289 20.9833 41.8162 20.9833H38.4215Z" fill="#093F68"/>
<path id="Vector_33" d="M37.6879 22.0295C37.6438 22.0295 37.6012 22.0139 37.5678 21.9855C36.8175 21.3449 36.071 21.9598 36.0377 21.9855C36.0005 22.0165 35.9526 22.0318 35.9042 22.0281C35.8558 22.0243 35.8108 22.0017 35.779 21.9653C35.7632 21.9469 35.7512 21.9257 35.7437 21.9028C35.7362 21.8799 35.7333 21.8557 35.7352 21.8317C35.7371 21.8077 35.7437 21.7842 35.7547 21.7627C35.7657 21.7413 35.7809 21.7221 35.7993 21.7065C36.0776 21.4654 36.4344 21.3326 36.8037 21.3326C37.1729 21.3326 37.5297 21.4654 37.808 21.7065C37.8367 21.7309 37.8572 21.7634 37.8667 21.7997C37.8763 21.836 37.8743 21.8744 37.8613 21.9096C37.8482 21.9447 37.8245 21.9751 37.7935 21.9966C37.7625 22.018 37.7257 22.0295 37.6879 22.0295Z" fill="#093F68"/>
<path id="Vector_34" d="M31.2201 21.5889C31.1926 21.5887 31.1654 21.5825 31.1407 21.5705L29.0617 20.5923C29.0174 20.5713 28.9832 20.5338 28.9668 20.4878C28.9503 20.4418 28.9529 20.3913 28.974 20.3472C28.995 20.3032 29.0329 20.2692 29.0791 20.2529C29.1254 20.2365 29.1763 20.2391 29.2207 20.26L31.2996 21.2365C31.3372 21.2546 31.3675 21.2847 31.3856 21.3221C31.4037 21.3594 31.4085 21.4018 31.3993 21.4422C31.3901 21.4826 31.3673 21.5188 31.3348 21.5447C31.3023 21.5707 31.2619 21.585 31.2201 21.5852V21.5889Z" fill="#093F68"/>
<path id="Vector_35" d="M42.5129 21.589C42.4782 21.589 42.4443 21.5794 42.4149 21.5613C42.3855 21.5431 42.3618 21.5171 42.3466 21.4862C42.3248 21.4426 42.3213 21.3922 42.3369 21.3461C42.3525 21.3 42.3859 21.2619 42.4297 21.2402L44.0928 20.4253C44.137 20.4039 44.1878 20.4007 44.2343 20.4166C44.2807 20.4324 44.3189 20.4659 44.3405 20.5097C44.362 20.5535 44.3652 20.6041 44.3493 20.6502C44.3333 20.6963 44.2996 20.7343 44.2555 20.7557L42.5923 21.5706C42.5676 21.5825 42.5404 21.5888 42.5129 21.589Z" fill="#093F68"/>
<path id="Vector_36" d="M42.509 39.5983H39.5394V41.3823H42.509V39.5983Z" fill="#FFBC0E"/>
<path id="Vector_37" d="M42.511 41.5658H39.5395C39.4905 41.5658 39.4435 41.5465 39.4089 41.5121C39.3742 41.4776 39.3547 41.431 39.3547 41.3823V39.5909C39.3547 39.5422 39.3742 39.4955 39.4089 39.4611C39.4435 39.4267 39.4905 39.4073 39.5395 39.4073H42.511C42.56 39.4073 42.607 39.4267 42.6417 39.4611C42.6763 39.4955 42.6958 39.5422 42.6958 39.5909V41.3749C42.6968 41.3997 42.6927 41.4243 42.6839 41.4474C42.6751 41.4706 42.6616 41.4917 42.6443 41.5095C42.6271 41.5273 42.6064 41.5415 42.5835 41.5512C42.5605 41.5609 42.5359 41.5658 42.511 41.5658ZM39.7243 41.1987H42.3262V39.7744H39.7243V41.1987Z" fill="#093F68"/>
<path id="Vector_38" d="M41.0251 40.1562C40.9761 40.1562 40.9291 40.1368 40.8945 40.1024C40.8598 40.068 40.8403 40.0213 40.8403 39.9726V39.2238C40.8403 39.1751 40.8598 39.1284 40.8945 39.094C40.9291 39.0596 40.9761 39.0402 41.0251 39.0402C41.0741 39.0402 41.1211 39.0596 41.1558 39.094C41.1904 39.1284 41.2099 39.1751 41.2099 39.2238V39.9708C41.2102 39.995 41.2056 40.0191 41.1964 40.0416C41.1872 40.0641 41.1736 40.0845 41.1565 40.1018C41.1393 40.119 41.1188 40.1327 41.0963 40.142C41.0737 40.1514 41.0495 40.1562 41.0251 40.1562Z" fill="#093F68"/>
</g>
</g>
</svg>
