<svg xmlns="http://www.w3.org/2000/svg" viewBox="0 0 400 300" width="406" height="306" class="illustration styles_illustrationTablet__1DWOa"><g id="_498_online_lesson_outline" data-name="#498_online_lesson_outline"><path d="M311.21,80.81V170c0,3.38-2.39,6.11-5.34,6.11h-127c-2.95,0-5.34-2.73-5.34-6.11V80.81c0-3.37,2.39-6.11,5.34-6.11h127C308.82,74.7,311.21,77.44,311.21,80.81Z" fill="#093f68"></path><path d="M305.87,177.06h-127c-3.5,0-6.34-3.19-6.34-7.11V80.81c0-3.92,2.84-7.11,6.34-7.11h127c3.49,0,6.34,3.19,6.34,7.11V170C312.21,173.87,309.36,177.06,305.87,177.06ZM178.91,75.7c-2.39,0-4.34,2.29-4.34,5.11V170c0,2.82,2,5.11,4.34,5.11h127c2.39,0,4.34-2.29,4.34-5.11V80.81c0-2.82-1.95-5.11-4.34-5.11Z" fill="#093f68"></path><path d="M311.21,80.81V168H173.57V80.81c0-3.37,2.39-6.11,5.34-6.11h127C308.82,74.7,311.21,77.44,311.21,80.81Z" fill="#fff"></path><path d="M311.21,169H173.57a1,1,0,0,1-1-1V80.81c0-3.92,2.84-7.11,6.34-7.11h127c3.49,0,6.34,3.19,6.34,7.11V168A1,1,0,0,1,311.21,169Zm-136.64-2H310.21V80.81c0-2.82-1.95-5.11-4.34-5.11h-127c-2.39,0-4.34,2.29-4.34,5.11Z" fill="#093f68"></path><path d="M239.8,97.39H228a1,1,0,0,1,0-2H239.8a1,1,0,0,1,0,2Z" fill="#dfeaef"></path><path d="M219.8,97.39H197.53a1,1,0,0,1,0-2H219.8a1,1,0,0,1,0,2Z" fill="#dfeaef"></path><path d="M235.38,107.65H193.66a1,1,0,0,1,0-2h41.72a1,1,0,0,1,0,2Z" fill="#dfeaef"></path><path d="M239.8,117.91H196.71a1,1,0,0,1,0-2H239.8a1,1,0,0,1,0,2Z" fill="#dfeaef"></path><path d="M212.67,128.16h-19a1,1,0,0,1,0-2h19a1,1,0,0,1,0,2Z" fill="#dfeaef"></path><path d="M249.08,136.16H184.37a1,1,0,0,1-1-1V87a1,1,0,0,1,1-1h64.71a1,1,0,0,1,1,1v48.12A1,1,0,0,1,249.08,136.16Zm-63.71-2h62.71V88H185.37Z" fill="#dfeaef"></path><path d="M202.1,168h-5.32c-1.56-3.7-4.3-11.13-3.75-16.65a13.8,13.8,0,0,1,6,6.52c.23.46.42.94.62,1.45A47.78,47.78,0,0,1,202.1,168Z" fill="#70cc40"></path><path d="M202.1,169h-5.32a1,1,0,0,1-.92-.61c-1.67-4-4.39-11.45-3.82-17.14a1,1,0,0,1,.49-.76,1,1,0,0,1,.91-.05,14.74,14.74,0,0,1,6.5,7c.24.49.45,1,.64,1.53a50.75,50.75,0,0,1,2.51,8.88,1,1,0,0,1-1,1.15Zm-4.65-2h3.46a58.81,58.81,0,0,0-2.2-7.34c-.2-.51-.37-.94-.57-1.35a13.86,13.86,0,0,0-4.18-5.2C194,157.83,196,163.51,197.45,167Z" fill="#093f68"></path><path d="M206.61,157.79A24.81,24.81,0,0,1,204.76,168h-4.7a56,56,0,0,1-1-10.13c0-4.87.69-10.43,3.24-15,0,0,3.44,3.95,4.26,13.49C206.57,156.83,206.59,157.32,206.61,157.79Z" fill="#70cc40"></path><path d="M204.76,169h-4.7a1,1,0,0,1-1-.81A56.58,56.58,0,0,1,198,157.87c0-6.21,1.1-11.43,3.36-15.51a1,1,0,0,1,.77-.51,1,1,0,0,1,.86.34c.15.17,3.67,4.3,4.51,14.05,0,.53.06,1,.08,1.52a26.18,26.18,0,0,1-1.92,10.62A1,1,0,0,1,204.76,169Zm-3.87-2h3.2a24.27,24.27,0,0,0,1.52-9.18h0c0-.45,0-.92-.08-1.4a28.62,28.62,0,0,0-3.14-11.57,31.5,31.5,0,0,0-2.36,13A54.46,54.46,0,0,0,200.89,167Z" fill="#093f68"></path><path d="M209,168h-6.5a31.16,31.16,0,0,1,4.15-10.21,26,26,0,0,1,5.61-6.32S214.44,158.4,209,168Z" fill="#70cc40"></path><path d="M209,169h-6.5a1,1,0,0,1-1-1.2,32.27,32.27,0,0,1,4.28-10.55,27.24,27.24,0,0,1,5.84-6.56,1,1,0,0,1,1.58.47c.09.3,2.28,7.47-3.35,17.33A1,1,0,0,1,209,169Zm-5.24-2h4.65c3.4-6.2,3.45-11.2,3.19-13.63a25.35,25.35,0,0,0-4.11,5A30,30,0,0,0,203.72,167Z" fill="#093f68"></path><polygon points="183.57 218 221.3 198.74 186.57 184.77 153.93 202.6 183.57 218" fill="#fff"></polygon><path d="M183.57,219a1,1,0,0,1-.46-.11l-29.64-15.4a1,1,0,0,1-.54-.88,1,1,0,0,1,.52-.89l32.64-17.83a1,1,0,0,1,.86,0l34.72,14a1,1,0,0,1,.08,1.82L184,218.89A1,1,0,0,1,183.57,219Zm-27.51-16.42,27.51,14.29,35.32-18-32.25-13Z" fill="#093f68"></path><path d="M159.35,127.12s6.57,8.14,4.3,11.51-8,.89-8,.89" fill="#ffc9b0"></path><path d="M159.81,141.41a13,13,0,0,1-4.58-1,1,1,0,0,1,.79-1.84s5,2.12,6.8-.53c1.4-2.08-2.25-7.85-4.24-10.32a1,1,0,0,1,1.55-1.25c.72.89,7,8.82,4.34,12.69A5.28,5.28,0,0,1,159.81,141.41Z" fill="#093f68"></path><ellipse cx="102.06" cy="136.57" rx="10.23" ry="8.81" fill="#ffc9b0"></ellipse><path d="M102.06,146.38c-6.19,0-11.22-4.4-11.22-9.81s5-9.81,11.22-9.81,11.23,4.4,11.23,9.81S108.25,146.38,102.06,146.38Zm0-17.62c-5.08,0-9.22,3.5-9.22,7.81s4.14,7.81,9.22,7.81,9.23-3.5,9.23-7.81S107.15,128.76,102.06,128.76Z" fill="#093f68"></path><path d="M140.35,96.39c10.37,14,15.39,4.88,16.85,1.73l3.52,31.9a30.84,30.84,0,0,1-24.61,33.62l.72,6.54a5.26,5.26,0,0,1-10.46,1.16l-.68-6.15c-18.67,1.36-29.5-13.64-31.07-27.88l1.66-28.91S109.52,116.54,140.35,96.39Z" fill="#ffc9b0"></path><path d="M131.58,177a6.27,6.27,0,0,1-6.21-5.58l-.57-5.19A27.83,27.83,0,0,1,103,157.8a35.07,35.07,0,0,1-9.41-20.38.86.86,0,0,1,0-.16l1.67-28.92a1,1,0,0,1,.53-.82,1,1,0,0,1,1,0c.12.07,13.21,7.46,43-12a1,1,0,0,1,1.35.24c3.66,4.94,7,7.41,9.74,7.14,2.06-.21,3.88-2,5.41-5.24a1,1,0,0,1,1.07-.56,1,1,0,0,1,.83.87l3.52,31.9a32,32,0,0,1-24.52,34.52l.62,5.64a6.27,6.27,0,0,1-5.54,6.91A5.37,5.37,0,0,1,131.58,177Zm-5.89-12.83a1,1,0,0,1,1,.89l.68,6.15a4.23,4.23,0,0,0,1.57,2.85,4.26,4.26,0,0,0,6.9-3.79l-.72-6.54a1,1,0,0,1,.8-1.09,30,30,0,0,0,23.82-32.53l-3.18-28.84c-1.56,2.21-3.39,3.43-5.46,3.64-3.34.33-7-2.09-11-7.19C114.89,114,101.4,111.45,97.2,109.91l-1.58,27.38c1.62,14.35,12.45,28.17,30,26.91Z" fill="#093f68"></path><path d="M191.68,207.67,169,205.22c-3.64-15.2-14.73-37.75-24.1-37.75H106.68A11.73,11.73,0,0,0,95,179.2v46.1h84.43l20.05-5.9Z" fill="#68e1fd"></path><path d="M179.38,226.3H95a1,1,0,0,1-1-1V179.2a12.75,12.75,0,0,1,12.73-12.74h38.23c10.38,0,21.39,23.9,24.91,37.84l22,2.37a1,1,0,0,1,.73.45l7.76,11.73a1,1,0,0,1-.56,1.51l-20.05,5.9A.9.9,0,0,1,179.38,226.3ZM96,224.3h83.28l18.62-5.48-6.75-10.21-22.2-2.39a1,1,0,0,1-.86-.76c-3.53-14.73-14.55-37-23.13-37H106.68A10.75,10.75,0,0,0,96,179.2Z" fill="#093f68"></path><line x1="148.99" y1="225.3" x2="144.36" y2="198.34" fill="#68e1fd"></line><path d="M149,226.3a1,1,0,0,1-1-.83l-4.63-27a1,1,0,1,1,2-.33l4.63,27a1,1,0,0,1-.81,1.16Z" fill="#093f68"></path><circle cx="155.26" cy="123.76" r="1.78" fill="#093f68"></circle><path d="M150.84,120a2,2,0,0,1-1.19-3.61c4.27-3.15,9.51-.29,9.73-.17a2,2,0,0,1-1.94,3.5s-3.23-1.72-5.42-.11A1.94,1.94,0,0,1,150.84,120Z" fill="#093f68"></path><path d="M150.63,149a5.07,5.07,0,0,1-3.13-1.1,1,1,0,1,1,1.32-1.5c.24.2,2.37,1.85,5.23-1.35a1,1,0,0,1,1.42-.08,1,1,0,0,1,.07,1.41C153.73,148.45,152,149,150.63,149Z" fill="#093f68"></path><path d="M172.85,219a1,1,0,0,1-.95-.71L166.1,199a1,1,0,1,1,1.92-.58l5.79,19.26a1,1,0,0,1-.67,1.25A1.35,1.35,0,0,1,172.85,219Z" fill="#093f68"></path><path d="M106.17,226.3a1,1,0,0,1-1-.9l-2.81-28.92a1,1,0,1,1,2-.19l2.81,28.92a1,1,0,0,1-.89,1.09Z" fill="#093f68"></path><path d="M142.07,109.11c2,0,16.49,1.93,17.77.32a10.13,10.13,0,0,0,1.93-5.41,18.48,18.48,0,0,0-5.15-14.14C147,79.76,130.29,76.87,118,83.7a15.72,15.72,0,0,1-4.45,2,27,27,0,0,1-4.41.12c-4.19.15-8,2.58-10.83,5.72-6.89,7.76-8.33,17.24-8.84,27.23-.78,15.11-1.43,30.3-4.48,45.12-1.51,7.35-3.6,14.62-4.21,22.1s.41,15.39,4.65,21.59a17.56,17.56,0,0,0,8.7,6.94,26.82,26.82,0,0,0,7.84,1c8.5.2,17.22.1,25.2-2.86a34.91,34.91,0,0,0,18.1-16.16c10.83-21.31-5.67-43.83-2.47-66.06C143,128.86,142.62,109.11,142.07,109.11Z" fill="#725858"></path><path d="M106.74,216.6c-1.61,0-3.21,0-4.79-.06a27.56,27.56,0,0,1-8.12-1,18.61,18.61,0,0,1-9.22-7.33c-4.9-7.16-5.32-16-4.82-22.23a113.36,113.36,0,0,1,2.86-16c.47-2,.95-4.14,1.38-6.21,2.87-14,3.62-28.61,4.33-42.73l.12-2.24c.57-11.22,2.34-20.25,9.09-27.85,3.29-3.7,7.5-5.91,11.55-6,.54,0,1.08,0,1.62,0a11.35,11.35,0,0,0,2.63-.11,11.81,11.81,0,0,0,3.44-1.52l.72-.41c12.56-7,29.68-4.25,39.82,6.36a19.47,19.47,0,0,1,5.41,14.92,10.9,10.9,0,0,1-2.14,5.94c-1,1.25-4.57,1.33-15.27.32l-2.1-.19c.63,5.23.57,20.27.55,20.42-1.32,9.17.83,18.6,2.9,27.72,2.91,12.77,5.91,26-.53,38.66a36.12,36.12,0,0,1-18.64,16.64C120.85,216.1,113.7,216.6,106.74,216.6Zm2.92-129.75h-.47C105.68,87,102,89,99.07,92.24c-6.37,7.17-8,15.82-8.59,26.62l-.12,2.24c-.72,14.19-1.47,28.87-4.38,43-.43,2.1-.91,4.21-1.38,6.26a112.51,112.51,0,0,0-2.82,15.72c-.47,5.87-.09,14.26,4.48,20.94a16.61,16.61,0,0,0,8.2,6.56,26.48,26.48,0,0,0,7.54.93c8.24.19,16.94.13,24.83-2.79a34.05,34.05,0,0,0,17.56-15.68c6.11-12,3.32-24.31.36-37.31-2.11-9.3-4.3-18.91-2.93-28.44.2-1.42-.17-18.64-.61-20.7a1,1,0,0,1-.14-.51,1,1,0,0,1,1-1h0c.53,0,1.76.11,3.46.27,3.38.32,12.36,1.16,13.59.36a9.11,9.11,0,0,0,1.64-4.81,17.48,17.48,0,0,0-4.87-13.36c-9.53-10-25.61-12.55-37.4-6l-.7.4a10.46,10.46,0,0,1-7.12,1.9Zm32.39,23.26h0Zm0,0Z" fill="#093f68"></path><path d="M146.35,123.11c-4.36-1.06-11,.43-10,9.37.55,4.84,3.94,8.68,8.39,8.52" fill="#ffc9b0"></path><path d="M144.44,142c-4.68,0-8.49-3.9-9.11-9.4-.55-4.85,1.1-7.43,2.59-8.74,2.51-2.21,6.12-2.34,8.67-1.72a1,1,0,1,1-.47,2c-2.06-.51-5-.43-6.88,1.27-1.64,1.45-2.29,3.81-1.93,7,.52,4.55,3.59,7.77,7.37,7.63a1,1,0,0,1,1,1,1,1,0,0,1-1,1Z" fill="#093f68"></path><path d="M191.68,207.67s7.66-8.07,10.1-6.95-1.32,5.82-1.32,5.82a23.56,23.56,0,0,0,10.89-2.4c4.88-2.67,6.19-1.54,5.44,1.46s-6.12,10.49-17.36,13.8Z" fill="#ffc9b0"></path><path d="M199.43,220.4a1,1,0,0,1-.83-.45l-7.76-11.73A1,1,0,0,1,191,207c2.45-2.58,8.46-8.45,11.25-7.17a2.32,2.32,0,0,1,1.33,1.61c.3,1.27-.41,2.87-1.13,4.08a21.17,21.17,0,0,0,8.47-2.24c3.08-1.68,5.06-2,6.23-1.14.89.69,1.11,1.94.66,3.72-.81,3.24-6.28,11.06-18,14.52A.9.9,0,0,1,199.43,220.4ZM193,207.79l6.9,10.43c10.35-3.28,15.3-10.16,16-12.86.29-1.16.13-1.59.06-1.66s-.73-.5-4,1.32a24.41,24.41,0,0,1-11.41,2.52,1,1,0,0,1-.74-1.62c.89-1.12,2.11-3.17,1.9-4a.32.32,0,0,0-.22-.25C200.47,201.22,196.56,204.1,193,207.79Z" fill="#093f68"></path><path d="M238.6,142.11c-2.27,2.42-4.36,5-6.47,7.58L222.49,141c-2.38-2.15-7.16-6.62-4.06-9.91a7,7,0,0,1,1.84-1.16c1.42-.75,2.85-1.9,4.43-1.64a5.25,5.25,0,0,1,2.54,1.51,35,35,0,0,1,3.53,3.35c.9,1.07.69,1.65,1.25,2.81s2,2.08,3,2.95Z" fill="#ffc9b0"></path><path d="M232.13,150.69a1,1,0,0,1-.67-.26l-5.93-5.36-3.74-3.39c-1.68-1.51-5.24-4.73-5.37-8a4.41,4.41,0,0,1,1.29-3.31,5.93,5.93,0,0,1,1.72-1.16l.37-.19.83-.47a6.39,6.39,0,0,1,4.23-1.28,6.13,6.13,0,0,1,3,1.76l.83.73a25.69,25.69,0,0,1,2.8,2.72,4.76,4.76,0,0,1,1,2,5.39,5.39,0,0,0,.35,1,7.33,7.33,0,0,0,1.87,1.87c.32.27.64.52.91.77l3.57,3.22a1,1,0,0,1,.06,1.43c-2.12,2.27-4.14,4.74-6.09,7.13l-.34.4a1,1,0,0,1-.69.37Zm-7.88-21.46a5.6,5.6,0,0,0-2.6,1l-.91.52-.41.2a4.82,4.82,0,0,0-1.17.75,2.49,2.49,0,0,0-.74,1.86c.1,2.43,3.35,5.37,4.75,6.63l3.7,3.35,5.15,4.66c1.66-2,3.37-4.1,5.16-6.07l-2.82-2.55c-.25-.22-.53-.45-.83-.69a8.49,8.49,0,0,1-2.41-2.56,7.31,7.31,0,0,1-.48-1.32,2.75,2.75,0,0,0-.64-1.29,24.54,24.54,0,0,0-2.58-2.5l-.85-.75a4.36,4.36,0,0,0-2-1.26A1.37,1.37,0,0,0,224.25,129.23Z" fill="#093f68"></path><path d="M228.61,142.57a1,1,0,0,1-.82-.42l-24.28-34.82a1,1,0,0,1,.25-1.4,1,1,0,0,1,1.39.25L229.43,141a1,1,0,0,1-.25,1.39A.92.92,0,0,1,228.61,142.57Z" fill="#093f68"></path><path d="M225.6,131.36c-.67.12-3.45.21-4,.6a1.39,1.39,0,0,0-.55,1.77,1.93,1.93,0,0,0,1.53.67,18.5,18.5,0,0,0,4.4-.16A4.78,4.78,0,0,0,229.4,139" fill="#ffc9b0"></path><path d="M229.4,140a1,1,0,0,1-.47-.11,5.82,5.82,0,0,1-3-4.46,19.26,19.26,0,0,1-3.48,0,2.88,2.88,0,0,1-2.29-1.13,2.38,2.38,0,0,1,.83-3.13c.53-.36,1.49-.49,3.46-.66.42,0,.77-.06,1-.09a1,1,0,0,1,.34,2c-.22,0-.63.07-1.13.11a15.43,15.43,0,0,0-2.53.35.56.56,0,0,0-.22.4h0s.1.13.77.19a17,17,0,0,0,4.15-.15,1,1,0,0,1,.86.27,1,1,0,0,1,.29.85,3.77,3.77,0,0,0,1.91,3.7,1,1,0,0,1-.47,1.88Z" fill="#093f68"></path><path d="M234.81,138.09s9.95,6.67,11.79,7.6c0,0,10.6-12.91,21.76-12.91H280.6c7.08,0,12.81,6.33,12.81,14.14v22h-36.1V154.57c-5,2.85-7.85,4.52-10.14,5.05-3.24.74-7-1.76-17.58-12.6Z" fill="#68e1fd"></path><path d="M293.42,169.88H257.31a1,1,0,0,1-1-1V156.29c-4.15,2.36-6.73,3.79-8.92,4.3-3.81.87-8-2-18.52-12.87a1,1,0,0,1-.14-1.2l5.22-8.94a1,1,0,0,1,1.42-.32c3,2,8.76,5.83,11,7.16,2.36-2.68,11.81-12.64,22-12.64H280.6c7.62,0,13.82,6.79,13.82,15.14v22A1,1,0,0,1,293.42,169.88Zm-35.11-2h34.11v-21c0-7.25-5.3-13.14-11.82-13.14H268.36c-10.55,0-20.88,12.42-21,12.55a1,1,0,0,1-1.22.26c-1.58-.79-8.52-5.41-11-7.08l-4.3,7.36c9.32,9.55,13.27,12.43,16.1,11.77,2-.46,4.65-2,9-4.44l.87-.5a1,1,0,0,1,1,0,1,1,0,0,1,.49.86Z" fill="#093f68"></path><line x1="284.17" y1="168.13" x2="284.17" y2="140.99" fill="#68e1fd"></line><path d="M284.17,169.13a1,1,0,0,1-1-1V141a1,1,0,0,1,2,0v27.14A1,1,0,0,1,284.17,169.13Z" fill="#093f68"></path><path d="M272.71,130.06h1a2.85,2.85,0,0,1,2.85,2.85v3.87a0,0,0,0,1,0,0h-6.72a0,0,0,0,1,0,0v-3.87a2.85,2.85,0,0,1,2.85-2.85Z" transform="translate(512.09 321.55) rotate(-167.81)" fill="#ffc9b0"></path><path d="M273.61,137.88a4.65,4.65,0,0,1-.82-.08l-1-.22a3.86,3.86,0,0,1-2.95-4.58l.81-3.78a1,1,0,0,1,.44-.63,1,1,0,0,1,.75-.14l6.57,1.42a1,1,0,0,1,.63.44,1,1,0,0,1,.14.75l-.82,3.78a3.81,3.81,0,0,1-1.67,2.43A3.91,3.91,0,0,1,273.61,137.88Zm-2.2-7.26-.61,2.8a1.87,1.87,0,0,0,.26,1.4,1.83,1.83,0,0,0,1.16.81h0l1,.21a1.84,1.84,0,0,0,1.39-.25,1.87,1.87,0,0,0,.81-1.17l.61-2.8Z" fill="#093f68"></path><ellipse cx="260.72" cy="108.82" rx="5.63" ry="5.04" transform="translate(99.29 340.68) rotate(-77.81)" fill="#ffc9b0"></ellipse><path d="M260.51,115.42a5.62,5.62,0,0,1-5-3,7,7,0,0,1-.71-4.91,6.9,6.9,0,0,1,2.68-4.17,5.7,5.7,0,0,1,4.62-1c3.26.7,5.28,4.18,4.51,7.75a6.92,6.92,0,0,1-2.68,4.18A5.83,5.83,0,0,1,260.51,115.42Zm.44-11.21a3.93,3.93,0,0,0-2.28.77,5,5,0,0,0-1.89,3h0a4.94,4.94,0,0,0,.49,3.5,3.68,3.68,0,0,0,5.51,1.19,4.92,4.92,0,0,0,1.89-3c.54-2.49-.79-4.91-3-5.38A3.82,3.82,0,0,0,261,104.21Zm-5.15,3.54h0Z" fill="#093f68"></path><path d="M294.3,122.36c-5.2,6.38-13.25,10.94-20.51,9.37A17.67,17.67,0,0,1,260,118.28a21.72,21.72,0,0,1-.05-9.7s-.09-2.39,2.27-11.09,3.69-13.23,21.15-12.29c13.48.72,19.56,8.29,18.69,13.85a122.47,122.47,0,0,1-2.44,12.2,4.09,4.09,0,0,1,2.73,2.82C303.82,118.44,300.55,124.39,294.3,122.36Z" fill="#ffc9b0"></path><path d="M276.72,133a14.87,14.87,0,0,1-3.14-.33A18.72,18.72,0,0,1,259,118.51a22.75,22.75,0,0,1-.08-10c0-.67.2-3.48,2.31-11.25,2.56-9.47,4.57-14,22.16-13,10.28.55,15.18,4.78,17.18,7.26A10,10,0,0,1,303,99.2c-.52,3.28-1.23,7.47-2.24,11.46a5.31,5.31,0,0,1,2.49,3.09,8,8,0,0,1-1.77,8,6.84,6.84,0,0,1-6.85,1.7C289.54,129.53,282.83,133,276.72,133Zm2.24-47c-12.64,0-13.7,3.93-15.8,11.68-2.26,8.31-2.24,10.78-2.24,10.8a1.94,1.94,0,0,1,0,.24,20.9,20.9,0,0,0,0,9.25A16.76,16.76,0,0,0,274,130.75c6.28,1.36,13.95-2.18,19.52-9a1,1,0,0,1,1.09-.32,5.09,5.09,0,0,0,5.47-1,6,6,0,0,0,1.29-6,3.1,3.1,0,0,0-2.07-2.18,1,1,0,0,1-.68-1.22A119.62,119.62,0,0,0,301,98.89a8,8,0,0,0-2-6.18c-3.06-3.77-8.79-6.14-15.73-6.51C281.71,86.11,280.27,86.07,279,86.07Z" fill="#093f68"></path><ellipse cx="280.77" cy="108.34" rx="1.82" ry="1.82" transform="translate(115.57 359.89) rotate(-77.81)" fill="#093f68"></ellipse><circle cx="266.57" cy="104.51" r="1.82" fill="#093f68"></circle><path d="M274.41,113.18h-.09a18.42,18.42,0,0,1-4.52-1,1.56,1.56,0,0,1-1-1.19c-.26-1.55,2.1-3.86,3.53-5.11a1,1,0,1,1,1.31,1.51,14.62,14.62,0,0,0-2.76,3.07,18.35,18.35,0,0,0,3.6.71,1,1,0,0,1-.09,2Z" fill="#093f68"></path><path d="M274,121.74l-6.62-1.51s-.57,5.55,2.09,6.48S274,121.74,274,121.74Z" fill="#fff"></path><path d="M270.08,127.81a2.85,2.85,0,0,1-.91-.15c-3.31-1.17-2.82-6.89-2.75-7.54a1,1,0,0,1,.41-.71,1,1,0,0,1,.8-.16l6.62,1.52a1,1,0,0,1,.65.47,1,1,0,0,1,.08.8c-.14.44-1.42,4.35-3.63,5.46A2.83,2.83,0,0,1,270.08,127.81Zm-1.73-6.34c0,1.67.33,3.9,1.48,4.3a.72.72,0,0,0,.62-.06c.86-.42,1.71-1.95,2.25-3.25Z" fill="#093f68"></path><line x1="257.31" y1="154.57" x2="257.31" y2="142.26" fill="#68e1fd"></line><path d="M257.31,155.57a1,1,0,0,1-1-1V142.26a1,1,0,0,1,2,0v12.31A1,1,0,0,1,257.31,155.57Z" fill="#093f68"></path><path d="M283,89.75a10.43,10.43,0,0,0,.3,8.49A15.45,15.45,0,0,1,271.78,87a18.31,18.31,0,0,0-3.23,7.28c-3.55-.52-7.43-2.65-7.8-6.21A6.78,6.78,0,0,1,264.23,82a16,16,0,0,1,7.12-1.88A54.18,54.18,0,0,1,296.2,84c2.94,1.22,6,2.9,7.32,5.77,1.59,3.34.41,7,.29,10.44a22.69,22.69,0,0,1-3.26,10c-.66,1.16-1.66,2.37-3,2.33a2.94,2.94,0,0,1-2.4-2,19.67,19.67,0,0,1-.7-3.24c-.91-4.23-4.93-6.29-7.37-9.65C286.22,96.43,282.32,91.27,283,89.75Z" fill="#725858"></path><path d="M297.64,113.54h-.11a3.9,3.9,0,0,1-3.3-2.64,11,11,0,0,1-.57-2.37c-.05-.35-.11-.69-.18-1-.52-2.44-2.27-4.12-4.11-5.91a26.18,26.18,0,0,1-3.09-3.37l-.19-.26a48.63,48.63,0,0,1-2.9-4.32,9.29,9.29,0,0,0,1,4.15,1,1,0,0,1-.11,1.06,1,1,0,0,1-1,.37,16.46,16.46,0,0,1-11.57-9.89,17.26,17.26,0,0,0-1.94,5.18,1,1,0,0,1-1.13.79c-4-.59-8.22-3-8.64-7.1a7.65,7.65,0,0,1,3.95-7.08,17,17,0,0,1,7.56-2,55,55,0,0,1,25.32,4c2.82,1.17,6.26,2.94,7.84,6.26,1.26,2.67.94,5.41.63,8.06-.11,1-.22,1.92-.25,2.84-.13,3.94-1.92,7.85-3.39,10.44C300.35,112.59,299.08,113.54,297.64,113.54ZM283.88,90.11c0,.3.12,1.61,3.82,6.67l.2.27a23.89,23.89,0,0,0,2.86,3.1c2,1.92,4,3.9,4.68,6.93.08.38.14.75.2,1.13a8.84,8.84,0,0,0,.45,2c.26.65.84,1.36,1.51,1.38.86,0,1.6-1,2.08-1.82a21.67,21.67,0,0,0,3.13-9.51c0-1,.15-2,.27-3,.29-2.48.56-4.82-.46-7-1.28-2.7-4.31-4.24-6.8-5.27a52.88,52.88,0,0,0-24.39-3.87,15.2,15.2,0,0,0-6.68,1.74c-1.66,1-3.23,3-3,5.17.27,2.71,3.17,4.49,6,5.15A19.36,19.36,0,0,1,271,86.43a1,1,0,0,1,1.77.36,14.43,14.43,0,0,0,8.85,9.92,11.44,11.44,0,0,1,.42-7.33h0a1,1,0,0,1,1.86.73Zm0,0Z" fill="#093f68"></path><rect x="269.91" y="137.43" width="4.61" height="3.9" rx="1.39" transform="translate(532.78 299.49) rotate(-175.54)" fill="#ffbc0e"></rect><path d="M273.1,142.39h-.19l-1.84-.15a2.38,2.38,0,0,1-2.19-2.56l.08-1.12a2.38,2.38,0,0,1,2.57-2.19l1.84.14a2.4,2.4,0,0,1,2.19,2.56l-.09,1.12a2.34,2.34,0,0,1-.83,1.63A2.31,2.31,0,0,1,273.1,142.39Zm-1.76-4a.37.37,0,0,0-.38.35l-.09,1.12a.41.41,0,0,0,.09.29.42.42,0,0,0,.27.13l1.83.14a.33.33,0,0,0,.28-.09.36.36,0,0,0,.14-.26l.08-1.12a.33.33,0,0,0-.09-.28.36.36,0,0,0-.26-.14l-1.84-.14Z" fill="#093f68"></path><polygon points="272.99 141.39 274.85 160.67 269.82 164.18 266.39 160.01 271.15 141.25 272.99 141.39" fill="#ffbc0e"></polygon><path d="M269.82,165.18a1,1,0,0,1-.78-.37l-3.42-4.17a1,1,0,0,1-.2-.88L270.18,141a1,1,0,0,1,1.05-.75l1.83.14a1,1,0,0,1,.92.9l1.87,19.28a1,1,0,0,1-.42.92l-5,3.51A1,1,0,0,1,269.82,165.18Zm-2.33-5.42,2.51,3.07,3.8-2.65-1.73-17.86h-.16Z" fill="#093f68"></path><path d="M240.47,127.81H229.4a1,1,0,0,1,0-2h11.07a1,1,0,0,1,0,2Z" fill="#dfeaef"></path><path d="M319.38,226.3H81.87a1,1,0,0,1,0-2H319.38a1,1,0,0,1,0,2Z" fill="#093f68"></path></g></svg>