<svg width="675" height="625" viewBox="0 0 675 625" fill="none" xmlns="http://www.w3.org/2000/svg">
<g id="Seeker">
<path id="Path 12" fill-rule="evenodd" clip-rule="evenodd" d="M319.998 327.271C303.294 329.191 290.477 328.961 281.545 326.581C272.614 324.202 265.57 319.142 260.414 311.4C254.793 299.559 251.675 292.773 251.06 291.042C248.046 282.56 247.712 274.224 248.289 268.615C249.042 261.289 253.084 251.743 260.414 239.976C261.458 231.796 263.19 224.55 265.61 218.239C268.03 211.928 272.88 202.842 280.16 190.98L281.199 151.991C284.27 143.066 287.157 136.741 289.859 133.014C292.562 129.287 295.679 127.332 299.213 127.148C302.194 126.866 304.965 127.556 307.527 129.218C310.088 130.88 314.938 135.136 322.076 141.985C327.972 131.738 334.669 123.917 342.169 118.522C349.669 113.127 359.599 108.987 371.961 106.101L373.693 102.65L373.902 82.3548L368.15 32.9521H360.529L372.307 15.7C373.358 11.8987 374.398 9.13836 375.425 7.41907C376.453 5.69979 378.372 3.74465 381.183 1.55365C381.234 0.918354 383.545 0.57305 388.116 0.51774C392.687 0.462431 399.889 0.692634 409.721 1.20835C413.918 2.16852 416.805 3.43366 418.381 5.00379C419.958 6.57392 421.343 9.90931 422.538 15.01L439.426 32.9763L428.774 33.6421L427.735 66.421C426.253 72.0425 424.867 75.838 423.578 77.8073C422.288 79.7766 420.21 81.2718 417.342 82.2928L400.367 83.3279L398.289 103.34L399.675 106.101C408.344 108.569 414.233 110.524 417.342 111.966C424.807 115.43 431.56 120.445 436.742 129.218C440.369 135.36 444.123 143.845 449.213 152.681C453.694 160.461 461.893 174.147 473.809 193.741L485.587 204.092L491.476 215.823L505.679 226.52L512.261 205.127C498.866 184.885 492.169 172.003 492.169 166.483C492.169 164.175 493.568 162 494.94 160.617C496.85 158.691 499.474 157.507 503.947 157.857C506.929 158.09 509.816 159.93 512.608 163.377L552.446 269.995C548.481 282.937 545.017 292.599 542.053 298.978C539.09 305.358 534.702 311.683 528.889 317.955C520.514 322.635 513.47 325.395 507.758 326.236C502.045 327.078 492.692 326.273 479.698 323.821C475.147 321.746 472.145 319.791 470.691 317.955C465.3 311.149 463.045 302.515 460.298 297.943C456.44 291.521 454.13 285.54 453.37 280.001L435.356 221.689L357.411 219.274L350.137 278.276C346.16 294.311 341.888 306.043 337.319 313.47C332.75 320.897 326.977 325.498 319.998 327.271Z" fill="white"/>
<path id="Combined Shape" fill-rule="evenodd" clip-rule="evenodd" d="M325.366 339.982C323.955 339.729 322.915 339.604 322.246 339.607C319.677 339.617 317.58 339.486 316.352 337.535C314.644 334.821 315.107 331.599 317.739 327.866L325.019 325.449H328.486L353.794 326.485L361.768 325.449L389.85 324.413C392.855 325.794 393.895 328.442 392.97 332.355C392.046 336.269 389.503 338.686 385.343 339.607L377.023 339.982L320.859 596.482H284.804C290.976 556.186 295.945 525.881 299.711 505.566C303.477 485.251 312.029 430.057 325.366 339.982ZM413.425 339.982C413.37 339.167 411.174 339.042 406.838 339.607C403.14 337.765 401.637 334.887 402.331 330.974C403.024 327.06 404.757 324.989 407.531 324.758L412.731 325.449H428.679L444.627 326.485L462.308 324.758C467.855 325.219 470.628 327.751 470.628 332.355C470.628 334.972 469.743 336.331 468.548 337.535C467.943 338.144 466.787 338.835 465.081 339.607L459.534 339.982L473.748 596.827H436.306C431.262 550.639 428.026 518.26 426.599 499.689C424.899 477.572 415.28 367.636 413.425 339.982Z" fill="white"/>
<path id="Combined Shape_2" fill-rule="evenodd" clip-rule="evenodd" d="M325.366 339.637H377.023L320.859 596.136H284.804C290.976 555.84 295.945 525.535 299.711 505.22C303.477 484.906 312.029 429.711 325.366 339.637ZM413.425 339.637H459.534L473.748 596.481H436.306C431.262 550.293 428.026 517.914 426.599 499.344C424.899 477.226 415.28 367.29 413.425 339.637Z" stroke="#2C2E41" stroke-width="1.5"/>
<path id="Path 218" fill-rule="evenodd" clip-rule="evenodd" d="M357.608 110.792L318.52 110.975C299.02 111.067 282.986 126.313 281.992 145.711L281.337 158.497C281.948 151.923 282.757 147.313 283.764 144.67C285.363 140.473 287.209 138.059 289.311 135.336C292.488 131.219 296.086 127.745 299.018 127.04C305.721 125.426 313.232 130.612 321.553 142.595C322.946 139.911 324.102 137.837 325.02 136.373C326.852 133.451 328.802 130.295 332.3 127.04C339.234 120.587 347.67 115.171 357.608 110.792Z" fill="#2C2E41"/>
<path id="Path 233" fill-rule="evenodd" clip-rule="evenodd" d="M325.712 324.772C329.278 326.068 335.981 326.644 345.82 326.501C351.177 326.422 360.822 324.829 369.048 324.426C373.635 324.202 380.569 324.202 389.849 324.426L397.823 303.34H405.45L407.877 324.426C415.99 324.932 421.768 325.278 425.211 325.463C432.615 325.863 438.775 326.155 443.586 326.155C451.752 326.155 457.761 325.579 461.613 324.426L443.932 225.906L361.767 229.017C360.694 244.019 356.765 260.497 349.98 278.45C348.534 282.276 348.303 287.113 346.86 291.932C344.661 299.275 342.239 306.378 339.579 311.29C337.057 315.95 332.434 320.444 325.712 324.772Z" fill="#2C2E41"/>
<path id="Combined Shape_3" d="M461.067 324.656L453.128 278.538C453.079 278.256 453.269 277.988 453.552 277.939C453.836 277.891 454.104 278.08 454.153 278.363L462.053 324.254H463.174C467.578 324.254 471.148 327.813 471.148 332.204C471.148 336.596 467.578 340.155 463.174 340.155H408.47C404.566 340.155 401.401 337 401.401 333.107C401.401 332.781 401.424 332.456 401.469 332.133L401.884 329.164C402.258 326.493 404.335 324.403 406.964 323.973L404.98 303.858H398.183L390.562 324.012C392.689 324.502 394.194 326.481 394.022 328.716C394.007 328.909 393.98 329.101 393.94 329.29L393.306 332.311C392.346 336.881 388.305 340.155 383.621 340.155H320.199C317.276 340.155 314.907 337.793 314.907 334.879C314.907 334.327 314.994 333.779 315.164 333.255C315.627 331.829 316.204 329.988 316.895 327.732C316.979 327.458 317.27 327.304 317.544 327.387C317.819 327.471 317.974 327.761 317.89 328.035C317.197 330.296 316.618 332.142 316.154 333.574C316.017 333.996 315.947 334.436 315.947 334.879C315.947 337.22 317.851 339.118 320.199 339.118H383.621C387.812 339.118 391.429 336.188 392.288 332.098L392.922 329.078C392.952 328.932 392.973 328.785 392.985 328.637C393.131 326.747 391.717 325.098 389.824 324.945C385.522 324.861 382.479 324.818 380.696 324.816C375.869 324.81 362.259 325.597 359.411 325.978C352.946 326.84 349.523 326.964 343.932 326.777C343.75 326.77 343.75 326.77 343.568 326.764C341.57 326.697 340.615 326.673 339.34 326.673C334.716 326.673 331.261 326.558 328.968 326.325C326.278 326.052 325.059 325.67 325.198 324.699L326.228 324.845C326.238 324.77 326.217 324.714 326.204 324.689C326.277 324.745 326.426 324.814 326.646 324.883C327.157 325.043 327.97 325.181 329.074 325.293C331.324 325.522 334.748 325.636 339.34 325.636C340.63 325.636 341.594 325.66 343.603 325.728C343.785 325.734 343.785 325.734 343.967 325.74C349.504 325.926 352.871 325.804 359.273 324.95C362.17 324.563 375.826 323.773 380.697 323.779C382.439 323.781 385.37 323.821 389.493 323.901L397.337 303.157C397.414 302.955 397.607 302.821 397.824 302.821H405.451H409.958C410.245 302.821 410.478 303.053 410.478 303.34C410.478 303.626 410.245 303.858 409.958 303.858H406.025L408.014 324.03C410.311 324.408 414.898 324.599 421.745 324.599C424.319 324.599 436.897 325.3 440.515 325.639C444.638 326.025 451.495 325.699 461.067 324.656V324.656ZM461.633 325.291L461.671 325.633C451.777 326.725 444.699 327.072 440.418 326.671C436.83 326.335 424.283 325.636 421.745 325.636C414.424 325.636 409.666 325.419 407.43 324.979L407.435 324.956C405.11 325.196 403.239 326.988 402.914 329.308L402.499 332.276C402.461 332.551 402.441 332.829 402.441 333.107C402.441 336.427 405.14 339.118 408.47 339.118H463.174C467.004 339.118 470.108 336.023 470.108 332.204C470.108 328.386 467.004 325.291 463.174 325.291H461.633Z" fill="#2C2E41"/>
<path id="Combined Shape_4" d="M401.092 83.3104L399.074 104.556C415.508 110.126 426.015 114.962 430.637 119.108C436.631 124.483 451.995 155.551 459.869 175.941C462.247 182.099 465.933 185.999 474.878 193.218L475.63 193.825C484.612 201.075 488.284 204.989 490.532 211.211C494.003 220.817 500.948 223.125 511.666 218.176C511.926 218.056 512.235 218.169 512.356 218.429C512.477 218.688 512.363 218.997 512.103 219.117C500.86 224.308 493.244 221.777 489.554 211.563C487.392 205.579 483.813 201.764 474.976 194.631L474.223 194.024C465.14 186.693 461.364 182.697 458.899 176.313C451.094 156.103 435.761 125.097 429.942 119.879C425.422 115.826 414.877 110.987 398.351 105.407C398.122 105.33 397.977 105.106 398 104.867L400.047 83.3104H394.01C393.723 83.3104 393.49 83.0782 393.49 82.7918C393.49 82.5055 393.723 82.2733 394.01 82.2733H400.612C400.616 82.2733 400.62 82.2733 400.624 82.2733H412.173C419.329 82.2733 423.479 79.3721 425.647 73.5094C427.388 68.7982 427.812 63.3526 427.812 51.7118V43.7832C427.812 43.6736 427.813 43.5845 427.813 43.3828C427.818 39.5283 427.639 37.3076 426.81 33.9213C426.792 33.9012 426.768 33.8764 426.739 33.8476C426.658 33.7667 426.545 33.6611 426.401 33.5316H376.82C376.533 33.5316 376.3 33.2994 376.3 33.013C376.3 32.7267 376.533 32.4945 376.82 32.4945H426.599C426.726 32.4945 426.849 32.5409 426.944 32.6248C427.558 33.1668 427.74 33.3488 427.797 33.5805C428.67 37.1171 428.858 39.4178 428.853 43.3842C428.853 43.5857 428.853 43.6742 428.853 43.7832V51.7118C428.853 63.4839 428.423 68.9976 426.623 73.868C424.305 80.1375 419.765 83.3104 412.173 83.3104H401.092ZM552.988 269.316L553.985 269.609C545.275 299.108 536.024 316.303 526.12 321.226C510.529 328.975 491.464 329.571 475.946 321.982C473.896 320.979 472.286 319.578 470.652 317.425C469.487 315.89 468.337 314.044 466.503 310.838C466.023 310 464.194 306.771 463.924 306.297C462.776 304.278 461.783 302.56 460.725 300.769C459.275 298.316 457.218 292.9 454.532 284.484L455.523 284.17C458.185 292.51 460.224 297.879 461.621 300.242C462.682 302.039 463.678 303.762 464.829 305.786C465.1 306.261 466.928 309.488 467.406 310.324C469.22 313.493 470.351 315.31 471.481 316.799C473.022 318.83 474.509 320.124 476.404 321.051C491.621 328.492 510.346 327.907 525.656 320.298C535.208 315.55 544.356 298.546 552.988 269.316Z" fill="#2C2E41"/>
<path id="Combined Shape_5" fill-rule="evenodd" clip-rule="evenodd" d="M410.304 109.41L416.544 111.829C420.936 125.196 424.287 136.604 426.598 146.052C428.909 155.501 430.412 169.559 431.105 188.226L422.438 185.806C423.131 170.827 421.86 157.575 418.624 146.052C417.215 141.033 414.442 128.819 410.304 109.41ZM357.261 110.792L363.154 108.373C364.541 118.59 365.235 126.656 365.235 132.571C365.235 138.486 365.235 144.478 365.235 150.546L356.221 163.337C357.607 159.188 358.301 149.855 358.301 135.336C358.301 120.817 357.954 112.636 357.261 110.792Z" fill="#2C2E41"/>
<path id="Combined Shape_6" d="M410.142 109.518L409.942 108.578L417.309 111.435L417.385 111.668C421.781 125.046 425.136 136.466 427.45 145.93C429.772 155.419 431.277 169.508 431.972 188.207L431.998 188.917L422.246 186.194L422.265 185.782C422.956 170.855 421.69 157.659 418.471 146.192C417.057 141.159 414.282 128.939 410.142 109.518ZM419.472 145.913C422.694 157.386 423.977 170.555 423.323 185.418L430.906 187.535C430.202 169.253 428.712 155.463 426.44 146.175C424.146 136.796 420.823 125.478 416.473 112.224L411.36 110.241C415.384 129.094 418.09 140.99 419.472 145.913ZM357.121 110.975L356.944 110.504L363.926 107.637L364.017 108.303C365.406 118.541 366.101 126.629 366.101 132.571V150.71L354.951 166.532L356.074 163.173C357.437 159.097 358.128 149.797 358.128 135.336C358.128 120.932 357.78 112.728 357.121 110.975ZM359.168 135.336C359.168 147.324 358.697 155.788 357.745 160.764L365.061 150.382V132.571C365.061 126.811 364.4 118.989 363.076 109.108L358.238 111.094C358.868 113.69 359.168 121.703 359.168 135.336Z" fill="#2C2E41"/>
<path id="Combined Shape_7" d="M400.445 110.94L401.442 110.645L448.604 269.365C451.299 283.394 461.013 290.376 477.908 290.376C494.811 290.376 508.708 279.126 519.614 256.526L520.552 256.976C509.488 279.901 495.268 291.413 477.908 291.413C460.54 291.413 450.377 284.108 447.594 269.61L400.445 110.94ZM426.084 239.309L427.112 239.467C421.761 274.035 411.701 291.413 396.783 291.413C384.714 291.413 376.683 253.972 373.382 182.373C372.76 168.873 372.413 145.821 372.342 113.213L373.382 113.211C373.453 145.805 373.8 168.845 374.421 182.326C377.679 252.992 385.698 290.376 396.783 290.376C410.987 290.376 420.804 273.417 426.084 239.309Z" fill="#2C2E41"/>
<path id="Combined Shape_8" fill-rule="evenodd" clip-rule="evenodd" d="M477.893 222.305L514.219 218.502L516.368 238.863L480.042 242.666L477.893 222.305ZM444.2 185.803L440.786 153.451C442.156 149.953 445.765 147.897 451.613 147.285C457.461 146.673 461.42 147.936 463.49 151.074L466.904 183.426L444.2 185.803ZM539.557 175.82L516.853 178.197L513.439 145.845C514.809 142.347 518.417 140.292 524.265 139.68C530.113 139.067 534.072 140.33 536.143 143.468L539.557 175.82Z" fill="#2C2E41"/>
<path id="Combined Shape_9" fill-rule="evenodd" clip-rule="evenodd" d="M441.347 221.726L436.07 171.727C438.281 166.311 444.065 163.113 453.422 162.134C462.779 161.154 469.104 163.085 472.397 167.925L477.673 217.923L441.347 221.726ZM550.326 210.317L513.999 214.12L508.723 164.122C510.934 158.706 516.718 155.508 526.075 154.528C535.431 153.549 541.756 155.479 545.05 160.319L550.326 210.317Z" fill="white"/>
<path id="Combined Shape_10" fill-rule="evenodd" clip-rule="evenodd" d="M441.119 221.865L435.843 171.867C438.054 166.451 443.838 163.253 453.194 162.273C462.551 161.294 468.876 163.224 472.169 168.064L477.445 218.063L441.119 221.865ZM550.098 210.457L513.772 214.26L508.496 164.261C510.707 158.845 516.49 155.647 525.847 154.668C535.204 153.688 541.529 155.618 544.822 160.458L550.098 210.457Z" fill="white" stroke="#2C2E41" stroke-width="1.5" stroke-linecap="round" stroke-linejoin="round"/>
<path id="Combined Shape_11" fill-rule="evenodd" clip-rule="evenodd" d="M440.227 277.141L434.124 219.3C437.282 212.971 445.293 209.134 458.159 207.787C471.025 206.44 479.662 208.535 484.072 214.071L490.176 271.912L440.227 277.141ZM562.829 264.307L512.88 269.536L506.776 211.694C509.934 205.366 517.946 201.528 530.812 200.181C543.677 198.834 552.315 200.929 556.725 206.465L562.829 264.307Z" fill="white"/>
<path id="Combined Shape_12" d="M440.121 277.674C439.835 277.704 439.579 277.497 439.549 277.212L433.446 219.371C433.435 219.273 433.453 219.174 433.497 219.086C436.752 212.564 444.92 208.651 457.944 207.288C470.968 205.925 479.774 208.06 484.319 213.766C484.38 213.843 484.418 213.936 484.429 214.034L490.532 271.875C490.562 272.16 490.355 272.415 490.07 272.445L440.121 277.674ZM489.444 271.468L483.41 214.294C479.105 209.013 470.667 206.999 458.053 208.319C445.438 209.64 437.605 213.358 434.496 219.414L440.529 276.588L489.444 271.468ZM563.185 264.27C563.215 264.554 563.008 264.81 562.722 264.839L512.774 270.068C512.488 270.098 512.232 269.892 512.202 269.607L506.098 211.765C506.088 211.667 506.106 211.568 506.15 211.48C509.404 204.958 517.572 201.046 530.596 199.682C543.621 198.319 552.427 200.455 556.971 206.16C557.033 206.237 557.071 206.33 557.081 206.428L563.185 264.27ZM562.096 263.862L556.063 206.688C551.758 201.408 543.32 199.393 530.705 200.714C518.091 202.034 510.257 205.752 507.149 211.809L513.182 268.983L562.096 263.862Z" fill="#2C2E41"/>
<path id="Combined Shape_13" fill-rule="evenodd" clip-rule="evenodd" d="M465.937 283.028C452.144 284.472 440.562 281.844 440.067 277.158C439.573 272.473 450.353 267.504 464.146 266.06C477.939 264.616 489.521 267.244 490.016 271.929C490.51 276.615 479.73 281.584 465.937 283.028ZM538.589 275.422C524.797 276.866 513.214 274.238 512.72 269.553C512.225 264.867 523.006 259.898 536.799 258.454C550.592 257.01 562.174 259.638 562.669 264.324C563.163 269.009 552.382 273.978 538.589 275.422Z" fill="#2C2E41"/>
<path id="Oval" d="M427.79 231.502C432.151 231.046 435.314 227.153 434.856 222.807C434.397 218.461 430.49 215.309 426.129 215.765C421.769 216.222 418.605 220.115 419.064 224.46C419.522 228.806 423.429 231.959 427.79 231.502ZM427.681 230.471C423.892 230.867 420.497 228.128 420.098 224.352C419.7 220.576 422.449 217.193 426.238 216.797C430.028 216.4 433.423 219.139 433.821 222.915C434.22 226.691 431.471 230.074 427.681 230.471Z" fill="#2C2E41"/>
<path id="Combined Shape_14" d="M261.326 240.058L268.332 237.518C268.601 237.42 268.9 237.559 268.998 237.828C269.096 238.097 268.957 238.394 268.687 238.492L262.458 240.751L268.774 244.472C269.021 244.618 269.103 244.936 268.957 245.182C268.811 245.429 268.492 245.511 268.245 245.365L261.192 241.21L261.06 241.258C260.999 241.28 260.936 241.29 260.874 241.289C248.141 258.196 245.196 274.875 252.003 291.389C258.638 307.488 261.62 313.234 266.647 318.193C272.442 323.911 280.423 326.882 294.221 328.405C320.243 331.276 335.441 322.678 342.21 303.513C346.439 291.539 348.858 283.154 349.465 278.385C349.501 278.101 349.761 277.9 350.046 277.936C350.331 277.972 350.533 278.231 350.497 278.515C349.878 283.379 347.443 291.817 343.191 303.858C336.255 323.496 320.591 332.358 294.107 329.436C280.097 327.89 271.905 324.84 265.915 318.931C260.751 313.835 257.733 308.02 251.041 291.783C244.049 274.82 247.133 257.666 260.255 240.385C261.667 222.839 268.055 206.417 279.411 191.128C290.733 175.884 302.401 164.425 314.419 156.752C322.541 135.293 334.335 120.922 349.805 113.671C357.512 110.058 363.297 107.657 367.169 106.464C369.762 105.666 371.608 105.372 372.64 105.696L374.423 73.0844C374.439 72.7984 374.684 72.5793 374.971 72.5934C375.257 72.6104 375.477 72.8549 375.461 73.1408L373.607 107.066C373.57 107.738 372.568 107.711 372.568 107.038C372.568 106.403 370.963 106.381 367.476 107.455C363.661 108.63 357.914 111.016 350.247 114.61C335.007 121.753 323.367 135.966 315.331 157.279C315.292 157.384 315.219 157.473 315.124 157.533C303.171 165.133 291.544 176.536 280.247 191.745C269.093 206.762 262.788 222.864 261.326 240.058Z" fill="#2C2E41"/>
<path id="Path 112" fill-rule="evenodd" clip-rule="evenodd" d="M373.209 102.842L368.339 115.126C368.057 115.836 368.407 116.638 369.119 116.918C369.399 117.029 369.708 117.045 369.999 116.965L390.802 111.216L404.57 116.1C405.291 116.356 406.085 115.981 406.342 115.263C406.495 114.833 406.426 114.355 406.156 113.987L398.517 103.533C397.101 104.762 394.065 105.377 389.412 105.377C384.758 105.377 379.357 104.532 373.209 102.842Z" fill="white"/>
<path id="Combined Shape_15" d="M390.477 111.594L370.484 117.119C370.084 117.229 369.659 117.206 369.274 117.054C368.294 116.668 367.814 115.564 368.201 114.587L373.071 102.305C373.169 102.059 373.437 101.926 373.693 101.996C379.799 103.675 385.154 104.512 389.757 104.512C394.293 104.512 397.228 103.918 398.522 102.796C398.752 102.597 399.104 102.636 399.283 102.882L406.919 113.332C407.29 113.839 407.386 114.497 407.175 115.089C406.822 116.078 405.731 116.595 404.739 116.243L391.519 111.553C391.543 111.749 391.57 111.98 391.601 112.245C391.731 113.37 391.926 115.114 392.186 117.477C392.706 122.202 393.486 129.404 394.526 139.083C394.557 139.368 394.35 139.624 394.065 139.654C393.779 139.685 393.523 139.479 393.492 139.194C392.452 129.515 391.672 122.314 391.152 117.59C390.892 115.229 390.697 113.487 390.568 112.364C390.533 112.062 390.502 111.805 390.477 111.594ZM390.464 105.545C390.578 105.989 390.687 106.484 390.792 107.025C390.962 107.906 391.095 108.753 391.252 109.871L391.319 110.345C391.32 110.358 391.322 110.37 391.324 110.382L405.088 115.266C405.539 115.426 406.034 115.191 406.195 114.741C406.291 114.472 406.248 114.173 406.079 113.942L398.754 103.919C397.184 104.962 394.429 105.49 390.464 105.545ZM390.3 110.567C390.296 110.542 390.293 110.517 390.289 110.49L390.222 110.015C390.067 108.913 389.936 108.08 389.77 107.221C389.649 106.592 389.522 106.031 389.389 105.548C384.885 105.506 379.711 104.695 373.867 103.119L369.169 114.969C368.993 115.412 369.211 115.914 369.656 116.09C369.831 116.159 370.024 116.169 370.206 116.119L390.3 110.567Z" fill="#2C2E41"/>
<path id="Path 114" fill-rule="evenodd" clip-rule="evenodd" d="M319.472 221.514C348.241 175.79 364.767 150.555 369.048 145.809C372.389 142.105 378.113 141.801 381.831 145.129C384.615 147.619 385.572 151.559 384.242 155.042L373.902 182.106" fill="white"/>
<path id="Path 114_2" d="M319.792 222.033C348.529 176.361 365.065 151.11 369.315 146.399C372.466 142.906 377.86 142.622 381.363 145.764C383.984 148.115 384.885 151.831 383.63 155.116L373.296 182.165L374.267 182.534L384.601 155.486C386.01 151.8 384.999 147.63 382.058 144.993C378.128 141.468 372.077 141.787 368.541 145.706C364.229 150.486 347.714 175.705 318.911 221.482L319.792 222.033Z" fill="#2C2E41"/>
<path id="Combined Shape_16" fill-rule="evenodd" clip-rule="evenodd" d="M383.735 53.4285C382.926 53.1906 382.069 53.0629 381.182 53.0629C376.204 53.0629 372.168 57.0869 372.168 62.0507C372.168 66.2683 375.082 69.8074 379.011 70.7762L378.604 79.1391C378.495 81.3694 376.631 83.1127 374.39 83.0814L363.691 82.9319C363.005 82.9223 362.323 82.8205 361.665 82.6294C357.62 81.4558 355.297 77.2391 356.475 73.211L368.234 33.0131H369.626L369.631 33.0052L371.262 33.0131H377.369L377.37 33.0423L391.873 33.1119C390.199 40.7831 388.695 45.9094 387.362 48.4907C386.41 50.3339 385.201 51.9798 383.735 53.4285ZM433.009 33.0131C434.374 38.7745 432.262 41.6552 426.671 41.6552C421.081 41.6552 412.696 38.7745 401.516 33.0131H433.009Z" fill="#2C2E41"/>
<path id="Path 113" fill-rule="evenodd" clip-rule="evenodd" d="M304.694 233.582L351.769 191.804C358.622 185.722 367.511 182.415 376.689 182.532L430.291 183.22C437.613 183.313 443.598 189.065 443.954 196.35C444.29 203.245 438.952 209.106 432.029 209.441C431.872 209.449 431.714 209.453 431.557 209.455L386.176 209.95C383.399 209.98 381.173 212.246 381.203 215.011C381.203 215.013 381.203 215.015 381.203 215.017C381.237 217.817 383.485 220.09 386.295 220.167L433.138 221.445C439.52 221.619 444.614 226.806 444.647 233.165C444.68 239.432 439.607 244.54 433.314 244.573C433.294 244.573 433.274 244.573 433.254 244.573H388.603C385.856 244.573 383.63 246.791 383.63 249.526C383.63 249.546 383.63 249.566 383.63 249.585C383.667 252.593 385.592 255.255 388.445 256.242L417.037 266.128C421.985 267.839 424.603 273.221 422.885 278.148C422.809 278.367 422.725 278.583 422.633 278.796C420.343 284.075 414.379 286.731 408.903 284.911L362.422 269.462L337.275 286.179C324.379 294.751 306.946 291.288 298.339 278.443C297.53 277.235 296.816 275.966 296.205 274.648C294.014 269.926 293.331 263.161 294.155 254.353C294.904 246.351 298.67 238.928 304.694 233.582Z" fill="white"/>
<path id="Combined Shape_17" d="M302.822 282.68L311.591 277.059C308.582 274.194 306.152 270.675 304.1 266.583C301.126 260.652 302.104 249.31 306.978 232.486L305.317 233.959C299.381 239.227 295.671 246.545 294.936 254.435C294.125 263.143 294.8 269.811 296.943 274.43C297.54 275.717 298.236 276.957 299.025 278.137C300.148 279.816 301.424 281.332 302.822 282.68ZM303.609 283.408C312.747 291.544 326.57 292.848 337.237 285.757L339.664 284.144C330.023 285.88 322.182 284.463 315.899 280.442C314.646 279.641 313.477 278.754 312.382 277.785L303.609 283.408ZM307.532 230.606C307.532 230.603 307.533 230.6 307.534 230.597C307.593 230.4 307.76 230.263 307.951 230.233L351.693 191.413C358.641 185.247 367.65 181.894 376.95 182.014L430.579 182.701C438.167 182.798 444.37 188.766 444.739 196.325C445.09 203.505 439.536 209.609 432.335 209.959C432.171 209.967 432.007 209.972 431.843 209.973L386.442 210.468C383.956 210.495 381.962 212.527 381.99 215.006L381.99 215.011C382.02 217.532 384.042 219.579 386.57 219.648L433.431 220.927C440.087 221.109 445.398 226.523 445.434 233.163C445.468 239.716 440.168 245.057 433.596 245.091L433.533 245.091H388.863C386.407 245.091 384.416 247.077 384.416 249.526C384.416 249.552 384.416 249.552 384.416 249.579C384.45 252.368 386.234 254.836 388.877 255.75L417.481 265.641C422.693 267.443 425.452 273.116 423.645 278.312C423.564 278.545 423.474 278.775 423.376 279.002C420.979 284.529 414.741 287.31 409.012 285.406L362.765 270.034L337.814 286.62C324.674 295.355 306.92 291.815 298.16 278.712C297.341 277.488 296.618 276.201 295.999 274.865C293.767 270.053 293.074 263.213 293.9 254.339C294.66 246.188 298.493 238.627 304.625 233.185L307.532 230.606ZM308.444 231.184C303.239 248.646 302.122 260.318 305.031 266.119C307.906 271.853 311.526 276.412 316.46 279.569C322.884 283.68 331.015 284.971 341.205 282.783C341.347 282.752 341.488 282.783 341.601 282.857L362.611 268.89L409.341 284.422C414.558 286.156 420.239 283.623 422.421 278.59C422.509 278.387 422.59 278.181 422.662 277.972C424.281 273.317 421.809 268.235 417.141 266.621L388.536 256.73C385.479 255.673 383.415 252.818 383.376 249.592C383.376 249.559 383.376 249.559 383.376 249.526C383.376 246.504 385.833 244.054 388.863 244.054H433.533L433.59 244.054C439.588 244.023 444.425 239.149 444.394 233.168C444.361 227.088 439.497 222.13 433.402 221.964L386.541 220.685C383.455 220.6 380.987 218.101 380.95 215.023L380.95 215.017C380.916 211.965 383.37 209.464 386.431 209.431L431.832 208.936C431.983 208.935 432.134 208.93 432.285 208.923C438.912 208.601 444.023 202.983 443.701 196.375C443.358 189.364 437.604 183.828 430.565 183.738L376.937 183.051C367.896 182.935 359.138 186.194 352.384 192.188L308.444 231.184Z" fill="#2C2E41"/>
<path id="Path 107" fill-rule="evenodd" clip-rule="evenodd" d="M539.326 195.29L539.333 196.695C539.366 203.865 545.211 209.659 552.409 209.659H562.275C554.123 210.283 548.807 212.933 546.327 217.609C542.422 224.974 545.25 234.098 552.644 237.988C554.824 239.134 557.251 239.733 559.716 239.733H564.008L562.835 240.307C554.586 244.339 551.181 254.268 555.229 262.484C555.473 262.98 555.742 263.463 556.034 263.931C559.976 269.399 567.621 270.65 573.111 266.724C573.478 266.461 573.83 266.179 574.166 265.878L581.819 259.01C586.045 255.218 588.033 249.537 587.09 243.95C587.022 243.543 586.955 243.174 586.889 242.845C586.491 240.829 585.104 237.833 582.729 233.857C584.347 230.63 584.809 226.713 584.116 222.103C583.423 217.494 581.458 213.461 578.222 210.004C579.798 205.98 580.029 201.487 578.916 196.523C578.475 194.557 577.864 192.882 577.084 191.497C575.652 188.957 573.073 187.267 570.165 186.963L550.813 184.939C545.1 184.342 539.983 188.47 539.383 194.16C539.343 194.535 539.325 194.912 539.326 195.29Z" fill="white"/>
<path id="Combined Shape_18" d="M564.154 238.869L582.586 233.083C584.074 229.996 584.491 226.25 583.827 221.835C583.151 217.342 581.242 213.415 578.093 210.04L578.091 210.177L562.114 209.865C554.365 210.535 549.353 213.092 547.012 217.506C543.243 224.614 545.966 233.423 553.095 237.181C555.198 238.29 557.541 238.869 559.919 238.869H564.154ZM564.427 239.871L563.28 240.431C555.301 244.331 552.004 253.942 555.915 261.898C556.153 262.382 556.415 262.854 556.682 263.283C560.46 268.524 567.784 269.719 573.041 265.952C573.388 265.703 573.722 265.435 574.041 265.149L581.687 258.287C585.788 254.607 587.717 249.09 586.799 243.665C586.732 243.273 586.668 242.917 586.605 242.599C586.232 240.715 584.936 237.883 582.717 234.129L564.427 239.871ZM562.502 208.835L578.089 209.14C579.511 205.301 579.695 201.021 578.633 196.29C578.204 194.373 577.611 192.747 576.858 191.41C575.509 189.014 573.078 187.42 570.338 187.133L550.983 185.109C545.556 184.541 540.695 188.468 540.125 193.88C540.088 194.236 540.07 194.595 540.072 194.953L540.078 196.347C540.11 203.231 545.716 208.794 552.62 208.794H562.5L562.502 208.835ZM546.093 217.021C547.944 213.531 551.294 211.138 556.118 209.832H552.62C545.143 209.832 539.073 203.807 539.038 196.352L539.031 194.958C539.03 194.562 539.05 194.166 539.091 193.771C539.72 187.79 545.093 183.45 551.091 184.078L570.446 186.102C573.523 186.423 576.251 188.213 577.765 190.903C578.571 192.333 579.198 194.054 579.648 196.064C580.756 201 580.558 205.497 579.048 209.543C582.225 213.023 584.162 217.073 584.856 221.681C585.546 226.269 585.112 230.208 583.545 233.487C585.86 237.391 587.22 240.352 587.625 242.398C587.69 242.726 587.756 243.091 587.824 243.492C588.802 249.268 586.749 255.14 582.383 259.058L574.736 265.92C574.39 266.231 574.026 266.523 573.648 266.794C567.925 270.896 559.951 269.595 555.818 263.86C555.514 263.372 555.235 262.87 554.981 262.354C550.947 254.148 554.116 244.289 562.042 239.906H559.919C557.371 239.906 554.861 239.285 552.609 238.098C544.972 234.072 542.055 224.636 546.093 217.021ZM552.604 187.87C552.892 187.866 553.128 188.094 553.132 188.381C553.136 188.667 552.906 188.903 552.619 188.907C548.786 188.961 547.085 191.245 547.414 196.028C547.745 200.833 549.452 202.989 552.579 202.771C552.866 202.751 553.114 202.967 553.134 203.253C553.154 203.538 552.938 203.786 552.652 203.806C548.848 204.071 546.742 201.41 546.376 196.099C546.009 190.766 548.119 187.933 552.604 187.87ZM557.575 217.439C557.861 217.415 558.113 217.627 558.137 217.912C558.161 218.198 557.949 218.448 557.662 218.472C553.842 218.793 552.305 221.189 552.968 225.938C553.635 230.708 555.489 232.741 558.593 232.306C558.878 232.266 559.141 232.464 559.181 232.748C559.221 233.031 559.023 233.293 558.738 233.333C554.963 233.862 552.675 231.354 551.938 226.081C551.199 220.786 553.105 217.814 557.575 217.439ZM564.865 247.677C565.146 247.619 565.421 247.799 565.48 248.079C565.539 248.359 565.359 248.634 565.078 248.692C561.325 249.474 560.093 252.039 561.332 256.672C562.578 261.326 564.667 263.118 567.695 262.31C567.972 262.236 568.257 262.4 568.332 262.677C568.406 262.954 568.241 263.238 567.964 263.312C564.281 264.295 561.704 262.083 560.327 256.939C558.945 251.774 560.474 248.592 564.865 247.677Z" fill="#2C2E41"/>
<path id="Mask" fill-rule="evenodd" clip-rule="evenodd" d="M114.387 340.462L131.221 515.572H139.888L131.634 338.776C131.417 334.136 127.466 330.55 122.808 330.766C122.665 330.773 122.523 330.783 122.381 330.797C117.496 331.271 113.919 335.596 114.387 340.462Z" fill="white"/>
<path id="Mask_2" d="M113.869 340.185L130.748 515.763H140.433L132.153 338.425C131.923 333.5 127.728 329.693 122.783 329.922C122.632 329.929 122.481 329.94 122.33 329.955C117.159 330.457 113.374 335.034 113.869 340.185ZM131.693 514.727L114.904 340.086C114.464 335.504 117.831 331.433 122.431 330.986C122.564 330.973 122.698 330.963 122.832 330.957C127.203 330.755 130.911 334.12 131.114 338.473L139.343 514.727H131.693Z" fill="#2C2E41"/>
<path id="Combined Shape_19" d="M126.972 520.627C126.863 520.891 126.56 521.018 126.294 520.91C126.028 520.802 125.901 520.499 126.009 520.234C132.87 503.526 136.865 491.851 137.988 485.238C138.036 484.956 138.305 484.766 138.588 484.814C138.871 484.862 139.062 485.129 139.014 485.411C137.874 492.121 133.861 503.85 126.972 520.627ZM137.607 462.165C137.699 462.436 137.552 462.729 137.28 462.82C137.007 462.911 136.712 462.765 136.621 462.494C133.568 453.424 127.399 445.687 118.097 439.274C117.861 439.112 117.802 438.789 117.966 438.554C118.129 438.319 118.453 438.26 118.689 438.423C128.168 444.957 134.479 452.873 137.607 462.165ZM130.147 498.892C130.028 499.152 129.72 499.268 129.458 499.15C129.197 499.032 129.081 498.725 129.199 498.464C130.127 496.425 130.748 494.765 131.062 493.489C135.378 475.96 132.703 463.151 125.061 454.046C124.877 453.827 124.906 453.5 125.127 453.316C125.347 453.133 125.675 453.162 125.859 453.382C133.719 462.746 136.465 475.895 132.072 493.735C131.741 495.083 131.099 496.799 130.147 498.892ZM117.888 331.901C117.852 331.617 118.053 331.358 118.338 331.322C118.623 331.286 118.884 331.486 118.92 331.77C123.427 366.955 140.338 385.563 169.727 387.747C170.013 387.768 170.228 388.017 170.207 388.302C170.185 388.587 169.936 388.801 169.65 388.78C139.732 386.556 122.454 367.545 117.888 331.901ZM125.503 331.368C125.475 331.083 125.685 330.831 125.971 330.804C126.257 330.776 126.511 330.985 126.538 331.27C129.492 362.252 143.554 378.405 168.817 380.256C169.104 380.277 169.319 380.526 169.298 380.811C169.277 381.096 169.027 381.31 168.741 381.289C142.932 379.398 128.501 362.822 125.503 331.368Z" fill="#2C2E41"/>
<path id="Combined Shape_20" fill-rule="evenodd" clip-rule="evenodd" d="M402.33 56.5197C400.989 56.5197 399.903 55.2816 399.903 53.7542C399.903 52.2269 400.989 50.9887 402.33 50.9887C403.67 50.9887 404.757 52.2269 404.757 53.7542C404.757 55.2816 403.67 56.5197 402.33 56.5197ZM423.824 56.5197C422.484 56.5197 421.398 55.2816 421.398 53.7542C421.398 52.2269 422.484 50.9887 423.824 50.9887C425.165 50.9887 426.251 52.2269 426.251 53.7542C426.251 55.2816 425.165 56.5197 423.824 56.5197ZM397.526 51.3239C397.341 51.5424 397.012 51.5695 396.793 51.3844C396.574 51.1993 396.547 50.8721 396.733 50.6536C396.815 50.5563 396.964 50.3942 397.172 50.1886C397.515 49.8488 397.902 49.5093 398.325 49.1917C399.559 48.266 400.849 47.7047 402.15 47.7047C404.033 47.7047 405.064 48.1535 406.105 49.292C406.269 49.4718 406.436 49.6683 406.654 49.937C406.719 50.0161 407.116 50.5092 407.24 50.6612C407.421 50.8833 407.388 51.2099 407.165 51.3907C406.942 51.5716 406.615 51.5383 406.433 51.3162C406.306 51.1605 405.908 50.6663 405.847 50.5904C405.639 50.3357 405.485 50.1529 405.336 49.9905C404.494 49.0688 403.742 48.7418 402.15 48.7418C401.114 48.7418 400.02 49.2175 398.951 50.0203C398.568 50.3076 398.216 50.6163 397.905 50.9246C397.719 51.108 397.59 51.2483 397.526 51.3239ZM419.726 51.3093C419.549 51.5344 419.222 51.5733 418.996 51.3963C418.77 51.2193 418.731 50.8933 418.909 50.6682C418.986 50.5707 419.124 50.4083 419.317 50.2024C419.637 49.8619 419.997 49.5217 420.391 49.2032C421.544 48.2711 422.753 47.7047 423.98 47.7047C425.747 47.7047 426.72 48.1605 427.692 49.3063C427.845 49.4863 427.999 49.6828 428.202 49.9517C428.262 50.0308 428.631 50.5238 428.746 50.6759C428.919 50.9043 428.874 51.2295 428.645 51.4023C428.416 51.575 428.09 51.5299 427.917 51.3016C427.798 51.1458 427.429 50.6516 427.372 50.5757C427.179 50.3211 427.035 50.1384 426.898 49.9762C426.122 49.0618 425.439 48.7418 423.98 48.7418C423.036 48.7418 422.031 49.2125 421.046 50.0088C420.691 50.2952 420.365 50.6032 420.077 50.9109C419.905 51.0939 419.786 51.2339 419.726 51.3093ZM416.076 60.8408H420.17L415.592 49.1026C415.488 48.8356 415.62 48.5351 415.888 48.4313C416.155 48.3275 416.457 48.4598 416.561 48.7267L421.415 61.1714C421.547 61.5113 421.296 61.8778 420.93 61.8778H416.076C415.789 61.8778 415.556 61.6457 415.556 61.3593C415.556 61.0729 415.789 60.8408 416.076 60.8408ZM413.548 68.0387C413.295 68.174 412.98 68.079 412.844 67.8265C412.709 67.5741 412.804 67.2598 413.057 67.1246C414.941 66.1183 416.755 66.1183 418.428 67.1394C418.673 67.289 418.75 67.6082 418.6 67.8524C418.45 68.0967 418.13 68.1734 417.885 68.0239C416.537 67.2013 415.116 67.2013 413.548 68.0387Z" fill="#2C2E41"/>
<path id="Path 118" fill-rule="evenodd" clip-rule="evenodd" d="M31.0283 371.756L58.7633 457.141L195.705 438.819V338.916L60.4209 365.895L58.7633 377.633L49.8912 367.994L31.0283 371.756Z" fill="white"/>
<path id="Path 118_2" d="M50.2752 367.328C50.1522 367.195 49.9682 367.135 49.7898 367.17L30.9269 370.932C30.6221 370.993 30.4385 371.305 30.5342 371.599L58.2692 456.984C58.3466 457.222 58.5841 457.371 58.8332 457.338L195.775 439.016C196.033 438.982 196.225 438.762 196.225 438.503V338.6C196.225 338.273 195.925 338.028 195.603 338.092L60.3196 365.07C60.103 365.114 59.9375 365.288 59.9067 365.506L58.4025 376.157L50.2752 367.328ZM49.7066 368.243L58.3807 377.666C58.6777 377.989 59.2178 377.822 59.279 377.389L60.8853 366.014L195.185 339.232V438.05L59.1251 456.253L31.7035 371.834L49.7066 368.243Z" fill="#2C2E41"/>
<path id="Path 216" fill-rule="evenodd" clip-rule="evenodd" d="M0.519531 609.437H46.6289C64.791 562.305 81.4661 532.878 96.6543 521.156C97.5515 520.464 92.2015 512.787 80.6043 498.126C88.1215 504.053 93.3218 507.855 96.2052 509.534C97.563 510.324 97.6785 499.031 96.5519 475.656L108.966 513.127C113.692 510.76 117.297 509.102 119.78 508.151C154.68 494.784 183.339 528.546 205.758 609.437H674.479" fill="white"/>
<path id="Path 216_2" d="M95.9433 509.816C96.4381 510.104 96.8842 509.837 97.1277 509.318C97.2858 508.981 97.4075 508.471 97.5061 507.767C97.6941 506.428 97.8016 504.341 97.8307 501.497C97.8822 496.466 97.6878 489.049 97.2478 479.243L108.473 513.124C108.572 513.424 108.917 513.567 109.2 513.425C113.913 511.065 117.503 509.413 119.967 508.469C154.456 495.26 182.911 528.78 205.258 609.41C205.32 609.634 205.525 609.79 205.759 609.79H674.48C674.767 609.79 675 609.558 675 609.272C675 608.986 674.767 608.754 674.48 608.754H206.155C183.678 527.876 154.849 494 119.594 507.502C117.187 508.424 113.748 509.999 109.272 512.23L97.0462 475.329C96.8565 474.756 96.0039 474.914 96.033 475.516C96.5958 487.194 96.8484 495.853 96.7907 501.487C96.762 504.289 96.6565 506.338 96.4761 507.624C96.4021 508.152 96.3162 508.541 96.2271 508.779C93.3255 507.049 88.2197 503.304 80.9275 497.555C80.444 497.174 79.8146 497.799 80.1963 498.281C85.9889 505.604 90.2202 511.181 92.888 515.009C94.2146 516.913 95.1519 518.38 95.6968 519.405C95.9586 519.897 96.1255 520.279 96.1965 520.54C96.2104 520.59 96.2197 520.633 96.2252 520.667C81.0045 532.494 64.373 561.845 46.2721 608.754H0.520031C0.232826 608.754 0 608.986 0 609.272C0 609.558 0.232826 609.79 0.520031 609.79H46.6294C46.8447 609.79 47.0378 609.658 47.1149 609.457C65.2444 562.41 81.8837 533.046 96.9733 521.4C97.8259 520.742 96.7818 518.78 93.7424 514.419C91.4876 511.183 88.1303 506.716 83.6693 501.015C89.403 505.457 93.4905 508.388 95.9433 509.816Z" fill="#2C2E41"/>
<path id="Path 207" d="M407.688 0H387.992C379.144 0 371.96 7.1086 371.872 15.911L360.18 32.7175C359.94 33.0613 360.187 33.5316 360.607 33.5316H439.652C440.11 33.5316 440.344 32.9823 440.026 32.653L423.114 15.1722C423.001 6.77358 416.137 0 407.688 0ZM372.819 16.37C372.879 16.2832 372.911 16.18 372.911 16.0744C372.911 7.76951 379.663 1.03706 387.992 1.03706H407.688C415.634 1.03706 422.075 7.45997 422.075 15.383C422.075 15.5173 422.127 15.6464 422.221 15.743L438.427 32.4945H361.601L372.819 16.37Z" fill="#2C2E41"/>
<path id="Path 208" fill-rule="evenodd" clip-rule="evenodd" d="M422.383 15.7287L372.169 16.4201L368.702 21.6054H427.986L422.383 15.7287Z" fill="#2C2E41"/>
<path id="Path 208_2" d="M422.722 14.8645L372.509 15.5559C372.338 15.5583 372.178 15.6446 372.083 15.7868L368.617 20.9721C368.386 21.3166 368.634 21.7782 369.049 21.7782H428.333C428.79 21.7782 429.025 21.2327 428.71 20.9024L423.106 15.0257C423.007 14.921 422.867 14.8625 422.722 14.8645ZM427.121 20.7412H370.021L372.797 16.5891L422.509 15.9046L427.121 20.7412Z" fill="#2C2E41"/>
<path id="Path 215" fill-rule="evenodd" clip-rule="evenodd" d="M281.684 595.79L275.79 624.136H298.671H387.423C382.305 613.367 376.296 605.877 369.396 601.667C362.495 597.456 349.899 595.498 331.607 595.79L340.967 547.394L284.804 547.74L284.111 584.037L281.684 595.79Z" fill="white"/>
<path id="Path 215 Copy 2" fill-rule="evenodd" clip-rule="evenodd" d="M432.492 591.642V624.482L446.36 624.136H535.112C529.994 613.367 523.984 605.877 517.084 601.667C510.184 597.456 497.587 595.497 479.295 595.79L487.962 548.17L427.292 547.74L431.799 584.037L432.492 591.642Z" fill="white"/>
<path id="Path 228" fill-rule="evenodd" clip-rule="evenodd" d="M284.11 584.382C289.418 585.239 293.578 588.58 296.59 594.407C299.603 600.234 301.22 608.07 301.444 617.914L277.176 617.568" fill="#2C2E41"/>
<path id="Path 228 Copy 2" fill-rule="evenodd" clip-rule="evenodd" d="M432.493 584.382C441.962 586.621 448.202 590.654 451.214 596.481C454.227 602.308 455.613 609.453 455.375 617.914L432.493 617.568V584.382Z" fill="#2C2E41"/>
<path id="Combined Shape_21" d="M301.355 547.466L305.216 520.948H296.937V519.913H305.367L307.43 505.738H300.057V504.702H340.273V505.738H332.212L329.575 519.913H337.153V520.948H329.382L324.476 547.323L341.597 547.218L333.928 586.868L336.576 579.634C336.688 579.33 336.826 579.037 336.991 578.758C338.494 576.206 341.79 575.352 344.352 576.849C344.784 577.101 345.172 577.42 345.504 577.793C347.243 579.749 347.061 582.739 345.097 584.471L332.771 595.343C335.091 594.768 340.788 593.31 349.156 591.141C349.434 591.069 349.718 591.235 349.79 591.511C349.862 591.788 349.696 592.071 349.418 592.143C343.322 593.724 338.925 594.856 336.024 595.591C352.031 595.664 363.237 597.648 369.666 601.571C376.663 605.84 382.734 613.407 387.892 624.26L388.244 625H275.15L281.173 596.031L283.591 584.325L284.293 547.571L301.355 547.466ZM302.407 547.459L312.464 547.397L316.529 520.948H306.267L302.407 547.459ZM313.518 547.391L323.417 547.33L328.324 520.948H317.581L313.518 547.391ZM332.046 596.647C332.002 596.656 331.956 596.659 331.909 596.655L320.18 596.999C319.893 597.008 319.654 596.783 319.645 596.497C319.637 596.211 319.863 595.972 320.15 595.964L330.625 595.657L317.944 584.471C315.98 582.739 315.798 579.749 317.537 577.793C317.868 577.42 318.257 577.101 318.689 576.849C321.251 575.352 324.546 576.206 326.05 578.758C326.214 579.037 326.353 579.33 326.464 579.634L331.52 593.444L331.683 593L340.336 548.262L285.313 548.6L284.637 583.994C295.433 587.19 301.622 598.255 301.956 617.05H382.826C378.732 610.393 374.162 605.529 369.123 602.454C362.383 598.341 350.014 596.394 332.046 596.647ZM332.688 593.277L332.512 594.188L344.408 583.695C345.941 582.342 346.084 580.007 344.725 578.48C344.466 578.188 344.163 577.94 343.826 577.743C341.759 576.535 339.101 577.224 337.888 579.282C337.755 579.507 337.643 579.744 337.554 579.989L332.688 593.277ZM383.451 618.086H277.65L276.428 623.964H386.597C385.582 621.876 384.534 619.917 383.451 618.086ZM277.865 617.05H300.916C300.587 598.768 294.672 588.143 284.505 585.037L282.192 596.241L277.865 617.05ZM325.487 579.989C325.397 579.744 325.285 579.507 325.153 579.282C323.94 577.224 321.282 576.535 319.215 577.743C318.878 577.94 318.574 578.188 318.315 578.48C316.957 580.007 317.099 582.342 318.633 583.695L330.761 594.393L325.487 579.989ZM331.154 505.738H319.918L317.74 519.913H328.517L331.154 505.738ZM318.866 505.738H308.481L306.418 519.913H316.688L318.866 505.738Z" fill="#2C2E41"/>
<path id="Path 119" fill-rule="evenodd" clip-rule="evenodd" d="M279.603 178.547H268.162L280.643 158.843" fill="#2C2E41"/>
<path id="Combined Shape_22" d="M439.478 547.291L435.643 520.948H429.025V519.913H435.492L433.429 505.738H426.945V504.702H468.894V505.738H459.935L461.368 519.913H469.241V520.948H461.473L464.151 547.432L488.579 547.571L480.671 593.24L485.652 579.634C485.764 579.33 485.902 579.037 486.067 578.758C487.57 576.206 490.866 575.352 493.428 576.849C493.859 577.101 494.248 577.42 494.58 577.793C496.319 579.749 496.137 582.739 494.173 584.471L482.399 594.856C485.332 594.114 490.262 592.847 496.845 591.141C497.123 591.069 497.407 591.235 497.479 591.511C497.552 591.788 497.385 592.071 497.107 592.143C491.014 593.723 486.62 594.855 483.718 595.59C499.908 595.636 511.227 597.62 517.702 601.571C524.699 605.84 530.77 613.407 535.928 624.26L536.28 625H431.977L431.972 624.487L431.63 584.45L426.698 547.218L439.478 547.291ZM440.53 547.297L450.973 547.357L448.624 520.948H436.694L440.53 547.297ZM452.018 547.363L463.105 547.426L460.428 520.948H449.668L452.018 547.363ZM432.599 583.876C447.66 586.898 455.434 598.009 455.883 617.05H530.862C526.768 610.393 522.198 605.529 517.159 602.454C510.443 598.356 498.139 596.408 480.278 596.644C480.208 596.66 480.138 596.66 480.071 596.647C479.947 596.649 479.824 596.651 479.7 596.653C479.667 596.657 479.633 596.658 479.599 596.655L467.87 596.999C467.582 597.008 467.343 596.783 467.334 596.497C467.326 596.211 467.552 595.972 467.839 595.964L478.314 595.657L465.633 584.471C463.669 582.739 463.487 579.749 465.226 577.793C465.557 577.42 465.946 577.101 466.378 576.849C468.94 575.352 472.235 576.206 473.739 578.758C473.903 579.037 474.042 579.33 474.153 579.634L479.461 594.131L487.345 548.6L427.885 548.261L432.599 583.876ZM432.67 584.948L432.948 617.05H454.843C454.402 598.594 447.024 587.944 432.67 584.948ZM531.487 618.086H432.957L433.008 623.964H534.633C533.618 621.876 532.57 619.917 531.487 618.086ZM473.176 579.989C473.086 579.744 472.975 579.507 472.842 579.282C471.629 577.224 468.971 576.535 466.904 577.743C466.567 577.94 466.263 578.188 466.004 578.48C464.646 580.007 464.788 582.342 466.322 583.695L478.45 594.393L473.176 579.989ZM486.629 579.989L481.356 594.393L493.483 583.695C495.017 582.342 495.159 580.007 493.801 578.48C493.542 578.188 493.239 577.94 492.902 577.743C490.835 576.535 488.176 577.224 486.964 579.282C486.831 579.507 486.719 579.744 486.629 579.989ZM458.89 505.738H448.315L449.576 519.913H460.323L458.89 505.738ZM447.27 505.738H434.48L436.543 519.913H448.531L447.27 505.738Z" fill="#2C2E41"/>
<path id="404 copy" d="M101.552 409.453L102.575 415.888L96.6305 416.826L97.398 421.652L89.7552 422.858L88.9878 418.031L68.0125 421.34L66.9892 414.905L85.0425 393.222L92.6853 392.016L95.6072 410.39L101.552 409.453ZM75.2264 413.606L87.9644 411.596L86.2544 400.842L75.2264 413.606ZM122.814 418.077C111.01 419.939 104.544 415.404 102.975 405.539C101.413 395.717 106.163 389.456 117.967 387.594C129.728 385.738 136.237 390.267 137.792 400.047C139.354 409.869 134.575 416.221 122.814 418.077ZM121.797 411.684C128.506 410.625 131.031 406.799 130.149 401.252C129.274 395.749 125.692 392.928 118.983 393.987C112.275 395.045 109.736 398.787 110.618 404.334C111.506 409.922 115.089 412.742 121.797 411.684ZM175.432 397.798L176.455 404.233L170.511 405.171L171.278 409.997L163.636 411.203L162.868 406.377L141.893 409.685L140.87 403.25L158.923 381.567L166.566 380.361L169.488 398.736L175.432 397.798ZM149.107 401.951L161.845 399.941L160.135 389.188L149.107 401.951Z" fill="#2C2E41"/>
<path id="404 copy_2" d="M101.579 410.453L102.765 417.911L96.8205 418.849L97.588 423.675L88.918 425.043L88.1505 420.217L67.1752 423.525L66.0338 416.347L84.3624 394.333L92.7126 393.016L95.6345 411.39L101.579 410.453ZM94.7699 412.576L91.848 394.201L84.9126 395.295L67.1346 416.648L68.0398 422.34L89.015 419.031L89.7825 423.858L96.398 422.814L95.6305 417.988L101.575 417.05L100.714 411.638L94.7699 412.576ZM73.5024 415.931L86.1874 401.25L88.1544 413.619L73.5024 415.931ZM86.9644 412.758L85.5113 403.62L76.1404 414.466L86.9644 412.758ZM122.49 420.181C110.623 422.053 103.702 417.561 102.056 407.213C100.418 396.912 105.609 390.548 117.48 388.675C129.307 386.809 136.269 391.298 137.901 401.558C139.54 411.865 134.313 418.316 122.49 420.181ZM122.328 419.158C133.605 417.379 138.419 411.438 136.873 401.72C135.336 392.051 128.926 387.918 117.643 389.698C106.316 391.485 101.54 397.341 103.084 407.051C104.635 416.809 111.006 420.944 122.328 419.158ZM121.474 413.788C114.694 414.857 110.665 412.081 109.699 406.007C108.741 399.98 111.714 396.138 118.497 395.068C125.263 394 129.304 396.763 130.258 402.764C131.22 408.811 128.237 412.721 121.474 413.788ZM121.311 412.765C127.517 411.786 130.101 408.398 129.231 402.926C128.368 397.503 124.87 395.111 118.66 396.091C112.432 397.073 109.86 400.396 110.726 405.845C111.601 411.343 115.089 413.746 121.311 412.765ZM175.459 398.798L176.645 406.256L170.701 407.194L171.468 412.02L162.798 413.388L162.031 408.562L141.056 411.871L139.914 404.692L158.243 382.678L166.593 381.361L169.515 399.736L175.459 398.798ZM168.65 400.921L165.728 382.546L158.793 383.64L141.015 404.993L141.92 410.685L162.895 407.377L163.663 412.203L170.278 411.159L169.511 406.333L175.455 405.395L174.595 399.983L168.65 400.921ZM147.383 404.276L160.068 389.595L162.035 401.964L147.383 404.276ZM160.845 401.103L159.392 391.965L150.021 402.811L160.845 401.103Z" fill="#2C2E41"/>
<path id="Combined Shape_23" d="M280.508 158.287C280.571 158.051 280.624 157.832 280.669 157.63L281.237 145.675C282.18 125.858 298.568 110.274 318.464 110.274H357.608V111.311H318.464C299.123 111.311 283.192 126.46 282.276 145.724L282.111 149.2C283.949 142.17 287.494 135.881 292.751 130.481C300.675 122.341 310.487 126.398 321.974 142.292C322.142 142.525 322.089 142.849 321.856 143.016C321.623 143.184 321.298 143.131 321.13 142.899C309.967 127.451 300.828 123.673 293.497 131.203C286.598 138.291 282.725 146.934 281.855 156.814C281.83 157.089 281.78 157.405 281.704 157.764L280.123 191.016L279.084 190.967L279.666 178.72H268.509C268.1 178.72 267.851 178.27 268.069 177.924L280.508 158.287ZM279.715 177.683L280.548 160.165L269.453 177.683H279.715Z" fill="#2C2E41"/>
<path id="Combined Shape_24" d="M433.99 204.699C433.703 204.688 433.479 204.447 433.49 204.161C433.501 203.875 433.742 203.652 434.029 203.663C437.86 203.808 439.679 201.616 439.602 196.822C439.524 192.007 437.932 189.764 434.798 189.819C434.511 189.824 434.274 189.596 434.269 189.31C434.264 189.023 434.493 188.787 434.78 188.782C438.592 188.716 440.556 191.482 440.642 196.806C440.728 202.151 438.472 204.87 433.99 204.699ZM432.88 241.174C432.594 241.148 432.383 240.896 432.409 240.611C432.435 240.325 432.688 240.115 432.974 240.141C436.792 240.486 438.724 238.392 438.899 233.601C439.074 228.788 437.602 226.465 434.469 226.356C434.182 226.346 433.958 226.106 433.968 225.82C433.978 225.534 434.219 225.31 434.506 225.32C438.316 225.452 440.132 228.318 439.938 233.638C439.743 238.98 437.348 241.578 432.88 241.174ZM410.148 281.535C409.885 281.42 409.766 281.114 409.881 280.852C409.996 280.59 410.303 280.47 410.566 280.585C414.1 282.128 416.456 281.116 417.883 277.433C419.319 273.725 418.565 271.437 415.615 270.309C415.347 270.206 415.213 269.906 415.316 269.639C415.419 269.372 415.72 269.238 415.988 269.341C419.524 270.692 420.481 273.601 418.853 277.805C417.215 282.035 414.23 283.317 410.148 281.535ZM372.706 143.499L373.711 143.766C371.814 150.86 367.855 155.046 361.87 156.24L361.666 155.223C367.237 154.112 370.905 150.232 372.706 143.499Z" fill="#2C2E41"/>
<path id="Path 236" d="M314.463 157.248L315.85 162.433C315.924 162.71 316.209 162.874 316.486 162.801C316.764 162.727 316.929 162.443 316.855 162.166L315.468 156.981C315.394 156.704 315.109 156.54 314.831 156.613C314.554 156.687 314.389 156.971 314.463 157.248Z" fill="#2C2E41"/>
<path id="Path 237" d="M314.849 157.62L319.355 158.657C319.635 158.721 319.915 158.547 319.979 158.268C320.044 157.989 319.869 157.711 319.589 157.646L315.082 156.609C314.803 156.545 314.523 156.719 314.459 156.998C314.394 157.277 314.569 157.555 314.849 157.62Z" fill="#2C2E41"/>
<path id="Shape" d="M510.547 160.902C507.042 156.686 500.946 156.24 495.921 159.537C493.963 160.821 492.535 162.65 491.865 164.74C490.174 170.007 496.816 183.466 511.8 205.456C511.961 205.693 512.285 205.755 512.522 205.594C512.76 205.433 512.822 205.11 512.66 204.873C497.92 183.241 491.315 169.856 492.855 165.056C493.452 163.196 494.73 161.559 496.492 160.403C501.1 157.381 506.603 157.783 509.747 161.564C509.93 161.785 510.258 161.815 510.479 161.632C510.7 161.45 510.731 161.123 510.547 160.902Z" fill="#2C2E41"/>
</g>
</svg>
