<svg width="31" height="31" viewBox="0 0 31 31" fill="none" xmlns="http://www.w3.org/2000/svg">
<g filter="url(#filter0_d_750_975)">
<path opacity="0.4" d="M25.4869 13.3565C25.4869 18.9514 20.9514 23.4869 15.3565 23.4869C9.76162 23.4869 5.22607 18.9514 5.22607 13.3565C5.22607 7.76162 9.76162 3.22607 15.3565 3.22607C20.9514 3.22607 25.4869 7.76162 25.4869 13.3565Z" fill="white" stroke="white" stroke-width="2"/>
<path d="M19.8085 12.5218H16.1911V8.90436C16.1911 8.44801 15.8126 8.06958 15.3563 8.06958C14.8999 8.06958 14.5215 8.44801 14.5215 8.90436V12.5218H10.9041C10.4478 12.5218 10.0693 12.9002 10.0693 13.3565C10.0693 13.8129 10.4478 14.1913 10.9041 14.1913H14.5215V17.8087C14.5215 18.2651 14.8999 18.6435 15.3563 18.6435C15.8126 18.6435 16.1911 18.2651 16.1911 17.8087V14.1913H19.8085C20.2648 14.1913 20.6432 13.8129 20.6432 13.3565C20.6432 12.9002 20.2648 12.5218 19.8085 12.5218Z" fill="white"/>
</g>
<defs>
<filter id="filter0_d_750_975" x="-2" y="-2" width="34.7129" height="34.713" filterUnits="userSpaceOnUse" color-interpolation-filters="sRGB">
<feFlood flood-opacity="0" result="BackgroundImageFix"/>
<feColorMatrix in="SourceAlpha" type="matrix" values="0 0 0 0 0 0 0 0 0 0 0 0 0 0 0 0 0 0 127 0" result="hardAlpha"/>
<feOffset dy="2"/>
<feGaussianBlur stdDeviation="2"/>
<feComposite in2="hardAlpha" operator="out"/>
<feColorMatrix type="matrix" values="0 0 0 0 0 0 0 0 0 0 0 0 0 0 0 0 0 0 0.25 0"/>
<feBlend mode="normal" in2="BackgroundImageFix" result="effect1_dropShadow_750_975"/>
<feBlend mode="normal" in="SourceGraphic" in2="effect1_dropShadow_750_975" result="shape"/>
</filter>
</defs>
</svg>
