<svg width="28" height="27" viewBox="0 0 28 27" fill="none" xmlns="http://www.w3.org/2000/svg">
<g id="vuesax/bulk/more">
<g id="vuesax/bulk/more_2">
<g id="more">
<path id="Vector" opacity="0.4" d="M18.8551 2.35651H9.52782C5.47634 2.35651 3.06104 4.77181 3.06104 8.82329V18.1395C3.06104 22.2021 5.47634 24.6174 9.52782 24.6174H18.844C22.8955 24.6174 25.3108 22.2021 25.3108 18.1506V8.82329C25.3219 4.77181 22.9066 2.35651 18.8551 2.35651Z" fill="#7959FD"/>
<path id="Vector_2" d="M14.1915 12.0288C13.3901 12.0288 12.7334 12.6855 12.7334 13.4869C12.7334 14.2883 13.3901 14.945 14.1915 14.945C14.9929 14.945 15.6496 14.2883 15.6496 13.4869C15.6496 12.6855 14.9929 12.0288 14.1915 12.0288Z" fill="#7959FD"/>
<path id="Vector_3" d="M8.62606 12.0288C7.82466 12.0288 7.16797 12.6855 7.16797 13.4869C7.16797 14.2883 7.82466 14.945 8.62606 14.945C9.42745 14.945 10.0841 14.2883 10.0841 13.4869C10.0841 12.6855 9.42745 12.0288 8.62606 12.0288Z" fill="#7959FD"/>
<path id="Vector_4" d="M19.7569 12.0288C18.9555 12.0288 18.2988 12.6855 18.2988 13.4869C18.2988 14.2883 18.9555 14.945 19.7569 14.945C20.5583 14.945 21.215 14.2883 21.215 13.4869C21.215 12.6855 20.5583 12.0288 19.7569 12.0288Z" fill="#7959FD"/>
</g>
</g>
</g>
</svg>
