<svg width="40" height="40" viewBox="0 0 40 40" fill="none" xmlns="http://www.w3.org/2000/svg">
<path opacity="0.4" d="M33.9997 27.2167C33.533 28.4667 32.5497 29.4167 31.2664 29.85C29.4664 30.45 27.6164 30.9 25.7497 31.2167C25.5664 31.25 25.383 31.2834 25.1997 31.3C24.8997 31.35 24.5997 31.3834 24.2997 31.4167C23.933 31.4667 23.5497 31.5 23.1664 31.5334C22.1164 31.6167 21.083 31.6667 20.033 31.6667C18.9664 31.6667 17.8997 31.6167 16.8497 31.5167C16.3997 31.4834 15.9664 31.4334 15.533 31.3667C15.283 31.3334 15.033 31.3 14.7997 31.2667C14.6164 31.2334 14.433 31.2167 14.2497 31.1834C12.3997 30.8834 10.5664 30.4334 8.78302 29.8334C7.44969 29.3834 6.43302 28.4334 5.98302 27.2167C5.53302 26.0167 5.69969 24.6167 6.41635 23.4167L8.29969 20.2834C8.69969 19.6 9.06635 18.2834 9.06635 17.4834V14.3834C9.06635 8.33335 13.983 3.41669 20.033 3.41669C26.0664 3.41669 30.983 8.33335 30.983 14.3834V17.4834C30.983 18.2834 31.3497 19.6 31.7664 20.2834L33.6497 23.4167C34.333 24.5834 34.4664 25.95 33.9997 27.2167Z" fill="#7959FD"/>
<path d="M20.0001 17.9333C19.3001 17.9333 18.7334 17.3667 18.7334 16.6667V11.5C18.7334 10.8 19.3001 10.2333 20.0001 10.2333C20.7001 10.2333 21.2667 10.8 21.2667 11.5V16.6667C21.2501 17.3667 20.6834 17.9333 20.0001 17.9333Z" fill="#7959FD"/>
<path d="M24.7165 33.35C24.0165 35.2833 22.1665 36.6666 19.9998 36.6666C18.6831 36.6666 17.3831 36.1333 16.4665 35.1833C15.9331 34.6833 15.5331 34.0166 15.2998 33.3333C15.5165 33.3666 15.7331 33.3833 15.9665 33.4166C16.3498 33.4666 16.7498 33.5166 17.1498 33.55C18.0998 33.6333 19.0665 33.6833 20.0331 33.6833C20.9831 33.6833 21.9331 33.6333 22.8665 33.55C23.2165 33.5166 23.5665 33.5 23.8998 33.45C24.1665 33.4166 24.4331 33.3833 24.7165 33.35Z" fill="#7959FD"/>
</svg>
