<svg width="52" height="48" viewBox="0 0 52 48" fill="none" xmlns="http://www.w3.org/2000/svg">
<g id="lock-icon">
<rect id="Rectangle 3885" width="51.8913" height="47.9555" rx="1" fill="black" fill-opacity="0.2"/>
<g id="Lock_light">
<g id="Group 8">
<path id="Rectangle 5" d="M18 25C18 23.1144 18 22.1716 18.5858 21.5858C19.1716 21 20.1144 21 22 21H30C31.8856 21 32.8284 21 33.4142 21.5858C34 22.1716 34 23.1144 34 25V27C34 29.8284 34 31.2426 33.1213 32.1213C32.2426 33 30.8284 33 28 33H24C21.1716 33 19.7574 33 18.8787 32.1213C18 31.2426 18 29.8284 18 27V25Z" stroke="#222222"/>
<path id="Vector 5" d="M30 20V19C30 16.7909 28.2091 15 26 15V15C23.7909 15 22 16.7909 22 19V20" stroke="#222222" stroke-linecap="round"/>
<circle id="Ellipse 6" cx="26" cy="27" r="2" fill="#222222"/>
</g>
</g>
</g>
</svg>
