<svg width="52" height="48" viewBox="0 0 52 48" fill="none" xmlns="http://www.w3.org/2000/svg">
<g id="UserName">
<rect id="Rectangle 3885" y="0.0444641" width="51.8913" height="47.9555" rx="1" fill="black" fill-opacity="0.2"/>
<g id="User_box_duotone_line">
<path id="Subtract" fill-rule="evenodd" clip-rule="evenodd" d="M14.0305 15.2391C12.8589 16.4107 12.8589 18.2963 12.8589 22.0675V26.4089C12.8589 30.1802 12.8589 32.0658 14.0305 33.2374C14.7641 33.9711 15.7779 34.2453 17.3594 34.3478C17.4029 31.5674 20.4081 29.3236 24.1089 29.3236C27.8097 29.3236 30.8149 31.5674 30.8584 34.3478C32.4399 34.2453 33.4536 33.9711 34.1873 33.2374C35.3589 32.0658 35.3589 30.1802 35.3589 26.4089V22.0675C35.3589 18.2963 35.3589 16.4107 34.1873 15.2391C33.0157 14.0675 31.1301 14.0675 27.3589 14.0675H20.8589C17.0877 14.0675 15.202 14.0675 14.0305 15.2391ZM24.1089 25.2553C25.9728 25.2553 27.4839 23.8892 27.4839 22.2041C27.4839 20.5189 25.9728 19.1529 24.1089 19.1529C22.2449 19.1529 20.7339 20.5189 20.7339 22.2041C20.7339 23.8892 22.2449 25.2553 24.1089 25.2553Z" fill="#7E869E" fill-opacity="0.25"/>
<path id="Ellipse 45" d="M30.7922 33.6958C30.5658 32.4914 29.7738 31.388 28.5599 30.5859C27.3461 29.7837 25.7908 29.336 24.1763 29.3238C22.5617 29.3117 20.9949 29.736 19.76 30.5197C18.5251 31.3034 17.7041 32.3947 17.4458 33.5955" stroke="#222222" stroke-width="1.2"/>
<ellipse id="Ellipse 46" cx="24.1089" cy="22.2041" rx="3.375" ry="3.05121" stroke="#222222" stroke-width="1.2" stroke-linecap="round"/>
<rect id="Rectangle 26" x="13.4589" y="14.6675" width="21.3" height="19.1414" rx="3.4" stroke="#222222" stroke-width="1.2"/>
</g>
</g>
</svg>
