<svg width="186" height="162" viewBox="0 0 186 162" fill="none" xmlns="http://www.w3.org/2000/svg">
<g id="bubbles-2">
<ellipse id="Ellipse 20" rx="6.12634" ry="6.21849" transform="matrix(0.833986 -0.551785 0.578929 0.815378 76.7897 22.7571)" fill="#7959FD" fill-opacity="0.24"/>
<ellipse id="Ellipse 33" rx="6.12634" ry="6.21849" transform="matrix(0.833986 -0.551785 0.578929 0.815378 38.9674 57.3381)" fill="#7959FD" fill-opacity="0.24"/>
<ellipse id="Ellipse 26" rx="6.12634" ry="6.21849" transform="matrix(0.833986 -0.551785 0.578929 0.815378 46.5319 30.5289)" fill="#7959FD" fill-opacity="0.24"/>
<ellipse id="Ellipse 22" rx="6.12634" ry="6.21849" transform="matrix(0.833986 -0.551785 0.578929 0.815378 97.9703 43.2582)" fill="#7959FD" fill-opacity="0.24"/>
<ellipse id="Ellipse 34" rx="6.12634" ry="6.21849" transform="matrix(0.833986 -0.551785 0.578929 0.815378 55.6092 71.5312)" fill="#7959FD" fill-opacity="0.24"/>
<ellipse id="Ellipse 23" rx="6.12634" ry="6.21849" transform="matrix(0.833986 -0.551785 0.578929 0.815378 119.151 63.7592)" fill="#7959FD" fill-opacity="0.24"/>
<ellipse id="Ellipse 41" rx="6.12634" ry="6.21849" transform="matrix(0.833986 -0.551785 0.578929 0.815378 79.8155 144.074)" fill="#7959FD" fill-opacity="0.24"/>
<ellipse id="Ellipse 42" rx="6.12634" ry="6.21849" transform="matrix(0.833986 -0.551785 0.578929 0.815378 70.7382 125.149)" fill="#7959FD" fill-opacity="0.24"/>
<ellipse id="Ellipse 46" rx="6.12634" ry="6.21849" transform="matrix(0.833986 -0.551785 0.578929 0.815378 55.6092 156.69)" fill="#7959FD" fill-opacity="0.24"/>
<ellipse id="Ellipse 47" rx="6.12634" ry="6.21849" transform="matrix(0.833986 -0.551785 0.578929 0.815378 79.8155 158.267)" fill="#7959FD" fill-opacity="0.24"/>
<ellipse id="Ellipse 48" rx="6.12634" ry="6.21849" transform="matrix(0.833986 -0.551785 0.578929 0.815378 52.5834 140.92)" fill="#7959FD" fill-opacity="0.24"/>
<ellipse id="Ellipse 49" rx="6.12634" ry="6.21849" transform="matrix(0.833986 -0.551785 0.578929 0.815378 34.4286 150.382)" fill="#7959FD" fill-opacity="0.24"/>
<ellipse id="Ellipse 53" rx="6.12634" ry="6.21849" transform="matrix(0.833986 -0.551785 0.578929 0.815378 19.2997 156.69)" fill="#7959FD" fill-opacity="0.24"/>
<ellipse id="Ellipse 50" rx="6.12634" ry="6.21849" transform="matrix(0.833986 -0.551785 0.578929 0.815378 28.3771 134.612)" fill="#7959FD" fill-opacity="0.24"/>
<ellipse id="Ellipse 51" rx="6.12634" ry="6.21849" transform="matrix(0.833986 -0.551785 0.578929 0.815378 19.2997 117.264)" fill="#7959FD" fill-opacity="0.24"/>
<ellipse id="Ellipse 52" rx="6.12634" ry="6.21849" transform="matrix(0.833986 -0.551785 0.578929 0.815378 8.70934 98.3403)" fill="#7959FD" fill-opacity="0.24"/>
<ellipse id="Ellipse 24" rx="6.12634" ry="6.21849" transform="matrix(0.833986 -0.551785 0.578929 0.815378 140.331 84.2604)" fill="#7959FD" fill-opacity="0.24"/>
<ellipse id="Ellipse 59" rx="6.12634" ry="6.21849" transform="matrix(0.833986 -0.551785 0.578929 0.815378 153.948 73.1082)" fill="#7959FD" fill-opacity="0.24"/>
<ellipse id="Ellipse 60" rx="6.12634" ry="6.21849" transform="matrix(0.833986 -0.551785 0.578929 0.815378 149.409 55.7612)" fill="#7959FD" fill-opacity="0.24"/>
<ellipse id="Ellipse 61" rx="6.12634" ry="6.21849" transform="matrix(0.833986 -0.551785 0.578929 0.815378 132.767 43.1451)" fill="#7959FD" fill-opacity="0.24"/>
<ellipse id="Ellipse 62" rx="6.12634" ry="6.21849" transform="matrix(0.833986 -0.551785 0.578929 0.815378 146.383 30.5289)" fill="#7959FD" fill-opacity="0.24"/>
<ellipse id="Ellipse 63" rx="6.12634" ry="6.21849" transform="matrix(0.833986 -0.551785 0.578929 0.815378 119.151 25.7979)" fill="#7959FD" fill-opacity="0.24"/>
<ellipse id="Ellipse 65" rx="6.12634" ry="6.21849" transform="matrix(0.833986 -0.551785 0.578929 0.815378 110.073 13.1819)" fill="#7959FD" fill-opacity="0.24"/>
<ellipse id="Ellipse 64" rx="6.12634" ry="6.21849" transform="matrix(0.833986 -0.551785 0.578929 0.815378 134.28 14.7588)" fill="#7959FD" fill-opacity="0.24"/>
<ellipse id="Ellipse 25" rx="6.12634" ry="6.21849" transform="matrix(0.833986 -0.551785 0.578929 0.815378 161.512 104.762)" fill="#7959FD" fill-opacity="0.24"/>
<ellipse id="Ellipse 54" rx="6.12634" ry="6.21849" transform="matrix(0.833986 -0.551785 0.578929 0.815378 176.641 96.7634)" fill="#7959FD" fill-opacity="0.24"/>
<ellipse id="Ellipse 55" rx="6.12634" ry="6.21849" transform="matrix(0.833986 -0.551785 0.578929 0.815378 176.641 77.8393)" fill="#7959FD" fill-opacity="0.24"/>
<ellipse id="Ellipse 56" rx="6.12634" ry="6.21849" transform="matrix(0.833986 -0.551785 0.578929 0.815378 173.615 52.607)" fill="#7959FD" fill-opacity="0.24"/>
<ellipse id="Ellipse 57" rx="6.12634" ry="6.21849" transform="matrix(0.833986 -0.551785 0.578929 0.815378 173.615 28.952)" fill="#7959FD" fill-opacity="0.24"/>
<ellipse id="Ellipse 58" rx="6.12634" ry="6.21849" transform="matrix(0.833986 -0.551785 0.578929 0.815378 173.615 8.45086)" fill="#7959FD" fill-opacity="0.24"/>
<ellipse id="Ellipse 21" rx="8.42371" ry="8.55042" transform="matrix(0.833986 -0.551785 0.578929 0.815378 67.9526 46.3141)" fill="#7959FD" fill-opacity="0.24"/>
<ellipse id="Ellipse 27" rx="8.42371" ry="8.55042" transform="matrix(0.833986 -0.551785 0.578929 0.815378 86.1074 66.8152)" fill="#7959FD" fill-opacity="0.24"/>
<ellipse id="Ellipse 28" rx="8.42371" ry="8.55042" transform="matrix(0.833986 -0.551785 0.578929 0.815378 105.775 84.1622)" fill="#7959FD" fill-opacity="0.24"/>
<ellipse id="Ellipse 29" rx="8.42371" ry="8.55042" transform="matrix(0.833986 -0.551785 0.578929 0.815378 122.417 104.663)" fill="#7959FD" fill-opacity="0.24"/>
<ellipse id="Ellipse 35" rx="8.42371" ry="8.55042" transform="matrix(0.833986 -0.551785 0.578929 0.815378 74.0042 92.0474)" fill="#7959FD" fill-opacity="0.24"/>
<ellipse id="Ellipse 45" rx="8.42371" ry="8.55042" transform="matrix(0.833986 -0.551785 0.578929 0.815378 18.0269 79.4312)" fill="#7959FD" fill-opacity="0.24"/>
<ellipse id="Ellipse 36" rx="8.42371" ry="8.55042" transform="matrix(0.833986 -0.551785 0.578929 0.815378 93.6716 104.663)" fill="#7959FD" fill-opacity="0.24"/>
<ellipse id="Ellipse 37" rx="8.42371" ry="8.55042" transform="matrix(0.833986 -0.551785 0.578929 0.815378 95.1848 126.742)" fill="#7959FD" fill-opacity="0.24"/>
<ellipse id="Ellipse 43" rx="8.42371" ry="8.55042" transform="matrix(0.833986 -0.551785 0.578929 0.815378 46.772 114.125)" fill="#7959FD" fill-opacity="0.24"/>
<ellipse id="Ellipse 44" rx="8.42371" ry="8.55042" transform="matrix(0.833986 -0.551785 0.578929 0.815378 37.6946 96.7783)" fill="#7959FD" fill-opacity="0.24"/>
<ellipse id="Ellipse 38" rx="8.42371" ry="8.55042" transform="matrix(0.833986 -0.551785 0.578929 0.815378 116.365 134.627)" fill="#7959FD" fill-opacity="0.24"/>
<ellipse id="Ellipse 39" rx="8.42371" ry="8.55042" transform="matrix(0.833986 -0.551785 0.578929 0.815378 133.007 151.974)" fill="#7959FD" fill-opacity="0.24"/>
<ellipse id="Ellipse 40" rx="8.42371" ry="8.55042" transform="matrix(0.833986 -0.551785 0.578929 0.815378 104.262 153.551)" fill="#7959FD" fill-opacity="0.24"/>
<ellipse id="Ellipse 30" rx="8.42371" ry="8.55042" transform="matrix(0.833986 -0.551785 0.578929 0.815378 140.572 125.164)" fill="#7959FD" fill-opacity="0.24"/>
<ellipse id="Ellipse 31" rx="8.42371" ry="8.55042" transform="matrix(0.833986 -0.551785 0.578929 0.815378 163.265 148.82)" fill="#7959FD" fill-opacity="0.24"/>
<ellipse id="Ellipse 32" rx="8.42371" ry="8.55042" transform="matrix(0.833986 -0.551785 0.578929 0.815378 173.855 128.319)" fill="#7959FD" fill-opacity="0.24"/>
</g>
</svg>
