<svg width="40" height="40" viewBox="0 0 40 40" fill="none" xmlns="http://www.w3.org/2000/svg">
<path d="M9.95033 1.66675H5.05033C2.93366 1.66675 1.66699 2.93341 1.66699 5.05008V9.95008C1.66699 12.0667 2.93366 13.3334 5.05033 13.3334H9.95033C12.067 13.3334 13.3337 12.0667 13.3337 9.95008V5.05008C13.3337 2.93341 12.067 1.66675 9.95033 1.66675ZM10.7837 9.26675C11.2003 9.68342 11.2003 10.3667 10.7837 10.7834C10.567 10.9834 10.2837 11.0834 10.017 11.0834C9.75033 11.0834 9.48366 10.9834 9.26699 10.7834L7.48366 9.01675L5.75033 10.7834C5.53366 10.9834 5.26699 11.0834 4.96699 11.0834C4.70033 11.0834 4.43366 10.9834 4.21699 10.7834C3.80033 10.3667 3.80033 9.68342 4.21699 9.26675L6.00033 7.50008L4.23366 5.75008C3.81699 5.33341 3.81699 4.65008 4.23366 4.23341C4.65033 3.81675 5.33366 3.81675 5.75033 4.23341L7.48366 6.00008L9.25033 4.23341C9.66699 3.81675 10.3503 3.81675 10.767 4.23341C11.1837 4.65008 11.1837 5.33341 10.767 5.75008L9.01699 7.50008L10.7837 9.26675Z" fill="white"/>
<path opacity="0.4" d="M27.717 3.33325H12.967C13.2003 3.81659 13.3337 4.38325 13.3337 5.04992V9.94992C13.3337 12.0666 12.067 13.3333 9.95033 13.3333H5.05033C4.73366 13.3333 4.45033 13.2999 4.16699 13.2333V28.5499C4.16699 33.0332 7.80033 36.6666 12.2837 36.6666H25.567C25.8503 36.6666 26.1337 36.5666 26.3503 36.3332C28.817 33.8499 33.117 29.5166 35.5337 27.0833C35.7503 26.8666 35.8337 26.6166 35.8337 26.3666V11.4499C35.8337 6.96658 32.2003 3.33325 27.717 3.33325Z" fill="white"/>
<path d="M35.8334 26.3667C35.8334 26.6167 35.7501 26.8667 35.5334 27.0834C33.1167 29.5167 28.8167 33.85 26.3501 36.3334C26.1334 36.5667 25.8501 36.6667 25.5667 36.6667C25.0167 36.6667 24.4834 36.2334 24.4834 35.6V29.7667C24.4834 27.3334 26.5501 25.3167 29.0834 25.3167C30.6667 25.3 32.8667 25.3 34.7501 25.3C35.4001 25.3 35.8334 25.8167 35.8334 26.3667Z" fill="white"/>
<path d="M24.6333 21.1833H12.2666C11.5666 21.1833 11.0166 20.6167 11.0166 19.9333C11.0166 19.25 11.5833 18.6833 12.2666 18.6833H24.6333C25.3333 18.6833 25.8833 19.25 25.8833 19.9333C25.8833 20.6167 25.3333 21.1833 24.6333 21.1833Z" fill="white"/>
<path d="M19.9999 27.3667H12.2666C11.5666 27.3667 11.0166 26.8 11.0166 26.1167C11.0166 25.4167 11.5833 24.8667 12.2666 24.8667H19.9999C20.6999 24.8667 21.2499 25.4334 21.2499 26.1167C21.2499 26.8 20.6999 27.3667 19.9999 27.3667Z" fill="white"/>
</svg>
