<svg width="316" height="225" viewBox="0 0 316 225" fill="none" xmlns="http://www.w3.org/2000/svg">
<g id="empty schedule">
<rect id="Rectangle 3932" width="316" height="225" rx="10" fill="white"/>
<g id="folder" opacity="0.84">
<path id="Vector" d="M68.2798 44C67.9547 44.0004 67.6431 44.1295 67.4132 44.359C67.1834 44.5885 67.0541 44.8996 67.0537 45.2242V171.807C67.0541 172.131 67.1834 172.442 67.4132 172.672C67.6431 172.901 67.9547 173.03 68.2798 173.031H227.238C227.563 173.03 227.874 172.901 228.104 172.672C228.334 172.442 228.463 172.131 228.464 171.807V65.5433C228.463 65.2188 228.334 64.9076 228.104 64.678C227.874 64.4485 227.563 64.3194 227.238 64.3189H136.006C135.08 64.3197 134.187 63.9752 133.502 63.3529L112.992 44.7463C112.463 44.2656 111.773 43.9994 111.058 44H68.2798Z" fill="#5B39E5"/>
<path id="Vector_2" d="M200.126 108.709L141.572 83.5745C141.321 83.4664 141.052 83.4087 140.778 83.4048C140.505 83.4008 140.234 83.4506 139.98 83.5514C139.727 83.6522 139.495 83.8019 139.3 83.992C139.104 84.1822 138.948 84.409 138.84 84.6595C138.732 84.9099 138.675 85.1792 138.671 85.4518C138.668 85.7245 138.718 85.9951 138.819 86.2483C138.921 86.5015 139.071 86.7323 139.262 86.9274C139.452 87.1225 139.68 87.2782 139.931 87.3854L198.485 112.52C198.736 112.628 199.006 112.685 199.279 112.689C199.552 112.693 199.823 112.643 200.077 112.543C200.331 112.442 200.562 112.292 200.758 112.102C200.953 111.912 201.11 111.685 201.217 111.435C201.325 111.184 201.383 110.915 201.386 110.642C201.39 110.37 201.339 110.099 201.238 109.846C201.137 109.593 200.986 109.362 200.796 109.167C200.605 108.972 200.377 108.816 200.126 108.709Z" fill="#E4E4E4"/>
<path id="Vector_3" d="M142.702 110.91L108.396 118.616C108.249 118.649 108.109 118.71 107.986 118.797C107.863 118.883 107.758 118.993 107.677 119.12C107.596 119.247 107.542 119.389 107.516 119.537C107.49 119.686 107.494 119.837 107.527 119.984C107.56 120.131 107.622 120.27 107.709 120.393C107.796 120.516 107.906 120.62 108.033 120.701C108.161 120.781 108.303 120.835 108.451 120.861C108.6 120.886 108.752 120.882 108.899 120.849L143.205 113.143C143.353 113.11 143.492 113.049 143.615 112.962C143.739 112.876 143.844 112.766 143.925 112.639C144.005 112.512 144.06 112.37 144.086 112.222C144.112 112.073 144.108 111.921 144.075 111.774C144.042 111.628 143.98 111.489 143.893 111.366C143.806 111.243 143.696 111.138 143.568 111.058C143.441 110.977 143.299 110.923 143.15 110.898C143.001 110.872 142.849 110.876 142.702 110.91Z" fill="#E4E4E4"/>
<path id="Vector_4" d="M141.707 106.494L107.4 114.2C107.103 114.267 106.845 114.449 106.683 114.706C106.52 114.962 106.466 115.273 106.533 115.569C106.6 115.866 106.782 116.124 107.039 116.286C107.296 116.448 107.607 116.502 107.904 116.436L142.211 108.729C142.507 108.663 142.766 108.481 142.928 108.224C143.091 107.967 143.145 107.657 143.078 107.36C143.011 107.064 142.829 106.806 142.572 106.644C142.315 106.481 142.004 106.428 141.707 106.494Z" fill="#E4E4E4"/>
<path id="Vector_5" d="M121.278 106.447L106.406 109.787C106.259 109.82 106.121 109.882 105.998 109.968C105.874 110.055 105.77 110.165 105.689 110.292C105.609 110.419 105.554 110.56 105.529 110.709C105.503 110.857 105.507 111.008 105.54 111.155C105.573 111.301 105.634 111.44 105.721 111.563C105.808 111.686 105.918 111.79 106.045 111.871C106.172 111.951 106.314 112.006 106.462 112.031C106.611 112.057 106.763 112.053 106.909 112.02L121.781 108.68C121.928 108.647 122.067 108.586 122.191 108.499C122.314 108.413 122.419 108.303 122.5 108.176C122.581 108.049 122.636 107.907 122.661 107.758C122.687 107.61 122.683 107.458 122.65 107.311C122.617 107.164 122.555 107.026 122.469 106.903C122.382 106.78 122.271 106.675 122.144 106.595C122.016 106.514 121.874 106.46 121.725 106.435C121.577 106.409 121.425 106.413 121.278 106.447Z" fill="#E4E4E4"/>
<path id="Vector_6" d="M138.629 92.8356L104.322 100.542C104.175 100.575 104.036 100.636 103.913 100.723C103.79 100.81 103.685 100.92 103.604 101.047C103.442 101.304 103.388 101.614 103.455 101.911C103.522 102.207 103.704 102.465 103.961 102.627C104.218 102.79 104.529 102.843 104.826 102.777L139.132 95.0706C139.429 95.0039 139.687 94.8222 139.85 94.5655C140.013 94.3088 140.067 93.9981 140 93.7017C139.933 93.4053 139.751 93.1475 139.494 92.9851C139.237 92.8226 138.926 92.7689 138.629 92.8356Z" fill="#E4E4E4"/>
<path id="Vector_7" d="M137.635 88.4224L103.328 96.1286C103.181 96.1614 103.042 96.2227 102.919 96.3092C102.795 96.3957 102.69 96.5057 102.61 96.6327C102.529 96.7598 102.474 96.9015 102.449 97.0498C102.423 97.198 102.427 97.3499 102.46 97.4966C102.493 97.6434 102.554 97.7823 102.641 97.9052C102.728 98.0281 102.838 98.1328 102.966 98.2131C103.093 98.2934 103.235 98.3478 103.384 98.3733C103.532 98.3987 103.684 98.3947 103.831 98.3614L138.138 90.6552C138.285 90.6223 138.424 90.5609 138.547 90.4744C138.67 90.3878 138.775 90.2779 138.856 90.1509C138.936 90.0238 138.991 89.8822 139.017 89.734C139.043 89.5859 139.039 89.4341 139.006 89.2874C138.973 89.1407 138.911 89.002 138.824 88.8791C138.737 88.7562 138.627 88.6516 138.5 88.5713C138.373 88.491 138.231 88.4365 138.082 88.4109C137.934 88.3854 137.782 88.3893 137.635 88.4224Z" fill="#E4E4E4"/>
<path id="Vector_8" d="M117.204 88.3727L102.333 91.7132C102.036 91.7799 101.778 91.9615 101.615 92.2183C101.453 92.475 101.399 92.7857 101.465 93.0821C101.532 93.3785 101.714 93.6363 101.971 93.7987C102.229 93.9611 102.54 94.0149 102.837 93.9482L117.708 90.6077C118.005 90.541 118.263 90.3594 118.426 90.1026C118.588 89.8459 118.642 89.5352 118.575 89.2388C118.509 88.9424 118.327 88.6846 118.07 88.5222C117.812 88.3598 117.501 88.306 117.204 88.3727Z" fill="#E4E4E4"/>
<path id="Vector_9" d="M67.2262 77.2473C67.0652 77.2473 66.9057 77.2789 66.757 77.3404C66.6082 77.4019 66.4731 77.492 66.3592 77.6057C66.2454 77.7193 66.155 77.8542 66.0934 78.0027C66.0318 78.1512 66 78.3104 66 78.4711C66 78.5145 66.0336 162.538 66.0374 171.938C66.0376 172.533 65.9949 173.17 66.4389 173.566V173.566C66.6637 173.767 66.9547 173.878 67.2562 173.878H238.011C238.313 173.878 238.604 173.767 238.828 173.566C239.053 173.366 239.196 173.09 239.23 172.79L249.858 78.6085C249.878 78.4373 249.86 78.2639 249.808 78.0998C249.756 77.9356 249.669 77.7843 249.554 77.6557C249.44 77.5266 249.299 77.4233 249.141 77.3528C248.984 77.2824 248.813 77.2464 248.64 77.2473L67.2262 77.2473Z" fill="#5B39E6"/>
<path id="Vector_10" d="M79.2761 82.4665C77.5437 82.4715 75.8829 83.1569 74.6526 84.3746C73.4223 85.5924 72.7213 87.2445 72.7012 88.9741L72.9144 162.036C72.9068 162.903 73.0713 163.763 73.3983 164.566C73.7253 165.369 74.2084 166.1 74.8198 166.715C75.4311 167.331 76.1585 167.82 76.96 168.153C77.7615 168.487 78.6212 168.658 79.4895 168.658H187.884C200.316 168.667 212.314 164.098 221.584 155.827C230.853 147.556 236.744 136.163 238.127 123.828L241.971 89.7665C242.075 88.8482 241.983 87.9183 241.702 87.0378C241.421 86.1573 240.957 85.3459 240.34 84.6568C239.723 83.9677 238.968 83.4164 238.123 83.039C237.278 82.6615 236.363 82.4664 235.437 82.4665H79.2761ZM245.384 82.4665L245.365 82.0532C245.365 82.0477 245.369 82.0432 245.375 82.0432V82.0432C245.38 82.0432 245.384 82.0475 245.384 82.0527V82.4665Z" fill="#7959FD"/>
<path id="Vector_11" d="M126.624 137.205H84.6331C84.1992 137.205 83.783 137.032 83.4762 136.726C83.1694 136.42 82.9971 136.004 82.9971 135.571C82.9971 135.138 83.1694 134.722 83.4762 134.416C83.783 134.11 84.1992 133.938 84.6331 133.938H126.624C128.733 133.908 128.755 137.234 126.624 137.205Z" fill="#E4E4E4"/>
<path id="Vector_12" d="M183.19 145.749H84.6331C84.1992 145.749 83.783 145.577 83.4762 145.271C83.1694 144.964 82.9971 144.549 82.9971 144.116C82.9971 143.682 83.1694 143.267 83.4762 142.961C83.783 142.654 84.1992 142.482 84.6331 142.482H183.19C185.299 142.453 185.321 145.779 183.19 145.749Z" fill="#E4E4E4"/>
</g>
<path id="No Schedules yet." d="M91.41 201V190.5H93.015L99.6 198.585H98.805V190.5H100.74V201H99.135L92.55 192.915H93.345V201H91.41ZM106.974 201.105C106.154 201.105 105.424 200.93 104.784 200.58C104.144 200.22 103.639 199.73 103.269 199.11C102.899 198.49 102.714 197.785 102.714 196.995C102.714 196.195 102.899 195.49 103.269 194.88C103.639 194.26 104.144 193.775 104.784 193.425C105.424 193.075 106.154 192.9 106.974 192.9C107.804 192.9 108.539 193.075 109.179 193.425C109.829 193.775 110.334 194.255 110.694 194.865C111.064 195.475 111.249 196.185 111.249 196.995C111.249 197.785 111.064 198.49 110.694 199.11C110.334 199.73 109.829 200.22 109.179 200.58C108.539 200.93 107.804 201.105 106.974 201.105ZM106.974 199.5C107.434 199.5 107.844 199.4 108.204 199.2C108.564 199 108.844 198.71 109.044 198.33C109.254 197.95 109.359 197.505 109.359 196.995C109.359 196.475 109.254 196.03 109.044 195.66C108.844 195.28 108.564 194.99 108.204 194.79C107.844 194.59 107.439 194.49 106.989 194.49C106.529 194.49 106.119 194.59 105.759 194.79C105.409 194.99 105.129 195.28 104.919 195.66C104.709 196.03 104.604 196.475 104.604 196.995C104.604 197.505 104.709 197.95 104.919 198.33C105.129 198.71 105.409 199 105.759 199.2C106.119 199.4 106.524 199.5 106.974 199.5ZM120.622 201.15C119.802 201.15 119.017 201.035 118.267 200.805C117.517 200.565 116.922 200.26 116.482 199.89L117.157 198.375C117.577 198.705 118.097 198.98 118.717 199.2C119.337 199.42 119.972 199.53 120.622 199.53C121.172 199.53 121.617 199.47 121.957 199.35C122.297 199.23 122.547 199.07 122.707 198.87C122.867 198.66 122.947 198.425 122.947 198.165C122.947 197.845 122.832 197.59 122.602 197.4C122.372 197.2 122.072 197.045 121.702 196.935C121.342 196.815 120.937 196.705 120.487 196.605C120.047 196.505 119.602 196.39 119.152 196.26C118.712 196.12 118.307 195.945 117.937 195.735C117.577 195.515 117.282 195.225 117.052 194.865C116.822 194.505 116.707 194.045 116.707 193.485C116.707 192.915 116.857 192.395 117.157 191.925C117.467 191.445 117.932 191.065 118.552 190.785C119.182 190.495 119.977 190.35 120.937 190.35C121.567 190.35 122.192 190.43 122.812 190.59C123.432 190.75 123.972 190.98 124.432 191.28L123.817 192.795C123.347 192.515 122.862 192.31 122.362 192.18C121.862 192.04 121.382 191.97 120.922 191.97C120.382 191.97 119.942 192.035 119.602 192.165C119.272 192.295 119.027 192.465 118.867 192.675C118.717 192.885 118.642 193.125 118.642 193.395C118.642 193.715 118.752 193.975 118.972 194.175C119.202 194.365 119.497 194.515 119.857 194.625C120.227 194.735 120.637 194.845 121.087 194.955C121.537 195.055 121.982 195.17 122.422 195.3C122.872 195.43 123.277 195.6 123.637 195.81C124.007 196.02 124.302 196.305 124.522 196.665C124.752 197.025 124.867 197.48 124.867 198.03C124.867 198.59 124.712 199.11 124.402 199.59C124.102 200.06 123.637 200.44 123.007 200.73C122.377 201.01 121.582 201.15 120.622 201.15ZM130.296 201.105C129.456 201.105 128.706 200.93 128.046 200.58C127.396 200.22 126.886 199.73 126.516 199.11C126.146 198.49 125.961 197.785 125.961 196.995C125.961 196.195 126.146 195.49 126.516 194.88C126.886 194.26 127.396 193.775 128.046 193.425C128.706 193.075 129.456 192.9 130.296 192.9C131.076 192.9 131.761 193.06 132.351 193.38C132.951 193.69 133.406 194.15 133.716 194.76L132.276 195.6C132.036 195.22 131.741 194.94 131.391 194.76C131.051 194.58 130.681 194.49 130.281 194.49C129.821 194.49 129.406 194.59 129.036 194.79C128.666 194.99 128.376 195.28 128.166 195.66C127.956 196.03 127.851 196.475 127.851 196.995C127.851 197.515 127.956 197.965 128.166 198.345C128.376 198.715 128.666 199 129.036 199.2C129.406 199.4 129.821 199.5 130.281 199.5C130.681 199.5 131.051 199.41 131.391 199.23C131.741 199.05 132.036 198.77 132.276 198.39L133.716 199.23C133.406 199.83 132.951 200.295 132.351 200.625C131.761 200.945 131.076 201.105 130.296 201.105ZM139.808 192.9C140.448 192.9 141.018 193.025 141.518 193.275C142.028 193.525 142.428 193.91 142.718 194.43C143.008 194.94 143.153 195.6 143.153 196.41V201H141.278V196.65C141.278 195.94 141.108 195.41 140.768 195.06C140.438 194.71 139.973 194.535 139.373 194.535C138.933 194.535 138.543 194.625 138.203 194.805C137.863 194.985 137.598 195.255 137.408 195.615C137.228 195.965 137.138 196.41 137.138 196.95V201H135.263V189.87H137.138V195.15L136.733 194.49C137.013 193.98 137.418 193.59 137.948 193.32C138.488 193.04 139.108 192.9 139.808 192.9ZM149.311 201.105C148.421 201.105 147.641 200.93 146.971 200.58C146.311 200.22 145.796 199.73 145.426 199.11C145.066 198.49 144.886 197.785 144.886 196.995C144.886 196.195 145.061 195.49 145.411 194.88C145.771 194.26 146.261 193.775 146.881 193.425C147.511 193.075 148.226 192.9 149.026 192.9C149.806 192.9 150.501 193.07 151.111 193.41C151.721 193.75 152.201 194.23 152.551 194.85C152.901 195.47 153.076 196.2 153.076 197.04C153.076 197.12 153.071 197.21 153.061 197.31C153.061 197.41 153.056 197.505 153.046 197.595H146.371V196.35H152.056L151.321 196.74C151.331 196.28 151.236 195.875 151.036 195.525C150.836 195.175 150.561 194.9 150.211 194.7C149.871 194.5 149.476 194.4 149.026 194.4C148.566 194.4 148.161 194.5 147.811 194.7C147.471 194.9 147.201 195.18 147.001 195.54C146.811 195.89 146.716 196.305 146.716 196.785V197.085C146.716 197.565 146.826 197.99 147.046 198.36C147.266 198.73 147.576 199.015 147.976 199.215C148.376 199.415 148.836 199.515 149.356 199.515C149.806 199.515 150.211 199.445 150.571 199.305C150.931 199.165 151.251 198.945 151.531 198.645L152.536 199.8C152.176 200.22 151.721 200.545 151.171 200.775C150.631 200.995 150.011 201.105 149.311 201.105ZM158.267 201.105C157.497 201.105 156.802 200.935 156.182 200.595C155.572 200.245 155.092 199.765 154.742 199.155C154.392 198.545 154.217 197.825 154.217 196.995C154.217 196.165 154.392 195.445 154.742 194.835C155.092 194.225 155.572 193.75 156.182 193.41C156.802 193.07 157.497 192.9 158.267 192.9C158.937 192.9 159.537 193.05 160.067 193.35C160.597 193.64 161.017 194.085 161.327 194.685C161.637 195.285 161.792 196.055 161.792 196.995C161.792 197.925 161.642 198.695 161.342 199.305C161.042 199.905 160.627 200.355 160.097 200.655C159.567 200.955 158.957 201.105 158.267 201.105ZM158.492 199.5C158.942 199.5 159.342 199.4 159.692 199.2C160.052 199 160.337 198.71 160.547 198.33C160.767 197.95 160.877 197.505 160.877 196.995C160.877 196.475 160.767 196.03 160.547 195.66C160.337 195.28 160.052 194.99 159.692 194.79C159.342 194.59 158.942 194.49 158.492 194.49C158.042 194.49 157.637 194.59 157.277 194.79C156.927 194.99 156.642 195.28 156.422 195.66C156.212 196.03 156.107 196.475 156.107 196.995C156.107 197.505 156.212 197.95 156.422 198.33C156.642 198.71 156.927 199 157.277 199.2C157.637 199.4 158.042 199.5 158.492 199.5ZM160.922 201V199.11L160.997 196.98L160.847 194.85V189.87H162.707V201H160.922ZM168.565 201.105C167.885 201.105 167.285 200.98 166.765 200.73C166.245 200.47 165.84 200.08 165.55 199.56C165.26 199.03 165.115 198.365 165.115 197.565V192.99H166.99V197.31C166.99 198.03 167.15 198.57 167.47 198.93C167.8 199.28 168.265 199.455 168.865 199.455C169.305 199.455 169.685 199.365 170.005 199.185C170.335 199.005 170.59 198.735 170.77 198.375C170.96 198.015 171.055 197.57 171.055 197.04V192.99H172.93V201H171.145V198.84L171.46 199.5C171.19 200.02 170.795 200.42 170.275 200.7C169.755 200.97 169.185 201.105 168.565 201.105ZM175.385 201V189.87H177.26V201H175.385ZM183.486 201.105C182.596 201.105 181.816 200.93 181.146 200.58C180.486 200.22 179.971 199.73 179.601 199.11C179.241 198.49 179.061 197.785 179.061 196.995C179.061 196.195 179.236 195.49 179.586 194.88C179.946 194.26 180.436 193.775 181.056 193.425C181.686 193.075 182.401 192.9 183.201 192.9C183.981 192.9 184.676 193.07 185.286 193.41C185.896 193.75 186.376 194.23 186.726 194.85C187.076 195.47 187.251 196.2 187.251 197.04C187.251 197.12 187.246 197.21 187.236 197.31C187.236 197.41 187.231 197.505 187.221 197.595H180.546V196.35H186.231L185.496 196.74C185.506 196.28 185.411 195.875 185.211 195.525C185.011 195.175 184.736 194.9 184.386 194.7C184.046 194.5 183.651 194.4 183.201 194.4C182.741 194.4 182.336 194.5 181.986 194.7C181.646 194.9 181.376 195.18 181.176 195.54C180.986 195.89 180.891 196.305 180.891 196.785V197.085C180.891 197.565 181.001 197.99 181.221 198.36C181.441 198.73 181.751 199.015 182.151 199.215C182.551 199.415 183.011 199.515 183.531 199.515C183.981 199.515 184.386 199.445 184.746 199.305C185.106 199.165 185.426 198.945 185.706 198.645L186.711 199.8C186.351 200.22 185.896 200.545 185.346 200.775C184.806 200.995 184.186 201.105 183.486 201.105ZM191.527 201.105C190.857 201.105 190.212 201.02 189.592 200.85C188.982 200.67 188.497 200.455 188.137 200.205L188.857 198.78C189.217 199.01 189.647 199.2 190.147 199.35C190.647 199.5 191.147 199.575 191.647 199.575C192.237 199.575 192.662 199.495 192.922 199.335C193.192 199.175 193.327 198.96 193.327 198.69C193.327 198.47 193.237 198.305 193.057 198.195C192.877 198.075 192.642 197.985 192.352 197.925C192.062 197.865 191.737 197.81 191.377 197.76C191.027 197.71 190.672 197.645 190.312 197.565C189.962 197.475 189.642 197.35 189.352 197.19C189.062 197.02 188.827 196.795 188.647 196.515C188.467 196.235 188.377 195.865 188.377 195.405C188.377 194.895 188.522 194.455 188.812 194.085C189.102 193.705 189.507 193.415 190.027 193.215C190.557 193.005 191.182 192.9 191.902 192.9C192.442 192.9 192.987 192.96 193.537 193.08C194.087 193.2 194.542 193.37 194.902 193.59L194.182 195.015C193.802 194.785 193.417 194.63 193.027 194.55C192.647 194.46 192.267 194.415 191.887 194.415C191.317 194.415 190.892 194.5 190.612 194.67C190.342 194.84 190.207 195.055 190.207 195.315C190.207 195.555 190.297 195.735 190.477 195.855C190.657 195.975 190.892 196.07 191.182 196.14C191.472 196.21 191.792 196.27 192.142 196.32C192.502 196.36 192.857 196.425 193.207 196.515C193.557 196.605 193.877 196.73 194.167 196.89C194.467 197.04 194.707 197.255 194.887 197.535C195.067 197.815 195.157 198.18 195.157 198.63C195.157 199.13 195.007 199.565 194.707 199.935C194.417 200.305 194.002 200.595 193.462 200.805C192.922 201.005 192.277 201.105 191.527 201.105ZM201.578 204.015C201.188 204.015 200.798 203.95 200.408 203.82C200.018 203.69 199.693 203.51 199.432 203.28L200.182 201.9C200.373 202.07 200.588 202.205 200.828 202.305C201.068 202.405 201.313 202.455 201.562 202.455C201.903 202.455 202.178 202.37 202.388 202.2C202.598 202.03 202.793 201.745 202.973 201.345L203.438 200.295L203.588 200.07L206.618 192.99H208.418L204.668 201.645C204.418 202.245 204.138 202.72 203.828 203.07C203.528 203.42 203.188 203.665 202.808 203.805C202.438 203.945 202.028 204.015 201.578 204.015ZM203.228 201.285L199.612 192.99H201.562L204.503 199.905L203.228 201.285ZM213.135 201.105C212.245 201.105 211.465 200.93 210.795 200.58C210.135 200.22 209.62 199.73 209.25 199.11C208.89 198.49 208.71 197.785 208.71 196.995C208.71 196.195 208.885 195.49 209.235 194.88C209.595 194.26 210.085 193.775 210.705 193.425C211.335 193.075 212.05 192.9 212.85 192.9C213.63 192.9 214.325 193.07 214.935 193.41C215.545 193.75 216.025 194.23 216.375 194.85C216.725 195.47 216.9 196.2 216.9 197.04C216.9 197.12 216.895 197.21 216.885 197.31C216.885 197.41 216.88 197.505 216.87 197.595H210.195V196.35H215.88L215.145 196.74C215.155 196.28 215.06 195.875 214.86 195.525C214.66 195.175 214.385 194.9 214.035 194.7C213.695 194.5 213.3 194.4 212.85 194.4C212.39 194.4 211.985 194.5 211.635 194.7C211.295 194.9 211.025 195.18 210.825 195.54C210.635 195.89 210.54 196.305 210.54 196.785V197.085C210.54 197.565 210.65 197.99 210.87 198.36C211.09 198.73 211.4 199.015 211.8 199.215C212.2 199.415 212.66 199.515 213.18 199.515C213.63 199.515 214.035 199.445 214.395 199.305C214.755 199.165 215.075 198.945 215.355 198.645L216.36 199.8C216 200.22 215.545 200.545 214.995 200.775C214.455 200.995 213.835 201.105 213.135 201.105ZM221.716 201.105C220.836 201.105 220.156 200.88 219.676 200.43C219.196 199.97 218.956 199.295 218.956 198.405V191.22H220.831V198.36C220.831 198.74 220.926 199.035 221.116 199.245C221.316 199.455 221.591 199.56 221.941 199.56C222.361 199.56 222.711 199.45 222.991 199.23L223.516 200.565C223.296 200.745 223.026 200.88 222.706 200.97C222.386 201.06 222.056 201.105 221.716 201.105ZM217.636 194.55V193.05H222.976V194.55H217.636ZM225.805 201.105C225.465 201.105 225.175 200.99 224.935 200.76C224.695 200.52 224.575 200.22 224.575 199.86C224.575 199.48 224.695 199.18 224.935 198.96C225.175 198.73 225.465 198.615 225.805 198.615C226.145 198.615 226.435 198.73 226.675 198.96C226.915 199.18 227.035 199.48 227.035 199.86C227.035 200.22 226.915 200.52 226.675 200.76C226.435 200.99 226.145 201.105 225.805 201.105Z" fill="#2C2E41"/>
</g>
</svg>
