<svg width="53" height="51" viewBox="0 0 53 51" fill="none" xmlns="http://www.w3.org/2000/svg">
<g id="user-dob-icon">
<path id="Rectangle 3885" d="M0 5.42382C0 2.6624 2.23858 0.423828 5 0.423828H52C52.5523 0.423828 53 0.871543 53 1.42383V49.5731C53 50.1254 52.5523 50.5731 52 50.5731H5C2.23858 50.5731 0 48.3345 0 45.5731V5.42382Z" fill="#2C2E41" fill-opacity="0.2"/>
<g id="vuesax/bulk/calendar">
<g id="vuesax/bulk/calendar_2">
<g id="calendar">
<path id="Vector" d="M31.4485 17.1821V15.5523C31.4485 15.1239 31.0943 14.7687 30.6672 14.7687C30.2401 14.7687 29.886 15.1239 29.886 15.5523V17.1194H23.1151V15.5523C23.1151 15.1239 22.761 14.7687 22.3339 14.7687C21.9068 14.7687 21.5526 15.1239 21.5526 15.5523V17.1821C18.7401 17.4433 17.3756 19.1254 17.1672 21.6224C17.1464 21.9254 17.3964 22.1761 17.6881 22.1761H35.3131C35.6151 22.1761 35.8651 21.9149 35.8339 21.6224C35.6256 19.1254 34.261 17.4433 31.4485 17.1821Z" fill="#2C2E41"/>
<path id="Vector_2" opacity="0.4" d="M34.8333 23.7433C35.4062 23.7433 35.875 24.2134 35.875 24.7881V31.2239C35.875 34.3582 34.3125 36.4478 30.6667 36.4478H22.3333C18.6875 36.4478 17.125 34.3582 17.125 31.2239V24.7881C17.125 24.2134 17.5937 23.7433 18.1667 23.7433H34.8333Z" fill="#2C2E41"/>
<g id="Group">
<path id="Vector_3" d="M22.8542 29.1343C22.5833 29.1343 22.3125 29.0194 22.1146 28.8313C21.9271 28.6328 21.8125 28.3612 21.8125 28.0895C21.8125 27.8179 21.9271 27.5462 22.1146 27.3477C22.4063 27.0552 22.8646 26.9611 23.25 27.1283C23.3854 27.1806 23.5 27.2537 23.5937 27.3477C23.7812 27.5462 23.8958 27.8179 23.8958 28.0895C23.8958 28.3612 23.7812 28.6328 23.5937 28.8313C23.3958 29.0194 23.125 29.1343 22.8542 29.1343Z" fill="#2C2E41"/>
</g>
<g id="Group_2">
<path id="Vector_4" d="M26.5007 29.1343C26.2298 29.1343 25.959 29.0194 25.7611 28.8313C25.5736 28.6328 25.459 28.3612 25.459 28.0895C25.459 27.8179 25.5736 27.5462 25.7611 27.3477C25.8548 27.2537 25.9694 27.1806 26.1048 27.1283C26.4902 26.9611 26.9486 27.0552 27.2402 27.3477C27.4277 27.5462 27.5423 27.8179 27.5423 28.0895C27.5423 28.3612 27.4277 28.6328 27.2402 28.8313C27.1882 28.8731 27.1361 28.9149 27.084 28.9567C27.0215 28.9985 26.959 29.0298 26.8965 29.0507C26.834 29.0821 26.7715 29.103 26.709 29.1134C26.6361 29.1239 26.5736 29.1343 26.5007 29.1343Z" fill="#2C2E41"/>
</g>
<g id="Group_3">
<path id="Vector_5" d="M30.1452 29.1342C29.8743 29.1342 29.6035 29.0193 29.4056 28.8312C29.2181 28.6327 29.1035 28.3611 29.1035 28.0895C29.1035 27.8178 29.2181 27.5462 29.4056 27.3477C29.5098 27.2537 29.6139 27.1805 29.7493 27.1283C29.9368 27.0447 30.1452 27.0238 30.3535 27.0656C30.416 27.076 30.4785 27.0969 30.541 27.1283C30.6035 27.1492 30.666 27.1805 30.7285 27.2223C30.7806 27.2641 30.8327 27.3059 30.8848 27.3477C31.0723 27.5462 31.1868 27.8178 31.1868 28.0895C31.1868 28.3611 31.0723 28.6327 30.8848 28.8312C30.8327 28.873 30.7806 28.9148 30.7285 28.9566C30.666 28.9984 30.6035 29.0298 30.541 29.0507C30.4785 29.082 30.416 29.1029 30.3535 29.1134C30.2806 29.1238 30.2077 29.1342 30.1452 29.1342Z" fill="#2C2E41"/>
</g>
<g id="Group_4">
<path id="Vector_6" d="M22.8542 32.791C22.7187 32.791 22.5833 32.7597 22.4583 32.7074C22.3229 32.6552 22.2188 32.582 22.1146 32.488C21.9271 32.2895 21.8125 32.0178 21.8125 31.7462C21.8125 31.4746 21.9271 31.2029 22.1146 31.0044C22.2188 30.9104 22.3229 30.8372 22.4583 30.785C22.6458 30.7014 22.8542 30.6805 23.0625 30.7223C23.125 30.7328 23.1875 30.7537 23.25 30.785C23.3125 30.8059 23.375 30.8373 23.4375 30.8791C23.4896 30.9208 23.5417 30.9626 23.5937 31.0044C23.7812 31.2029 23.8958 31.4746 23.8958 31.7462C23.8958 32.0178 23.7812 32.2895 23.5937 32.488C23.5417 32.5298 23.4896 32.582 23.4375 32.6134C23.375 32.6551 23.3125 32.6865 23.25 32.7074C23.1875 32.7388 23.125 32.7596 23.0625 32.7701C22.9896 32.7805 22.9271 32.791 22.8542 32.791Z" fill="#2C2E41"/>
</g>
<g id="Group_5">
<path id="Vector_7" d="M26.5007 32.7911C26.2298 32.7911 25.959 32.6761 25.7611 32.4881C25.5736 32.2896 25.459 32.0179 25.459 31.7463C25.459 31.4747 25.5736 31.203 25.7611 31.0045C26.1465 30.618 26.8548 30.618 27.2402 31.0045C27.4277 31.203 27.5423 31.4747 27.5423 31.7463C27.5423 32.0179 27.4277 32.2896 27.2402 32.4881C27.0423 32.6761 26.7715 32.7911 26.5007 32.7911Z" fill="#2C2E41"/>
</g>
<g id="Group_6">
<path id="Vector_8" d="M30.1452 32.7911C29.8743 32.7911 29.6035 32.6761 29.4056 32.4881C29.2181 32.2896 29.1035 32.0179 29.1035 31.7463C29.1035 31.4747 29.2181 31.203 29.4056 31.0045C29.791 30.618 30.4993 30.618 30.8848 31.0045C31.0723 31.203 31.1868 31.4747 31.1868 31.7463C31.1868 32.0179 31.0723 32.2896 30.8848 32.4881C30.6868 32.6761 30.416 32.7911 30.1452 32.7911Z" fill="#2C2E41"/>
</g>
</g>
</g>
</g>
</g>
</svg>
