<svg width="68" height="68" viewBox="0 0 68 68" fill="none" xmlns="http://www.w3.org/2000/svg">
<g filter="url(#filter0_d_803_1519)">
<rect x="4" width="60" height="60" rx="30" fill="white"/>
</g>
<path opacity="0.4" d="M46.016 16.0394C42.7113 12.7347 39.4747 12.6495 36.0848 16.0394L34.0236 18.1006C33.8533 18.2709 33.7851 18.5435 33.8533 18.782C35.1479 23.2962 38.7593 26.9075 43.2734 28.2022C43.3416 28.2192 43.4097 28.2362 43.4779 28.2362C43.6652 28.2362 43.8356 28.1681 43.9719 28.0318L46.016 25.9706C47.7025 24.3012 48.5201 22.6829 48.5201 21.0476C48.5372 19.3612 47.7195 17.7258 46.016 16.0394Z" fill="#2C2E41"/>
<path d="M40.2069 29.7522C39.7129 29.5138 39.2359 29.2753 38.776 29.0027C38.4012 28.7813 38.0435 28.5428 37.6858 28.2873C37.3962 28.0999 37.0555 27.8273 36.7318 27.5548C36.6978 27.5377 36.5785 27.4355 36.4423 27.2993C35.8801 26.8223 35.2498 26.209 34.6877 25.5276C34.6366 25.4936 34.5514 25.3743 34.4322 25.221C34.2618 25.0166 33.9722 24.6759 33.7167 24.2841C33.5123 24.0286 33.2738 23.6538 33.0523 23.2791C32.7798 22.8191 32.5413 22.3592 32.3028 21.8822C32.0643 21.3712 31.877 20.8772 31.7066 20.4172L21.0088 31.115C20.7874 31.3365 20.583 31.7623 20.5318 32.0519L19.612 38.5762C19.4416 39.7346 19.7653 40.8248 20.4807 41.5573C21.094 42.1535 21.9457 42.4772 22.8656 42.4772C23.07 42.4772 23.2744 42.4601 23.4789 42.4261L30.0202 41.5062C30.3268 41.4551 30.7527 41.2507 30.9571 41.0292L41.6549 30.3314C41.1779 30.1611 40.718 29.9737 40.2069 29.7522Z" fill="#2C2E41"/>
<defs>
<filter id="filter0_d_803_1519" x="0" y="0" width="68" height="68" filterUnits="userSpaceOnUse" color-interpolation-filters="sRGB">
<feFlood flood-opacity="0" result="BackgroundImageFix"/>
<feColorMatrix in="SourceAlpha" type="matrix" values="0 0 0 0 0 0 0 0 0 0 0 0 0 0 0 0 0 0 127 0" result="hardAlpha"/>
<feOffset dy="4"/>
<feGaussianBlur stdDeviation="2"/>
<feComposite in2="hardAlpha" operator="out"/>
<feColorMatrix type="matrix" values="0 0 0 0 0 0 0 0 0 0 0 0 0 0 0 0 0 0 0.25 0"/>
<feBlend mode="normal" in2="BackgroundImageFix" result="effect1_dropShadow_803_1519"/>
<feBlend mode="normal" in="SourceGraphic" in2="effect1_dropShadow_803_1519" result="shape"/>
</filter>
</defs>
</svg>
