<svg width="306" height="149" viewBox="0 0 306 149" fill="none" xmlns="http://www.w3.org/2000/svg">
<path opacity="0.4" d="M187.934 133.479C187.934 135.217 186.568 136.583 184.83 136.583H78.1706C76.4322 136.583 75.0664 135.217 75.0664 133.479C75.0664 107.777 100.396 86.9166 131.5 86.9166C137.895 86.9166 144.103 87.7856 149.815 89.4619C146.152 93.8077 143.917 99.4575 143.917 105.542C143.917 110.198 145.22 114.606 147.518 118.331C148.759 120.442 150.373 122.366 152.236 123.98C156.582 127.954 162.356 130.375 168.75 130.375C175.703 130.375 181.974 127.519 186.444 122.925C187.437 126.277 187.934 129.816 187.934 133.479Z" fill="#7959FD"/>
<path d="M192.838 99.5816C192.217 97.1604 191.224 94.7391 189.858 92.5662C188.927 90.952 187.685 89.4 186.319 87.9721C181.849 83.5021 176.014 81.081 170.054 80.7706C163.286 80.336 156.395 82.8192 151.18 87.9721C146.276 92.8767 143.792 99.3955 143.917 105.914C143.979 112.123 146.462 118.331 151.18 123.111C154.471 126.402 158.506 128.575 162.79 129.568C165.149 130.189 167.632 130.437 170.116 130.251C176.014 130.002 181.787 127.644 186.319 123.111C192.714 116.717 194.887 107.715 192.838 99.5816ZM178.683 115.475C176.883 117.275 173.903 117.275 172.102 115.475L168.688 112.06L165.397 115.351C163.597 117.151 160.617 117.151 158.817 115.351C157.016 113.489 157.016 110.571 158.817 108.77L162.107 105.48L158.941 102.375C157.14 100.513 157.14 97.595 158.941 95.7325C160.803 93.9321 163.721 93.9321 165.584 95.7325L168.688 98.8988L171.978 95.6086C173.779 93.8082 176.696 93.8082 178.559 95.6086C180.359 97.409 180.359 100.389 178.559 102.189L175.269 105.48L178.683 108.894C180.484 110.695 180.484 113.675 178.683 115.475Z" fill="#7959FD"/>
<path d="M131.501 74.5C148.644 74.5 162.542 60.6021 162.542 43.4583C162.542 26.3145 148.644 12.4166 131.501 12.4166C114.357 12.4166 100.459 26.3145 100.459 43.4583C100.459 60.6021 114.357 74.5 131.501 74.5Z" fill="#7959FD"/>
<g opacity="0.8">
<path d="M26.2874 29.9597L13.1889 34.0732C7.49928 35.8599 5.17259 40.3169 6.95932 46.0065L11.0678 59.0894C12.8595 64.7946 17.3165 67.1213 23.0061 65.3346L36.089 61.2261C41.7785 59.4393 44.1052 54.9823 42.3185 49.2927L38.2051 36.1942C36.434 30.4997 31.977 28.173 26.2874 29.9597Z" fill="#7959FD"/>
<path d="M30.5309 44.5115L25.451 46.1068L23.8557 41.0268C23.6544 40.3859 22.9561 40.0214 22.3152 40.2226C21.6744 40.4239 21.3098 41.1222 21.5111 41.7631L23.1063 46.843L18.0264 48.4383C17.3855 48.6396 17.021 49.3379 17.2222 49.9788C17.4235 50.6196 18.1218 50.9842 18.7627 50.7829L23.8426 49.1876L25.4379 54.2676C25.6392 54.9085 26.3375 55.273 26.9784 55.0718C27.6192 54.8705 27.9838 54.1722 27.7825 53.5313L26.1872 48.4514L31.2672 46.8561C31.9081 46.6548 32.2726 45.9565 32.0714 45.3156C31.8701 44.6748 31.1718 44.3102 30.5309 44.5115Z" fill="white"/>
</g>
<g opacity="0.8">
<path d="M287.516 68.1059L269.931 61.4242C262.292 58.522 256.008 61.3455 253.106 68.9841L246.432 86.5487C243.522 94.2083 246.345 100.492 253.984 103.395L271.549 110.068C279.187 112.971 285.471 110.147 288.373 102.508L295.055 84.9228C297.978 77.2921 295.155 71.0082 287.516 68.1059Z" fill="#7959FD"/>
<path d="M279.743 87.3656L272.923 84.7743L275.514 77.9541C275.841 77.0937 275.399 76.1091 274.538 75.7822C273.678 75.4553 272.693 75.8977 272.366 76.7581L269.775 83.5783L262.955 80.9869C262.094 80.66 261.11 81.1024 260.783 81.9628C260.456 82.8232 260.898 83.8078 261.759 84.1347L268.579 86.726L265.988 93.5462C265.661 94.4066 266.103 95.3912 266.964 95.7181C267.824 96.045 268.809 95.6026 269.136 94.7422L271.727 87.922L278.547 90.5134C279.407 90.8403 280.392 90.3979 280.719 89.5375C281.046 88.6771 280.603 87.6925 279.743 87.3656Z" fill="white"/>
</g>
</svg>
