<svg width="75" height="70" viewBox="0 0 75 70" fill="none" xmlns="http://www.w3.org/2000/svg">
<g id="Teacher-btn">
<rect id="teacher-rectange" x="0.5" y="0.5" width="74" height="69" rx="9.5" fill="white" stroke="#2C2E41"/>
<g id="Teacher">
<path id="Teacher_2" d="M20.302 50.928H16.76V60H15.78V50.928H12.238V50.06H20.302V50.928ZM23.1727 60.14C22.65 60.14 22.1647 60.042 21.7167 59.846C21.2687 59.6407 20.8813 59.3653 20.5547 59.02C20.228 58.6653 19.9713 58.2593 19.7847 57.802C19.6073 57.3447 19.5187 56.8547 19.5187 56.332C19.5187 55.6507 19.6727 55.0253 19.9807 54.456C20.298 53.8867 20.732 53.434 21.2827 53.098C21.8333 52.7527 22.4587 52.58 23.1587 52.58C23.8773 52.58 24.5027 52.7527 25.0347 53.098C25.576 53.4433 26.0007 53.9007 26.3087 54.47C26.6167 55.03 26.7707 55.646 26.7707 56.318C26.7707 56.3927 26.7707 56.4673 26.7707 56.542C26.7707 56.6073 26.766 56.6587 26.7567 56.696H20.5127C20.5593 57.2187 20.704 57.6853 20.9467 58.096C21.1987 58.4973 21.5207 58.8193 21.9127 59.062C22.314 59.2953 22.748 59.412 23.2147 59.412C23.6907 59.412 24.1387 59.2907 24.5587 59.048C24.988 58.8053 25.2867 58.488 25.4547 58.096L26.2807 58.32C26.1313 58.6653 25.9027 58.978 25.5947 59.258C25.2867 59.538 24.9227 59.7573 24.5027 59.916C24.092 60.0653 23.6487 60.14 23.1727 60.14ZM20.4847 56.01H25.8747C25.8373 55.478 25.6927 55.0113 25.4407 54.61C25.198 54.2087 24.876 53.896 24.4747 53.672C24.0827 53.4387 23.6487 53.322 23.1727 53.322C22.6967 53.322 22.2627 53.4387 21.8707 53.672C21.4787 53.896 21.1567 54.2133 20.9047 54.624C20.662 55.0253 20.522 55.4873 20.4847 56.01ZM27.6515 57.9C27.6515 57.4427 27.7821 57.0507 28.0435 56.724C28.3048 56.388 28.6641 56.1313 29.1215 55.954C29.5881 55.7673 30.1248 55.674 30.7315 55.674C31.0861 55.674 31.4548 55.702 31.8375 55.758C32.2201 55.814 32.5608 55.898 32.8595 56.01V55.394C32.8595 54.778 32.6775 54.288 32.3135 53.924C31.9495 53.56 31.4455 53.378 30.8015 53.378C30.4095 53.378 30.0221 53.4527 29.6395 53.602C29.2661 53.742 28.8741 53.952 28.4635 54.232L28.0995 53.56C28.5755 53.2333 29.0421 52.9907 29.4995 52.832C29.9568 52.664 30.4235 52.58 30.8995 52.58C31.7955 52.58 32.5048 52.8367 33.0275 53.35C33.5501 53.8633 33.8115 54.5727 33.8115 55.478V58.852C33.8115 58.9827 33.8395 59.0807 33.8955 59.146C33.9515 59.202 34.0401 59.2347 34.1615 59.244V60C34.0588 60.0093 33.9701 60.0187 33.8955 60.028C33.8208 60.0373 33.7648 60.0373 33.7275 60.028C33.4941 60.0187 33.3168 59.944 33.1955 59.804C33.0741 59.664 33.0088 59.5147 32.9995 59.356L32.9855 58.824C32.6588 59.244 32.2341 59.5707 31.7115 59.804C31.1888 60.028 30.6568 60.14 30.1155 60.14C29.6488 60.14 29.2241 60.042 28.8415 59.846C28.4681 59.6407 28.1741 59.37 27.9595 59.034C27.7541 58.6887 27.6515 58.3107 27.6515 57.9ZM32.5375 58.46C32.6401 58.3293 32.7195 58.2033 32.7755 58.082C32.8315 57.9607 32.8595 57.8533 32.8595 57.76V56.696C32.5421 56.5747 32.2108 56.4813 31.8655 56.416C31.5295 56.3507 31.1888 56.318 30.8435 56.318C30.1621 56.318 29.6115 56.4533 29.1915 56.724C28.7715 56.9947 28.5615 57.3633 28.5615 57.83C28.5615 58.1007 28.6315 58.3573 28.7715 58.6C28.9115 58.8333 29.1168 59.0293 29.3875 59.188C29.6581 59.3373 29.9755 59.412 30.3395 59.412C30.7968 59.412 31.2215 59.3233 31.6135 59.146C32.0148 58.9687 32.3228 58.74 32.5375 58.46ZM39.0324 60.14C38.5004 60.14 38.0104 60.042 37.5624 59.846C37.1237 59.6407 36.7364 59.3607 36.4004 59.006C36.0737 58.6513 35.817 58.2453 35.6304 57.788C35.453 57.3307 35.3644 56.8453 35.3644 56.332C35.3644 55.6413 35.5184 55.0113 35.8264 54.442C36.1344 53.8727 36.5637 53.42 37.1144 53.084C37.665 52.748 38.2997 52.58 39.0184 52.58C39.6997 52.58 40.3017 52.7387 40.8244 53.056C41.347 53.364 41.7344 53.784 41.9864 54.316L41.0624 54.61C40.857 54.2367 40.5677 53.9473 40.1944 53.742C39.8304 53.5273 39.4244 53.42 38.9764 53.42C38.491 53.42 38.0477 53.546 37.6464 53.798C37.245 54.05 36.923 54.3953 36.6804 54.834C36.447 55.2727 36.3304 55.772 36.3304 56.332C36.3304 56.8827 36.4517 57.382 36.6944 57.83C36.937 58.278 37.259 58.6373 37.6604 58.908C38.0617 59.1693 38.505 59.3 38.9904 59.3C39.3077 59.3 39.611 59.244 39.9004 59.132C40.199 59.02 40.4557 58.8707 40.6704 58.684C40.8944 58.488 41.0437 58.278 41.1184 58.054L42.0564 58.334C41.9257 58.6793 41.7064 58.992 41.3984 59.272C41.0997 59.5427 40.745 59.7573 40.3344 59.916C39.933 60.0653 39.499 60.14 39.0324 60.14ZM49.684 60H48.732V55.926C48.732 55.1047 48.5873 54.4887 48.298 54.078C48.0086 53.658 47.5933 53.448 47.052 53.448C46.6973 53.448 46.3426 53.5413 45.988 53.728C45.6426 53.9053 45.3346 54.1527 45.064 54.47C44.8026 54.778 44.616 55.1327 44.504 55.534V60H43.552V49.78H44.504V54.358C44.7933 53.8167 45.1946 53.3873 45.708 53.07C46.2306 52.7433 46.786 52.58 47.374 52.58C47.794 52.58 48.1486 52.6547 48.438 52.804C48.7366 52.9533 48.9746 53.1727 49.152 53.462C49.3386 53.742 49.474 54.0733 49.558 54.456C49.642 54.8293 49.684 55.254 49.684 55.73V60ZM54.8641 60.14C54.3414 60.14 53.8561 60.042 53.4081 59.846C52.9601 59.6407 52.5727 59.3653 52.2461 59.02C51.9194 58.6653 51.6627 58.2593 51.4761 57.802C51.2987 57.3447 51.2101 56.8547 51.2101 56.332C51.2101 55.6507 51.3641 55.0253 51.6721 54.456C51.9894 53.8867 52.4234 53.434 52.9741 53.098C53.5247 52.7527 54.1501 52.58 54.8501 52.58C55.5687 52.58 56.1941 52.7527 56.7261 53.098C57.2674 53.4433 57.6921 53.9007 58.0001 54.47C58.3081 55.03 58.4621 55.646 58.4621 56.318C58.4621 56.3927 58.4621 56.4673 58.4621 56.542C58.4621 56.6073 58.4574 56.6587 58.4481 56.696H52.2041C52.2507 57.2187 52.3954 57.6853 52.6381 58.096C52.8901 58.4973 53.2121 58.8193 53.6041 59.062C54.0054 59.2953 54.4394 59.412 54.9061 59.412C55.3821 59.412 55.8301 59.2907 56.2501 59.048C56.6794 58.8053 56.9781 58.488 57.1461 58.096L57.9721 58.32C57.8227 58.6653 57.5941 58.978 57.2861 59.258C56.9781 59.538 56.6141 59.7573 56.1941 59.916C55.7834 60.0653 55.3401 60.14 54.8641 60.14ZM52.1761 56.01H57.5661C57.5287 55.478 57.3841 55.0113 57.1321 54.61C56.8894 54.2087 56.5674 53.896 56.1661 53.672C55.7741 53.4387 55.3401 53.322 54.8641 53.322C54.3881 53.322 53.9541 53.4387 53.5621 53.672C53.1701 53.896 52.8481 54.2133 52.5961 54.624C52.3534 55.0253 52.2134 55.4873 52.1761 56.01ZM63.5709 53.546C62.9362 53.5647 62.3762 53.742 61.8909 54.078C61.4149 54.414 61.0789 54.876 60.8829 55.464V60H59.9309V52.706H60.8269V54.456C61.0789 53.9427 61.4102 53.5273 61.8209 53.21C62.2409 52.8927 62.6842 52.7153 63.1509 52.678C63.2442 52.6687 63.3235 52.664 63.3889 52.664C63.4635 52.664 63.5242 52.6687 63.5709 52.678V53.546Z" fill="#2C2E41"/>
</g>
<g id="#342_teacher_outline">
<circle id="Ellipse 68" cx="37.5" cy="28.4166" r="15.3333" fill="white" stroke="#093F68" stroke-width="0.5"/>
<path id="Vector" d="M27.2055 34.1188C26.4811 34.5796 25.7885 35.0906 25.0926 35.5999L23.3109 32.6915C22.871 31.9726 21.996 30.4932 22.9864 29.8714C23.154 29.7873 23.3337 29.7317 23.5184 29.7068C23.9199 29.6133 24.3548 29.4227 24.7245 29.6011C24.9471 29.7343 25.1287 29.9301 25.2482 30.1658C25.4852 30.5191 25.6993 30.8883 25.8889 31.271C26.0378 31.6071 25.9441 31.7422 26.0043 32.0782C26.0645 32.4143 26.369 32.7538 26.5463 33.0431L27.2055 34.1188Z" fill="#FFC9B0"/>
<path id="Vector_2" d="M25.0925 35.7732H25.0607C25.0384 35.7685 25.0173 35.7592 24.9986 35.7458C24.9799 35.7324 24.9641 35.7152 24.952 35.6952L23.6572 33.5836C23.167 32.7816 23.167 32.7816 23.1553 32.7799C22.8491 32.2792 22.2051 31.2208 22.3874 30.4205C22.4207 30.2756 22.4824 30.1392 22.5688 30.02C22.6551 29.9008 22.7642 29.8013 22.8893 29.7276C23.0374 29.6418 23.1987 29.5832 23.3661 29.5544L23.4715 29.5319C23.5518 29.5146 23.6388 29.492 23.7124 29.4695C24.047 29.376 24.43 29.2703 24.783 29.4383C25.0364 29.5834 25.2434 29.802 25.3786 30.0672C25.4271 30.1486 25.479 30.23 25.5308 30.3114C25.7197 30.5916 25.8875 30.8863 26.0327 31.1931C26.1115 31.3667 26.1483 31.5576 26.1398 31.7492C26.1371 31.8467 26.1444 31.9442 26.1615 32.0402C26.2366 32.2773 26.3541 32.4976 26.5078 32.6898C26.5697 32.7781 26.6299 32.863 26.6751 32.9444L27.3342 34.0219C27.3467 34.0409 27.3551 34.0625 27.3589 34.0853C27.3626 34.108 27.3616 34.1313 27.356 34.1535C27.3509 34.1757 27.3416 34.1966 27.3287 34.215C27.3157 34.2334 27.2994 34.249 27.2807 34.2609C26.5998 34.694 25.9323 35.1825 25.2866 35.6467L25.1778 35.7264C25.1545 35.7503 25.1248 35.7666 25.0925 35.7732ZM24.3765 29.7103C24.1839 29.7213 23.9933 29.7573 23.8094 29.8177C23.7246 29.842 23.6393 29.8645 23.5534 29.8853L23.443 29.9078C23.3142 29.9269 23.1893 29.9679 23.0733 30.029C22.9857 30.0791 22.9093 30.1476 22.8491 30.2303C22.7888 30.313 22.7461 30.4079 22.7237 30.5089C22.5731 31.1741 23.1887 32.1788 23.4514 32.6084L23.9416 33.4069L25.1394 35.3609C25.7332 34.9278 26.3455 34.4792 26.9796 34.0738L26.4108 33.1436C26.3656 33.0691 26.3087 32.9877 26.2518 32.9046C26.0658 32.6742 25.928 32.4065 25.847 32.1181C25.8277 32.0038 25.8188 31.8878 25.8202 31.7717C25.8285 31.6292 25.8021 31.4868 25.7433 31.3577C25.6049 31.0677 25.4461 30.7886 25.2682 30.5227L25.1126 30.275C25.0099 30.0679 24.8535 29.8946 24.6609 29.7744C24.5726 29.7282 24.4754 29.7033 24.3765 29.7017V29.7103Z" fill="#093F68"/>
<path id="Vector_3" d="M24.7781 33.4503C24.7437 33.4503 24.7102 33.4393 24.6821 33.4188C24.6539 33.3984 24.6326 33.3694 24.6209 33.3359L21.0091 22.7242C20.9947 22.6808 20.9975 22.6332 21.017 22.592C21.0364 22.5507 21.0709 22.5192 21.1128 22.5042C21.1545 22.4892 21.2002 22.4919 21.24 22.5117C21.2798 22.5315 21.3105 22.5668 21.3252 22.6099L24.9371 33.2199C24.9462 33.2468 24.9488 33.2756 24.9446 33.3038C24.9403 33.332 24.9295 33.3586 24.9129 33.3814C24.8964 33.4042 24.8747 33.4224 24.8497 33.4344C24.8247 33.4464 24.7973 33.4519 24.7698 33.4503H24.7781Z" fill="#093F68"/>
<path id="Vector_4" d="M24.7329 30.457C24.5656 30.4397 23.868 30.2648 23.7024 30.3236C23.618 30.3484 23.5452 30.4044 23.498 30.4811C23.4508 30.5577 23.4325 30.6496 23.4465 30.7394C23.4883 30.8849 23.6405 30.9628 23.781 31.0165C24.1341 31.1536 24.5021 31.245 24.8768 31.2885C24.7865 31.5205 24.7647 31.775 24.8142 32.0198C24.8636 32.2647 24.982 32.4888 25.1545 32.6639" fill="#FFC9B0"/>
<path id="Vector_5" d="M25.153 32.837C25.1101 32.8373 25.0688 32.8205 25.0375 32.7902C24.8663 32.6157 24.7417 32.3982 24.6758 32.159C24.6098 31.9198 24.6048 31.667 24.6611 31.4252C24.3424 31.374 24.0297 31.2893 23.7276 31.1723C23.6311 31.1456 23.5418 31.0965 23.4664 31.0287C23.391 30.9608 23.3316 30.876 23.2927 30.7808C23.2683 30.649 23.2921 30.5125 23.3595 30.3979C23.4269 30.2832 23.5331 30.1987 23.6574 30.1607C23.8046 30.1087 24.1024 30.1607 24.5089 30.2403C24.6143 30.2611 24.713 30.2802 24.7581 30.2836C24.78 30.286 24.8012 30.2928 24.8205 30.3037C24.8398 30.3146 24.8569 30.3293 24.8707 30.347C24.8846 30.3647 24.8949 30.385 24.9011 30.4068C24.9073 30.4287 24.9094 30.4516 24.907 30.4742C24.9024 30.5196 24.8806 30.5612 24.8465 30.5901C24.8123 30.619 24.7686 30.6327 24.7247 30.6284C24.6661 30.6284 24.5691 30.6041 24.447 30.5799C24.2229 30.5265 23.9943 30.4958 23.7644 30.488C23.6708 30.5227 23.5971 30.6214 23.6155 30.689C23.6339 30.7565 23.7945 30.8345 23.8464 30.8622C24.1866 30.9937 24.5411 31.0809 24.902 31.122C24.9279 31.1251 24.9527 31.1344 24.9744 31.1491C24.9962 31.1639 25.0144 31.1837 25.0275 31.2069C25.0408 31.2303 25.0487 31.2566 25.0504 31.2836C25.0522 31.3107 25.0478 31.3378 25.0375 31.3628C24.9606 31.5625 24.9423 31.7813 24.9848 31.9918C25.0274 32.2022 25.1289 32.395 25.2767 32.546C25.3079 32.5784 25.3254 32.6223 25.3254 32.6681C25.3254 32.7138 25.3079 32.7577 25.2767 32.7902C25.2602 32.8063 25.2408 32.8187 25.2195 32.8267C25.1982 32.8348 25.1756 32.8383 25.153 32.837Z" fill="#093F68"/>
<path id="Vector_6" d="M34.6884 29.1335C34.6884 29.1335 32.6241 29.1231 31.8713 30.6752C31.1185 32.2273 29.4372 36.5648 29.4372 36.5648L27.075 33.4641L24.1859 35.1219C24.1859 35.1219 27.0416 41.6784 29.6346 41.5866C32.343 41.4879 34.4024 35.7559 34.4024 35.7559" fill="white"/>
<path id="Vector_7" d="M29.5793 41.7581C26.9244 41.7581 24.1524 35.4614 24.0336 35.1912C24.0167 35.1516 24.0147 35.1069 24.028 35.0658C24.0413 35.0248 24.069 34.9904 24.1056 34.9694L27.003 33.3099C27.0379 33.2901 27.0783 33.2837 27.1173 33.292C27.1562 33.3002 27.191 33.3226 27.2155 33.355L29.3987 36.2201C29.7834 35.2379 31.0933 31.9103 31.7307 30.5972C32.522 28.9672 34.6064 28.9603 34.6984 28.9603C34.7428 28.9603 34.7854 28.9785 34.8167 29.011C34.8481 29.0435 34.8657 29.0875 34.8657 29.1335C34.8657 29.1794 34.8481 29.2235 34.8167 29.256C34.7854 29.2885 34.7428 29.3067 34.6984 29.3067C34.6683 29.3067 32.7261 29.3206 32.0301 30.7531C31.289 32.281 29.6195 36.5839 29.6027 36.6272C29.592 36.6553 29.5742 36.6801 29.5513 36.6989C29.5284 36.7178 29.5012 36.7301 29.4723 36.7346C29.4432 36.739 29.4135 36.7354 29.3862 36.7242C29.3589 36.7129 29.3349 36.6944 29.3167 36.6705L27.0415 33.6858L24.4134 35.1929C24.8467 36.1404 27.356 41.4117 29.5877 41.4117H29.6379C32.2041 41.3181 34.2367 35.7489 34.2568 35.6952C34.2722 35.6524 34.3034 35.6176 34.3435 35.5984C34.3836 35.5793 34.4294 35.5774 34.4709 35.593C34.4916 35.6009 34.5106 35.613 34.5268 35.6285C34.5429 35.6441 34.556 35.6627 34.5652 35.6835C34.5743 35.7043 34.5794 35.7267 34.5802 35.7495C34.581 35.7724 34.5774 35.7951 34.5696 35.8165C34.4843 36.0538 32.4383 41.6576 29.6496 41.7598L29.5793 41.7581Z" fill="#093F68"/>
<path id="Vector_8" d="M45.2663 40.0121C45.2663 40.0121 45.3617 41.4516 46.6565 42.0613C47.9514 42.6711 50.1897 41.2593 49.554 38.874C48.9183 36.4887 45.1492 38.0616 45.2663 40.0121Z" fill="white"/>
<path id="Vector_9" d="M47.3238 42.3765C47.0699 42.3785 46.8185 42.3248 46.5861 42.2189C45.216 41.5745 45.1039 40.0882 45.0989 40.0241C45.0253 38.796 46.3 37.7428 47.538 37.5297C48.6337 37.3392 49.4484 37.8224 49.7128 38.822C50.0156 39.96 49.7278 41.0219 48.9215 41.7339C48.4783 42.1356 47.9127 42.3631 47.3238 42.3765ZM45.4334 40.0016C45.4334 40.0622 45.5439 41.3476 46.7249 41.9071C47.2987 42.1756 48.1118 41.9989 48.7057 41.474C49.4083 40.8521 49.6592 39.915 49.3916 38.9172C49.0804 37.748 48.0298 37.7982 47.5915 37.8779C46.5225 38.0563 45.3716 38.9761 45.4334 40.0016Z" fill="#093F68"/>
<path id="Vector_10" d="M40.6089 29.1335C40.6089 29.1335 43.9664 29.1335 44.8581 31.595C45.293 32.7937 46.449 38.569 46.449 38.569L42.7285 38.1446L40.6089 29.1335Z" fill="white"/>
<path id="Vector_11" d="M46.4491 38.7423H46.4307L42.7168 38.3179C42.6829 38.314 42.6509 38.2995 42.6252 38.2763C42.5995 38.2531 42.5813 38.2223 42.5729 38.188L40.4467 29.1803C40.4404 29.1547 40.4399 29.128 40.4451 29.1022C40.4503 29.0764 40.4611 29.0522 40.4768 29.0313C40.4925 29.0107 40.5126 28.994 40.5355 28.9826C40.5584 28.9712 40.5835 28.9654 40.6089 28.9655C41.2334 28.9828 41.8526 29.0888 42.4491 29.2808C43.744 29.7 44.6239 30.4812 45.0154 31.5327C45.4487 32.7314 46.5662 38.2885 46.613 38.5345C46.6182 38.5611 46.6173 38.5886 46.6103 38.6148C46.6033 38.6409 46.5905 38.6651 46.5729 38.6852C46.5572 38.7031 46.5381 38.7175 46.5168 38.7273C46.4955 38.7372 46.4724 38.7423 46.4491 38.7423ZM42.869 37.9853L46.2416 38.3699C46.0208 37.2786 45.0806 32.6916 44.7042 31.6557C43.9916 29.6879 41.5675 29.3691 40.8281 29.3172L42.869 37.9853Z" fill="#093F68"/>
<path id="Vector_12" d="M34.9108 29.1212H40.6087C41.1715 29.1231 41.7106 29.3558 42.1079 29.7685C42.5052 30.1812 42.7283 30.7402 42.7283 31.3229V42.9099H32.7828V31.3229C32.7828 31.0336 32.8379 30.7472 32.9448 30.48C33.0518 30.2127 33.2086 29.9699 33.4062 29.7655C33.6038 29.561 33.8384 29.3989 34.0966 29.2883C34.3547 29.1778 34.6314 29.121 34.9108 29.1212Z" fill="#704EB7"/>
<path id="Vector_13" d="M42.7285 43.0833H32.783C32.7386 43.0833 32.6961 43.0651 32.6647 43.0326C32.6333 43.0001 32.6157 42.956 32.6157 42.9101V31.3231C32.6166 30.6932 32.8588 30.0894 33.2891 29.6442C33.7194 29.1989 34.3026 28.9486 34.911 28.9482H40.6089C41.2157 28.9509 41.7969 29.2022 42.2254 29.6472C42.6539 30.0922 42.8949 30.6947 42.8958 31.3231V42.9101C42.8958 42.956 42.8781 43.0001 42.8468 43.0326C42.8154 43.0651 42.7728 43.0833 42.7285 43.0833ZM32.9436 42.7369H42.5612V31.3231C42.5607 30.7853 42.3542 30.2696 41.9869 29.8893C41.6196 29.509 41.1216 29.2951 40.6022 29.2946H34.911C34.3914 29.2951 33.8932 29.5089 33.5256 29.8892C33.1581 30.2694 32.9512 30.7851 32.9503 31.3231L32.9436 42.7369Z" fill="#093F68"/>
<path id="Vector_14" d="M37.7599 43.0832C37.7156 43.0832 37.673 43.065 37.6416 43.0325C37.6103 43 37.5927 42.956 37.5927 42.91V30.9731C37.5927 30.9271 37.6103 30.8831 37.6416 30.8506C37.673 30.8181 37.7156 30.7999 37.7599 30.7999C37.8043 30.7999 37.8469 30.8181 37.8782 30.8506C37.9096 30.8831 37.9272 30.9271 37.9272 30.9731V42.91C37.9272 42.956 37.9096 43 37.8782 43.0325C37.8469 43.065 37.8043 43.0832 37.7599 43.0832Z" fill="white"/>
<path id="Vector_15" d="M37.7599 36.7795L36.0786 29.1212H39.4395L37.7599 36.7795Z" fill="white"/>
<path id="Vector_16" d="M37.7599 36.9529C37.7212 36.9539 37.6834 36.941 37.6529 36.9163C37.6224 36.8917 37.6011 36.8569 37.5926 36.8178L35.9197 29.1595C35.9142 29.1343 35.9141 29.1082 35.9196 29.083C35.9251 29.0579 35.936 29.0343 35.9514 29.014C35.967 28.9936 35.9868 28.9771 36.0094 28.9657C36.032 28.9543 36.0568 28.9483 36.0819 28.9482H39.4428C39.4679 28.9483 39.4927 28.9543 39.5153 28.9657C39.5379 28.9771 39.5577 28.9936 39.5733 29.014C39.589 29.0341 39.6002 29.0576 39.606 29.0828C39.6118 29.108 39.612 29.1342 39.6068 29.1595L37.9338 36.8178C37.9252 36.8581 37.9028 36.8938 37.8709 36.9186C37.839 36.9434 37.7997 36.9555 37.7599 36.9529ZM36.2877 29.2946L37.7599 35.9967L39.2303 29.2946H36.2877Z" fill="#093F68"/>
<path id="Vector_17" d="M37.7598 30.3147L35.7105 32.0972L35.4913 29.1212H37.7598V30.3147Z" fill="white"/>
<path id="Vector_18" d="M35.7106 32.2706C35.6887 32.2703 35.6671 32.2656 35.647 32.2567C35.6185 32.2443 35.5939 32.224 35.5759 32.198C35.5579 32.172 35.5472 32.1414 35.5449 32.1095L35.3241 29.1352C35.3217 29.1108 35.3243 29.0861 35.3318 29.0628C35.3393 29.0395 35.3515 29.0181 35.3676 29.0001C35.3832 28.9827 35.4021 28.9688 35.4231 28.9592C35.4441 28.9497 35.4668 28.9447 35.4897 28.9446H37.7599C37.8042 28.9446 37.8468 28.9629 37.8782 28.9954C37.9095 29.0279 37.9272 29.0719 37.9272 29.1179V30.3114C37.9272 30.3368 37.9218 30.362 37.9114 30.385C37.901 30.4081 37.8858 30.4285 37.8669 30.4448L35.8193 32.229C35.789 32.2558 35.7504 32.2706 35.7106 32.2706ZM35.6721 29.2946L35.8527 31.7474L37.5926 30.2352V29.2946H35.6721Z" fill="#093F68"/>
<path id="Vector_19" d="M37.7599 30.3147L39.8075 32.0972L40.0267 29.1212H37.7599V30.3147Z" fill="white"/>
<path id="Vector_20" d="M39.8076 32.2706C39.7683 32.2702 39.7304 32.2555 39.7005 32.2291L37.6512 30.4483C37.6326 30.4319 37.6178 30.4114 37.6076 30.3883C37.5975 30.3653 37.5924 30.3402 37.5927 30.3149V29.1214C37.5927 29.0755 37.6103 29.0314 37.6417 28.9989C37.673 28.9664 37.7156 28.9482 37.76 28.9482H40.0284C40.0514 28.9483 40.074 28.9532 40.095 28.9628C40.116 28.9723 40.1349 28.9862 40.1505 29.0036C40.1662 29.0213 40.1781 29.0421 40.1856 29.0647C40.1931 29.0874 40.196 29.1114 40.194 29.1353L39.9749 32.1182C39.9727 32.1501 39.962 32.1807 39.9439 32.2067C39.9259 32.2327 39.9013 32.253 39.8728 32.2654C39.8516 32.2712 39.8295 32.273 39.8076 32.2706ZM37.9272 30.2352L39.6654 31.7475L39.8477 29.2946H37.9272V30.2352Z" fill="#093F68"/>
<path id="Vector_21" d="M36.8734 28.4804H38.6534V29.5405C38.6534 29.7482 38.5737 29.9474 38.4319 30.0942C38.2901 30.241 38.0977 30.3235 37.8972 30.3235H37.6279C37.4273 30.3235 37.235 30.241 37.0932 30.0942C36.9514 29.9474 36.8717 29.7482 36.8717 29.5405V28.4804H36.8734Z" fill="#FFC9B0"/>
<path id="Vector_22" d="M37.8939 30.4881H37.6245C37.3801 30.4881 37.1456 30.3875 36.9727 30.2085C36.7999 30.0295 36.7028 29.7868 36.7028 29.5336V28.4804C36.7028 28.4345 36.7204 28.3904 36.7518 28.3579C36.7831 28.3254 36.8257 28.3072 36.87 28.3072H38.65C38.6944 28.3072 38.7369 28.3254 38.7683 28.3579C38.7997 28.3904 38.8173 28.4345 38.8173 28.4804V29.5405C38.8151 29.7926 38.7168 30.0336 38.5439 30.2111C38.371 30.3885 38.1373 30.4881 37.8939 30.4881ZM37.0407 28.6536V29.5405C37.0407 29.7018 37.1026 29.8565 37.2127 29.9705C37.3228 30.0845 37.4721 30.1486 37.6279 30.1486H37.8972C38.0531 30.1486 38.2026 30.0846 38.313 29.9706C38.4234 29.8566 38.4856 29.702 38.4861 29.5405V28.6536H37.0407Z" fill="#093F68"/>
<path id="Vector_23" d="M31.5032 23.3357C31.5032 23.3357 31.2958 17.7925 31.2523 17.7249C30.8357 17.032 30.2034 16.2248 30.5112 15.473C30.6802 15.0755 30.9754 14.7497 31.3476 14.5497C31.5446 14.4413 31.761 14.3758 31.9834 14.3574C32.1239 14.3574 32.4283 14.4561 32.5304 14.347C32.6324 14.2379 32.5521 13.9815 32.5605 13.8637C32.701 11.837 35.5232 10.9813 36.8114 12.4398C37.2497 11.688 38.0075 10.8305 39.7022 11.3173C41.3349 11.7868 41.273 13.3371 41.273 13.3371C41.273 13.3371 42.8071 13.0426 43.4478 13.4514C43.6584 13.5621 43.8429 13.7194 43.9882 13.9122C44.0484 14.011 44.1956 15.0261 44.0434 14.9897C44.4331 15.085 44.8464 15.2149 45.0939 15.5423C45.1992 15.6916 45.2674 15.8655 45.2925 16.0485C45.3175 16.2316 45.2988 16.4182 45.2378 16.592C45.0939 17.0147 44.3211 17.7388 44.3211 17.7388C44.2826 17.8531 43.8577 22.4938 43.6 23.6856L42.9794 23.3131C42.5177 23.23 41.9388 23.3478 41.4738 23.3634L38.0242 23.4742C36.2894 23.5314 33.3802 24.0701 31.5032 23.3357Z" fill="#725858"/>
<path id="Vector_24" d="M34.0962 23.8917C33.1443 23.8917 32.2125 23.7982 31.4446 23.4968C31.4139 23.4849 31.3872 23.464 31.3679 23.4366C31.3485 23.4092 31.3374 23.3765 31.3359 23.3426C31.2589 21.2639 31.1318 18.1458 31.0933 17.789C31.0414 17.7041 30.9879 17.6158 30.926 17.5309C30.5145 16.8778 30.0494 16.1451 30.3505 15.4072C30.5347 14.974 30.8556 14.6185 31.2606 14.399C31.4772 14.2781 31.7161 14.206 31.9615 14.1877C32.0344 14.1844 32.1074 14.1903 32.179 14.205C32.2506 14.2193 32.3235 14.2257 32.3965 14.224C32.4031 14.1572 32.4031 14.0899 32.3965 14.0231C32.3924 13.9654 32.3924 13.9075 32.3965 13.8499C32.4634 12.8885 33.1225 12.0691 34.1146 11.7123C35.1066 11.3554 36.1137 11.539 36.7912 12.1661C37.2596 11.442 38.076 10.666 39.7573 11.151C41.1274 11.5442 41.39 12.6667 41.4386 13.1344C41.8819 13.0704 42.991 12.9508 43.5431 13.3077L43.5682 13.3233C43.7912 13.4439 43.985 13.615 44.1353 13.8239C44.2428 14.1622 44.291 14.5177 44.2775 14.8736C44.6463 14.9492 44.9811 15.1475 45.231 15.4383C45.3536 15.6104 45.4331 15.8112 45.4623 16.0228C45.4914 16.2344 45.4695 16.4502 45.3983 16.6509C45.2612 17.058 44.6556 17.6608 44.4782 17.8306C44.4632 17.9588 44.4147 18.4091 44.3611 18.9219C44.2072 20.4064 43.9479 22.8922 43.7656 23.7254C43.7597 23.7516 43.7481 23.7761 43.7315 23.7968C43.715 23.8176 43.694 23.8341 43.6702 23.8449C43.6462 23.8558 43.6201 23.8607 43.5939 23.8592C43.5678 23.8577 43.5423 23.8498 43.5197 23.8363L42.9258 23.4812C42.6088 23.4498 42.2894 23.4562 41.9739 23.5002C41.8066 23.5158 41.6393 23.5331 41.472 23.5366L38.0241 23.6492C37.6076 23.6631 37.1158 23.7046 36.5938 23.7497C35.8142 23.8172 34.9477 23.8917 34.0962 23.8917ZM31.6654 23.2127C33.0456 23.7081 34.9928 23.5401 36.5637 23.4049C37.0907 23.3599 37.5875 23.3166 38.0108 23.3027L41.4603 23.1919C41.6058 23.1919 41.7648 23.1711 41.9321 23.1555C42.2871 23.1046 42.6469 23.1011 43.0027 23.1451C43.1647 23.2261 43.3222 23.3163 43.4745 23.4153C43.6418 22.4349 43.8777 20.2401 44.0199 18.8838C44.1253 17.8669 44.1403 17.7318 44.157 17.6833C44.1669 17.6565 44.1823 17.6323 44.2022 17.6123C44.4096 17.4183 44.9667 16.8484 45.0721 16.5366C45.1237 16.39 45.14 16.2327 45.1196 16.0781C45.0991 15.9236 45.0427 15.7765 44.955 15.6497C44.7359 15.3604 44.3461 15.2443 43.9981 15.1594C43.9767 15.1543 43.9564 15.1449 43.9385 15.1317C43.9206 15.1185 43.9054 15.1017 43.8938 15.0824C43.8821 15.0631 43.8742 15.0416 43.8706 15.0192C43.867 14.9967 43.8677 14.9738 43.8726 14.9516C43.8818 14.9128 43.9029 14.8781 43.9329 14.8528C43.9372 14.5609 43.904 14.2696 43.8342 13.9867C43.7085 13.8301 43.5537 13.7011 43.3791 13.6074L43.354 13.5918C42.8756 13.2869 41.7096 13.4185 41.2997 13.5C41.2749 13.5047 41.2494 13.5036 41.225 13.4967C41.2007 13.4898 41.1782 13.4773 41.1592 13.4601C41.1405 13.4431 41.1256 13.422 41.1158 13.3983C41.106 13.3747 41.1014 13.349 41.1023 13.3233C41.1023 13.2661 41.1341 11.9028 39.6536 11.4767C38.066 11.0211 37.3751 11.7954 36.9518 12.516C36.9384 12.5392 36.9199 12.5588 36.8978 12.5732C36.8757 12.5877 36.8507 12.5966 36.8247 12.5992C36.7987 12.6019 36.7725 12.5984 36.7481 12.5887C36.7237 12.5791 36.7018 12.5637 36.6841 12.5438C36.112 11.8959 35.1434 11.6915 34.2183 12.0241C33.3534 12.3341 32.7812 13.0374 32.7227 13.8603C32.7229 13.8979 32.7257 13.9356 32.7311 13.9729C32.7444 14.1322 32.7645 14.3297 32.6457 14.4544C32.527 14.5791 32.3112 14.5566 32.1439 14.5306C32.0953 14.5216 32.046 14.5163 31.9967 14.515C31.7977 14.5323 31.6042 14.5912 31.4279 14.6883C31.0912 14.8707 30.8245 15.1664 30.6717 15.5267C30.4408 16.0879 30.839 16.7167 31.2187 17.323L31.4011 17.6158C31.4228 17.6833 31.4613 17.7405 31.6654 23.2127Z" fill="#093F68"/>
<path id="Vector_25" d="M32.6743 25.2291C33.6287 25.2291 34.4024 24.5389 34.4024 23.6874C34.4024 22.8359 33.6287 22.1457 32.6743 22.1457C31.7199 22.1457 30.9462 22.8359 30.9462 23.6874C30.9462 24.5389 31.7199 25.2291 32.6743 25.2291Z" fill="#FFC9B0"/>
<path id="Vector_26" d="M32.6743 25.4022C31.6287 25.4022 30.7772 24.6331 30.7772 23.6873C30.7772 22.7415 31.6287 21.9706 32.6743 21.9706C33.7199 21.9706 34.5697 22.7415 34.5697 23.6873C34.5697 24.6331 33.7199 25.4022 32.6743 25.4022ZM32.6743 22.3171C31.8128 22.3171 31.1118 22.932 31.1118 23.6873C31.1118 24.4426 31.8128 25.0558 32.6743 25.0558C33.5358 25.0558 34.2351 24.4426 34.2351 23.6873C34.2351 22.932 33.5358 22.3171 32.6743 22.3171Z" fill="#093F68"/>
<path id="Vector_27" d="M42.7535 25.2291C43.7079 25.2291 44.4816 24.5389 44.4816 23.6874C44.4816 22.8359 43.7079 22.1457 42.7535 22.1457C41.7991 22.1457 41.0254 22.8359 41.0254 23.6874C41.0254 24.5389 41.7991 25.2291 42.7535 25.2291Z" fill="#FFC9B0"/>
<path id="Vector_28" d="M42.7536 25.4022C41.7081 25.4022 40.8566 24.6331 40.8566 23.6873C40.8566 22.7415 41.7081 21.9706 42.7536 21.9706C43.7992 21.9706 44.6491 22.7415 44.6491 23.6873C44.6491 24.6331 43.7992 25.4022 42.7536 25.4022ZM42.7536 22.3171C41.8921 22.3171 41.1911 22.932 41.1911 23.6873C41.1911 24.4426 41.8921 25.0558 42.7536 25.0558C43.6152 25.0558 44.3145 24.4426 44.3145 23.6873C44.3145 22.932 43.6135 22.3171 42.7536 22.3171Z" fill="#093F68"/>
<path id="Vector_29" d="M37.7599 28.7142C37.075 28.7144 36.3969 28.5749 35.7641 28.3037C35.1314 28.0324 34.5564 27.6347 34.0722 27.1333C33.5879 26.6318 33.2039 26.0365 32.9419 25.3813C32.6799 24.7261 32.5452 24.0239 32.5454 23.3148V20.9433C32.5454 20.5467 32.4367 19.956 32.5454 19.5749C32.6257 19.3081 32.8699 19.2111 33.0473 19.0136C33.3019 18.7361 33.4693 18.3852 33.5274 18.0072C33.7536 18.1369 34.0066 18.2086 34.2651 18.2161C34.5236 18.2237 34.78 18.1669 35.0129 18.0505C35.476 17.813 35.8775 17.4644 36.184 17.0337C36.413 17.2353 36.6799 17.3856 36.9678 17.475C37.2558 17.5645 37.5585 17.5911 37.8569 17.5533C38.4554 17.4741 39.025 17.24 39.5131 16.8726C39.7707 17.5793 40.2257 18.2376 40.8748 18.5806C41.4821 18.8993 42.5042 18.9374 42.9542 18.3086C43.0663 19.9577 42.9542 21.6553 42.9542 23.3096C42.956 24.7391 42.4101 26.1109 41.4363 27.1241C40.4625 28.1373 39.1403 28.7092 37.7599 28.7142Z" fill="#FFC9B0"/>
<path id="Vector_30" d="M37.7598 28.8876C36.3329 28.8862 34.9648 28.2986 33.9558 27.2539C32.9468 26.2091 32.3794 24.7925 32.3781 23.3149V20.9435C32.3781 20.8274 32.368 20.6888 32.3563 20.5416C32.3103 20.2031 32.3222 19.8589 32.3915 19.5248C32.4616 19.3301 32.5907 19.1642 32.7595 19.0519C32.8217 19.0039 32.8805 18.9512 32.9352 18.8942C33.167 18.6423 33.3192 18.3233 33.3718 17.9796C33.3761 17.9513 33.3872 17.9246 33.4039 17.9018C33.4207 17.879 33.4427 17.8608 33.4679 17.849C33.4931 17.8371 33.5207 17.832 33.5483 17.8339C33.5759 17.8358 33.6026 17.8448 33.6261 17.8601C33.8289 17.9749 34.0553 18.0378 34.2864 18.0435C34.5174 18.0492 34.7465 17.9976 34.9544 17.893C35.3955 17.6684 35.7773 17.3361 36.0669 16.9247C36.0812 16.9063 36.099 16.8912 36.1192 16.8803C36.1393 16.8693 36.1615 16.8628 36.1842 16.861C36.2069 16.8592 36.2297 16.8622 36.2512 16.8699C36.2728 16.8776 36.2926 16.8897 36.3094 16.9056C36.5207 17.0929 36.7671 17.2329 37.0331 17.317C37.299 17.401 37.5789 17.4273 37.8552 17.3941C38.4259 17.3191 38.9688 17.095 39.4327 16.7428C39.4535 16.728 39.4773 16.7184 39.5022 16.7145C39.5271 16.7106 39.5525 16.7125 39.5766 16.7203C39.6011 16.7282 39.6235 16.7418 39.642 16.7602C39.6606 16.7785 39.6749 16.801 39.6837 16.8259C39.9564 17.576 40.4114 18.1494 40.9651 18.4404C41.467 18.7071 42.4306 18.7868 42.8338 18.2204C42.854 18.1919 42.8821 18.1705 42.9144 18.159C42.9467 18.1476 42.9816 18.1466 43.0145 18.1563C43.0474 18.1661 43.0765 18.1862 43.0981 18.2138C43.1196 18.2413 43.1325 18.2751 43.1349 18.3105C43.2102 19.4295 43.1868 20.5814 43.1633 21.6953C43.1516 22.2305 43.1399 22.7849 43.1399 23.3236C43.1364 24.7993 42.5682 26.2135 41.5598 27.2563C40.5514 28.2992 39.185 28.8857 37.7598 28.8876ZM33.6545 18.2602C33.5658 18.5843 33.4029 18.8815 33.1794 19.1263C33.1127 19.1958 33.0411 19.2601 32.9653 19.3186C32.852 19.3897 32.7631 19.4957 32.711 19.6218C32.6569 19.9154 32.6501 20.2162 32.6909 20.5121C32.701 20.6663 32.7127 20.8118 32.7127 20.9417V23.3132C32.7005 24.0074 32.822 24.6972 33.0701 25.3422C33.3182 25.9872 33.688 26.5746 34.1578 27.07C34.6276 27.5654 35.188 27.9589 35.8063 28.2276C36.4247 28.4962 37.0885 28.6345 37.759 28.6345C38.4295 28.6345 39.0934 28.4962 39.7117 28.2276C40.33 27.9589 40.8904 27.5654 41.3602 27.07C41.83 26.5746 42.1998 25.9872 42.4479 25.3422C42.696 24.6972 42.8175 24.0074 42.8053 23.3132C42.8053 22.771 42.817 22.2149 42.8288 21.6762C42.8488 20.694 42.8706 19.6824 42.8288 18.6967C42.28 19.0969 41.4218 19.0553 40.8213 18.7383C40.2014 18.3837 39.7195 17.8174 39.4578 17.136C38.9887 17.4569 38.4537 17.6598 37.8953 17.7284C37.3026 17.802 36.7049 17.6405 36.2224 17.2763C35.9191 17.6715 35.533 17.9902 35.0932 18.2083C34.8689 18.3159 34.626 18.376 34.3789 18.3849C34.1319 18.3938 33.8855 18.3514 33.6545 18.2602Z" fill="#093F68"/>
<path id="Vector_31" d="M37.7465 24.3056C37.5717 24.3044 37.3973 24.2899 37.2245 24.2623C37.2029 24.2583 37.1822 24.25 37.1637 24.2377C37.1452 24.2255 37.1291 24.2096 37.1166 24.1909C37.104 24.1723 37.0951 24.1512 37.0903 24.129C37.0856 24.1068 37.0852 24.0838 37.089 24.0614C37.0929 24.039 37.1009 24.0176 37.1127 23.9984C37.1246 23.9792 37.1399 23.9626 37.158 23.9496C37.176 23.9365 37.1963 23.9273 37.2178 23.9224C37.2392 23.9175 37.2614 23.9171 37.2831 23.9211C37.5463 23.964 37.8145 23.964 38.0777 23.9211C38.1112 23.7617 37.9104 23.1658 37.626 22.608C37.614 22.5877 37.6061 22.5651 37.6029 22.5416C37.5997 22.518 37.6012 22.494 37.6073 22.4711C37.6134 22.4481 37.6241 22.4268 37.6385 22.4083C37.653 22.3898 37.671 22.3746 37.6914 22.3636C37.7118 22.3526 37.7341 22.3461 37.7571 22.3445C37.78 22.3428 37.803 22.3461 37.8246 22.3541C37.8463 22.3621 37.8661 22.3746 37.8829 22.3909C37.8997 22.4071 37.913 22.4268 37.9221 22.4487C38.1112 22.8211 38.5311 23.7253 38.3772 24.0804C38.3599 24.1229 38.3334 24.1606 38.2998 24.1906C38.2661 24.2207 38.2262 24.2423 38.1831 24.2537C38.0401 24.2893 37.8935 24.3067 37.7465 24.3056Z" fill="#093F68"/>
<path id="Vector_32" d="M36.5972 20.1656H34.041C33.9523 20.1656 33.8672 20.1291 33.8044 20.0641C33.7417 19.9992 33.7064 19.9111 33.7064 19.8192C33.7064 19.7273 33.7417 19.6392 33.8044 19.5742C33.8672 19.5092 33.9523 19.4727 34.041 19.4727H36.5972C36.6859 19.4727 36.771 19.5092 36.8338 19.5742C36.8965 19.6392 36.9318 19.7273 36.9318 19.8192C36.9318 19.9111 36.8965 19.9992 36.8338 20.0641C36.771 20.1291 36.6859 20.1656 36.5972 20.1656Z" fill="#093F68"/>
<path id="Vector_33" d="M41.3165 20.1656H38.7587C38.6699 20.1656 38.5848 20.1291 38.5221 20.0641C38.4593 19.9992 38.4241 19.9111 38.4241 19.8192C38.4241 19.7273 38.4593 19.6392 38.5221 19.5742C38.5848 19.5092 38.6699 19.4727 38.7587 19.4727H41.3149C41.4036 19.4727 41.4887 19.5092 41.5514 19.5742C41.6142 19.6392 41.6494 19.7273 41.6494 19.8192C41.6494 19.9111 41.6142 19.9992 41.5514 20.0641C41.4887 20.1291 41.4036 20.1656 41.3149 20.1656H41.3165Z" fill="#093F68"/>
<path id="Vector_34" d="M33.8118 21.1063H36.823C36.9366 21.1063 37.0455 21.153 37.1258 21.2362C37.2062 21.3194 37.2513 21.4322 37.2513 21.5498V21.8391C37.2513 22.2355 37.0992 22.6158 36.8284 22.8961C36.5577 23.1765 36.1905 23.334 35.8076 23.334H34.8256C34.4427 23.334 34.0754 23.1765 33.8047 22.8961C33.5339 22.6158 33.3818 22.2355 33.3818 21.8391V21.5515C33.3816 21.493 33.3926 21.435 33.4141 21.3809C33.4356 21.3268 33.4673 21.2776 33.5073 21.2362C33.5472 21.1948 33.5947 21.162 33.647 21.1397C33.6992 21.1175 33.7553 21.1061 33.8118 21.1063Z" fill="white"/>
<path id="Vector_35" d="M35.8092 23.5089H34.8289C34.4013 23.5085 33.9914 23.3324 33.689 23.0193C33.3867 22.7063 33.2166 22.2818 33.2162 21.839V21.5515C33.2166 21.3881 33.2795 21.2315 33.3911 21.1159C33.5027 21.0004 33.6539 20.9353 33.8117 20.9348H36.823C36.9806 20.9353 37.1317 21.0004 37.243 21.116C37.3543 21.2316 37.4169 21.3882 37.4169 21.5515V21.8408C37.4164 22.2825 37.247 22.706 36.9457 23.0186C36.6444 23.3313 36.2357 23.5076 35.8092 23.5089ZM33.8117 21.2795C33.7425 21.2795 33.6761 21.308 33.6272 21.3587C33.5783 21.4094 33.5508 21.4781 33.5508 21.5498V21.839C33.5512 22.1899 33.686 22.5263 33.9256 22.7744C34.1652 23.0224 34.49 23.162 34.8289 23.1625H35.8092C36.1479 23.162 36.4725 23.0224 36.7119 22.7742C36.9512 22.5261 37.0856 22.1897 37.0856 21.839V21.5515C37.0858 21.5161 37.0793 21.481 37.0664 21.4482C37.0534 21.4154 37.0344 21.3856 37.0103 21.3605C36.9862 21.3354 36.9575 21.3155 36.9259 21.3019C36.8944 21.2883 36.8605 21.2813 36.8263 21.2813L33.8117 21.2795Z" fill="#093F68"/>
<path id="Vector_36" d="M38.6732 21.1063H41.6845C41.798 21.1063 41.907 21.153 41.9873 21.2362C42.0676 21.3194 42.1127 21.4322 42.1127 21.5498V21.8391C42.1127 22.2355 41.9606 22.6158 41.6899 22.8961C41.4191 23.1765 41.0519 23.334 40.669 23.334H39.687C39.3041 23.334 38.9369 23.1765 38.6661 22.8961C38.3954 22.6158 38.2433 22.2355 38.2433 21.8391V21.5515C38.2431 21.493 38.254 21.435 38.2756 21.3809C38.2971 21.3268 38.3288 21.2776 38.3687 21.2362C38.4087 21.1948 38.4562 21.162 38.5084 21.1397C38.5607 21.1175 38.6167 21.1061 38.6732 21.1063Z" fill="white"/>
<path id="Vector_37" d="M40.6706 23.5089H39.6887C39.2612 23.5085 38.8515 23.3323 38.5494 23.0192C38.2473 22.7061 38.0776 22.2816 38.0776 21.839V21.5515C38.0781 21.3881 38.141 21.2315 38.2526 21.1159C38.3642 21.0004 38.5154 20.9353 38.6732 20.9348H41.6844C41.8424 20.9348 41.9939 20.9998 42.1056 21.1154C42.2172 21.2311 42.28 21.3879 42.28 21.5515V21.8408C42.2795 22.2828 42.1099 22.7065 41.8082 23.0192C41.5066 23.3319 41.0975 23.508 40.6706 23.5089ZM38.6732 21.2795C38.6388 21.2795 38.6047 21.2866 38.5729 21.3003C38.5412 21.314 38.5123 21.334 38.4881 21.3593C38.4638 21.3846 38.4446 21.4146 38.4316 21.4475C38.4186 21.4805 38.412 21.5159 38.4122 21.5515V21.8408C38.4122 22.1915 38.5466 22.5278 38.786 22.776C39.0253 23.0241 39.35 23.1638 39.6887 23.1642H40.6706C41.0093 23.1638 41.334 23.0241 41.5733 22.776C41.8127 22.5278 41.9471 22.1915 41.9471 21.8408V21.5515C41.9471 21.4798 41.9196 21.4111 41.8706 21.3604C41.8217 21.3097 41.7553 21.2813 41.6861 21.2813L38.6732 21.2795Z" fill="#093F68"/>
<path id="Vector_38" d="M33.3836 22.0122H32.4133C32.3689 22.0122 32.3263 21.9939 32.295 21.9614C32.2636 21.9289 32.246 21.8849 32.246 21.8389C32.246 21.793 32.2636 21.7489 32.295 21.7164C32.3263 21.684 32.3689 21.6657 32.4133 21.6657H33.3836C33.4279 21.6657 33.4705 21.684 33.5018 21.7164C33.5332 21.7489 33.5508 21.793 33.5508 21.8389C33.5508 21.8849 33.5332 21.9289 33.5018 21.9614C33.4705 21.9939 33.4279 22.0122 33.3836 22.0122Z" fill="#093F68"/>
<path id="Vector_39" d="M43.135 22.0122H42.163C42.1187 22.0122 42.0761 21.9939 42.0447 21.9614C42.0134 21.9289 41.9957 21.8849 41.9957 21.8389C41.9957 21.793 42.0134 21.7489 42.0447 21.7164C42.0761 21.684 42.1187 21.6657 42.163 21.6657H43.135C43.1793 21.6657 43.2219 21.684 43.2533 21.7164C43.2846 21.7489 43.3023 21.793 43.3023 21.8389C43.3023 21.8849 43.2846 21.9289 43.2533 21.9614C43.2219 21.9939 43.1793 22.0122 43.135 22.0122Z" fill="#093F68"/>
<path id="Vector_40" d="M38.245 22.0122H37.253C37.2086 22.0122 37.1661 21.9939 37.1347 21.9614C37.1033 21.9289 37.0857 21.8849 37.0857 21.8389C37.0857 21.793 37.1033 21.7489 37.1347 21.7164C37.1661 21.684 37.2086 21.6657 37.253 21.6657H38.245C38.2894 21.6657 38.3319 21.684 38.3633 21.7164C38.3947 21.7489 38.4123 21.793 38.4123 21.8389C38.4123 21.8849 38.3947 21.9289 38.3633 21.9614C38.3319 21.9939 38.2894 22.0122 38.245 22.0122Z" fill="#093F68"/>
<path id="Vector_41" d="M37.6493 25.9773C37.0524 25.9797 36.4602 25.8675 35.9028 25.6464C35.8613 25.6299 35.8279 25.5969 35.8098 25.5549C35.7918 25.5128 35.7906 25.465 35.8066 25.4221C35.8226 25.3791 35.8544 25.3445 35.895 25.3258C35.9356 25.3071 35.9818 25.3059 36.0232 25.3225C37.0912 25.7232 38.261 25.7232 39.3289 25.3225C39.37 25.3048 39.4161 25.3047 39.4572 25.3222C39.4983 25.3398 39.531 25.3735 39.5481 25.416C39.5651 25.4585 39.5652 25.5063 39.5483 25.5488C39.5313 25.5914 39.4988 25.6252 39.4577 25.6429C38.8795 25.8671 38.2667 25.9804 37.6493 25.9773Z" fill="#093F68"/>
<path id="Vector_42" d="M43.9663 40.6928L38.516 40.1385V32.4335L42.884 32.7799C43.5096 32.9029 43.9663 33.5317 43.9663 34.2662V40.6928Z" fill="white"/>
<path id="Vector_43" d="M43.9664 40.8661H43.9497L38.4993 40.3135C38.4579 40.3092 38.4195 40.2891 38.3917 40.2571C38.3639 40.225 38.3486 40.1834 38.3488 40.1403V32.4335C38.3486 32.4095 38.3533 32.3857 38.3625 32.3636C38.3717 32.3415 38.3853 32.3217 38.4023 32.3053C38.4193 32.2891 38.4394 32.2768 38.4613 32.269C38.4832 32.2613 38.5064 32.2583 38.5294 32.2603L42.8974 32.6068H42.9158C43.6218 32.7453 44.1337 33.4417 44.1337 34.2628V40.6929C44.1336 40.7171 44.1287 40.741 44.1192 40.763C44.1097 40.7851 44.0958 40.8049 44.0785 40.8211C44.0478 40.85 44.0078 40.866 43.9664 40.8661ZM38.6833 39.9827L43.7991 40.5023V34.2663C43.7991 33.6149 43.406 33.0641 42.8623 32.9515L38.68 32.6258L38.6833 39.9827Z" fill="#093F68"/>
<path id="Vector_44" d="M49.4199 40.1385L43.9696 40.6929V34.2593C43.9696 33.5248 44.4263 32.896 45.052 32.773L49.4199 32.4266V40.1385Z" fill="white"/>
<path id="Vector_45" d="M43.9664 40.866C43.9249 40.8659 43.885 40.8499 43.8543 40.821C43.8369 40.8048 43.8231 40.785 43.8136 40.763C43.8041 40.7409 43.7991 40.717 43.7991 40.6928V34.2592C43.7991 33.4382 44.311 32.7418 45.017 32.6032H45.0354L49.405 32.2568C49.4278 32.255 49.4506 32.2581 49.4722 32.2658C49.4938 32.2736 49.5136 32.2858 49.5305 32.3018C49.5475 32.3182 49.561 32.338 49.5703 32.3601C49.5795 32.3821 49.5842 32.4059 49.584 32.43V40.1385C49.5842 40.1816 49.5689 40.2232 49.5411 40.2552C49.5132 40.2873 49.4748 40.3074 49.4334 40.3117L43.9831 40.8643L43.9664 40.866ZM45.0705 32.9445C44.5268 33.0571 44.1337 33.6079 44.1337 34.2592V40.4953L49.2494 39.9757V32.6188L45.0705 32.9445Z" fill="#093F68"/>
<path id="Vector_46" d="M43.0746 41.5849L37.8618 41.0305V33.3255L43.0746 33.8781V41.5849Z" fill="#FFBC0E"/>
<path id="Vector_47" d="M43.0748 41.7582H43.0631L37.8503 41.2056C37.8089 41.2013 37.7705 41.1811 37.7426 41.1491C37.7148 41.1171 37.6995 41.0755 37.6997 41.0324V33.3308C37.6998 33.3066 37.7047 33.2827 37.7142 33.2606C37.7237 33.2386 37.7376 33.2188 37.7549 33.2026C37.7714 33.1871 37.7906 33.1751 37.8116 33.1673C37.8326 33.1596 37.8548 33.1563 37.877 33.1576L43.0898 33.7101C43.1312 33.7145 43.1696 33.7346 43.1974 33.7666C43.2253 33.7986 43.2406 33.8403 43.2404 33.8834V41.5901C43.2403 41.6143 43.2354 41.6382 43.2259 41.6603C43.2164 41.6824 43.2025 41.7021 43.1852 41.7183C43.1542 41.7449 43.115 41.7591 43.0748 41.7582ZM38.0293 40.8747L42.9075 41.3944V34.0341L38.0293 33.5144V40.8747Z" fill="#093F68"/>
<path id="Vector_48" d="M50.0708 41.0305L44.858 41.5849V33.8781L50.0708 33.3255V41.0305Z" fill="#FFBC0E"/>
<path id="Vector_49" d="M44.858 41.758C44.8165 41.7579 44.7766 41.7419 44.7459 41.713C44.7286 41.6968 44.7147 41.677 44.7052 41.6549C44.6957 41.6329 44.6907 41.609 44.6907 41.5848V33.878C44.6905 33.8349 44.7058 33.7933 44.7336 33.7613C44.7615 33.7292 44.7998 33.7091 44.8412 33.7048L50.054 33.1574C50.0772 33.1549 50.1007 33.1575 50.1229 33.165C50.145 33.1724 50.1655 33.1846 50.1828 33.2007C50.2002 33.2169 50.214 33.2367 50.2235 33.2588C50.2331 33.2808 50.238 33.3047 50.238 33.3289V41.0357C50.2383 41.0788 50.2229 41.1204 50.1951 41.1524C50.1673 41.1845 50.1289 41.2046 50.0875 41.2089L44.8747 41.7615L44.858 41.758ZM45.0253 34.0339V41.3925L49.9035 40.8728V33.516L45.0253 34.0339Z" fill="#093F68"/>
<path id="Vector_50" d="M43.0747 41.5832H44.858V33.8764H43.0747V41.5832Z" fill="#FFBC0E"/>
<path id="Vector_51" d="M44.8581 41.7581H43.0748C43.0304 41.7581 42.9878 41.7399 42.9565 41.7074C42.9251 41.6749 42.9075 41.6308 42.9075 41.5849V33.8781C42.9075 33.8322 42.9251 33.7881 42.9565 33.7556C42.9878 33.7231 43.0304 33.7049 43.0748 33.7049H44.8581C44.9025 33.7049 44.945 33.7231 44.9764 33.7556C45.0077 33.7881 45.0254 33.8322 45.0254 33.8781V41.5849C45.0254 41.6308 45.0077 41.6749 44.9764 41.7074C44.945 41.7399 44.9025 41.7581 44.8581 41.7581ZM43.2421 41.4117H44.6908V34.0513H43.2421V41.4117Z" fill="#093F68"/>
<path id="Vector_52" d="M50.4355 37.7652C50.3996 37.7299 50.3568 37.7029 50.3101 37.6858C50.2634 37.6688 50.2138 37.6622 50.1644 37.6665C49.8583 37.7236 49.9436 38.4546 49.6291 38.6261C49.3882 38.7561 48.7927 38.6469 48.5099 38.6694C48.3466 38.6665 48.1862 38.7148 48.0499 38.808C47.9471 38.91 47.8726 39.0386 47.8341 39.1805C47.6697 39.6473 47.5514 40.1302 47.4811 40.6217C47.3556 41.4878 47.9662 41.4878 48.6237 41.571C48.9944 41.6044 49.3675 41.5453 49.7116 41.3985C50.0557 41.2517 50.3607 41.0215 50.6011 40.7274C50.8086 40.451 50.9536 40.13 51.0254 39.7879C51.0972 39.4459 51.094 39.0915 51.016 38.7509C50.9006 38.3793 50.7016 38.0415 50.4355 37.7652Z" fill="#FFC9B0"/>
<path id="Vector_53" d="M48.8362 41.7564C48.7591 41.7567 48.6821 41.7527 48.6054 41.7443L48.4816 41.7304C48.0617 41.6837 47.6652 41.6386 47.4461 41.3459C47.3757 41.2368 47.3278 41.114 47.3054 40.9849C47.2829 40.8559 47.2864 40.7234 47.3156 40.5958C47.3881 40.0926 47.5092 39.5982 47.6769 39.1199C47.7179 38.9307 47.8237 38.7633 47.9747 38.6487C48.1257 38.534 48.3117 38.4799 48.4983 38.4963C48.6288 38.491 48.7596 38.4939 48.8898 38.505C49.119 38.5189 49.4335 38.5362 49.5589 38.4721C49.6476 38.4236 49.6978 38.2348 49.7413 38.0702C49.8065 37.8242 49.8818 37.5505 50.1411 37.4968C50.2142 37.4868 50.2885 37.4935 50.3587 37.5166C50.429 37.5396 50.4935 37.5784 50.5476 37.6302C50.8672 37.897 51.1298 38.4963 51.185 38.7042C51.2684 39.0717 51.2716 39.4538 51.1943 39.8226C51.117 40.1915 50.9613 40.5379 50.7383 40.8366C50.5034 41.1221 50.212 41.3519 49.8839 41.5106C49.5557 41.6693 49.1984 41.7532 48.8362 41.7564ZM48.6004 38.8393H48.5234C48.4633 38.8287 48.4017 38.8306 48.3423 38.8448C48.2828 38.8591 48.2267 38.8854 48.1772 38.9223C48.1277 38.9593 48.0858 39.006 48.0539 39.0598C48.022 39.1137 48.0008 39.1736 47.9914 39.236C47.831 39.6916 47.7156 40.1629 47.6468 40.6426C47.6256 40.7241 47.6204 40.8092 47.6316 40.8928C47.6428 40.9765 47.6702 41.0569 47.712 41.1294C47.8425 41.3026 48.1704 41.3424 48.5184 41.3823L48.6422 41.3961C48.9851 41.4264 49.3299 41.3713 49.648 41.2354C49.9661 41.0995 50.2482 40.8867 50.4707 40.6149C50.662 40.3604 50.7958 40.0648 50.8624 39.7498C50.929 39.4347 50.9266 39.1082 50.8554 38.7943C50.7496 38.4572 50.5698 38.1501 50.3301 37.897C50.2938 37.8586 50.2448 37.8357 50.193 37.8329C50.1411 37.8433 50.0892 38.0408 50.0575 38.1585C49.9956 38.3924 49.9253 38.6557 49.7078 38.7752C49.4903 38.8947 49.1842 38.8653 48.8714 38.848C48.7727 38.8445 48.6773 38.8393 48.6004 38.8393Z" fill="#093F68"/>
<path id="Vector_54" d="M46.0744 36.7364C46.0329 36.7363 45.993 36.7203 45.9623 36.6914C45.945 36.6752 45.9311 36.6554 45.9216 36.6333C45.9121 36.6113 45.9072 36.5874 45.9071 36.5632V35.3593C45.9069 35.3159 45.9225 35.2741 45.9507 35.242C45.9789 35.2099 46.0176 35.19 46.0593 35.1861L49.0237 34.8898C49.0471 34.8876 49.0706 34.8904 49.0928 34.8982C49.115 34.906 49.1353 34.9185 49.1526 34.9349C49.1699 34.9511 49.1837 34.9709 49.1933 34.9929C49.2028 35.015 49.2077 35.0389 49.2078 35.0631V36.2756C49.2079 36.319 49.1924 36.3609 49.1642 36.3929C49.136 36.425 49.0972 36.445 49.0555 36.4489L46.0878 36.7416L46.0744 36.7364ZM46.2417 35.5238V36.3796L48.8748 36.1197V35.264L46.2417 35.5238Z" fill="#093F68"/>
<path id="Vector_55" d="M34.0411 40.8659C34.0127 40.866 33.9847 40.8585 33.9598 40.8443C33.9349 40.8301 33.914 40.8095 33.8989 40.7845C33.8871 40.7653 33.8791 40.7439 33.8754 40.7214C33.8716 40.699 33.8722 40.6761 33.877 40.6539C33.8818 40.6317 33.8908 40.6107 33.9035 40.5921C33.9161 40.5735 33.9322 40.5576 33.9507 40.5455L36.507 38.8617C36.5255 38.8495 36.5462 38.8413 36.5679 38.8374C36.5895 38.8335 36.6117 38.8341 36.6331 38.8391C36.6546 38.844 36.6748 38.8533 36.6928 38.8665C36.7108 38.8796 36.7261 38.8962 36.7378 38.9154C36.7617 38.954 36.7698 39.0009 36.7604 39.0457C36.751 39.0905 36.7248 39.1296 36.6876 39.1545L34.1297 40.8382C34.1035 40.8565 34.0727 40.8661 34.0411 40.8659Z" fill="white"/>
<path id="Vector_56" d="M34.1683 22.6029C34.1437 22.6029 34.1195 22.5974 34.0972 22.5866C34.0749 22.5758 34.0552 22.5601 34.0395 22.5405C34.0254 22.523 34.0148 22.5028 34.0083 22.4811C34.0017 22.4593 33.9994 22.4364 34.0014 22.4137C34.0035 22.391 34.0098 22.369 34.02 22.3488C34.0303 22.3287 34.0443 22.3108 34.0613 22.2963L35.065 21.4302C35.0819 21.4156 35.1014 21.4046 35.1224 21.3978C35.1434 21.3911 35.1655 21.3887 35.1875 21.3907C35.2094 21.3928 35.2307 21.3994 35.2501 21.41C35.2696 21.4206 35.2868 21.4351 35.3009 21.4527C35.315 21.4702 35.3256 21.4904 35.3321 21.5122C35.3386 21.5339 35.341 21.5568 35.3389 21.5795C35.3369 21.6022 35.3306 21.6242 35.3203 21.6444C35.3101 21.6645 35.2961 21.6824 35.2791 21.6969L34.2754 22.5631C34.2453 22.5889 34.2074 22.603 34.1683 22.6029Z" fill="#DFEAEF"/>
<path id="Vector_57" d="M35.821 22.5509C35.7969 22.5511 35.7731 22.546 35.7512 22.5358C35.7293 22.5257 35.7097 22.5107 35.6938 22.492C35.6648 22.4573 35.6502 22.4121 35.6534 22.3663C35.6565 22.3205 35.6771 22.2779 35.7106 22.2478L36.2275 21.7801C36.2439 21.7643 36.2633 21.7522 36.2844 21.7443C36.3055 21.7365 36.3279 21.7331 36.3502 21.7344C36.3726 21.7357 36.3945 21.7416 36.4146 21.7518C36.4347 21.762 36.4526 21.7763 36.4673 21.7938C36.482 21.8114 36.4931 21.8318 36.5001 21.8538C36.507 21.8759 36.5096 21.8992 36.5076 21.9223C36.5057 21.9454 36.4993 21.9679 36.4888 21.9884C36.4784 22.0089 36.464 22.027 36.4466 22.0416L35.9297 22.5076C35.8996 22.5351 35.8611 22.5504 35.821 22.5509Z" fill="#DFEAEF"/>
<path id="Vector_58" d="M39.3207 22.4436C39.2865 22.4436 39.2532 22.4327 39.2251 22.4125C39.197 22.3922 39.1757 22.3636 39.1638 22.3304C39.152 22.2971 39.1502 22.261 39.1588 22.2267C39.1675 22.1924 39.186 22.1617 39.212 22.1387L40.0719 21.3817C40.0887 21.367 40.1081 21.3559 40.1291 21.349C40.15 21.3421 40.1721 21.3396 40.194 21.3415C40.2159 21.3434 40.2372 21.3498 40.2567 21.3603C40.2763 21.3707 40.2936 21.3851 40.3078 21.4025C40.3219 21.4199 40.3327 21.44 40.3393 21.4617C40.346 21.4834 40.3484 21.5062 40.3466 21.5289C40.3447 21.5516 40.3386 21.5737 40.3285 21.5939C40.3183 21.6141 40.3045 21.6321 40.2877 21.6467L39.4295 22.402C39.3992 22.4288 39.3606 22.4436 39.3207 22.4436Z" fill="#DFEAEF"/>
<path id="Vector_59" d="M40.5318 22.8211C40.5061 22.8208 40.4809 22.8144 40.4579 22.8024C40.435 22.7904 40.4151 22.7731 40.3997 22.7518C40.3729 22.7153 40.3612 22.6692 40.3671 22.6237C40.3731 22.5783 40.3962 22.5371 40.4315 22.5093L41.2679 21.8614C41.2851 21.8453 41.3054 21.833 41.3274 21.8254C41.3495 21.8178 41.3728 21.8151 41.3959 21.8174C41.4191 21.8196 41.4415 21.8268 41.4618 21.8386C41.482 21.8503 41.4997 21.8663 41.5137 21.8855C41.5277 21.9047 41.5377 21.9267 41.543 21.9501C41.5484 21.9735 41.5489 21.9978 41.5447 22.0214C41.5404 22.0451 41.5315 22.0676 41.5184 22.0874C41.5053 22.1073 41.4884 22.1241 41.4687 22.1368L40.6322 22.7864C40.6029 22.8083 40.5679 22.8204 40.5318 22.8211Z" fill="#DFEAEF"/>
</g>
</g>
</svg>
