<svg width="300" height="300" viewBox="0 0 300 300" fill="none" xmlns="http://www.w3.org/2000/svg">
<path opacity="0.4" d="M263.625 268.75C263.625 272.25 260.875 275 257.375 275H42.625C39.125 275 36.375 272.25 36.375 268.75C36.375 217 87.375 175 150 175C162.875 175 175.375 176.75 186.875 180.125C179.5 188.875 175 200.25 175 212.5C175 221.875 177.625 230.75 182.25 238.25C184.75 242.5 188 246.375 191.75 249.625C200.5 257.625 212.125 262.5 225 262.5C239 262.5 251.625 256.75 260.625 247.5C262.625 254.25 263.625 261.375 263.625 268.75Z" fill="white"/>
<path d="M273.501 200.5C272.251 195.625 270.251 190.75 267.501 186.375C265.626 183.125 263.126 180 260.376 177.125C251.376 168.125 239.626 163.25 227.626 162.625C214.001 161.75 200.126 166.75 189.626 177.125C179.751 187 174.751 200.125 175.001 213.25C175.126 225.75 180.126 238.251 189.626 247.876C196.251 254.501 204.376 258.875 213.001 260.875C217.751 262.125 222.751 262.625 227.751 262.25C239.626 261.75 251.251 257.001 260.376 247.876C273.251 235.001 277.626 216.875 273.501 200.5ZM245.001 232.5C241.376 236.125 235.376 236.125 231.751 232.5L224.876 225.625L218.251 232.251C214.626 235.876 208.626 235.876 205.001 232.251C201.376 228.501 201.376 222.626 205.001 219.001L211.626 212.375L205.251 206.125C201.626 202.375 201.626 196.5 205.251 192.75C209.001 189.125 214.876 189.125 218.626 192.75L224.876 199.125L231.501 192.501C235.126 188.876 241.001 188.876 244.751 192.501C248.376 196.126 248.376 202.126 244.751 205.751L238.126 212.375L245.001 219.25C248.626 222.875 248.626 228.875 245.001 232.5Z" fill="white"/>
<path d="M150 150C184.518 150 212.5 122.018 212.5 87.5C212.5 52.9822 184.518 25 150 25C115.482 25 87.5 52.9822 87.5 87.5C87.5 122.018 115.482 150 150 150Z" fill="white"/>
</svg>
