<svg width="40" height="49" viewBox="0 0 40 49" fill="none" xmlns="http://www.w3.org/2000/svg">
<g opacity="0.3">
<path opacity="0.3" d="M27.934 9.85C26.8406 9.84894 25.7922 9.41408 25.0191 8.64091C24.2459 7.86774 23.811 6.8194 23.81 5.72597V0H5.382C3.9546 0 2.58567 0.567046 1.57635 1.57637C0.567031 2.58569 0 3.95459 0 5.38198V37.826C0.00211967 39.252 0.570087 40.6189 1.57918 41.6264C2.58827 42.634 3.95599 43.2 5.382 43.2H27.502C28.2089 43.2002 28.909 43.0613 29.5622 42.7909C30.2154 42.5205 30.809 42.1241 31.3089 41.6243C31.8089 41.1246 32.2055 40.5312 32.4761 39.8781C32.7467 39.225 32.886 38.5249 32.886 37.818V9.84199L27.934 9.85Z" fill="#00C650"/>
</g>
<path d="M32.8861 9.85H27.9341C26.8406 9.84894 25.7923 9.41409 25.0191 8.64091C24.246 7.86774 23.8111 6.8194 23.8101 5.72597V0L32.8861 9.85Z" fill="#00C650"/>
<path d="M36.788 34.1221H11.78C10.0061 34.1221 8.56799 35.5601 8.56799 37.3341V44.7901C8.56799 46.564 10.0061 48.0021 11.78 48.0021H36.788C38.5619 48.0021 40 46.564 40 44.7901V37.3341C40 35.5601 38.5619 34.1221 36.788 34.1221Z" fill="#00C650"/>
<path d="M16.0981 42.624V44.074H14.6001V42.624H16.0981Z" fill="white"/>
<path d="M21.48 38.6278C21.9861 39.0374 22.3299 39.6138 22.45 40.2538H20.918C20.8158 39.9882 20.6351 39.7601 20.4 39.5998C20.1526 39.4376 19.8617 39.3546 19.566 39.3618C19.371 39.3559 19.1773 39.3949 18.9997 39.4757C18.8222 39.5564 18.6656 39.6769 18.542 39.8278C18.2671 40.1831 18.1288 40.6252 18.152 41.0738C18.1286 41.5206 18.2671 41.9609 18.542 42.3138C18.6661 42.4639 18.8229 42.5835 19.0004 42.6636C19.1779 42.7437 19.3713 42.782 19.566 42.7758C19.8617 42.783 20.1526 42.7 20.4 42.5378C20.635 42.3808 20.817 42.1563 20.922 41.8938H22.454C22.3314 42.5317 21.988 43.1061 21.484 43.5158C20.9432 43.9315 20.2735 44.1439 19.592 44.1158C19.0552 44.1276 18.5252 43.9942 18.058 43.7298C17.6202 43.4767 17.2657 43.1014 17.038 42.6498C16.7915 42.1595 16.6679 41.6166 16.678 41.0678C16.6677 40.5184 16.7912 39.9748 17.038 39.4838C17.2657 39.0323 17.6202 38.657 18.058 38.4038C18.5252 38.1394 19.0552 38.0061 19.592 38.0178C20.2732 37.9944 20.9412 38.2102 21.48 38.6278V38.6278Z" fill="white"/>
<path d="M27.3258 43.2598C27.1535 43.5349 26.9066 43.7554 26.6138 43.8958C26.2575 44.0626 25.8671 44.1434 25.4738 44.1318C24.8816 44.1558 24.2981 43.9836 23.8138 43.6418C23.6 43.4811 23.425 43.2743 23.3017 43.0368C23.1785 42.7994 23.1102 42.5373 23.1018 42.2699H24.6438C24.6545 42.4714 24.741 42.6614 24.8858 42.8018C25.0291 42.936 25.2197 43.0079 25.4158 43.0018C25.5767 43.01 25.7344 42.9555 25.8558 42.8498C25.9085 42.7977 25.9499 42.7353 25.9775 42.6665C26.005 42.5977 26.0181 42.5239 26.0158 42.4498C26.0177 42.3798 26.0056 42.3102 25.9802 42.2449C25.9548 42.1796 25.9166 42.1202 25.8678 42.0699C25.7628 41.9632 25.6377 41.8782 25.4998 41.8199C25.3518 41.7539 25.1498 41.6758 24.8898 41.5858C24.5724 41.4814 24.2624 41.3558 23.9618 41.2098C23.7148 41.0821 23.5027 40.8961 23.3438 40.6679C23.1611 40.3909 23.0708 40.0632 23.0858 39.7318C23.0777 39.4032 23.172 39.0803 23.3558 38.8078C23.5448 38.5417 23.8047 38.3338 24.1058 38.2078C24.4543 38.0668 24.828 37.9988 25.2038 38.0078C25.772 37.9778 26.3331 38.1452 26.7918 38.4818C26.9877 38.6406 27.148 38.8387 27.2623 39.0633C27.3767 39.2879 27.4426 39.5341 27.4558 39.7858H25.8898C25.8706 39.6099 25.7948 39.445 25.6738 39.3159C25.6113 39.2566 25.5374 39.2106 25.4566 39.1807C25.3759 39.1508 25.2899 39.1376 25.2038 39.1418C25.0544 39.1342 24.9074 39.1827 24.7918 39.2778C24.7378 39.3287 24.6957 39.391 24.6687 39.4602C24.6417 39.5294 24.6305 39.6037 24.6358 39.6778C24.6341 39.7441 24.6456 39.8101 24.6697 39.8719C24.6937 39.9337 24.7298 39.9901 24.7758 40.0378C24.875 40.1422 24.9949 40.2246 25.1279 40.2798C25.2678 40.3418 25.4718 40.4219 25.7278 40.5179C26.0511 40.6218 26.366 40.7502 26.6698 40.9018C26.919 41.0358 27.1334 41.2262 27.2958 41.4578C27.4813 41.7382 27.573 42.0701 27.5578 42.4058C27.5593 42.7063 27.4791 43.0015 27.3258 43.2598V43.2598Z" fill="white"/>
<path d="M29.4879 38.0859L30.9539 42.5919L32.4199 38.0859H33.9699L31.8859 44.074H30.0139L27.9379 38.0859H29.4879Z" fill="white"/>
<path d="M23.7779 30.1598H9.10791C7.83791 30.1598 6.80591 28.8958 6.80591 27.3398V16.7018C6.80591 15.1478 7.83791 13.8838 9.10791 13.8838H23.7779C25.0479 13.8838 26.0799 15.1478 26.0799 16.7018V27.3398C26.0799 28.8958 25.0479 30.1598 23.7779 30.1598ZM9.10791 15.3238C8.48791 15.3238 7.98191 15.9418 7.98191 16.7018V27.3398C7.98191 28.0998 8.48791 28.7178 9.10791 28.7178H23.7779C24.3979 28.7178 24.9019 28.0998 24.9019 27.3398V16.7018C24.9019 15.9418 24.3979 15.3238 23.7779 15.3238H9.10791Z" fill="#00C650"/>
<path d="M25.4919 23.7539H7.39392V25.1959H25.4919V23.7539Z" fill="#00C650"/>
<path d="M25.4919 18.8103H7.39392V20.2523H25.4919V18.8103Z" fill="#00C650"/>
<path d="M20.858 14.604H19.416V29.438H20.858V14.604Z" fill="#00C650"/>
<path d="M13.4698 14.604H12.0278V29.438H13.4698V14.604Z" fill="#00C650"/>
</svg>
