<svg width="40" height="48" viewBox="0 0 40 48" fill="none" xmlns="http://www.w3.org/2000/svg">
<g opacity="0.3">
<path opacity="0.3" d="M27.9326 9.84959C26.8392 9.84853 25.7909 9.4137 25.0178 8.64056C24.2447 7.86742 23.8099 6.81912 23.8088 5.72574V3.71692e-07H5.38374C4.67683 -0.000262324 3.97679 0.138723 3.32361 0.409065C2.67044 0.679407 2.07692 1.0758 1.57697 1.57557C1.07702 2.07534 0.680425 2.66871 0.409843 3.32179C0.13926 3.97486 -4.88096e-08 4.67485 0 5.38176V37.8244C-4.88096e-08 38.5313 0.13926 39.2313 0.409843 39.8844C0.680425 40.5375 1.07702 41.1309 1.57697 41.6306C2.07692 42.1304 2.67044 42.5268 3.32361 42.7971C3.97679 43.0674 4.67683 43.2065 5.38374 43.2062H27.5026C28.93 43.2062 30.2988 42.6392 31.3081 41.6299C32.3173 40.6206 32.8843 39.2517 32.8843 37.8244V9.84959H27.9326Z" fill="#0072FF"/>
</g>
<path d="M32.8844 9.84959H27.9327C26.8393 9.84853 25.791 9.4137 25.0179 8.64056C24.2447 7.86742 23.8099 6.81912 23.8088 5.72574V0L32.8844 9.84959Z" fill="#0072FF"/>
<path d="M26.1187 16.7453H5.47172C5.27335 16.7453 5.08311 16.6664 4.94284 16.5262C4.80257 16.3859 4.72376 16.1957 4.72376 15.9973C4.72349 15.8989 4.74266 15.8014 4.78013 15.7104C4.8176 15.6195 4.87265 15.5367 4.94213 15.4671C5.01161 15.3974 5.09414 15.3422 5.18501 15.3044C5.27589 15.2667 5.37333 15.2473 5.47172 15.2473H26.1187C26.3176 15.2473 26.5083 15.3263 26.649 15.467C26.7896 15.6076 26.8686 15.7984 26.8686 15.9973C26.8681 16.1958 26.7889 16.3861 26.6483 16.5263C26.5077 16.6665 26.3172 16.7453 26.1187 16.7453V16.7453Z" fill="#0072FF"/>
<path d="M26.1187 21.2191H5.47172C5.27335 21.2191 5.08311 21.1403 4.94284 21C4.80257 20.8598 4.72376 20.6695 4.72376 20.4712C4.72349 20.3728 4.74266 20.2753 4.78013 20.1843C4.8176 20.0933 4.87265 20.0106 4.94213 19.941C5.01161 19.8713 5.09414 19.816 5.18501 19.7783C5.27589 19.7406 5.37333 19.7212 5.47172 19.7212H26.1187C26.3176 19.7212 26.5083 19.8002 26.649 19.9408C26.7896 20.0815 26.8686 20.2723 26.8686 20.4712C26.8681 20.6697 26.7889 20.8599 26.6483 21.0001C26.5077 21.1404 26.3172 21.2191 26.1187 21.2191V21.2191Z" fill="#0072FF"/>
<path d="M26.1187 25.693H5.47172C5.37333 25.693 5.27589 25.6736 5.18501 25.6359C5.09414 25.5982 5.01161 25.5429 4.94213 25.4732C4.87265 25.4036 4.8176 25.3209 4.78013 25.2299C4.74266 25.1389 4.72349 25.0414 4.72376 24.943C4.72376 24.7447 4.80257 24.5544 4.94284 24.4142C5.08311 24.2739 5.27335 24.1951 5.47172 24.1951H26.1187C26.3172 24.1951 26.5077 24.2738 26.6483 24.414C26.7889 24.5542 26.8681 24.7445 26.8686 24.943C26.8686 25.1419 26.7896 25.3327 26.649 25.4733C26.5083 25.614 26.3176 25.693 26.1187 25.693Z" fill="#0072FF"/>
<path d="M17.9711 30.1669H5.47172C5.37333 30.1669 5.27589 30.1475 5.18501 30.1098C5.09414 30.072 5.01161 30.0167 4.94213 29.9471C4.87265 29.8774 4.8176 29.7947 4.78013 29.7038C4.74266 29.6128 4.72349 29.5153 4.72376 29.4169C4.72376 29.2185 4.80257 29.0283 4.94284 28.888C5.08311 28.7477 5.27335 28.6689 5.47172 28.6689H17.9711C18.1695 28.6689 18.3597 28.7477 18.5 28.888C18.6402 29.0283 18.7191 29.2185 18.7191 29.4169C18.7193 29.5153 18.7002 29.6128 18.6627 29.7038C18.6252 29.7947 18.5702 29.8774 18.5007 29.9471C18.4312 30.0167 18.3487 30.072 18.2578 30.1098C18.1669 30.1475 18.0695 30.1669 17.9711 30.1669Z" fill="#0072FF"/>
<path d="M36.7882 34.1206H11.7814C10.0076 34.1206 8.56958 35.5586 8.56958 37.3325V44.7882C8.56958 46.562 10.0076 48 11.7814 48H36.7882C38.562 48 40 46.562 40 44.7882V37.3325C40 35.5586 38.562 34.1206 36.7882 34.1206Z" fill="#0072FF"/>
<path d="M12.2354 42.6743V44.1283H10.7295V42.6743H12.2354Z" fill="white"/>
<path d="M18.0231 42.6781C17.7721 43.1324 17.394 43.5036 16.9351 43.7461C16.4182 44.0104 15.8436 44.1417 15.2632 44.128H12.9913V38.1143H15.2632C15.844 38.1002 16.4194 38.2286 16.9391 38.4883C17.3966 38.7258 17.7737 39.0932 18.0231 39.5443C18.2817 40.0243 18.4119 40.563 18.4011 41.1082C18.4114 41.6552 18.2812 42.1957 18.0231 42.6781V42.6781ZM16.4592 42.3761C16.6217 42.2093 16.7477 42.0103 16.829 41.792C16.9102 41.5736 16.945 41.3408 16.9312 41.1082C16.9451 40.8759 16.9104 40.6433 16.8291 40.4253C16.7478 40.2072 16.6218 40.0087 16.4592 39.8422C16.0948 39.5228 15.6189 39.3603 15.1352 39.3903H14.4473V42.8261H15.1352C15.6185 42.8557 16.094 42.6941 16.4592 42.3761Z" fill="white"/>
<path d="M23.6288 38.4165C24.0864 38.6763 24.4645 39.0559 24.7227 39.5144C24.9934 39.9986 25.1314 40.5457 25.1227 41.1003C25.1328 41.6564 24.9948 42.2052 24.7227 42.6903C24.4651 43.1509 24.086 43.532 23.6268 43.7922C23.1593 44.0592 22.6292 44.1972 22.0909 44.1922C21.5525 44.1972 21.0225 44.0592 20.555 43.7922C20.0958 43.532 19.7167 43.1509 19.459 42.6903C19.1869 42.2052 19.0489 41.6564 19.059 41.1003C19.0486 40.5455 19.1867 39.998 19.459 39.5144C19.718 39.0558 20.0968 38.6763 20.555 38.4165C21.0225 38.1495 21.5525 38.0115 22.0909 38.0165C22.6298 38.0118 23.1604 38.1498 23.6288 38.4165V38.4165ZM20.9489 39.8364C20.6539 40.1893 20.5038 40.641 20.529 41.1003C20.5037 41.5578 20.6539 42.0077 20.9489 42.3583C21.0926 42.5145 21.2688 42.6373 21.465 42.7182C21.6613 42.799 21.8728 42.8359 22.0849 42.8263C22.2962 42.835 22.5069 42.7977 22.7024 42.7169C22.8979 42.6361 23.0734 42.5137 23.2168 42.3583C23.5133 42.0083 23.6649 41.5584 23.6408 41.1003C23.6648 40.643 23.5147 40.1936 23.2208 39.8424C23.0772 39.6861 22.901 39.5632 22.7048 39.4823C22.5085 39.4015 22.2969 39.3646 22.0849 39.3744C21.8734 39.3647 21.6623 39.401 21.4662 39.4807C21.2701 39.5605 21.0936 39.6818 20.9489 39.8364V39.8364Z" fill="white"/>
<path d="M30.5865 38.6584C31.0937 39.0711 31.4387 39.6498 31.5604 40.2923H30.0205C29.9166 40.026 29.7347 39.7974 29.4985 39.6363C29.2496 39.4743 28.9575 39.3913 28.6606 39.3983C28.4645 39.3921 28.2696 39.431 28.091 39.5122C27.9124 39.5933 27.7549 39.7145 27.6306 39.8663C27.3523 40.2226 27.2104 40.6666 27.2306 41.1183C27.2103 41.5681 27.3522 42.0103 27.6306 42.3642C27.7559 42.5145 27.9137 42.6342 28.0922 42.7143C28.2707 42.7943 28.4651 42.8326 28.6606 42.8262C28.9576 42.8341 29.25 42.7511 29.4985 42.5882C29.7333 42.4301 29.9152 42.205 30.0205 41.9422H31.5604C31.4366 42.5828 31.092 43.1597 30.5865 43.5722C30.0425 43.9875 29.3704 44.1997 28.6866 44.1722C28.1477 44.1835 27.6158 44.0495 27.1466 43.7841C26.7076 43.5289 26.3514 43.1526 26.1207 42.7002C25.8722 42.2041 25.7479 41.655 25.7587 41.1003C25.748 40.5455 25.8723 39.9965 26.1207 39.5003C26.3514 39.0479 26.7076 38.6716 27.1466 38.4164C27.6158 38.1511 28.1477 38.017 28.6866 38.0284C29.374 38.0102 30.0461 38.2331 30.5865 38.6584Z" fill="white"/>
<path d="M36.0263 44.1282L34.7583 42.2563L33.6704 44.1282H32.0025L33.9264 41.0323L31.9445 38.1145H33.6704L34.9043 39.9264L35.9663 38.1145H37.6262L35.7283 41.1424L37.7522 44.1282H36.0263Z" fill="white"/>
</svg>
