<svg width="40" height="48" viewBox="0 0 40 48" fill="none" xmlns="http://www.w3.org/2000/svg">
<g opacity="0.3">
<path opacity="0.3" d="M27.934 9.848C26.8404 9.84747 25.7918 9.41281 25.0185 8.63953C24.2452 7.86624 23.8105 6.81759 23.81 5.724V0H5.38203C4.67509 -4.8812e-08 3.97508 0.139267 3.32197 0.409863C2.66887 0.680459 2.07543 1.07707 1.57564 1.57705C1.07584 2.07703 0.679484 2.67057 0.409131 3.32378C0.138778 3.97698 -0.000262335 4.67707 3.71577e-07 5.38401V37.826C-0.000262335 38.5329 0.138778 39.233 0.409131 39.8862C0.679484 40.5394 1.07584 41.133 1.57564 41.6329C2.07543 42.1329 2.66887 42.5295 3.32197 42.8001C3.97508 43.0707 4.67509 43.21 5.38203 43.21H27.502C28.2089 43.21 28.909 43.0707 29.5621 42.8001C30.2152 42.5295 30.8086 42.1329 31.3084 41.6329C31.8081 41.133 32.2045 40.5394 32.4749 39.8862C32.7453 39.233 32.8843 38.5329 32.884 37.826V9.85L27.934 9.848Z" fill="#00C650"/>
</g>
<path d="M32.884 9.848H27.934C26.8404 9.84747 25.7918 9.41281 25.0185 8.63953C24.2452 7.86624 23.8105 6.81759 23.81 5.724V0L32.884 9.848Z" fill="#00C650"/>
<path d="M36.788 34.1201H11.78C10.0061 34.1201 8.56799 35.5582 8.56799 37.3321V44.7881C8.56799 46.562 10.0061 48.0001 11.78 48.0001H36.788C38.562 48.0001 40 46.562 40 44.7881V37.3321C40 35.5582 38.562 34.1201 36.788 34.1201Z" fill="#00C650"/>
<path d="M16.844 42.6741V44.1301H15.338V42.6741H16.844Z" fill="white"/>
<path d="M21.314 38.116V42.224C21.314 42.8546 21.1427 43.3393 20.8 43.678C20.6087 43.8544 20.3839 43.9904 20.1389 44.078C19.8939 44.1656 19.6338 44.203 19.374 44.188C19.0895 44.2032 18.8048 44.162 18.5364 44.0665C18.2679 43.9711 18.021 43.8234 17.81 43.632C17.4247 43.26 17.2314 42.7266 17.23 42.032H18.668C18.668 42.594 18.882 42.874 19.306 42.874C19.676 42.874 19.86 42.658 19.86 42.228V38.12L21.314 38.116Z" fill="white"/>
<path d="M23.726 42.02V44.13H22.272V38.116H24.628C25.3414 38.116 25.8854 38.2926 26.26 38.646C26.4496 38.8318 26.5977 39.0556 26.6946 39.3028C26.7915 39.5499 26.8349 39.8148 26.822 40.08C26.8275 40.4294 26.7413 40.7742 26.572 41.08C26.3979 41.3781 26.1389 41.6176 25.828 41.768C25.4536 41.9457 25.0423 42.0321 24.628 42.02H23.726ZM25.342 40.08C25.342 39.5466 25.05 39.28 24.466 39.28H23.726V40.846H24.466C25.05 40.8513 25.342 40.596 25.342 40.08V40.08Z" fill="white"/>
<path d="M32.216 38.6001C32.7003 38.9642 33.0261 39.5005 33.126 40.0981H31.5861C31.4818 39.8888 31.3174 39.7154 31.114 39.6001C30.885 39.464 30.6224 39.3947 30.356 39.4001C30.1492 39.3917 29.9431 39.4288 29.7523 39.509C29.5615 39.5892 29.3907 39.7104 29.252 39.8641C28.9587 40.2139 28.8093 40.6622 28.834 41.1181C28.834 41.6901 28.98 42.1294 29.272 42.4361C29.4362 42.5953 29.6319 42.7185 29.8465 42.7977C30.061 42.8769 30.2898 42.9104 30.518 42.8961C30.8444 42.902 31.1638 42.8016 31.428 42.6101C31.6979 42.4086 31.8928 42.1228 31.982 41.7981H30.144V40.7521H33.198V42.1901C33.0813 42.5481 32.8966 42.8801 32.654 43.1681C32.3913 43.4784 32.0644 43.7281 31.696 43.9001C31.2795 44.0925 30.8248 44.1882 30.366 44.1801C29.808 44.1947 29.256 44.0615 28.766 43.7941C28.3178 43.542 27.9529 43.1646 27.716 42.7081C27.4615 42.2138 27.3343 41.6639 27.346 41.1081C27.336 40.5556 27.4632 40.0093 27.716 39.5181C27.9525 39.0626 28.3158 38.6854 28.762 38.4321C29.2449 38.1667 29.7892 38.0335 30.34 38.0461C31.0096 38.0169 31.6697 38.2118 32.216 38.6001V38.6001Z" fill="white"/>
<path d="M20.86 29.2821H12.026C11.1612 29.281 10.3321 28.937 9.72063 28.3255C9.10912 27.714 8.7651 26.8849 8.76404 26.0201V17.1861C8.7651 16.3213 9.10912 15.4922 9.72063 14.8807C10.3321 14.2691 11.1612 13.9251 12.026 13.9241H20.86C21.7247 13.9251 22.5535 14.2692 23.1647 14.8808C23.7759 15.4924 24.1195 16.3215 24.12 17.1861V26.0201C24.1195 26.8847 23.7759 27.7138 23.1647 28.3254C22.5535 28.9369 21.7247 29.281 20.86 29.2821ZM12.026 15.3661C11.5435 15.3666 11.0809 15.5585 10.7397 15.8997C10.3985 16.2409 10.2066 16.7036 10.206 17.1861V26.0201C10.2066 26.5026 10.3985 26.9652 10.7397 27.3064C11.0809 27.6476 11.5435 27.8395 12.026 27.8401H20.86C21.3424 27.8395 21.8048 27.6476 22.1457 27.3063C22.4866 26.965 22.6781 26.5024 22.6781 26.0201V17.1861C22.6781 16.7037 22.4866 16.2411 22.1457 15.8999C21.8048 15.5586 21.3424 15.3666 20.86 15.3661H12.026Z" fill="#00C650"/>
<path d="M23.4 24.34V26.02C23.3995 26.6935 23.1317 27.3393 22.6555 27.8155C22.1792 28.2917 21.5335 28.5595 20.86 28.5601H12.026C11.3524 28.5601 10.7063 28.2924 10.23 27.8161C9.75363 27.3397 9.48602 26.6937 9.48602 26.02V23.2C10.9 22.896 13.054 22.8 15.668 23.844L17.288 22.3L18.392 25.1C18.392 25.1 18.688 24.07 19.644 24.216C20.6 24.362 22.148 24.88 22.81 24.438C22.9884 24.3351 23.1979 24.3003 23.4 24.34V24.34Z" fill="#00C650"/>
<path d="M20.306 18.9899C20.8484 18.9899 21.288 18.5502 21.288 18.0079C21.288 17.4655 20.8484 17.0259 20.306 17.0259C19.7637 17.0259 19.324 17.4655 19.324 18.0079C19.324 18.5502 19.7637 18.9899 20.306 18.9899Z" fill="#00C650"/>
</svg>
