<svg width="40" height="48" viewBox="0 0 40 48" fill="none" xmlns="http://www.w3.org/2000/svg">
<g opacity="0.3">
<path opacity="0.3" d="M27.934 9.84959C26.8406 9.84853 25.7922 9.4137 25.0191 8.64056C24.2459 7.86742 23.8111 6.81912 23.81 5.72574V0H5.38199C3.9546 0 2.58568 0.567023 1.57635 1.5763C0.567034 2.58558 0 3.95442 0 5.38176V37.8244C0.00211967 39.2504 0.570084 40.6172 1.57917 41.6247C2.58827 42.6323 3.95598 43.1982 5.38199 43.1982H27.504C28.93 43.1982 30.2977 42.6323 31.3068 41.6247C32.3159 40.6172 32.8839 39.2504 32.886 37.8244V9.84959H27.934Z" fill="#FF3E4C"/>
</g>
<path d="M32.8861 9.84959H27.9341C26.8406 9.84853 25.7923 9.4137 25.0191 8.64056C24.2459 7.86742 23.8111 6.81912 23.8101 5.72574V0L32.8861 9.84959Z" fill="#FF3E4C"/>
<path d="M26.12 30.1669H5.47205C5.27313 30.1669 5.08236 30.0879 4.94171 29.9472C4.80106 29.8066 4.72205 29.6158 4.72205 29.4169C4.72258 29.2184 4.80182 29.0281 4.94242 28.8879C5.08301 28.7477 5.27348 28.6689 5.47205 28.6689H26.12C26.3184 28.6689 26.5087 28.7477 26.649 28.888C26.7892 29.0283 26.868 29.2185 26.868 29.4169C26.8683 29.5153 26.8492 29.6128 26.8117 29.7038C26.7742 29.7947 26.7192 29.8774 26.6497 29.9471C26.5802 30.0167 26.4976 30.072 26.4068 30.1098C26.3159 30.1475 26.2184 30.1669 26.12 30.1669Z" fill="#FF3E4C"/>
<path d="M26.12 21.7191H5.47205C5.27348 21.7191 5.08301 21.6404 4.94242 21.5001C4.80182 21.3599 4.72258 21.1697 4.72205 20.9712C4.72205 20.7723 4.80106 20.5815 4.94171 20.4408C5.08236 20.3002 5.27313 20.2212 5.47205 20.2212H26.12C26.2184 20.2212 26.3159 20.2406 26.4068 20.2783C26.4976 20.316 26.5802 20.3713 26.6497 20.441C26.7192 20.5106 26.7742 20.5933 26.8117 20.6843C26.8492 20.7753 26.8683 20.8728 26.868 20.9712C26.868 21.1695 26.7892 21.3598 26.649 21.5C26.5087 21.6403 26.3184 21.7191 26.12 21.7191Z" fill="#FF3E4C"/>
<path d="M26.12 25.943H5.47205C5.27313 25.943 5.08236 25.864 4.94171 25.7233C4.80106 25.5827 4.72205 25.3919 4.72205 25.193C4.72258 24.9945 4.80182 24.8042 4.94242 24.664C5.08301 24.5238 5.27348 24.4451 5.47205 24.4451H26.12C26.3184 24.4451 26.5087 24.5239 26.649 24.6642C26.7892 24.8044 26.868 24.9947 26.868 25.193C26.8683 25.2914 26.8492 25.3889 26.8117 25.4799C26.7742 25.5709 26.7192 25.6536 26.6497 25.7232C26.5802 25.7929 26.4976 25.8482 26.4068 25.8859C26.3159 25.9236 26.2184 25.943 26.12 25.943Z" fill="#FF3E4C"/>
<path d="M17.976 17.4953H5.47205C5.27348 17.4953 5.08301 17.4165 4.94242 17.2763C4.80182 17.1361 4.72258 16.9458 4.72205 16.7473C4.72205 16.5484 4.80106 16.3576 4.94171 16.217C5.08236 16.0763 5.27313 15.9973 5.47205 15.9973H17.976C18.1746 15.9978 18.3649 16.0771 18.5051 16.2177C18.6453 16.3583 18.724 16.5487 18.724 16.7473C18.7235 16.9455 18.6445 17.1354 18.5044 17.2756C18.3642 17.4157 18.1743 17.4947 17.976 17.4953V17.4953Z" fill="#FF3E4C"/>
<path d="M17.976 13.2714H5.47205C5.27348 13.2714 5.08301 13.1926 4.94242 13.0524C4.80182 12.9122 4.72258 12.722 4.72205 12.5234C4.72205 12.3245 4.80106 12.1337 4.94171 11.9931C5.08236 11.8524 5.27313 11.7734 5.47205 11.7734H17.976C18.1746 11.774 18.3649 11.8532 18.5051 11.9938C18.6453 12.1344 18.724 12.3248 18.724 12.5234C18.7235 12.7216 18.6445 12.9115 18.5044 13.0517C18.3642 13.1919 18.1743 13.2708 17.976 13.2714Z" fill="#FF3E4C"/>
<path d="M36.788 34.1206H11.78C10.0061 34.1206 8.56799 35.5586 8.56799 37.3325V44.7882C8.56799 46.562 10.0061 48 11.78 48H36.788C38.5619 48 40 46.562 40 44.7882V37.3325C40 35.5586 38.5619 34.1206 36.788 34.1206Z" fill="#FF3E4C"/>
<path d="M16.7719 42.6743V44.1283H15.2679V42.6743H16.7719Z" fill="white"/>
<path d="M18.984 42.0183V44.1282H17.53V38.1145H19.886C20.6 38.1145 21.146 38.2925 21.52 38.6465C21.7093 38.8324 21.857 39.0563 21.9535 39.3035C22.0501 39.5506 22.0932 39.8154 22.08 40.0804C22.0873 40.43 22.001 40.7753 21.83 41.0803C21.6554 41.3786 21.3966 41.6187 21.086 41.7704C20.7114 41.9474 20.3002 42.0331 19.886 42.0203L18.984 42.0183ZM20.6 40.0804C20.6 39.5471 20.308 39.2804 19.724 39.2804H18.984V40.8464H19.724C20.308 40.8517 20.6 40.5964 20.6 40.0804Z" fill="white"/>
<path d="M27.826 42.6782C27.5756 43.1329 27.1973 43.5042 26.738 43.7462C26.2212 44.0107 25.6465 44.142 25.066 44.1281H22.796V38.1144H25.066C25.6469 38.0998 26.2225 38.2282 26.742 38.4884C27.2001 38.7251 27.5774 39.0926 27.826 39.5443C28.0862 40.0238 28.2172 40.5628 28.206 41.1083C28.2169 41.6556 28.086 42.1964 27.826 42.6782V42.6782ZM26.262 42.3762C26.4246 42.2093 26.5506 42.0104 26.6318 41.792C26.7131 41.5737 26.7479 41.3408 26.734 41.1083C26.748 40.876 26.7132 40.6434 26.6319 40.4253C26.5507 40.2073 26.4247 40.0087 26.262 39.8423C25.8983 39.5231 25.4231 39.3607 24.94 39.3903H24.25V42.8262H24.94C25.4227 42.8555 25.8975 42.6939 26.262 42.3762V42.3762Z" fill="white"/>
<path d="M32.952 38.1145V39.2725H30.486V40.5904H32.39V41.6963H30.486V44.1282H29.03V38.1145H32.952Z" fill="white"/>
<path d="M25.7541 11.7734H22.218C21.6017 11.7734 21.1021 12.2731 21.1021 12.8894V16.4252C21.1021 17.0416 21.6017 17.5412 22.218 17.5412H25.7541C26.3704 17.5412 26.87 17.0416 26.87 16.4252V12.8894C26.87 12.2731 26.3704 11.7734 25.7541 11.7734Z" fill="#FF3E4C"/>
</svg>
