<svg width="40" height="48" viewBox="0 0 40 48" fill="none" xmlns="http://www.w3.org/2000/svg">
<g opacity="0.3">
<path opacity="0.3" d="M27.934 9.848C26.8406 9.84694 25.7922 9.41211 25.0191 8.63894C24.2459 7.86577 23.8111 6.81743 23.81 5.724V0H5.38199C3.9546 0 2.58568 0.567034 1.57635 1.57636C0.567034 2.58568 0 3.9546 0 5.38199V37.826C0.00211967 39.252 0.570084 40.6189 1.57917 41.6265C2.58827 42.6341 3.95598 43.2 5.38199 43.2H27.504C28.9304 43.2 30.2984 42.6338 31.3075 41.6258C32.3167 40.6177 32.8844 39.2504 32.886 37.824V9.848H27.934Z" fill="#005FAD"/>
</g>
<path d="M32.886 9.848H27.934C26.8406 9.84694 25.7922 9.41211 25.0191 8.63894C24.2459 7.86577 23.8111 6.81743 23.81 5.724V0L32.886 9.848Z" fill="#005FAD"/>
<path d="M36.788 34.1201H11.78C10.0061 34.1201 8.56799 35.5582 8.56799 37.3321V44.7881C8.56799 46.562 10.0061 48.0001 11.78 48.0001H36.788C38.5619 48.0001 40 46.562 40 44.7881V37.3321C40 35.5582 38.5619 34.1201 36.788 34.1201Z" fill="#005FAD"/>
<path d="M15.812 42.6741V44.1281H14.306V42.6741H15.812Z" fill="white"/>
<path d="M18.024 42.02V44.128H16.568V38.114H18.924C19.64 38.114 20.1847 38.2913 20.558 38.646C20.7475 38.8319 20.8955 39.0557 20.9924 39.3029C21.0893 39.55 21.1327 39.8149 21.12 40.08C21.1263 40.4298 21.0393 40.775 20.868 41.08C20.6943 41.3785 20.4352 41.6182 20.124 41.768C19.7498 41.9465 19.3384 42.0329 18.924 42.02H18.024ZM19.64 40.08C19.64 39.5467 19.348 39.28 18.764 39.28H18.024V40.846H18.764C19.348 40.8513 19.64 40.596 19.64 40.08V40.08Z" fill="white"/>
<path d="M27.176 44.128H25.722L23.286 40.436V44.128H21.832V38.114H23.286L25.72 41.84V38.114H27.174L27.176 44.128Z" fill="white"/>
<path d="M32.858 38.6C33.3433 38.9632 33.6694 39.5 33.768 40.098H32.228C32.127 39.8838 31.9648 39.7043 31.762 39.582C31.5328 39.4462 31.2703 39.3769 31.004 39.382C30.7971 39.3735 30.5908 39.4104 30.3997 39.4902C30.2086 39.5701 30.0373 39.6908 29.898 39.844C29.6058 40.1952 29.4572 40.6439 29.482 41.1C29.482 41.672 29.628 42.1114 29.92 42.4181C30.0841 42.5774 30.2797 42.7006 30.4943 42.7798C30.7089 42.8591 30.9377 42.8925 31.166 42.8781C31.4923 42.8837 31.8116 42.7833 32.076 42.5921C32.3453 42.3904 32.5396 42.1047 32.628 41.7801H30.792V40.734H33.846V42.2C33.7277 42.5577 33.5424 42.8897 33.3 43.1781C33.0382 43.4885 32.712 43.7383 32.344 43.91C31.9268 44.1027 31.4714 44.1984 31.012 44.1901C30.4538 44.2042 29.9017 44.0703 29.412 43.8021C28.9638 43.5508 28.5989 43.174 28.362 42.7181C28.1085 42.227 27.9813 41.6806 27.992 41.1281C27.98 40.5722 28.1072 40.0222 28.362 39.5281C28.5985 39.0732 28.9619 38.6967 29.408 38.444C29.8906 38.1782 30.4351 38.045 30.986 38.058C31.6529 38.0253 32.3117 38.2161 32.858 38.6V38.6Z" fill="white"/>
<path d="M10.9399 13.344H8.18994V16.094H10.9399V13.344Z" fill="#005FAD"/>
<path d="M13.692 16.094H10.942V18.844H13.692V16.094Z" fill="#005FAD"/>
<path d="M16.442 13.344H13.692V16.094H16.442V13.344Z" fill="#005FAD"/>
<path d="M19.192 16.094H16.442V18.844H19.192V16.094Z" fill="#005FAD"/>
<path d="M21.946 13.344H19.196V16.094H21.946V13.344Z" fill="#005FAD"/>
<path d="M24.696 16.094H21.946V18.844H24.696V16.094Z" fill="#005FAD"/>
<path d="M10.9399 18.8401H8.18994V21.5901H10.9399V18.8401Z" fill="#005FAD"/>
<path d="M13.692 21.5901H10.942V24.3401H13.692V21.5901Z" fill="#005FAD"/>
<path d="M16.442 18.8401H13.692V21.5901H16.442V18.8401Z" fill="#005FAD"/>
<path d="M19.192 21.5901H16.442V24.3401H19.192V21.5901Z" fill="#005FAD"/>
<path d="M21.946 18.8401H19.196V21.5901H21.946V18.8401Z" fill="#005FAD"/>
<path d="M24.696 21.5901H21.946V24.3401H24.696V21.5901Z" fill="#005FAD"/>
<path d="M10.9399 24.3621H8.18994V27.1121H10.9399V24.3621Z" fill="#005FAD"/>
<path d="M13.692 27.1121H10.942V29.8621H13.692V27.1121Z" fill="#005FAD"/>
<path d="M16.442 24.3621H13.692V27.1121H16.442V24.3621Z" fill="#005FAD"/>
<path d="M19.192 27.1121H16.442V29.8621H19.192V27.1121Z" fill="#005FAD"/>
<path d="M21.946 24.3621H19.196V27.1121H21.946V24.3621Z" fill="#005FAD"/>
<path d="M24.696 27.1121H21.946V29.8621H24.696V27.1121Z" fill="#005FAD"/>
</svg>
