<svg width="40" height="48" viewBox="0 0 40 48" fill="none" xmlns="http://www.w3.org/2000/svg">
<g opacity="0.3">
<path opacity="0.3" d="M27.934 9.84959C26.8406 9.84853 25.7922 9.4137 25.019 8.64056C24.2459 7.86742 23.8111 6.81912 23.81 5.72574V0H5.38198C3.95459 0 2.58569 0.567023 1.57637 1.5763C0.567046 2.58558 0 3.95442 0 5.38176V37.8244C0 39.2517 0.567046 40.6206 1.57637 41.6299C2.58569 42.6392 3.95459 43.2062 5.38198 43.2062H27.502C28.2089 43.2065 28.909 43.0674 29.5622 42.7971C30.2154 42.5268 30.809 42.1304 31.3089 41.6306C31.8089 41.1309 32.2055 40.5375 32.4761 39.8844C32.7467 39.2313 32.886 38.5313 32.886 37.8244V9.84959H27.934Z" fill="#FF3E4C"/>
</g>
<path d="M32.886 9.84959H27.934C26.8406 9.84853 25.7923 9.4137 25.0191 8.64056C24.2459 7.86742 23.8111 6.81912 23.8101 5.72574V0L32.886 9.84959Z" fill="#FF3E4C"/>
<path d="M36.788 34.1206H11.78C10.006 34.1206 8.56799 35.5586 8.56799 37.3325V44.7882C8.56799 46.562 10.006 48 11.78 48H36.788C38.5619 48 40 46.562 40 44.7882V37.3325C40 35.5586 38.5619 34.1206 36.788 34.1206Z" fill="#FF3E4C"/>
<path d="M17.36 42.6741V44.128H15.854V42.6741H17.36Z" fill="white"/>
<path d="M19.5719 42.0182V44.1281H18.1179V38.1144H20.4739C21.1886 38.1144 21.7326 38.2917 22.1059 38.6463C22.2954 38.8322 22.4435 39.0561 22.5403 39.3032C22.6372 39.5503 22.6807 39.8151 22.6679 40.0803C22.6742 40.4298 22.588 40.7748 22.4179 41.0802C22.2431 41.379 21.9834 41.6192 21.6719 41.7702C21.2976 41.948 20.8861 42.0337 20.4719 42.0202L19.5719 42.0182ZM21.1879 40.0803C21.1879 39.547 20.8959 39.2803 20.3119 39.2803H19.5719V40.8462H20.3119C20.8959 40.8516 21.1879 40.5962 21.1879 40.0803Z" fill="white"/>
<path d="M24.838 42.0182V44.1281H23.382V38.1144H25.738C26.454 38.1144 26.9987 38.2917 27.372 38.6463C27.5615 38.8322 27.7095 39.0561 27.8064 39.3032C27.9032 39.5503 27.9467 39.8151 27.934 40.0803C27.9405 40.4301 27.8535 40.7753 27.682 41.0802C27.5084 41.3793 27.2493 41.6197 26.938 41.7702C26.5636 41.948 26.1522 42.0337 25.738 42.0202L24.838 42.0182ZM26.454 40.0803C26.454 39.547 26.162 39.2803 25.578 39.2803H24.838V40.8462H25.578C26.162 40.8516 26.454 40.5962 26.454 40.0803Z" fill="white"/>
<path d="M32.97 38.1144V39.2723H31.336V44.1281H29.874V39.2723H28.256V38.1144H32.97Z" fill="white"/>
<path d="M14.9381 16.7453H6.20007C6.00151 16.7453 5.81103 16.6665 5.67043 16.5263C5.52984 16.3861 5.4506 16.1958 5.45007 15.9973C5.45007 15.7984 5.5291 15.6076 5.66975 15.467C5.8104 15.3263 6.00116 15.2473 6.20007 15.2473H14.9301C15.129 15.2473 15.3198 15.3263 15.4604 15.467C15.6011 15.6076 15.6801 15.7984 15.6801 15.9973C15.6795 16.1945 15.6014 16.3835 15.4625 16.5235C15.3237 16.6635 15.1352 16.7431 14.9381 16.7453V16.7453Z" fill="#FF3E4C"/>
<path d="M14.9381 21.2191H6.20007C6.00151 21.2191 5.81103 21.1404 5.67043 21.0001C5.52984 20.8599 5.4506 20.6697 5.45007 20.4712C5.45007 20.2723 5.5291 20.0815 5.66975 19.9408C5.8104 19.8002 6.00116 19.7212 6.20007 19.7212H14.9301C15.129 19.7212 15.3198 19.8002 15.4604 19.9408C15.6011 20.0815 15.6801 20.2723 15.6801 20.4712C15.6795 20.6683 15.6014 20.8574 15.4625 20.9974C15.3237 21.1373 15.1352 21.217 14.9381 21.2191V21.2191Z" fill="#FF3E4C"/>
<path d="M14.9381 25.6929H6.20007C6.00116 25.6929 5.8104 25.6139 5.66975 25.4732C5.5291 25.3326 5.45007 25.1418 5.45007 24.9429C5.45166 24.7451 5.53137 24.5558 5.67185 24.4165C5.81233 24.2771 6.0022 24.199 6.20007 24.199H14.9301C15.1286 24.199 15.3191 24.2777 15.4597 24.4179C15.6003 24.5581 15.6795 24.7484 15.6801 24.9469C15.679 25.1438 15.6007 25.3323 15.4618 25.4719C15.323 25.6114 15.1349 25.6908 14.9381 25.6929V25.6929Z" fill="#FF3E4C"/>
<path d="M14.9381 30.1666H6.20007C6.00116 30.1666 5.8104 30.0876 5.66975 29.947C5.5291 29.8063 5.45007 29.6156 5.45007 29.4167C5.4506 29.2181 5.52984 29.0279 5.67043 28.8876C5.81103 28.7474 6.00151 28.6687 6.20007 28.6687H14.9301C15.1286 28.6687 15.3191 28.7474 15.4597 28.8876C15.6003 29.0279 15.6795 29.2181 15.6801 29.4167C15.6801 29.6142 15.6022 29.8037 15.4633 29.9441C15.3243 30.0846 15.1356 30.1645 14.9381 30.1666V30.1666Z" fill="#FF3E4C"/>
<path d="M23.45 23.5989V16.9512C21.8304 17.0367 20.3053 17.7402 19.189 18.9167C18.0727 20.0932 17.4503 21.6531 17.45 23.2749C17.4497 24.1065 17.6133 24.9299 17.9314 25.6983C18.2495 26.4666 18.7159 27.1647 19.304 27.7527C19.892 28.3407 20.5901 28.8071 21.3585 29.1252C22.1268 29.4433 22.9503 29.6069 23.7819 29.6067C25.4037 29.6068 26.9637 28.9845 28.1401 27.8681C29.3164 26.7517 30.0194 25.2264 30.104 23.6069L23.45 23.5989Z" fill="#FF3E4C"/>
<path d="M24.662 16.4452V22.4449H30.662C30.5819 20.8797 29.924 19.3997 28.8156 18.2915C27.7073 17.1832 26.2273 16.5253 24.662 16.4452V16.4452Z" fill="#FF3E4C"/>
</svg>
