<svg width="33" height="44" viewBox="0 0 33 44" fill="none" xmlns="http://www.w3.org/2000/svg">
<g opacity="0.3">
<path opacity="0.3" d="M27.934 9.848C26.8406 9.84694 25.7922 9.41211 25.0191 8.63894C24.2459 7.86577 23.8111 6.81743 23.81 5.724V0H5.38199C3.9546 0 2.58568 0.567034 1.57635 1.57636C0.567034 2.58568 0 3.9546 0 5.38199V37.826C0.00211967 39.252 0.570084 40.6189 1.57917 41.6265C2.58827 42.6341 3.95598 43.2 5.38199 43.2H27.504C28.9304 43.2 30.2984 42.6338 31.3075 41.6258C32.3167 40.6177 32.8844 39.2504 32.886 37.824V9.848H27.934Z" fill="#7959FD"/>
<path d="M16 28.2C14.8091 28.2 13.8216 27.1687 13.8216 25.925V25.2881C13.8216 21.7695 16.2904 20.0404 17.2199 19.3731C18.2946 18.6147 18.6431 18.0991 18.6431 17.3104C18.6431 15.7938 17.4523 14.55 16 14.55C14.5477 14.55 13.3569 15.7938 13.3569 17.3104C13.3569 18.5541 12.3693 19.5854 11.1784 19.5854C9.98756 19.5854 9 18.5541 9 17.3104C9 13.2761 12.1369 10 16 10C19.8631 10 23 13.2761 23 17.3104C23 20.7684 20.5602 22.4974 19.6598 23.1344C18.527 23.9231 18.1784 24.4388 18.1784 25.2881V25.925C18.1784 27.199 17.1909 28.2 16 28.2Z" fill="#3200FF"/>
<path d="M15.713 36.0394C14.4431 36.0394 13.4453 35.0114 13.4453 33.7717C13.4453 32.532 14.4733 31.5039 15.713 31.5039C16.9527 31.5039 17.9808 32.532 17.9808 33.7717C17.9808 35.0114 16.983 36.0394 15.713 36.0394Z" fill="#3200FF"/>
</g>
<path d="M32.886 9.848H27.934C26.8406 9.84694 25.7922 9.41211 25.0191 8.63894C24.2459 7.86577 23.8111 6.81743 23.81 5.724V0L32.886 9.848Z" fill="#7959FD"/>
</svg>
