<svg width="40" height="48" viewBox="0 0 40 48" fill="none" xmlns="http://www.w3.org/2000/svg">
<g opacity="0.3">
<path opacity="0.3" d="M27.934 9.84959C26.8406 9.84853 25.7923 9.4137 25.0191 8.64056C24.2459 7.86742 23.8111 6.81912 23.81 5.72574V0H5.38203C3.95464 0 2.58569 0.567023 1.57637 1.5763C0.567046 2.58558 0 3.95442 0 5.38176V37.8244C0 39.2517 0.567046 40.6206 1.57637 41.6299C2.58569 42.6392 3.95464 43.2062 5.38203 43.2062H27.502C28.9294 43.2062 30.2983 42.6392 31.3077 41.6299C32.317 40.6206 32.884 39.2517 32.884 37.8244V9.84959H27.934Z" fill="#00C650"/>
</g>
<path d="M32.8841 9.84959H27.9341C26.8407 9.84853 25.7923 9.4137 25.0191 8.64056C24.246 7.86742 23.8111 6.81912 23.8101 5.72574V0L32.8841 9.84959Z" fill="#00C650"/>
<path d="M36.788 34.1206H11.78C10.0061 34.1206 8.56799 35.5586 8.56799 37.3325V44.7882C8.56799 46.562 10.0061 48 11.78 48H36.788C38.562 48 40 46.562 40 44.7882V37.3325C40 35.5586 38.562 34.1206 36.788 34.1206Z" fill="#00C650"/>
<path d="M17.486 42.6742V44.1281H15.98V42.6742H17.486Z" fill="white"/>
<path d="M21.892 44.1281L20.6261 42.2562L19.5361 44.1281H17.8701L19.792 41.0322L17.8101 38.1144H19.5361L20.7701 39.9263L21.8341 38.1144H23.492L21.596 41.1422L23.6201 44.1281H21.892Z" fill="white"/>
<path d="M28.26 43.3122C28.0874 43.5883 27.8397 43.8096 27.546 43.9501C27.1884 44.1176 26.7966 44.1991 26.402 44.1881C25.8066 44.213 25.2198 44.0393 24.734 43.6941C24.5191 43.5329 24.3433 43.3252 24.2197 43.0867C24.0961 42.8481 24.0278 42.5848 24.02 42.3162H25.568C25.579 42.5188 25.6653 42.7099 25.81 42.8522C25.954 42.9864 26.1452 43.0583 26.342 43.0522C26.4221 43.0569 26.5025 43.0457 26.5783 43.0193C26.6542 42.9928 26.7241 42.9517 26.784 42.8982C26.8373 42.8464 26.8793 42.7841 26.9072 42.7153C26.9351 42.6464 26.9483 42.5725 26.946 42.4982C26.9479 42.4277 26.9357 42.3575 26.9099 42.2919C26.8841 42.2263 26.8454 42.1665 26.796 42.1162C26.6901 42.0091 26.5645 41.9235 26.426 41.8642C26.2807 41.8002 26.0766 41.7222 25.814 41.6302C25.4952 41.5251 25.1839 41.3989 24.882 41.2522C24.6339 41.1244 24.421 40.9376 24.262 40.7083C24.0775 40.4306 23.9864 40.1013 24.002 39.7683C23.9947 39.4383 24.0898 39.1142 24.274 38.8403C24.4632 38.5727 24.7247 38.3646 25.028 38.2404C25.3775 38.0982 25.7528 38.0301 26.13 38.0404C26.7027 38.0088 27.2685 38.1778 27.73 38.5184C27.9264 38.6782 28.0873 38.8772 28.2024 39.1028C28.3174 39.3283 28.384 39.5755 28.398 39.8283H26.824C26.8064 39.6513 26.7304 39.4853 26.608 39.3563C26.5454 39.2964 26.4713 39.2499 26.3901 39.2196C26.309 39.1893 26.2225 39.176 26.136 39.1803C25.986 39.1735 25.8387 39.2219 25.722 39.3163C25.6681 39.3674 25.6262 39.4297 25.5992 39.4988C25.5723 39.568 25.5609 39.6423 25.566 39.7163C25.5629 39.8508 25.6132 39.9809 25.706 40.0783C25.8055 40.1822 25.9253 40.2646 26.058 40.3203C26.2 40.3823 26.404 40.4623 26.67 40.5583C26.9945 40.664 27.3107 40.7937 27.616 40.9462C27.8653 41.0808 28.0802 41.271 28.244 41.5022C28.4306 41.7843 28.523 42.1183 28.508 42.4562C28.5053 42.7588 28.4195 43.055 28.26 43.3122V43.3122Z" fill="white"/>
<path d="M30.766 43.0142H32.714V44.1281H29.314V38.1144H30.77L30.766 43.0142Z" fill="white"/>
<path d="M23.7781 30.1667H9.11406C7.84406 30.1667 6.81006 28.9027 6.81006 27.3468V16.7093C6.81006 15.1553 7.84406 13.8914 9.11406 13.8914H23.7841C25.0521 13.8914 26.0861 15.1553 26.0861 16.7093V27.3468C26.0801 28.9027 25.0461 30.1667 23.7781 30.1667ZM9.11406 15.3313C8.49206 15.3313 7.98809 15.9493 7.98809 16.7093V27.3468C7.98809 28.1068 8.49206 28.7247 9.11406 28.7247H23.7841C24.4041 28.7247 24.9081 28.1068 24.9081 27.3468V16.7093C24.9081 15.9493 24.4041 15.3313 23.7841 15.3313H9.11406Z" fill="#00C650"/>
<path d="M25.492 23.761H7.39404V25.2029H25.492V23.761Z" fill="#00C650"/>
<path d="M25.492 18.8173H7.39404V20.2592H25.492V18.8173Z" fill="#00C650"/>
<path d="M20.8561 14.6115H19.4141V29.4448H20.8561V14.6115Z" fill="#00C650"/>
<path d="M13.4701 14.6115H12.0281V29.4448H13.4701V14.6115Z" fill="#00C650"/>
</svg>
