<svg width="30" height="30" viewBox="0 0 30 30" fill="none" xmlns="http://www.w3.org/2000/svg">
<path opacity="0.4" d="M15 27.5C21.9036 27.5 27.5 21.9036 27.5 15C27.5 8.09644 21.9036 2.5 15 2.5C8.09644 2.5 2.5 8.09644 2.5 15C2.5 21.9036 8.09644 27.5 15 27.5Z" fill="white"/>
<path d="M16.3252 15L19.2002 12.125C19.5627 11.7625 19.5627 11.1625 19.2002 10.8C18.8377 10.4375 18.2377 10.4375 17.8752 10.8L15.0002 13.675L12.1252 10.8C11.7627 10.4375 11.1627 10.4375 10.8002 10.8C10.4377 11.1625 10.4377 11.7625 10.8002 12.125L13.6752 15L10.8002 17.875C10.4377 18.2375 10.4377 18.8375 10.8002 19.2C10.9877 19.3875 11.2252 19.475 11.4627 19.475C11.7002 19.475 11.9377 19.3875 12.1252 19.2L15.0002 16.325L17.8752 19.2C18.0627 19.3875 18.3002 19.475 18.5377 19.475C18.7752 19.475 19.0127 19.3875 19.2002 19.2C19.5627 18.8375 19.5627 18.2375 19.2002 17.875L16.3252 15Z" fill="white"/>
</svg>
