<svg width="24" height="24" viewBox="0 0 24 24" fill="none" xmlns="http://www.w3.org/2000/svg">
<path opacity="0.4" d="M21.6602 10.44L20.6802 14.62C19.8402 18.23 18.1802 19.69 15.0602 19.39C14.5602 19.35 14.0202 19.26 13.4402 19.12L11.7602 18.72C7.59018 17.73 6.30018 15.67 7.28018 11.49L8.26018 7.30001C8.46018 6.45001 8.70018 5.71001 9.00018 5.10001C10.1702 2.68001 12.1602 2.03001 15.5002 2.82001L17.1702 3.21001C21.3602 4.19001 22.6402 6.26001 21.6602 10.44Z" fill="#7959FD"/>
<path d="M15.0603 19.39C14.4403 19.81 13.6603 20.16 12.7103 20.47L11.1303 20.99C7.16034 22.27 5.07034 21.2 3.78034 17.23L2.50034 13.28C1.22034 9.31001 2.28034 7.21001 6.25034 5.93001L7.83034 5.41001C8.24034 5.28001 8.63034 5.17001 9.00034 5.10001C8.70034 5.71001 8.46034 6.45001 8.26034 7.30001L7.28034 11.49C6.30034 15.67 7.59034 17.73 11.7603 18.72L13.4403 19.12C14.0203 19.26 14.5603 19.35 15.0603 19.39Z" fill="#7959FD"/>
<path d="M17.4894 10.51C17.4294 10.51 17.3694 10.5 17.2994 10.49L12.4494 9.25999C12.0494 9.15999 11.8094 8.74999 11.9094 8.34999C12.0094 7.94999 12.4194 7.70999 12.8194 7.80999L17.6694 9.03999C18.0694 9.13999 18.3094 9.54999 18.2094 9.94999C18.1294 10.28 17.8194 10.51 17.4894 10.51Z" fill="#7959FD"/>
<path d="M14.5592 13.89C14.4992 13.89 14.4392 13.88 14.3692 13.87L11.4592 13.13C11.0592 13.03 10.8192 12.62 10.9192 12.22C11.0192 11.82 11.4292 11.58 11.8292 11.68L14.7392 12.42C15.1392 12.52 15.3792 12.93 15.2792 13.33C15.1992 13.67 14.8992 13.89 14.5592 13.89Z" fill="#7959FD"/>
</svg>
