<svg width="40" height="40" viewBox="0 0 40 40" fill="none" xmlns="http://www.w3.org/2000/svg">
<path opacity="0.4" d="M34.8504 18.5333C34.8504 26.6833 28.9337 34.3166 20.8504 36.55C20.3004 36.7 19.7004 36.7 19.1504 36.55C11.067 34.3166 5.15039 26.6833 5.15039 18.5333V11.2167C5.15039 9.84999 6.18375 8.29999 7.46708 7.78332L16.7504 3.98333C18.8337 3.13333 21.1837 3.13333 23.267 3.98333L32.5504 7.78332C33.8171 8.29999 34.8671 9.84999 34.8671 11.2167L34.8504 18.5333Z" fill="#7959FD"/>
<path d="M24.1663 17.5C24.1663 15.2 22.2997 13.3333 19.9997 13.3333C17.6997 13.3333 15.833 15.2 15.833 17.5C15.833 19.3666 17.0663 20.9166 18.7497 21.45V25.8333C18.7497 26.5166 19.3163 27.0833 19.9997 27.0833C20.683 27.0833 21.2497 26.5166 21.2497 25.8333V21.45C22.933 20.9166 24.1663 19.3666 24.1663 17.5Z" fill="#7959FD"/>
</svg>
